<svg width="207" height="90" viewBox="0 0 207 90" fill="none" xmlns="http://www.w3.org/2000/svg">
<path d="M58.56 55.04H67.56V65.48C67.56 66.4 67.24 67.2 66.6 67.88C66 68.56 65.12 68.9 63.96 68.9H58.56V89H42.36V68.9H7.2C6.04 68.9 4.98 68.54 4.02 67.82C3.1 67.1 2.52 66.2 2.28 65.12L0.36 55.94L40.8 1.58H58.56V55.04ZM42.36 32.24C42.36 30.84 42.4 29.34 42.48 27.74C42.6 26.1 42.76 24.42 42.96 22.7L19.86 55.04H42.36V32.24ZM136.809 45.26C136.809 52.9 135.989 59.52 134.349 65.12C132.709 70.72 130.429 75.36 127.509 79.04C124.629 82.72 121.189 85.46 117.189 87.26C113.229 89.06 108.929 89.96 104.289 89.96C99.6494 89.96 95.3494 89.06 91.3894 87.26C87.4694 85.46 84.0694 82.72 81.1894 79.04C78.3094 75.36 76.0494 70.72 74.4094 65.12C72.8094 59.52 72.0094 52.9 72.0094 45.26C72.0094 37.62 72.8094 31 74.4094 25.4C76.0494 19.8 78.3094 15.16 81.1894 11.48C84.0694 7.8 87.4694 5.08 91.3894 3.31999C95.3494 1.52 99.6494 0.619997 104.289 0.619997C108.929 0.619997 113.229 1.52 117.189 3.31999C121.189 5.08 124.629 7.8 127.509 11.48C130.429 15.16 132.709 19.8 134.349 25.4C135.989 31 136.809 37.62 136.809 45.26ZM117.609 45.26C117.609 39.22 117.229 34.28 116.469 30.44C115.709 26.56 114.689 23.52 113.409 21.32C112.169 19.12 110.749 17.62 109.149 16.82C107.549 15.98 105.929 15.56 104.289 15.56C102.649 15.56 101.029 15.98 99.4294 16.82C97.8694 17.62 96.4694 19.12 95.2294 21.32C94.0294 23.52 93.0494 26.56 92.2894 30.44C91.5694 34.28 91.2094 39.22 91.2094 45.26C91.2094 51.34 91.5694 56.3 92.2894 60.14C93.0494 63.98 94.0294 67.02 95.2294 69.26C96.4694 71.46 97.8694 72.98 99.4294 73.82C101.029 74.62 102.649 75.02 104.289 75.02C105.929 75.02 107.549 74.62 109.149 73.82C110.749 72.98 112.169 71.46 113.409 69.26C114.689 67.02 115.709 63.98 116.469 60.14C117.229 56.3 117.609 51.34 117.609 45.26ZM197.779 55.04H206.779V65.48C206.779 66.4 206.459 67.2 205.819 67.88C205.219 68.56 204.339 68.9 203.179 68.9H197.779V89H181.579V68.9H146.419C145.259 68.9 144.199 68.54 143.239 67.82C142.319 67.1 141.739 66.2 141.499 65.12L139.579 55.94L180.019 1.58H197.779V55.04ZM181.579 32.24C181.579 30.84 181.619 29.34 181.699 27.74C181.819 26.1 181.979 24.42 182.179 22.7L159.079 55.04H181.579V32.24Z" fill="url(#paint0_linear_8387_14681)"/>
<defs>
<linearGradient id="paint0_linear_8387_14681" x1="226" y1="50.2" x2="0.424394" y2="40.4156" gradientUnits="userSpaceOnUse">
<stop stop-color="#2C00AB"/>
<stop offset="1" stop-color="#00B5AD"/>
</linearGradient>
</defs>
</svg>
