<svg width="35" height="35" viewBox="0 0 35 35" fill="none" xmlns="http://www.w3.org/2000/svg">
<path fill-rule="evenodd" clip-rule="evenodd" d="M17.8064 33.4559C18.142 33.1921 18.4004 32.9633 18.6589 32.7587C19.3842 32.3658 19.8072 32.0208 20.6779 31.7749C23.2408 31.0519 24.231 31.2089 26.5653 29.4397C30.7383 26.2766 32.3188 22.2085 30.0343 16.3262C29.5435 15.0619 29.8297 13.4698 31.642 12.1532C30.6947 9.49 30.5756 8.64277 31.6115 5.91076C31.1334 5.56232 30.2274 4.5611 29.7489 4.21266C27.5424 4.59469 26.4887 4.47086 25.6947 4.03653C19.9436 0.889077 15.445 0.51285 9.13941 4.11152C8.35319 4.56001 7.69842 4.45034 5.48518 4.10752C5.01308 4.4645 3.82739 5.4038 3.35547 5.76078C4.40498 8.47444 4.30384 9.35872 3.40468 12.0382C5.24096 13.3224 5.49099 15.2035 5.02307 16.4765C2.84578 22.3987 4.49977 26.438 8.72959 29.5263C11.0954 31.2534 12.2004 31.1278 14.7761 31.8052C15.8423 32.0856 16.8693 32.9176 17.8064 33.4559Z" fill="#2C00AB"/>
<path fill-rule="evenodd" clip-rule="evenodd" d="M29.0191 13.9138L29.083 13.7322L29.1564 13.5511L29.2383 13.3719L29.3287 13.1942L29.428 13.0186L29.5363 12.845L29.653 12.674L29.7781 12.5051L29.9121 12.3389L30.0547 12.1757L30.2054 12.015L30.365 11.8574L30.4405 11.7879L30.3699 11.574L30.2992 11.3526L30.2337 11.1362L30.1723 10.9239L30.1209 10.7314L25.855 13.2456L27.2593 15.9794L21.0973 18.0548L20.3327 16.5L20.0919 16.6418L20.8569 18.1374L18.7205 18.8091L16.6935 18.6814L16.691 18.646L11.601 21.6458L11.8903 25.2589L11.2148 25.4461L9.40884 25.2865L11.2865 21.8309L6.09961 24.8879L6.1953 25.0755L6.37815 25.3969L6.57752 25.7128L6.79305 26.0235L7.02547 26.3302L7.27441 26.6323L7.53969 26.9299L7.82186 27.2235L8.12056 27.5133L8.43578 27.7991L8.76752 28.0804L9.11542 28.358L9.4822 28.6336L9.68266 28.7776L9.87749 28.9124L10.0649 29.0373L10.2457 29.1526L10.4197 29.2586L10.5876 29.3561L10.7496 29.4455L10.9078 29.5277L11.0619 29.604L11.2123 29.6735L11.3597 29.7378L11.5062 29.7974L11.6517 29.8531L11.7968 29.9049L11.9424 29.9532L12.0907 29.9993L12.2409 30.0432L12.3938 30.085L12.5507 30.1258L12.7123 30.1656L12.8788 30.2054L13.0502 30.2448L13.2279 30.2845L13.4124 30.325L13.6034 30.3668L13.8015 30.4104L14.0064 30.4565L14.2195 30.5048L14.4407 30.5565L14.6698 30.6116L14.9079 30.6707L15.1612 30.7359L15.287 30.7713L15.4161 30.8115L15.5432 30.8547L15.6683 30.9008L15.7905 30.9498L15.9107 31.0005L16.0291 31.0537L16.1459 31.1083L16.2608 31.165L16.3732 31.2227L16.484 31.2816L16.5937 31.3419L16.7015 31.4032L16.8072 31.4646L16.9112 31.5267L17.0149 31.5895L17.117 31.6523L17.2161 31.7144L17.3147 31.7769L17.4122 31.8394L17.5075 31.9007L17.6018 31.9614L17.6938 32.0213L17.7857 32.0805L17.8133 32.0987L17.8565 32.0629L17.9094 32.0197L17.9618 31.9772L18.015 31.934L18.14 31.8347L18.348 31.7201L18.4641 31.6542L18.5786 31.5875L18.694 31.5198L18.8107 31.4513L18.9298 31.3814L19.0537 31.3108L19.1828 31.2391L19.3178 31.1674L19.4597 31.0956L19.6082 31.0254L19.7649 30.9565L19.9294 30.8903L20.1024 30.8267L20.2837 30.7664L20.469 30.7107L20.7205 30.6411L20.9568 30.578L21.1841 30.5195L21.4029 30.4645L21.6128 30.4134L21.8145 30.3652L22.0085 30.3194L22.3716 30.2342L22.5476 30.1927L22.7135 30.1522L22.8746 30.1117L23.0298 30.0712L23.1802 30.03L23.3267 29.9875L23.47 29.9435L23.6103 29.8978L23.7494 29.8491L23.8874 29.7974L24.0258 29.742L24.1652 29.6824L24.3063 29.618L24.4499 29.5477L24.5977 29.4714L24.7499 29.3881L24.9073 29.2973L25.0704 29.198L25.2403 29.0898L25.4166 28.9725L25.6004 28.8452L25.7927 28.7064L25.991 28.5586L26.3523 28.2767L26.6953 27.9932L27.0216 27.7056L27.3319 27.4143L27.6252 27.1196L27.9017 26.821L28.1617 26.5184L28.4054 26.2119L28.6316 25.9013L28.8419 25.5868L29.0351 25.2672L29.2121 24.9427L29.3725 24.6137L29.5168 24.2785L29.6445 23.9373L29.7558 23.5898L29.8507 23.2352L29.9292 22.8728L29.9906 22.5022L30.0352 22.1223L30.0625 21.7335L30.0721 21.335L30.0636 20.9257L30.0367 20.5059L29.9906 20.075L29.9254 19.6323L29.8399 19.1784L29.7342 18.7125L29.6076 18.2344L29.4602 17.7439L29.2909 17.2413L29.0934 16.7091L29.0409 16.5668L28.9881 16.4032L28.942 16.2369L28.9026 16.0683L28.8691 15.8971L28.8435 15.7228L28.825 15.547L28.8139 15.3696L28.8107 15.1904L28.8152 15.0094L28.8279 14.8276L28.8492 14.645L28.8786 14.4621L28.9169 14.2787L28.9634 14.0957L29.0191 13.9138V13.9138ZM23.3488 14.7225L21.7675 15.6544L25.204 15.2031L24.7869 13.9219L23.4527 14.7746L23.3488 14.7225V14.7225ZM16.6772 18.8973L18.7437 19.0517C19.6843 18.7822 20.132 18.6073 20.9811 18.364L21.1244 18.9055V18.9122L23.4959 19.7932L23.525 20.4567L21.1155 19.5615L21.1106 19.9161L23.5533 20.8237L23.5824 21.4871L21.1013 20.5655L21.0968 20.8945L23.558 21.8091L23.5871 22.4722L21.0879 21.5438L21.0613 21.8519L23.5197 22.7654L23.5488 23.4286L21.0525 22.5012L20.7016 24.0957L18.5707 24.1585L17.8638 23.1346L15.8772 24.3666L15.6429 23.8268L17.6157 22.5795L17.4592 22.2283L15.4837 23.46L15.2502 22.9212L17.2116 21.6729L17.0776 21.3775L15.1124 22.6053L14.8788 22.0669L16.8301 20.8222L16.6852 20.4928L14.7305 21.723L14.4592 21.0975L16.5967 19.8364L16.6772 18.8973V18.8973ZM18.5618 24.3344L20.674 24.2869L19.5477 26.5219L17.5237 25.4573L18.5618 24.3344V24.3344ZM17.4262 25.5848L19.4361 26.6626L16.4571 28.6287L16.0335 26.9984L17.4262 25.5848V25.5848ZM15.8512 27.0512L16.2231 28.6589L12.9676 28.2436L13.6013 26.9176L15.8512 27.0512ZM13.4153 26.8996L12.7475 28.1951L11.3365 25.6569L11.9949 25.441L13.4153 26.8996Z" fill="#F6F6F6"/>
<path fill-rule="evenodd" clip-rule="evenodd" d="M28.5614 10.391L28.376 10.4126L28.1952 10.4313L28.0199 10.4471C27.272 10.5049 26.551 10.5038 25.8165 10.3377L25.6927 10.3057L25.571 10.2708C22.8396 9.392 21.148 7.82463 18.0586 7.54337L17.7167 7.52394C13.5495 7.42244 10.6184 10.4987 7.44966 10.4497L7.32437 10.4451L7.19691 10.4381L7.06545 10.4284L6.93271 10.4165L6.79707 10.4027L6.6569 10.3869L6.51254 10.3691L6.36401 10.3498L6.20986 10.3289L6.04989 10.3062L5.88356 10.2819L5.71106 10.2559L5.53167 10.2287L5.18667 10.159L5.14636 10.3562L5.09915 10.5646L5.04668 10.7762L4.98948 10.9906L4.92756 11.209L4.86129 11.432L4.79102 11.6592L4.89106 11.7525L5.05521 11.9194L5.21009 12.0899L5.35536 12.2647L5.49136 12.4432L5.61737 12.6246L5.73376 12.8084L5.84071 12.9945L5.93858 13.1826L6.02701 13.3725L6.10636 13.5635L6.17626 13.7553L6.238 13.9479L6.29048 14.141L6.3346 14.3331L6.37019 14.5246L6.39797 14.716L6.4174 14.9065L6.4292 15.0946L6.43356 15.2816L6.43065 15.4676L6.42012 15.651L6.40305 15.8313L6.3789 16.0099L6.34822 16.1859L6.31081 16.3589L6.26705 16.5289L6.21694 16.6956L6.16719 16.8403L5.97798 17.3772L5.81801 17.8827L5.67911 18.3757L5.56145 18.856L5.46412 19.3237L5.38695 19.7791L5.32957 20.2227L5.29144 20.6543L5.27201 21.0745L5.27092 21.4837L5.28763 21.8823L5.32195 22.2703L5.37333 22.6495L5.4416 23.0186L5.52658 23.3796L5.62827 23.7324L5.74575 24.0785L5.87957 24.4167L5.95892 24.5923L16.0175 18.6642L9.40778 18.7851L9.44592 13.0804L15.2086 9.5064L13.431 13.4107L15.4548 13.466L12.408 16.4154L10.9352 15.7581L11.0113 17.4874L16.3015 16.6137L16.3685 18.4574L16.6656 18.2825L16.5118 16.1628L17.5299 16.3348L18.8926 16.1305L19.5941 15.6666L19.9438 16.3504L20.1889 16.206L20.0297 15.883L20.9397 15.7635L23.0019 14.5481L19.0976 12.5843L21.3875 12.1227L18.2219 9.08532L24.576 10.7553L25.7059 12.9544L30.0418 10.399L30.0202 10.3037L29.9997 10.2095C29.6509 10.2398 28.938 10.3438 28.5614 10.391V10.391Z" fill="#F6F6F6"/>
<path fill-rule="evenodd" clip-rule="evenodd" d="M29.9381 9.71738C29.8451 9.02521 29.8583 8.47522 29.9735 7.78051L30.015 7.56842L30.063 7.35362L30.1173 7.13609L30.1783 6.91438L30.2449 6.68832L30.3179 6.45717L30.3967 6.21985L30.4071 6.19062L30.3964 6.18063L30.2643 6.05407L30.1327 5.92661L30.0025 5.79968L29.8738 5.67476L29.7489 5.55365L29.6283 5.43871L29.5159 5.33267L29.5152 5.33212L29.4109 5.34792L29.2148 5.37516L29.0244 5.39949L28.839 5.4211L28.6585 5.43998L28.4833 5.45578L28.3124 5.46903L28.145 5.47938L27.9816 5.48701L27.8227 5.49155L27.6674 5.49355L27.5153 5.49228L27.3668 5.48846L27.222 5.48138L27.0795 5.47158L26.9395 5.4585L26.8026 5.44252L26.669 5.42346L26.5366 5.40112L26.4075 5.37552L26.2802 5.34665L26.1564 5.31469L26.0347 5.27983L25.9156 5.24152L25.7985 5.2003L25.6853 5.15618L25.5744 5.10951L25.4647 5.05922L25.3594 5.0071L25.2654 4.95717L25.1087 4.87183L24.9598 4.79121L24.812 4.71168L24.6654 4.63324L24.5196 4.55643L24.3742 4.48035L24.2295 4.40572L24.0862 4.33254L23.9433 4.26064L23.8004 4.18983L23.6579 4.12028L23.5157 4.05201L23.3742 3.98537L23.2328 3.92L23.091 3.85572L22.9503 3.79326L22.8092 3.73243L22.6674 3.6727L22.5252 3.61441L22.3837 3.55776L22.2412 3.50238L22.0979 3.44845L21.9547 3.39615L21.811 3.34549L21.6663 3.29629L21.5202 3.24835L21.3736 3.20223C18.6454 2.37733 16.5392 2.33175 13.753 3.21022C13.1854 3.4033 12.6255 3.61876 12.0749 3.85609L11.7424 4.00571L11.4118 4.16114L11.0828 4.3222L10.7552 4.48888L10.4293 4.66065L10.1052 4.83733L9.77342 5.02399L9.68027 5.07538L9.57459 5.1293L9.46692 5.1796L9.35688 5.22645L9.24304 5.27003L9.12701 5.30888L9.00971 5.3432L8.89096 5.3728L8.77112 5.39804L8.65055 5.41856L8.52835 5.4349L8.40669 5.4467L8.28449 5.45487L8.1612 5.45923L8.03773 5.4605L7.91335 5.4585L7.78824 5.45396L7.6606 5.44688L7.52932 5.43726L7.39658 5.42527L7.26094 5.41166L7.12077 5.39604L6.97623 5.37825L6.8277 5.359L6.67391 5.33812L6.51394 5.31524L6.34761 5.29091L6.17512 5.26494L5.99554 5.2377L5.87951 5.21973L5.79435 5.28582L5.6529 5.39604L5.50492 5.51152L5.35239 5.63082L5.19696 5.75084L5.04171 5.87232L4.8881 5.99234L4.76953 6.08494L4.84144 6.2963L4.91588 6.52708L4.98415 6.75242L5.04625 6.9734L5.10236 7.19093L5.15211 7.40609L5.19551 7.61818L5.23219 7.82862L5.26233 8.0378L5.28521 8.24589L5.30137 8.45288L5.31045 8.65897L5.31263 8.86452C5.30555 9.15032 5.34005 9.38637 5.27359 9.7054L5.52834 9.72701L5.70774 9.75424L5.88024 9.78021L6.04656 9.80454L6.20653 9.82742L6.36032 9.8483L6.50885 9.86773L6.65321 9.88534L6.79338 9.90114L6.92902 9.91476L7.06176 9.92674L7.19303 9.93637L7.32068 9.94345L7.44597 9.94799C10.6147 9.99701 13.546 6.92056 17.713 7.02224L18.055 7.04167C21.1443 7.32311 22.8359 8.89048 25.5677 9.76932L25.6893 9.80418L25.8132 9.83614C26.5473 10.0023 27.2683 10.0034 28.0162 9.94563L28.1915 9.92983L28.3723 9.91095L28.5577 9.88934C28.9131 9.84485 29.5798 9.73373 29.9381 9.71738V9.71738Z" fill="#2C00AB"/>
<path fill-rule="evenodd" clip-rule="evenodd" d="M24.5696 5.63824L25.3697 5.93821L25.0577 6.92526L25.9322 7.25337L26.2443 6.2665L27.048 6.56792L26.1564 9.38817L25.3528 9.08675L25.7134 7.94627L24.8389 7.61816L24.4783 8.75864L23.6786 8.45868L24.5696 5.63824V5.63824ZM21.6029 4.16983L23.9871 5.21917L23.7338 5.90226L22.9334 5.55018L22.161 7.6325L21.377 7.28714L22.149 5.205L21.3494 4.85311L21.6029 4.16983V4.16983ZM18.9734 4.75814L19.3262 4.81897C19.3638 4.82551 19.4394 4.82514 19.5528 4.81734C19.6102 4.81461 19.66 4.79155 19.7025 4.74834C19.7442 4.70476 19.7702 4.65101 19.7795 4.58655C19.7933 4.49122 19.7762 4.41369 19.7281 4.35341C19.6801 4.2924 19.5803 4.24918 19.4277 4.22285L19.0608 4.15948L18.9734 4.75814V4.75814ZM17.8794 6.36582L18.3078 3.41992L19.7005 3.66015C19.9587 3.70482 20.153 3.76274 20.2817 3.83501C20.4115 3.90655 20.5087 4.01477 20.5735 4.16039C20.638 4.30511 20.6565 4.47143 20.6296 4.65864C20.6058 4.82242 20.553 4.95751 20.4722 5.06537C20.3927 5.17122 20.2874 5.25498 20.1664 5.30868C20.0876 5.34282 19.9845 5.36515 19.8561 5.37387C19.9505 5.42725 20.0175 5.47628 20.0582 5.52058C20.0847 5.54982 20.1221 5.60883 20.1691 5.69798C20.216 5.78768 20.2465 5.85468 20.2595 5.90135L20.5397 6.82503L19.595 6.66216L19.2798 5.68455C19.24 5.5589 19.2006 5.4741 19.161 5.43125C19.1092 5.37645 19.0408 5.3402 18.9664 5.32811L18.8926 5.3154L18.7189 6.5109L17.8794 6.36582V6.36582ZM16.2182 5.34627L15.7652 4.33888L15.6217 5.44922L16.2182 5.34627V5.34627ZM16.4858 5.95346L15.5338 6.11761L15.4734 6.62657L14.6194 6.77401L15.2074 3.6527L16.1185 3.49546L17.5639 6.26596L16.6892 6.41685L16.4858 5.95346V5.95346ZM12.5714 6.9574L12.977 6.7967C13.1143 6.74223 13.2018 6.67795 13.24 6.60314C13.2786 6.52797 13.283 6.44553 13.2532 6.3562C13.2256 6.27322 13.1757 6.21766 13.1032 6.18951C13.0308 6.16155 12.9251 6.17444 12.7855 6.22982L12.3817 6.38997L12.5714 6.9574V6.9574ZM12.2035 5.8565L12.5493 5.71941C12.6733 5.6702 12.7517 5.61264 12.7853 5.54673C12.8182 5.48064 12.8196 5.40383 12.7904 5.31631C12.7632 5.23478 12.7179 5.18031 12.654 5.1538C12.5896 5.12692 12.4973 5.13764 12.3769 5.18539L12.0258 5.32466L12.2035 5.8565ZM11.0342 5.07517L12.5227 4.48505C12.7708 4.38664 12.9838 4.37847 13.1608 4.45963C13.3386 4.54061 13.4604 4.68006 13.5261 4.87707C13.5815 5.04285 13.5821 5.20373 13.5269 5.36007C13.4895 5.46429 13.4185 5.56362 13.3121 5.65731C13.5125 5.63243 13.6767 5.66203 13.8034 5.74483C13.9298 5.82854 14.0229 5.95927 14.0825 6.1374C14.1303 6.27511 14.1434 6.42248 14.1206 6.56646C14.0988 6.70351 14.043 6.83289 13.9581 6.94269C13.9055 7.01078 13.815 7.08142 13.6867 7.15386C13.516 7.25028 13.4018 7.31038 13.3429 7.33381L11.9704 7.87799L11.0342 5.07517V5.07517ZM9.85066 7.64848L9.24401 6.74187L9.27996 7.86238L9.85066 7.64848ZM10.2111 8.19539L9.29958 8.5373L9.32136 9.04971L8.50391 9.35639L8.58543 6.17135L9.45773 5.84415L11.3227 8.29907L10.4855 8.6132L10.2111 8.19539Z" fill="#F6F6F6"/>
</svg>
