<svg width="15" height="16" viewBox="0 0 15 16" fill="none" xmlns="http://www.w3.org/2000/svg">
<path fill-rule="evenodd" clip-rule="evenodd" d="M4.54541 4.81818C4.54541 3.26174 5.80715 2 7.36359 2C8.92003 2 10.1818 3.26174 10.1818 4.81818C10.1818 6.37236 8.92369 7.6327 7.37036 7.63636C7.36812 7.63635 7.36588 7.63635 7.36364 7.63635C7.36137 7.63635 7.35911 7.63635 7.35685 7.63636C5.80351 7.63272 4.54541 6.37237 4.54541 4.81818ZM4.12451 8.38519C3.15445 7.50379 2.54541 6.23211 2.54541 4.81818C2.54541 2.15717 4.70258 0 7.36359 0C10.0246 0 12.1818 2.15717 12.1818 4.81818C12.1818 6.2321 11.5727 7.50376 10.6027 8.38516C13.0456 9.58361 14.7273 12.0954 14.7273 15C14.7273 15.5523 14.2796 16 13.7273 16C13.175 16 12.7273 15.5523 12.7273 15C12.7273 12.0397 10.329 9.6395 7.36945 9.63636C7.3675 9.63636 7.36554 9.63636 7.36359 9.63636C7.36103 9.63636 7.35847 9.63636 7.35591 9.63636C4.39721 9.64053 2 12.0403 2 15C2 15.5523 1.55228 16 1 16C0.447715 16 0 15.5523 0 15C0 12.0954 1.68169 9.58365 4.12451 8.38519Z" fill="#6D6D6D"/>
</svg>
