<svg width="42" height="26" viewBox="0 0 42 26" fill="none" xmlns="http://www.w3.org/2000/svg">
<g clip-path="url(#clip0_7316_15098)">
<path fill-rule="evenodd" clip-rule="evenodd" d="M39.8758 0H29.1095C28.113 0 27.3047 0.802888 27.3047 1.79391V3.95945C27.3047 4.94989 28.113 5.75278 29.1095 5.75278H39.8758C40.8729 5.75278 41.6806 4.94989 41.6806 3.95945V1.79391C41.6806 0.802888 40.8729 0 39.8758 0Z" fill="#2C00AB"/>
<path fill-rule="evenodd" clip-rule="evenodd" d="M39.8758 11.5059H29.1095C28.113 11.5059 27.3047 12.3093 27.3047 13.2998V15.4653C27.3047 16.4557 28.113 17.2586 29.1095 17.2586H39.8758C40.8729 17.2586 41.6806 16.4557 41.6806 15.4653V13.2998C41.6806 12.3093 40.8729 11.5059 39.8758 11.5059" fill="#2C00AB"/>
<path fill-rule="evenodd" clip-rule="evenodd" d="M25.501 5.75326H16.1801C15.1831 5.75326 14.3753 4.9498 14.3753 3.95936V1.79382C14.3753 0.803376 13.5676 0.000488281 12.5711 0.000488281H1.80478C0.807754 0.000488281 0 0.803376 0 1.79382V3.95936C0 4.9498 0.807754 5.75326 1.80478 5.75326H12.5706H12.5711H12.5716C13.5681 5.75326 14.3752 6.55615 14.3752 7.54659V9.71213C14.3752 10.7031 13.5675 11.506 12.571 11.506H1.80478C0.807754 11.506 0 12.3095 0 13.2999V15.4655C0 16.4559 0.807754 17.2582 1.80478 17.2582H12.5711C13.5676 17.2582 14.3753 16.4559 14.3753 15.4655V13.2999C14.3753 12.3095 15.1831 11.506 16.1801 11.506H25.501C26.4975 11.506 27.3052 10.7026 27.3052 9.71213V7.54659C27.3052 6.55615 26.4975 5.75326 25.501 5.75326Z" fill="#2C00AB"/>
<path fill-rule="evenodd" clip-rule="evenodd" d="M24.4347 21.8203H20.1402C19.1793 21.8203 18.852 22.3251 18.852 22.9589V25.3757C18.852 25.3757 18.8439 25.4272 18.8951 25.4272H19.7413C19.7891 25.4272 19.785 25.385 19.7844 25.3786V24.49H23.8837C23.8989 24.49 23.9303 24.4854 23.9303 24.4495V23.6918C23.9303 23.6547 23.896 23.6513 23.882 23.6513H19.7844V22.8785C19.7844 22.7164 19.8578 22.6597 20.0366 22.6597H24.5523C24.7317 22.6597 24.7899 22.7164 24.7899 22.8785V25.3827H24.7904C24.7904 25.3971 24.7945 25.4272 24.8341 25.4272H25.6791C25.7182 25.4272 25.7222 25.3971 25.7222 25.3827V22.9589C25.7222 22.3251 25.3955 21.8203 24.4346 21.8203" fill="#2C00AB"/>
<path fill-rule="evenodd" clip-rule="evenodd" d="M5.58255 21.8203H1.28811C0.327196 21.8203 0.000483338 22.3251 0.000483338 22.9589V25.3757C0.000483338 25.3757 -0.00766991 25.4272 0.0429967 25.4272H0.889187C0.936359 25.4272 0.933448 25.3856 0.932283 25.3792V24.49H5.03162C5.04676 24.49 5.07821 24.4854 5.07821 24.4495V23.6918C5.07821 23.6547 5.04385 23.6513 5.02987 23.6513H0.932283V22.8785C0.932283 22.7164 1.00566 22.6597 1.18503 22.6597L3.43824 22.6591L5.70018 22.6597C5.88014 22.6597 5.93838 22.7164 5.93838 22.8785V25.3827C5.93838 25.3971 5.94301 25.4272 5.98205 25.4272H6.82708C6.86668 25.4272 6.87017 25.3971 6.87075 25.3827V22.9589C6.87075 22.3251 6.54346 21.8203 5.58254 21.8203" fill="#2C00AB"/>
<path fill-rule="evenodd" clip-rule="evenodd" d="M9.0118 21.8203H9.01236H8.16617H8.16672C8.12596 21.8203 8.12305 21.8527 8.12305 21.8666V25.3827C8.12305 25.3971 8.12712 25.4272 8.16672 25.4272H9.01175C9.05135 25.4272 9.05484 25.396 9.05484 25.3815V21.8649C9.05484 21.851 9.05077 21.8203 9.01175 21.8203" fill="#2C00AB"/>
<path fill-rule="evenodd" clip-rule="evenodd" d="M40.9465 23.2137C40.9302 23.2137 36.0208 23.2142 36.0208 23.2142C35.9288 23.2142 35.8875 23.1795 35.8875 23.099C35.8875 23.04 35.8869 22.9462 35.8869 22.7882C35.8869 22.6984 35.9376 22.6608 36.0395 22.6608C36.1036 22.6608 41.2302 22.6591 41.7567 22.6591C41.7712 22.6591 41.8033 22.6544 41.8033 22.6186V21.8614C41.8033 21.8238 41.7689 21.8203 41.7549 21.8203H35.9346C35.3208 21.8203 34.9551 22.1896 34.9551 22.6759V23.1806C34.9551 23.7607 35.2364 24.053 36.1029 24.053C36.1029 24.053 40.8423 24.0525 40.95 24.0525C41.0368 24.0525 41.0688 24.0994 41.0688 24.1549V24.4774C41.0688 24.5549 41.031 24.5885 40.9174 24.5885H35.1007C35.0861 24.5885 35.0535 24.5931 35.0535 24.6296V25.3868V25.3862C35.0535 25.4244 35.0873 25.4273 35.1024 25.4273H40.872C41.5091 25.4273 42.0001 25.1877 42.0001 24.5312V24.0583C42.0001 23.5339 41.6273 23.2138 40.9465 23.2138" fill="#2C00AB"/>
<path fill-rule="evenodd" clip-rule="evenodd" d="M33.8028 21.8204H33.8033H32.9571H32.9577C32.9175 21.8204 32.9146 21.8522 32.9146 21.8661V23.3822C32.9146 23.5448 32.8558 23.6114 32.6473 23.6114H28.0488C27.8398 23.6114 27.7815 23.5448 27.7815 23.3822V21.8649V21.8655C27.7815 21.851 27.7769 21.8203 27.7378 21.8203H27.7384H26.8922H26.8927C26.8531 21.8203 26.8496 21.8516 26.8496 21.8655V23.3045C26.8496 23.9384 27.1763 24.4432 28.1367 24.4432H29.882V25.3832C29.882 25.3977 29.8861 25.4272 29.9251 25.4272H30.7707C30.8098 25.4272 30.8138 25.3965 30.8138 25.3821V24.4432H32.558C33.5195 24.4432 33.8457 23.9384 33.8457 23.3045V21.8655C33.8457 21.851 33.8416 21.8203 33.8026 21.8203" fill="#2C00AB"/>
<path fill-rule="evenodd" clip-rule="evenodd" d="M13.5724 23.9133H14.4163C14.4553 23.9133 14.4588 23.8838 14.4588 23.8699V21.8717C14.4583 21.856 14.4536 21.8306 14.4169 21.8306H13.5713H13.5718C13.5345 21.8306 13.5299 21.8572 13.5293 21.8728V23.8688C13.5293 23.8827 13.5339 23.9133 13.5724 23.9133" fill="#2C00AB"/>
<path fill-rule="evenodd" clip-rule="evenodd" d="M17.6404 21.8311H17.641H16.7948H16.7953C16.7545 21.8311 16.7516 21.8635 16.7516 21.8768V24.3595C16.7516 24.521 16.6928 24.5888 16.4843 24.5888H11.5044C11.2948 24.5888 11.2371 24.521 11.2371 24.3595V21.875C11.2366 21.8606 11.2319 21.8311 11.1934 21.8311H11.194H10.3484C10.3082 21.8311 10.3047 21.8635 10.3047 21.8768V24.2889C10.3047 24.9228 10.6314 25.4276 11.5923 25.4276H16.3952C17.3567 25.4276 17.6834 24.9228 17.6834 24.2889V21.8739C17.6829 21.8594 17.6781 21.8311 17.6403 21.8311" fill="#2C00AB"/>
</g>
<defs>
<clipPath id="clip0_7316_15098">
<rect width="42" height="25.4275" fill="white"/>
</clipPath>
</defs>
</svg>
