<svg width="37" height="37" viewBox="0 0 37 37" fill="none" xmlns="http://www.w3.org/2000/svg">
<path fill-rule="evenodd" clip-rule="evenodd" d="M36.2122 16.9555L36.004 15.4155L35.6709 13.8984L35.204 12.4276L34.6119 10.9893L33.895 9.61575L33.6594 9.24572L33.058 8.30691L32.1145 7.07659L31.0696 5.92973L30.912 5.78634L29.9224 4.88432L28.6921 3.94077L27.3834 3.10361L26.0095 2.3867L24.5716 1.79477L23.383 1.41565L23.1006 1.32784L21.5837 0.994799L20.0432 0.786548L18.5404 0.72168H18.4989L16.945 0.786548L15.4095 0.994799L13.8972 1.32784L12.4173 1.79497L10.9834 2.38689L10.0075 2.89575L9.6052 3.10381L8.29617 3.94096L7.06604 4.87977L6.76089 5.16199L6.07641 5.78634L5.91918 5.92973L4.87852 7.07659L3.93042 8.30691L3.48188 9.00523L3.09346 9.61575L2.37655 10.9893L1.78462 12.4276L1.3169 13.8984L0.983859 15.4155L0.775608 16.9555L0.710938 18.5003L0.775608 20.0544L0.983859 21.5899L1.3169 23.102L1.78403 24.5821L2.37595 26.0157L3.09287 27.3942L3.48128 27.9998L3.92982 28.7028L4.86863 29.9331L5.91859 31.0802L6.07581 31.219L6.76029 31.8432L7.06545 32.1209L8.29557 33.0688L9.6046 33.9059L10.0069 34.1142L10.9829 34.6228L12.4167 35.2148L13.892 35.6819L15.4091 36.0149L16.9446 36.223L18.4939 36.2879L18.54 36.2833L20.0428 36.223L21.5833 36.0149L23.0909 35.6819L23.3826 35.5893L24.5712 35.2146L26.0091 34.6226L27.383 33.9057L28.6917 33.0686L29.922 32.1298L30.9116 31.2234L31.0693 31.0798L32.1141 29.9327L33.0576 28.7024L33.659 27.7636L33.8946 27.3938L34.6115 26.0153L35.2036 24.5863L35.6705 23.1062L36.0036 21.5893L36.2118 20.0538L36.2767 18.4997L36.2122 16.9555ZM28.5673 4.76863L29.3166 5.43946L28.6136 7.21542L30.2829 6.30905L31.0323 6.97494L29.2284 9.88867L28.5301 9.26886L29.6863 7.50674L27.7762 8.59368L27.3973 8.26063L28.1973 6.18861L26.6293 7.56686L25.9263 6.93795L28.5673 4.76863ZM21.5465 3.94551L21.5696 3.74656L21.6114 3.55235L21.6851 3.35359L21.7731 3.16393L21.8932 2.98337L22.0273 2.82159L22.1752 2.6875L22.3281 2.57201L22.4991 2.46561L22.693 2.39144L22.8919 2.34062L23.1002 2.31293L23.3223 2.30363L23.3826 2.30818L23.5491 2.31748L23.7801 2.36376L24.0022 2.43772L24.215 2.52553L24.4185 2.64577L24.5943 2.77531L24.7515 2.91869L24.8902 3.08047L25.0102 3.25174L25.103 3.4505L25.1722 3.65855L25.2139 3.87135L25.2232 4.0887L25.2139 4.31079L25.1722 4.52359L25.103 4.72255L25.0243 4.90766L24.9273 5.08802L24.8069 5.2407L24.659 5.39793L24.4924 5.53201L24.3073 5.64316L24.1038 5.73097L23.9007 5.79109L23.6786 5.82807L23.4565 5.83262L23.3828 5.82807L23.239 5.81878L23.0266 5.7818L22.8183 5.71693L22.6055 5.63367L22.3973 5.52272L22.2122 5.39773L22.0549 5.25435L21.9163 5.10622L21.7963 4.93989L21.6942 4.75478L21.6205 4.56057L21.5694 4.35232L21.537 4.14427L21.5465 3.94551ZM17.3471 1.57288L18.5404 1.58672H18.6284L18.8732 1.60056L19.035 1.64684L19.2019 1.69767L19.3313 1.77183L19.4606 1.85964L19.5623 1.96149L19.6503 2.08174L19.724 2.21582L19.7751 2.36395L19.8075 2.51188L19.8121 2.65072L19.7982 2.79885L19.7703 2.94698L19.724 3.06722L19.6641 3.18272L19.5854 3.30296L19.4885 3.40006L19.3774 3.47858L19.2526 3.548L19.1325 3.58953L20.1825 4.98162L19.0724 4.96778L18.2261 3.70977L18.2123 4.95394L17.3103 4.94484L17.3471 1.57288ZM8.91103 4.57461L11.9588 6.53094L11.1818 7.09063L10.6362 6.73445L9.61865 7.4745L9.80376 8.09886L9.03602 8.6538L8.05093 5.19897L8.91103 4.57461ZM6.13613 6.92866L6.69127 7.39579L6.01134 8.20981L6.4231 8.55669L7.00117 7.86767L7.57925 8.34864L7.01047 9.02857L8.05113 9.90271L7.45921 10.6151L4.86448 8.45524L6.13613 6.92866ZM3.19927 11.3039L5.52107 12.4047L5.96506 11.4797L6.07601 11.5353L6.68198 11.8266L5.84482 13.5887L2.797 12.1365L3.19927 11.3039ZM5.17873 15.8965L4.54983 16.0446L4.38331 17.2888L4.95209 17.5848L4.8273 18.5191L1.64994 16.8355L1.79333 15.7948L5.31282 14.9438L5.17873 15.8965ZM31.5736 19.8509L31.4252 20.9701L31.1897 22.0706L30.912 22.9679L30.8568 23.1437L30.4265 24.1889L29.9131 25.1881L29.3166 26.1407L28.6414 27.0471L27.8875 27.8797L27.064 28.652L26.1765 29.3458L25.2374 29.9701L24.2474 30.5019L23.383 30.8767L23.2164 30.9461L22.1523 31.3068L21.0564 31.5659L19.9416 31.737L18.8133 31.811L18.5404 31.8064L17.6941 31.7878L16.5748 31.663L15.474 31.4502L14.3918 31.1358L13.3373 30.7379L12.3291 30.2429L11.3578 29.6648L10.4515 29.0082L10.0073 28.6289L9.59116 28.2727L8.80483 27.4682L8.08791 26.6031L7.45426 25.6781L6.89913 24.6931L6.76049 24.397L6.4229 23.671L6.07601 22.695L6.04832 22.6117L5.75701 21.525L5.56735 20.4149L5.47025 19.291V18.1671L5.56735 17.0525L5.75701 15.9424L6.04832 14.8554L6.07601 14.7722L6.4229 13.7871L6.76049 13.0611L6.89913 12.765L7.45426 11.789L8.08791 10.8593L8.80483 9.98992L9.59116 9.1852L10.0073 8.83377L10.4515 8.45445L11.3578 7.79311L12.3291 7.21503L13.342 6.72931L14.392 6.3223L15.4742 6.01239L16.575 5.79505L17.6943 5.67935L18.5406 5.66076L18.8135 5.65621L19.9418 5.72088L21.0566 5.89195L22.1524 6.16013L23.2166 6.51156L23.3832 6.58553L24.2476 6.96465L25.2376 7.49645L26.1855 8.11151L27.0642 8.80529L27.8877 9.58232L28.6416 10.4195L29.3168 11.3168L29.9133 12.2694L30.4267 13.2776L30.857 14.3135L30.9122 14.4939L31.1899 15.3912L31.4254 16.4872L31.5738 17.6064L31.6155 18.7258L31.5736 19.8509ZM31.8186 13.0059L31.1203 13.3528L30.2048 11.5305L33.2247 10.0135L34.1313 11.8264L33.4886 12.1549L32.9937 11.1605L32.5033 11.4148L32.9196 12.2429L32.263 12.576L31.8374 11.7481L31.3147 12.0117L31.8186 13.0059ZM35.3891 16.8076L35.3519 17.0297L35.2964 17.2287L35.2133 17.4229L35.1113 17.6078L34.9772 17.7791L34.8199 17.9315L34.6441 18.0656L34.459 18.1675L34.2508 18.26L34.0429 18.3156L33.8301 18.348L33.659 18.3526H33.6311L33.4276 18.348L33.2287 18.3109L33.039 18.2414L32.8359 18.1489L32.6504 18.0379L32.4886 17.8946L32.3407 17.7328L32.2159 17.5477L32.1139 17.3535L32.0215 17.1547L31.9659 16.9464L31.9292 16.7336L31.9106 16.5025L31.9199 16.2758L31.9473 16.0446L32.0077 15.8457L32.0818 15.6515L32.1787 15.4756L32.2992 15.2998L32.4378 15.1426L32.5996 15.0038L32.78 14.8928L32.9558 14.8003L33.15 14.7356L33.3392 14.6893L33.5475 14.6707H33.7603L33.9778 14.6893L34.1768 14.7447L34.3619 14.8096L34.5377 14.8974L34.7042 15.0083L34.8567 15.1424L35.0001 15.3044L35.1156 15.4847L35.2222 15.6744L35.3005 15.8917L35.3608 16.1138L35.398 16.3405L35.4073 16.5762L35.3891 16.8076Z" fill="#2C00AB"/>
</svg>
