<svg width="82" height="10" viewBox="0 0 82 10" fill="none" xmlns="http://www.w3.org/2000/svg">
<g clip-path="url(#clip0_7316_15109)">
<path fill-rule="evenodd" clip-rule="evenodd" d="M26.3907 1.30424L27.4777 0.217285H26.3907H24.7385L21.3472 3.60858L16.3907 8.56512L15.2168 9.69554H16.3907H17.9559L21.3472 6.30424L26.3907 1.30424Z" fill="#2C00AB"/>
<path fill-rule="evenodd" clip-rule="evenodd" d="M41.1297 0.217285H38.5645V9.73904L46.434 9.7825V7.56512L41.1297 7.52163V0.217285Z" fill="#2C00AB"/>
<path fill-rule="evenodd" clip-rule="evenodd" d="M32.4342 0.217285H29.6951L26.3907 3.52162L21.3472 8.56512L20.2168 9.69554H21.3472H22.9125L26.3907 6.26077L32.4342 0.217285Z" fill="#2C00AB"/>
<path fill-rule="evenodd" clip-rule="evenodd" d="M11.4346 1.34771L12.565 0.217285H11.4346H9.8694L8.95636 1.13032L0.347656 9.69554H3.08679L8.95636 3.82598L11.4346 1.34771Z" fill="#2C00AB"/>
<path fill-rule="evenodd" clip-rule="evenodd" d="M21.3482 1.34771L22.5221 0.217285H21.3482H19.7829L16.3916 3.60858L11.4351 8.56512L10.3047 9.69554H11.4351H13.0003L16.3916 6.30424L21.3482 1.34771Z" fill="#2C00AB"/>
<path fill-rule="evenodd" clip-rule="evenodd" d="M16.3911 1.34771L17.5651 0.217285H16.3911H14.8259L11.4346 3.60858L8.95636 6.08685L5.34766 9.69554H8.04331L8.95636 8.78251L11.4346 6.30424L16.3911 1.34771Z" fill="#2C00AB"/>
<path fill-rule="evenodd" clip-rule="evenodd" d="M26.3916 8.60858L25.3047 9.69554H26.3916H28.7829L35.609 2.78251V9.73903H38.1308L38.1742 0.217285H34.7829L26.3916 8.60858Z" fill="#2C00AB"/>
<path fill-rule="evenodd" clip-rule="evenodd" d="M53.9131 0.260753H51.6957H49.3479V0.217285H46.8262V9.73904L49.3479 9.7825V6.6086H51.6957H53.9131C55.7827 6.6086 56.3914 5.34773 56.3914 3.43469C56.3914 1.56512 55.7827 0.260753 53.9131 0.260753ZM54.0001 3.78251C54.0001 4.3912 53.4783 4.39119 53.4783 4.39119H51.6522H49.3479V2.26077C49.3479 2.26077 50.5653 2.26076 51.6522 2.30424C52.4349 2.30424 53.174 2.30424 53.3914 2.30424C54.0001 2.30424 54.0001 2.82598 54.0001 2.82598C54.0001 2.82598 54.0001 3.17381 54.0001 3.78251Z" fill="#2C00AB"/>
<path fill-rule="evenodd" clip-rule="evenodd" d="M81.2176 8.7389C81.2176 8.52151 81.0872 8.43457 80.8264 8.43457H80.4785V9.39107H80.6959V8.99978H80.7829L80.8264 9.08674L81.0003 9.39107H81.2611L81.0003 8.95629C81.1307 8.95629 81.2176 8.86933 81.2176 8.7389ZM80.8698 8.82586H80.8264H80.6959V8.60847H80.8264C80.9133 8.60847 81.0003 8.65194 81.0003 8.7389C81.0003 8.78238 80.9133 8.82586 80.8698 8.82586Z" fill="#2C00AB"/>
<path fill-rule="evenodd" clip-rule="evenodd" d="M80.8271 8C80.3489 8 79.9141 8.34782 79.9141 8.91303C79.9141 9.43477 80.3489 9.7826 80.8271 9.7826C81.3054 9.7826 81.7402 9.43477 81.7402 8.91303C81.6967 8.34782 81.2619 8 80.8271 8ZM80.8271 9.60867C80.4793 9.60867 80.1749 9.34782 80.1749 8.91303C80.1749 8.47825 80.4358 8.21739 80.8271 8.21739C81.175 8.21739 81.4793 8.47825 81.4793 8.91303C81.4358 9.30434 81.175 9.60867 80.8271 9.60867Z" fill="#2C00AB"/>
<path fill-rule="evenodd" clip-rule="evenodd" d="M70.3477 2.26082C70.3477 3.95647 70.3477 9.78255 70.3477 9.78255H79.3911V7.6521H72.7825V5.86951H78.5651V3.78256H72.7825V2.26082H79.3911V0.130371H72.3477C72.3477 0.130371 70.3477 0.565164 70.3477 2.26082Z" fill="#2C00AB"/>
<path fill-rule="evenodd" clip-rule="evenodd" d="M67.3919 6.04339C66.6962 5.17383 64.0441 1.95642 63.1745 0.912937C63.1745 0.912937 62.6528 0.173828 61.6528 0.173828C60.6962 0.173828 59.7832 0.173828 59.7832 0.173828V9.73905L62.1745 9.78251V3.69556L67.218 9.73905L69.7397 9.78251V0.217296H67.3919V6.04339Z" fill="#2C00AB"/>
<path fill-rule="evenodd" clip-rule="evenodd" d="M56.7832 9.73903H59.3484V0.217285H56.7832V9.73903Z" fill="#2C00AB"/>
</g>
<defs>
<clipPath id="clip0_7316_15109">
<rect width="81.7395" height="10" fill="white"/>
</clipPath>
</defs>
</svg>
