<svg width="37" height="37" viewBox="0 0 37 37" fill="none" xmlns="http://www.w3.org/2000/svg">
<path d="M18.5 37C23.4415 37 28.0871 35.0756 31.5814 31.5814C35.0756 28.0872 37 23.4415 37 18.5C37 13.5585 35.0756 8.91283 31.5814 5.41859C28.0872 1.92436 23.4415 0 18.5 0C8.29901 0 0 8.29901 0 18.5C0 23.4415 1.92436 28.0872 5.41859 31.5814C8.91283 35.0756 13.5585 37 18.5 37Z" fill="#2C00AB"/>
<path d="M0.640625 18.5C0.640625 13.7296 2.49841 9.24457 5.87173 5.87124C9.24506 2.49784 13.73 0.640137 18.5005 0.640137C23.271 0.640137 27.756 2.49784 31.1293 5.87124C34.5026 9.24457 36.3604 13.7295 36.3604 18.5C36.3604 28.348 28.3484 36.36 18.5005 36.36C13.73 36.36 9.24506 34.5022 5.87173 31.1288C2.49841 27.7554 0.640625 23.2705 0.640625 18.5Z" fill="#EBEFFF"/>
<path d="M18.5008 1.37646C9.04366 1.37646 1.37695 9.04318 1.37695 18.5003C1.37695 27.9574 9.04366 35.6242 18.5008 35.6242C27.9579 35.6242 35.6246 27.9574 35.6246 18.5003C35.6246 9.04318 27.9579 1.37646 18.5008 1.37646Z" fill="#2C00AB"/>
<path d="M18.5006 29.4378C12.4598 29.4378 7.5625 24.5406 7.5625 18.4997C7.5625 12.4588 12.4598 7.56152 18.5006 7.56152C24.5415 7.56152 29.4387 12.4588 29.4387 18.4997C29.4387 24.5406 24.5416 29.4378 18.5006 29.4378Z" fill="#EBEFFF"/>
<path d="M8.26562 18.5001H18.5001V8.26562C12.8478 8.26562 8.26562 12.8479 8.26562 18.5001ZM18.5001 18.5001V28.7346C24.1523 28.7346 28.7345 24.1524 28.7345 18.5001H18.5001Z" fill="#2C00AB"/>
<path d="M10.4624 8.0637C10.0998 7.7113 9.53932 7.60508 9.01316 7.93129C9.11366 7.67084 9.07261 7.40505 9.01925 7.25839C8.79257 6.84505 8.71345 6.79331 8.52664 6.63656C7.92187 6.1291 7.28542 6.56234 6.83021 7.10483L4.63086 9.72584L8.0882 12.627L10.4076 9.86292C10.9375 9.23137 11.0195 8.60523 10.4624 8.0637ZM19.0735 6.81825L20.2608 3.67116V6.81825H21.1632V2.31104H19.8074L18.5742 5.53814H18.5869L17.3537 2.31104H15.998V6.81825H16.9003V3.67116L18.0877 6.81825H19.0735ZM31.2058 8.6934L29.5069 11.0987L32.1407 9.8483L32.8381 10.7095L28.6925 12.7191L27.8741 11.7002L29.5047 9.31598L29.495 9.30403L26.8238 10.4033L25.9974 9.39087L28.825 5.75368L29.5224 6.61488L27.7517 8.93121L30.4577 7.76949L31.2058 8.6934Z" fill="#EBEFFF"/>
<path d="M7.30929 7.75326C7.46234 7.57082 7.80821 7.57832 8.03066 7.76491C8.27522 7.97014 8.27581 8.26109 8.11156 8.45674L6.80547 10.0133L5.98828 9.32751L7.30929 7.75326ZM9.63311 9.58944L8.25607 11.2305L7.39257 10.5059L8.78075 8.85153C8.9375 8.66471 9.28702 8.6103 9.52275 8.80818C9.78957 9.03196 9.816 9.37153 9.63311 9.58944Z" fill="#2C00AB"/>
</svg>
