<svg width="48" height="30" viewBox="0 0 48 30" fill="none" xmlns="http://www.w3.org/2000/svg">
<rect width="48" height="30" fill="#F6F6F6"/>
<path d="M23.9934 0C10.7698 0 0 6.62721 0 14.8332C0 23.0391 10.7698 29.5916 23.9934 29.5916H24.0374V26.7639H23.9934C11.7065 26.7639 1.6667 21.434 1.6667 14.8332C1.6667 8.23234 11.7065 2.82767 23.9934 2.82767H24.0374V0H23.9934ZM24.0374 29.5916C37.3358 29.5916 48 22.9512 48 14.8332C48 6.71516 37.3358 0.0131929 24.0374 0V2.82767C36.3991 2.82767 46.4081 8.15758 46.4081 14.8332C46.4081 21.5087 36.3991 26.7639 24.0374 26.7639V29.5916Z" fill="#2C00AB"/>
<path d="M39.4994 9.29656H31.0252V20.2994H34.0156V12.0363H37.3094L38.1713 13.0345V17.5597H34.6576V20.2994H41.1485V11.2623L39.4994 9.29656Z" fill="#2C00AB"/>
<path d="M26.0779 13.1972H22.8764V20.2994H26.1834V15.8314H28.6857L29.8906 14.7144V9.29656H26.5704V12.7487L26.0779 13.1972Z" fill="#2C00AB"/>
<path d="M21.7594 9.29656H18.4392V14.7144L19.6442 15.8314H22.2519V13.1972L21.7594 12.7355V9.29656Z" fill="#2C00AB"/>
<path d="M12.0627 20.2994H10.3036V17.6037H12.0627V20.2994ZM12.0627 9.29217H6.85149V20.2994H9.67916V15.6511H12.0627V13.936L9.66596 13.9229V11.9879H12.0627V9.29217ZM17.3046 11.0028L15.8446 9.29217H12.0627V11.9879H14.4726V13.9404H12.0627V15.6555H14.4726V17.6081H12.0627V20.3038H15.6951L17.3046 19.1868V15.5104L16.5438 14.8112L17.3046 14.1691V11.0028Z" fill="#2C00AB"/>
</svg>
