<svg width="146" height="18" viewBox="0 0 146 18" fill="none" xmlns="http://www.w3.org/2000/svg">
<path d="M7.535 14.756C7.98233 14.756 8.371 14.723 8.701 14.657C9.031 14.5837 9.32067 14.492 9.57 14.382C9.81933 14.272 10.0283 14.1583 10.197 14.041C10.373 13.9163 10.527 13.799 10.659 13.689C10.791 13.579 10.9083 13.491 11.011 13.425C11.1137 13.3517 11.2163 13.315 11.319 13.315C11.4143 13.315 11.4913 13.3333 11.55 13.37C11.6087 13.4067 11.6563 13.4433 11.693 13.48L12.694 14.723C12.0047 15.515 11.1943 16.1237 10.263 16.549C9.33167 16.967 8.261 17.176 7.051 17.176C6.06833 17.176 5.19567 17.0037 4.433 16.659C3.67033 16.307 3.025 15.823 2.497 15.207C1.97633 14.591 1.57667 13.8613 1.298 13.018C1.02667 12.1747 0.891 11.2543 0.891 10.257C0.891 9.34033 0.99 8.475 1.188 7.661C1.386 6.83967 1.66833 6.08433 2.035 5.395C2.40167 4.69833 2.838 4.075 3.344 3.525C3.85733 2.975 4.42567 2.50567 5.049 2.117C5.67967 1.72833 6.35433 1.43133 7.073 1.226C7.799 1.02067 8.55433 0.918 9.339 0.918C9.91833 0.918 10.4463 0.973 10.923 1.083C11.3997 1.18567 11.8287 1.33233 12.21 1.523C12.5987 1.71367 12.947 1.94467 13.255 2.216C13.5703 2.48 13.8527 2.777 14.102 3.107L13.112 4.295C13.0387 4.383 12.9507 4.46 12.848 4.526C12.7527 4.592 12.6317 4.625 12.485 4.625C12.3237 4.625 12.1697 4.559 12.023 4.427C11.8763 4.295 11.6893 4.152 11.462 3.998C11.242 3.83667 10.9523 3.69 10.593 3.558C10.241 3.426 9.77533 3.36 9.196 3.36C8.43333 3.36 7.722 3.51767 7.062 3.833C6.40933 4.141 5.841 4.58467 5.357 5.164C4.873 5.74333 4.49167 6.44367 4.213 7.265C3.94167 8.079 3.806 8.99567 3.806 10.015C3.806 10.7557 3.89767 11.4193 4.081 12.006C4.27167 12.5927 4.532 13.0913 4.862 13.502C5.19933 13.9053 5.59533 14.217 6.05 14.437C6.50467 14.6497 6.99967 14.756 7.535 14.756ZM23.0146 11.016L21.9366 5.571C21.8926 5.32167 21.8412 5.032 21.7826 4.702C21.7239 4.372 21.6652 4.01267 21.6066 3.624C21.4599 4.01267 21.3169 4.372 21.1776 4.702C21.0382 5.032 20.9136 5.32533 20.8036 5.582L18.3946 11.016H23.0146ZM27.1616 17H24.9506C24.7012 17 24.5069 16.9413 24.3676 16.824C24.2356 16.6993 24.1402 16.5417 24.0816 16.351L23.4216 13.029H17.4926L16.0186 16.351C15.9379 16.5197 15.8059 16.67 15.6226 16.802C15.4466 16.934 15.2412 17 15.0066 17H12.7626L20.4516 1.094H23.3666L27.1616 17ZM34.2982 8.695C34.8702 8.695 35.3615 8.61433 35.7722 8.453C36.1902 8.28433 36.5348 8.057 36.8062 7.771C37.0775 7.47767 37.2792 7.13667 37.4112 6.748C37.5432 6.35933 37.6092 5.94133 37.6092 5.494C37.6092 4.80467 37.3928 4.26567 36.9602 3.877C36.5348 3.48833 35.8785 3.294 34.9912 3.294H33.3192L32.6592 8.695H34.2982ZM35.2552 1.094C36.1718 1.094 36.9565 1.193 37.6092 1.391C38.2692 1.58167 38.8082 1.853 39.2262 2.205C39.6442 2.54967 39.9522 2.964 40.1502 3.448C40.3482 3.932 40.4472 4.46367 40.4472 5.043C40.4472 5.65167 40.3592 6.22733 40.1832 6.77C40.0145 7.31267 39.7688 7.804 39.4462 8.244C39.1235 8.684 38.7275 9.069 38.2582 9.399C37.7888 9.729 37.2572 9.98567 36.6632 10.169C36.8318 10.2717 36.9822 10.3963 37.1142 10.543C37.2535 10.6897 37.3745 10.8657 37.4772 11.071L40.3152 17H37.7522C37.2608 17 36.9345 16.8093 36.7732 16.428L34.4412 11.269C34.3532 11.0783 34.2432 10.9427 34.1112 10.862C33.9865 10.774 33.7885 10.73 33.5172 10.73H32.4062L31.6362 17H28.7982L30.7342 1.094H35.2552ZM56.3061 3.954C56.2034 4.10067 56.1007 4.21067 55.9981 4.284C55.9027 4.35 55.7817 4.383 55.6351 4.383C55.4884 4.383 55.3381 4.32433 55.1841 4.207C55.0301 4.08967 54.8467 3.96133 54.6341 3.822C54.4214 3.67533 54.1684 3.54333 53.8751 3.426C53.5817 3.30867 53.2297 3.25 52.8191 3.25C52.4231 3.25 52.0711 3.30867 51.7631 3.426C51.4551 3.54333 51.1947 3.70467 50.9821 3.91C50.7767 4.11533 50.6191 4.35733 50.5091 4.636C50.4064 4.91467 50.3551 5.21533 50.3551 5.538C50.3551 5.87533 50.4394 6.15767 50.6081 6.385C50.7841 6.605 51.0114 6.79933 51.2901 6.968C51.5687 7.13667 51.8877 7.287 52.2471 7.419C52.6064 7.551 52.9694 7.69033 53.3361 7.837C53.7101 7.98367 54.0767 8.15233 54.4361 8.343C54.7954 8.53367 55.1144 8.76833 55.3931 9.047C55.6717 9.32567 55.8954 9.663 56.0641 10.059C56.2401 10.4477 56.3281 10.9207 56.3281 11.478C56.3281 12.2553 56.1924 12.9887 55.9211 13.678C55.6497 14.3673 55.2647 14.9723 54.7661 15.493C54.2674 16.0063 53.6587 16.417 52.9401 16.725C52.2214 17.0257 51.4184 17.176 50.5311 17.176C50.0691 17.176 49.6144 17.1247 49.1671 17.022C48.7197 16.9267 48.2981 16.7873 47.9021 16.604C47.5061 16.4207 47.1394 16.2007 46.8021 15.944C46.4647 15.6873 46.1714 15.4013 45.9221 15.086L46.9341 13.722C47.0147 13.6193 47.1174 13.535 47.2421 13.469C47.3667 13.403 47.4914 13.37 47.6161 13.37C47.7334 13.37 47.8471 13.4067 47.9571 13.48C48.0744 13.5533 48.1991 13.645 48.3311 13.755C48.4704 13.8577 48.6171 13.975 48.7711 14.107C48.9324 14.2317 49.1121 14.349 49.3101 14.459C49.5154 14.5617 49.7464 14.6497 50.0031 14.723C50.2671 14.7963 50.5641 14.833 50.8941 14.833C51.7301 14.833 52.3827 14.5983 52.8521 14.129C53.3214 13.6597 53.5561 13.0107 53.5561 12.182C53.5561 11.8153 53.4717 11.5147 53.3031 11.28C53.1344 11.0453 52.9107 10.8473 52.6321 10.686C52.3534 10.5247 52.0344 10.3853 51.6751 10.268C51.3231 10.1433 50.9637 10.015 50.5971 9.883C50.2304 9.74367 49.8674 9.586 49.5081 9.41C49.1561 9.22667 48.8407 8.99567 48.5621 8.717C48.2834 8.431 48.0597 8.08267 47.8911 7.672C47.7224 7.26133 47.6381 6.75533 47.6381 6.154C47.6381 5.472 47.7627 4.81567 48.0121 4.185C48.2687 3.55433 48.6317 3.00067 49.1011 2.524C49.5777 2.04 50.1497 1.655 50.8171 1.369C51.4917 1.07567 52.2507 0.928999 53.0941 0.928999C53.5267 0.928999 53.9411 0.972999 54.3371 1.061C54.7404 1.149 55.1144 1.27367 55.4591 1.435C55.8037 1.59633 56.1191 1.79067 56.4051 2.018C56.6984 2.238 56.9514 2.48367 57.1641 2.755L56.3061 3.954ZM62.6998 3.371L62.1388 7.892H67.1658L66.8908 10.081H61.8638L61.2918 14.723H67.7158L67.4298 17H58.1458L60.1038 1.094H69.3768L69.0908 3.371H62.6998ZM78.8618 14.635L78.5868 17H69.9408L71.8988 1.094H74.7477L73.0758 14.635H78.8618ZM85.1295 3.371L84.5685 7.892H89.5955L89.3205 10.081H84.2935L83.7215 14.723H90.1455L89.8595 17H80.5755L82.5335 1.094H91.8065L91.5205 3.371H85.1295ZM98.7362 14.756C99.1835 14.756 99.5722 14.723 99.9022 14.657C100.232 14.5837 100.522 14.492 100.771 14.382C101.021 14.272 101.23 14.1583 101.398 14.041C101.574 13.9163 101.728 13.799 101.86 13.689C101.992 13.579 102.11 13.491 102.212 13.425C102.315 13.3517 102.418 13.315 102.52 13.315C102.616 13.315 102.693 13.3333 102.751 13.37C102.81 13.4067 102.858 13.4433 102.894 13.48L103.895 14.723C103.206 15.515 102.396 16.1237 101.464 16.549C100.533 16.967 99.4622 17.176 98.2522 17.176C97.2695 17.176 96.3968 17.0037 95.6342 16.659C94.8715 16.307 94.2262 15.823 93.6982 15.207C93.1775 14.591 92.7778 13.8613 92.4992 13.018C92.2278 12.1747 92.0922 11.2543 92.0922 10.257C92.0922 9.34033 92.1912 8.475 92.3892 7.661C92.5872 6.83967 92.8695 6.08433 93.2362 5.395C93.6028 4.69833 94.0392 4.075 94.5452 3.525C95.0585 2.975 95.6268 2.50567 96.2502 2.117C96.8808 1.72833 97.5555 1.43133 98.2742 1.226C99.0002 1.02067 99.7555 0.918 100.54 0.918C101.12 0.918 101.648 0.973 102.124 1.083C102.601 1.18567 103.03 1.33233 103.411 1.523C103.8 1.71367 104.148 1.94467 104.456 2.216C104.772 2.48 105.054 2.777 105.303 3.107L104.313 4.295C104.24 4.383 104.152 4.46 104.049 4.526C103.954 4.592 103.833 4.625 103.686 4.625C103.525 4.625 103.371 4.559 103.224 4.427C103.078 4.295 102.891 4.152 102.663 3.998C102.443 3.83667 102.154 3.69 101.794 3.558C101.442 3.426 100.977 3.36 100.397 3.36C99.6345 3.36 98.9232 3.51767 98.2632 3.833C97.6105 4.141 97.0422 4.58467 96.5582 5.164C96.0742 5.74333 95.6928 6.44367 95.4142 7.265C95.1428 8.079 95.0072 8.99567 95.0072 10.015C95.0072 10.7557 95.0988 11.4193 95.2822 12.006C95.4728 12.5927 95.7332 13.0913 96.0632 13.502C96.4005 13.9053 96.7965 14.217 97.2512 14.437C97.7058 14.6497 98.2008 14.756 98.7362 14.756ZM117.582 3.437H113.237L111.565 17H108.727L110.377 3.437H106.01L106.296 1.094H117.879L117.582 3.437ZM132.665 7.98C132.665 8.86 132.566 9.69967 132.368 10.499C132.177 11.291 131.902 12.028 131.543 12.71C131.183 13.392 130.747 14.008 130.234 14.558C129.72 15.108 129.145 15.5773 128.507 15.966C127.876 16.3547 127.19 16.6553 126.45 16.868C125.709 17.0733 124.932 17.176 124.118 17.176C123.106 17.176 122.196 16.9963 121.39 16.637C120.583 16.2777 119.894 15.7827 119.322 15.152C118.757 14.5213 118.324 13.777 118.024 12.919C117.723 12.061 117.573 11.1297 117.573 10.125C117.573 9.245 117.668 8.409 117.859 7.617C118.057 6.81767 118.335 6.077 118.695 5.395C119.061 4.713 119.498 4.097 120.004 3.547C120.517 2.997 121.089 2.52767 121.72 2.139C122.358 1.743 123.047 1.44233 123.788 1.237C124.528 1.02433 125.309 0.918 126.131 0.918C127.143 0.918 128.052 1.09767 128.859 1.457C129.665 1.81633 130.351 2.31133 130.916 2.942C131.48 3.57267 131.913 4.32067 132.214 5.186C132.514 6.044 132.665 6.97533 132.665 7.98ZM129.739 8.046C129.739 7.32733 129.647 6.67467 129.464 6.088C129.288 5.50133 129.027 4.999 128.683 4.581C128.345 4.163 127.931 3.84033 127.44 3.613C126.948 3.38567 126.395 3.272 125.779 3.272C124.987 3.272 124.264 3.43333 123.612 3.756C122.966 4.07867 122.413 4.537 121.951 5.131C121.489 5.725 121.129 6.44 120.873 7.276C120.623 8.112 120.499 9.03967 120.499 10.059C120.499 10.7777 120.587 11.4303 120.763 12.017C120.939 12.6037 121.195 13.106 121.533 13.524C121.87 13.9347 122.281 14.2537 122.765 14.481C123.256 14.701 123.813 14.811 124.437 14.811C125.236 14.811 125.962 14.6497 126.615 14.327C127.267 14.0043 127.825 13.5497 128.287 12.963C128.749 12.3763 129.104 11.6687 129.354 10.84C129.61 10.004 129.739 9.07267 129.739 8.046ZM139.593 8.695C140.165 8.695 140.656 8.61433 141.067 8.453C141.485 8.28433 141.83 8.057 142.101 7.771C142.372 7.47767 142.574 7.13667 142.706 6.748C142.838 6.35933 142.904 5.94133 142.904 5.494C142.904 4.80467 142.688 4.26567 142.255 3.877C141.83 3.48833 141.173 3.294 140.286 3.294H138.614L137.954 8.695H139.593ZM140.55 1.094C141.467 1.094 142.251 1.193 142.904 1.391C143.564 1.58167 144.103 1.853 144.521 2.205C144.939 2.54967 145.247 2.964 145.445 3.448C145.643 3.932 145.742 4.46367 145.742 5.043C145.742 5.65167 145.654 6.22733 145.478 6.77C145.309 7.31267 145.064 7.804 144.741 8.244C144.418 8.684 144.022 9.069 143.553 9.399C143.084 9.729 142.552 9.98567 141.958 10.169C142.127 10.2717 142.277 10.3963 142.409 10.543C142.548 10.6897 142.669 10.8657 142.772 11.071L145.61 17H143.047C142.556 17 142.229 16.8093 142.068 16.428L139.736 11.269C139.648 11.0783 139.538 10.9427 139.406 10.862C139.281 10.774 139.083 10.73 138.812 10.73H137.701L136.931 17H134.093L136.029 1.094H140.55Z" fill="#2E3192"/>
</svg>
