<svg width="37" height="33" viewBox="0 0 37 33" fill="none" xmlns="http://www.w3.org/2000/svg">
<path fill-rule="evenodd" clip-rule="evenodd" d="M35.4359 30.2166C32.2886 27.5646 22.9383 20.0181 18.4996 20.0181C14.0589 20.0181 4.7157 27.5594 1.56652 30.2134C1.5476 29.5864 1.52999 29.2056 1.52999 28.6473C1.52999 28.6473 1.45302 27.7255 2.28271 26.803C9.10942 20.7239 16.2668 17.7494 16.4866 17.6584C18.6209 16.7718 18.5009 16.9385 18.4989 13.3807C18.4989 13.3807 18.5941 13.3749 18.6548 13.3813C21.6605 13.6486 29.7415 21.3566 34.524 26.5677C34.5325 26.5767 35.4678 27.6408 35.4678 28.7627C35.4691 29.2883 35.4535 29.807 35.4359 30.2166ZM35.3074 25.8664C34.7992 25.3125 22.832 12.33 18.4996 12.33C14.1685 12.33 2.20053 25.3125 1.69306 25.8658L1.69241 25.8664C1.64283 25.9209 0.474609 27.2331 0.474609 28.7633C0.474609 29.9544 0.554839 31.1532 0.556144 31.1647C0.558753 31.2198 0.5868 31.7263 0.873149 31.8641C0.91946 31.8865 0.969686 31.8981 1.02122 31.8981C1.12754 31.8981 1.24625 31.8513 1.37475 31.759C1.5039 31.6468 13.6956 21.0637 18.4996 21.0637C23.3042 21.0637 35.4965 31.6468 35.6185 31.7538C35.7516 31.85 35.8716 31.8981 35.9792 31.8981C36.0314 31.8981 36.0803 31.8865 36.1273 31.8647C36.413 31.7275 36.441 31.2205 36.4436 31.1634C36.4443 31.1544 36.5245 29.9557 36.5245 28.7646C36.5245 27.2331 35.3563 25.9209 35.3074 25.8664ZM35.4189 17.8687C32.2749 15.2198 22.9337 7.68107 18.5002 7.68107C14.0641 7.68107 4.73005 15.2153 1.58413 17.8661C1.56521 17.2404 1.5476 16.859 1.5476 16.3019C1.5476 16.3019 1.47063 15.3807 2.29967 14.4595C9.11985 8.38623 16.2701 5.41496 16.4892 5.32393C18.6215 4.438 18.5015 4.60467 18.4996 1.05068C18.4996 1.05068 18.5941 1.04491 18.6555 1.05132C21.6579 1.31864 29.7311 9.01895 34.5083 14.2243C34.5168 14.2333 35.4515 15.2961 35.4515 16.4173C35.4522 16.9417 35.4359 17.4597 35.4189 17.8687ZM35.2904 13.523C34.7823 12.9697 22.8274 0 18.4996 0C14.173 0 2.21683 12.9697 1.71002 13.5223L1.70936 13.523C1.65979 13.5775 0.492221 14.8884 0.492221 16.4173C0.492221 17.6071 0.573103 18.8046 0.573756 18.8161C0.576365 18.8713 0.604412 19.3771 0.890109 19.5149C0.93642 19.5373 0.986645 19.5482 1.03817 19.5482C1.1445 19.5482 1.26256 19.5014 1.39106 19.4091C1.52086 19.2969 13.7001 8.72471 18.4996 8.72471C23.2996 8.72471 35.4796 19.2969 35.6015 19.404C35.734 19.5001 35.854 19.5476 35.9616 19.5476C36.0138 19.5476 36.0627 19.5367 36.1097 19.5142C36.3947 19.3771 36.4234 18.8706 36.4254 18.8136C36.426 18.8046 36.5062 17.6071 36.5062 16.4173C36.5069 14.8884 35.34 13.5775 35.2904 13.523Z" fill="#2C00AB"/>
</svg>
