<svg width="17" height="19" viewBox="0 0 17 19" fill="none" xmlns="http://www.w3.org/2000/svg">
<path fill-rule="evenodd" clip-rule="evenodd" d="M7 0C6.44772 0 6 0.447715 6 1V5H1C0.447715 5 0 5.44772 0 6V18C0 18.5523 0.447715 19 1 19H10H11H16C16.5523 19 17 18.5523 17 18V1C17 0.447715 16.5523 0 16 0H7ZM12 17H15V2H8V5H11C11.5523 5 12 5.44772 12 6V17ZM7 7H2V17H10V7H7ZM4.57143 10C4.01914 10 3.57143 10.4477 3.57143 11C3.57143 11.5523 4.01914 12 4.57143 12H7.42857C7.98086 12 8.42857 11.5523 8.42857 11C8.42857 10.4477 7.98086 10 7.42857 10H4.57143ZM4.57143 13C4.01914 13 3.57143 13.4477 3.57143 14C3.57143 14.5523 4.01914 15 4.57143 15H7.42857C7.98086 15 8.42857 14.5523 8.42857 14C8.42857 13.4477 7.98086 13 7.42857 13H4.57143Z" fill="#6D6D6D"/>
</svg>
