<svg width="91" height="31" viewBox="0 0 91 31" fill="none" xmlns="http://www.w3.org/2000/svg">
<path d="M33.4412 11.9869H30.0415C29.8289 11.9869 29.625 11.9024 29.4746 11.7521C29.3242 11.6017 29.2397 11.3977 29.2397 11.1851C29.2397 10.9724 29.3242 10.7685 29.4746 10.6181C29.625 10.4678 29.8289 10.3833 30.0415 10.3833H33.4412C33.6538 10.3833 33.8577 10.4678 34.0081 10.6181C34.1585 10.7685 34.243 10.9724 34.243 11.1851C34.243 11.3977 34.1585 11.6017 34.0081 11.7521C33.8577 11.9024 33.6538 11.9869 33.4412 11.9869Z" fill="#2C00AB"/>
<path d="M89.655 25.6896H75.7278V24.086H88.8532V23.18H88.8051C88.5924 23.18 88.3885 23.0955 88.2381 22.9452C88.0877 22.7948 88.0033 22.5909 88.0033 22.3782V19.8285C88.0033 19.6159 88.0877 19.4119 88.2381 19.2615C88.3885 19.1112 88.5924 19.0267 88.8051 19.0267H88.8532V16.2605C88.6287 13.6627 85.8384 11.9068 80.5546 11.0889C74.8698 10.223 68.8083 9.48534 62.5382 8.98822C62.4438 8.98046 62.3515 8.95603 62.2656 8.91606L46.5825 1.60368L56.7332 7.49688C56.8822 7.585 56.9987 7.71897 57.0653 7.87878C57.1318 8.03858 57.1449 8.21563 57.1025 8.38347C57.06 8.5513 56.9645 8.7009 56.83 8.80991C56.6955 8.91892 56.5294 8.98147 56.3564 8.98822H25.0863C24.988 8.99003 24.8901 8.97372 24.7977 8.94012L22.4404 8.02607C22.3166 7.97888 22.2064 7.90175 22.1197 7.80157L20.6203 6.04563H17.5735L2.42757 12.7567L1.62578 14.697L2.53982 22.298L8.83392 23.6451L8.49717 25.2486L1.64181 23.7493C1.48174 23.7108 1.33738 23.624 1.22836 23.5006C1.11934 23.3773 1.05094 23.2233 1.03245 23.0597L0.00614849 14.6569C-0.0111484 14.5181 0.00820145 14.3771 0.0622743 14.248L1.07254 11.8426C1.15839 11.6648 1.30685 11.5249 1.48947 11.4497L17.0684 4.5142C17.1716 4.46716 17.2837 4.44257 17.3971 4.44204H20.9811C21.0969 4.44203 21.2114 4.46711 21.3166 4.51556C21.4218 4.564 21.5152 4.63466 21.5905 4.72267L23.1941 6.60689L25.2146 7.40868H53.3496L43.2069 1.49143C43.0564 1.40215 42.9393 1.26608 42.8733 1.10399C42.8074 0.941903 42.7963 0.76269 42.8417 0.593698C42.8871 0.424707 42.9866 0.275217 43.1249 0.168039C43.2632 0.0608598 43.4328 0.00187791 43.6078 9.19129e-05H46.815C46.9339 -0.00170775 47.0516 0.022941 47.1598 0.0722537L62.8188 7.44076C69.0729 7.96994 75.1264 8.67552 80.8031 9.54948C86.9128 10.4876 90.1601 12.7567 90.4247 16.2365V19.8686C90.4247 20.0812 90.3402 20.2852 90.1898 20.4356C90.0395 20.5859 89.8355 20.6704 89.6229 20.6704H89.5748V21.6165H89.6229C89.8355 21.6165 90.0395 21.701 90.1898 21.8514C90.3402 22.0017 90.4247 22.2057 90.4247 22.4183V24.9279C90.4148 25.1281 90.3303 25.3174 90.1878 25.4584C90.0454 25.5993 89.8552 25.6819 89.655 25.6896Z" fill="#2C00AB"/>
<path d="M61.4478 24.0859H23.0658V25.6895H61.4478V24.0859Z" fill="#2C00AB"/>
<path d="M68.5277 30.6929C66.796 30.6929 65.1032 30.1794 63.6634 29.2173C62.2235 28.2552 61.1013 26.8878 60.4386 25.2879C59.7759 23.688 59.6025 21.9275 59.9403 20.2291C60.2782 18.5307 61.1121 16.9706 62.3366 15.7461C63.5611 14.5216 65.1212 13.6877 66.8196 13.3499C68.518 13.012 70.2785 13.1854 71.8783 13.8481C73.4782 14.5108 74.8457 15.633 75.8077 17.0729C76.7698 18.5128 77.2833 20.2056 77.2833 21.9373C77.2812 24.2587 76.3581 26.4845 74.7165 28.1261C73.075 29.7676 70.8492 30.6907 68.5277 30.6929ZM68.5277 14.7852C67.1132 14.7852 65.7304 15.2047 64.5543 15.9906C63.3781 16.7764 62.4614 17.8934 61.9201 19.2003C61.3788 20.5072 61.2372 21.9452 61.5131 23.3325C61.7891 24.7199 62.4702 25.9943 63.4705 26.9945C64.4707 27.9947 65.7451 28.6759 67.1324 28.9519C68.5198 29.2278 69.9578 29.0862 71.2647 28.5449C72.5715 28.0035 73.6885 27.0869 74.4744 25.9107C75.2603 24.7346 75.6797 23.3518 75.6797 21.9373C75.6776 20.0411 74.9234 18.2232 73.5826 16.8824C72.2418 15.5416 70.4239 14.7874 68.5277 14.7852ZM15.8898 30.6929C14.1585 30.6913 12.4664 30.1764 11.0276 29.2134C9.58884 28.2503 8.46786 26.8824 7.8064 25.2823C7.14494 23.6823 6.97269 21.9221 7.31143 20.2242C7.65017 18.5263 8.4847 16.967 9.70951 15.7433C10.9343 14.5196 12.4944 13.6865 14.1926 13.3493C15.8908 13.0121 17.6509 13.186 19.2503 13.8489C20.8497 14.5118 22.2167 15.6341 23.1784 17.0737C24.1401 18.5134 24.6534 20.2059 24.6534 21.9373C24.6513 24.2601 23.7271 26.4871 22.0838 28.1289C20.4405 29.7707 18.2127 30.6929 15.8898 30.6929ZM15.8898 14.7852C14.4756 14.7868 13.0936 15.2076 11.9185 15.9945C10.7435 16.7813 9.82801 17.8988 9.28792 19.2058C8.74783 20.5128 8.60734 21.9506 8.88421 23.3375C9.16108 24.7243 9.84287 25.9979 10.8434 26.9973C11.844 27.9968 13.1183 28.6771 14.5055 28.9524C15.8926 29.2278 17.3302 29.0856 18.6366 28.5441C19.943 28.0025 21.0596 27.0858 21.8451 25.9099C22.6306 24.7339 23.0498 23.3515 23.0498 21.9373C23.0477 20.0397 22.2924 18.2206 20.9499 16.8795C19.6074 15.5385 17.7874 14.7852 15.8898 14.7852ZM68.5277 27.8545C67.3574 27.8545 66.2134 27.5075 65.2403 26.8573C64.2672 26.2071 63.5087 25.2829 63.0609 24.2017C62.613 23.1205 62.4958 21.9307 62.7242 20.7829C62.9525 19.635 63.516 18.5807 64.3436 17.7531C65.1711 16.9256 66.2255 16.362 67.3733 16.1337C68.5212 15.9054 69.7109 16.0226 70.7921 16.4704C71.8734 16.9183 72.7975 17.6767 73.4477 18.6498C74.0979 19.6229 74.445 20.7669 74.445 21.9373C74.4428 23.506 73.8187 25.0098 72.7095 26.119C71.6003 27.2283 70.0964 27.8524 68.5277 27.8545ZM68.5277 17.6316C67.6742 17.6316 66.8399 17.8848 66.1303 18.3592C65.4208 18.8335 64.8679 19.5077 64.5416 20.2964C64.2154 21.0851 64.1304 21.9528 64.2975 22.7898C64.4646 23.6268 64.8763 24.3954 65.4803 24.9983C66.0844 25.6013 66.8538 26.0115 67.6911 26.177C68.5284 26.3426 69.396 26.256 70.184 25.9283C70.9721 25.6006 71.6453 25.0464 72.1183 24.336C72.5913 23.6255 72.843 22.7908 72.8414 21.9373C72.8371 20.7952 72.3811 19.7013 71.5728 18.8946C70.7645 18.0878 69.6697 17.6337 68.5277 17.6316ZM15.8898 27.8545C14.7195 27.8545 13.5754 27.5075 12.6024 26.8573C11.6293 26.2071 10.8708 25.2829 10.423 24.2017C9.97512 23.1205 9.85794 21.9307 10.0863 20.7829C10.3146 19.635 10.8781 18.5807 11.7057 17.7531C12.5332 16.9256 13.5876 16.362 14.7354 16.1337C15.8832 15.9054 17.073 16.0226 18.1542 16.4704C19.2355 16.9183 20.1596 17.6767 20.8098 18.6498C21.46 19.6229 21.8071 20.7669 21.8071 21.9373C21.8049 23.506 21.1808 25.0098 20.0716 26.119C18.9624 27.2283 17.4585 27.8524 15.8898 27.8545ZM15.8898 17.6316C15.0363 17.6316 14.202 17.8848 13.4924 18.3592C12.7829 18.8335 12.23 19.5077 11.9037 20.2964C11.5775 21.0851 11.4925 21.9528 11.6596 22.7898C11.8267 23.6268 12.2384 24.3954 12.8424 24.9983C13.4465 25.6013 14.2159 26.0115 15.0532 26.177C15.8905 26.3426 16.7581 26.256 17.5461 25.9283C18.3342 25.6006 19.0074 25.0464 19.4804 24.336C19.9534 23.6255 20.2051 22.7908 20.2035 21.9373C20.2013 20.7946 19.7459 19.6995 18.9372 18.8922C18.1285 18.085 17.0325 17.6316 15.8898 17.6316Z" fill="#2C00AB"/>
<path d="M37.2736 8.75586L35.5979 5.89345L33.5052 6.45471L34.307 7.88992L32.9039 8.69172L31.6049 6.35849C31.546 6.25176 31.5122 6.133 31.5061 6.01124C31.5 5.88948 31.5218 5.76793 31.5697 5.65584C31.6176 5.54375 31.6905 5.44406 31.7827 5.36436C31.875 5.28466 31.9842 5.22704 32.1021 5.19589L35.7743 4.20968C35.9437 4.16451 36.1233 4.17612 36.2854 4.24274C36.4476 4.30935 36.5835 4.4273 36.6723 4.57851L38.6607 7.9701L37.2736 8.75586Z" fill="#2C00AB"/>
</svg>
