<svg width="92" height="33" viewBox="0 0 92 33" fill="none" xmlns="http://www.w3.org/2000/svg">
<path d="M91.023 25.2218H89.0426V23.7865H90.3335V22.9847H89.3473V21.5415H91.0551C91.2465 21.5415 91.43 21.6175 91.5654 21.7529C91.7007 21.8882 91.7767 22.0717 91.7767 22.2631V24.5242C91.7736 24.6197 91.7516 24.7136 91.712 24.8005C91.6723 24.8874 91.6158 24.9656 91.5456 25.0305C91.4755 25.0954 91.3932 25.1457 91.3035 25.1785C91.2138 25.2114 91.1185 25.226 91.023 25.2218Z" fill="#2C00AB"/>
<path d="M10.2261 27.8354C7.82071 27.4745 5.52757 27.0817 3.38678 26.6647C3.18206 26.625 3.00086 26.5071 2.88164 26.336L0.14752 22.3992C0.0717547 22.2922 0.0233665 22.1683 0.00659265 22.0383C-0.0101812 21.9083 0.00517103 21.7762 0.0513049 21.6535L2.22417 15.9848L4.16452 11.7193C4.25223 11.5362 4.40315 11.3909 4.58947 11.3103C17.5465 5.90623 26.1899 2.53869 30.1988 1.31996C37.2306 -0.443993 43.4285 -0.435975 48.6401 1.31996L48.7364 1.36005L64.1228 8.96107H73.7444C82.0189 9.0172 87.5673 11.6471 90.2453 16.7786C90.3193 16.9189 90.35 17.0779 90.3335 17.2356L89.5317 24.5159C89.52 24.6206 89.4877 24.7218 89.4368 24.814C89.3859 24.9062 89.3174 24.9874 89.2351 25.0531L86.99 26.8331C86.8501 26.9417 86.6781 27.0009 86.5009 27.0015L77.5048 27.1458V25.5422L86.2684 25.43L88.0324 24.0348L88.762 17.3318C86.3566 12.9059 81.3053 10.6368 73.8005 10.5887C72.4535 10.5887 69.1661 10.5887 63.9785 10.5887C63.8554 10.5889 63.7342 10.5586 63.6257 10.5005L48.0869 2.82733C43.1799 1.18365 37.3108 1.22374 30.6398 2.86742C26.711 4.05408 18.2441 7.35748 5.4955 12.6734L3.73957 16.6022L1.73508 21.8299L4.04425 25.1493C6.07279 25.5422 8.23764 25.9511 10.4987 26.2478L10.2261 27.8354Z" fill="#2C00AB"/>
<path d="M23.7844 27.9556V26.352C36.8484 26.1382 50.0566 25.9351 63.4092 25.7427V27.3463C50.0406 27.5334 36.8323 27.7365 23.7844 27.9556Z" fill="#2C00AB"/>
<path d="M70.361 32.1249C68.6353 32.1308 66.9465 31.6263 65.5069 30.6747C64.0674 29.723 62.9415 28.3669 62.2708 26.7769C61.813 25.6993 61.5784 24.5401 61.5813 23.3693C61.5797 21.6364 62.0919 19.9418 63.0532 18.5C64.0145 17.0581 65.3817 15.9336 66.982 15.2686C68.5822 14.6036 70.3437 14.428 72.0438 14.7639C73.7439 15.0999 75.3062 15.9323 76.5332 17.156C77.7603 18.3797 78.597 19.9397 78.9376 21.6388C79.2782 23.338 79.1074 25.0999 78.4468 26.702C77.7862 28.3041 76.6655 29.6744 75.2262 30.6396C73.787 31.6049 72.0939 32.1217 70.361 32.1249ZM63.7702 26.1595C64.4592 27.7955 65.7313 29.1173 67.3397 29.8683C68.9482 30.6193 70.7783 30.7461 72.4749 30.224C74.1716 29.7018 75.6137 28.5681 76.5217 27.0427C77.4296 25.5173 77.7385 23.709 77.3884 21.9687C77.0383 20.2284 76.0543 18.6802 74.6272 17.6244C73.2001 16.5687 71.4317 16.0808 69.6651 16.2553C67.8986 16.4298 66.2598 17.2543 65.0668 18.5688C63.8739 19.8833 63.2117 21.5941 63.2089 23.3693C63.2068 24.3276 63.3976 25.2766 63.7702 26.1595ZM17.1618 32.1249C15.5501 32.1348 13.9672 31.6979 12.5887 30.8629C11.2102 30.0279 10.09 28.8273 9.35229 27.3943L10.0659 27.0175L9.35229 27.3943C8.66412 26.0543 8.33365 24.5593 8.39287 23.0541C8.4521 21.5489 8.89903 20.0845 9.69036 18.8027C10.4817 17.5209 11.5906 16.4652 12.9097 15.7379C14.2289 15.0105 15.7135 14.6361 17.2198 14.6509C18.7261 14.6657 20.203 15.0693 21.5076 15.8225C22.8121 16.5757 23.9001 17.653 24.666 18.9501C25.432 20.2472 25.85 21.7201 25.8796 23.2262C25.9092 24.7323 25.5494 26.2205 24.835 27.5467L24.1294 27.1618L24.835 27.5467C24.0835 28.9273 22.9749 30.0806 21.625 30.886C20.2752 31.6914 18.7337 32.1193 17.1618 32.1249ZM10.8035 26.6567C11.4018 27.8118 12.3034 28.7822 13.4116 29.4635C14.5198 30.1448 15.7927 30.5114 17.0935 30.5237C18.3944 30.5361 19.674 30.1938 20.7949 29.5337C21.9159 28.8736 22.8358 27.9205 23.4559 26.7769C23.9725 25.8195 24.2639 24.7569 24.3079 23.6699C24.352 22.583 24.1474 21.5003 23.7099 20.5042C23.2724 19.5082 22.6135 18.6251 21.7832 17.9222C20.953 17.2192 19.9733 16.7149 18.9188 16.4477C17.8642 16.1804 16.7626 16.1573 15.6978 16.3799C14.6329 16.6026 13.6329 17.0653 12.7739 17.7327C11.9148 18.4002 11.2193 19.2548 10.7403 20.2315C10.2613 21.2083 10.0115 22.2814 10.0098 23.3693C10.0074 24.5138 10.2825 25.6418 10.8116 26.6567H10.8035ZM17.1297 29.3667C15.9594 29.3667 14.8154 29.0197 13.8423 28.3695C12.8692 27.7193 12.1107 26.7951 11.6629 25.7139C11.215 24.6327 11.0978 23.4429 11.3262 22.2951C11.5545 21.1472 12.118 20.0929 12.9456 19.2653C13.7731 18.4378 14.8275 17.8742 15.9753 17.6459C17.1232 17.4176 18.3129 17.5348 19.3942 17.9826C20.4754 18.4305 21.3995 19.1889 22.0497 20.162C22.6999 21.1351 23.047 22.2792 23.047 23.4495C23.0448 25.0182 22.4207 26.522 21.3115 27.6313C20.2023 28.7405 18.6984 29.3646 17.1297 29.3667ZM17.1297 19.1358C16.2766 19.1358 15.4426 19.3888 14.7332 19.8628C14.0238 20.3368 13.4709 21.0105 13.1444 21.7987C12.8179 22.5869 12.7325 23.4543 12.8989 24.291C13.0654 25.1278 13.4762 25.8964 14.0795 26.4997C14.6828 27.103 15.4514 27.5138 16.2882 27.6802C17.1249 27.8467 17.9923 27.7613 18.7805 27.4348C19.5687 27.1083 20.2424 26.5554 20.7164 25.846C21.1904 25.1366 21.4434 24.3026 21.4434 23.4495C21.4434 22.3054 20.9889 21.2082 20.1799 20.3993C19.371 19.5903 18.2738 19.1358 17.1297 19.1358ZM70.361 29.2865C69.1906 29.2865 68.0466 28.9395 67.0735 28.2893C66.1004 27.6391 65.342 26.715 64.8941 25.6337C64.4463 24.5525 64.3291 23.3627 64.5574 22.2149C64.7857 21.0671 65.3493 20.0127 66.1768 19.1852C67.0044 18.3576 68.0587 17.7941 69.2066 17.5657C70.3544 17.3374 71.5442 17.4546 72.6254 17.9025C73.7066 18.3503 74.6308 19.1088 75.281 20.0818C75.9312 21.0549 76.2782 22.199 76.2782 23.3693C76.2761 24.938 75.652 26.4418 74.5427 27.5511C73.4335 28.6603 71.9297 29.2844 70.361 29.2865ZM70.361 19.0636C69.5075 19.0637 68.6731 19.3168 67.9636 19.7912C67.254 20.2655 66.7011 20.9397 66.3749 21.7284C66.0486 22.5171 65.9637 23.3848 66.1308 24.2218C66.2979 25.0588 66.7095 25.8274 67.3136 26.4304C67.9177 27.0333 68.687 27.4435 69.5243 27.6091C70.3616 27.7746 71.2292 27.688 72.0173 27.3603C72.8054 27.0326 73.4785 26.4784 73.9515 25.768C74.4246 25.0576 74.6762 24.2228 74.6746 23.3693C74.6725 22.2266 74.2171 21.1315 73.4083 20.3243C72.5996 19.517 71.5036 19.0636 70.361 19.0636Z" fill="#2C00AB"/>
<path d="M58.3097 11.6069H18.1237C17.1375 11.5107 17.0413 10.8533 17.0253 10.717C16.9772 10.1557 16.929 9.51426 22.8222 7.12491C26.3101 5.70947 29.8759 4.49411 33.5022 3.48475C38.4733 2.10566 42.9553 2.22593 46.828 3.85358L58.6866 10.0996C58.8433 10.1842 58.9675 10.3186 59.0394 10.4815C59.1112 10.6445 59.1268 10.8268 59.0836 10.9996C59.0404 11.1724 58.9409 11.3259 58.8008 11.4359C58.6606 11.5459 58.4879 11.6061 58.3097 11.6069ZM40.0448 4.13421C37.9775 4.15517 35.9225 4.45453 33.9351 5.0242C29.2418 6.31501 24.6596 7.98007 20.2324 10.0034H55.0544L46.1465 5.30483C44.2113 4.51058 42.1365 4.11253 40.0448 4.13421Z" fill="#2C00AB"/>
<path d="M35.8116 14.5499H32.444C32.2314 14.5499 32.0274 14.4654 31.8771 14.315C31.7267 14.1647 31.6422 13.9607 31.6422 13.7481C31.6422 13.5354 31.7267 13.3315 31.8771 13.1811C32.0274 13.0308 32.2314 12.9463 32.444 12.9463H35.8116C36.0242 12.9463 36.2281 13.0308 36.3785 13.1811C36.5289 13.3315 36.6133 13.5354 36.6133 13.7481C36.6133 13.9607 36.5289 14.1647 36.3785 14.315C36.2281 14.4654 36.0242 14.5499 35.8116 14.5499Z" fill="#2C00AB"/>
<path d="M31.939 4.9583L30.4121 5.44824L32.2445 11.1589L33.7714 10.6689L31.939 4.9583Z" fill="#2C00AB"/>
</svg>
