<svg width="42" height="28" viewBox="0 0 42 28" fill="none" xmlns="http://www.w3.org/2000/svg">
<path d="M27.8677 4.45045L24.042 6.3218L26.3735 7.21658C26.8533 7.39968 27.4258 7.63528 27.6357 8.20291C27.8457 8.77053 27.5332 9.29788 27.2537 9.74588L25.9756 11.7393C24.4644 14.105 22.9531 16.4683 21.4395 18.8292C21.4395 18.0992 21.4395 17.368 21.4395 16.638C22.0193 14.8118 22.582 12.9856 23.1301 11.1607C23.2852 10.6394 23.4377 10.1182 23.5903 9.59817C23.6819 9.28445 23.6233 9.09646 23.3206 8.94632L20.9939 7.80129L18.677 8.94388C18.3743 9.09402 18.312 9.28201 18.4072 9.59573C18.5586 10.1182 18.7112 10.6394 18.8674 11.1582C19.4131 12.9917 19.9758 14.8179 20.5581 16.6356C20.5581 17.3655 20.5581 18.0967 20.5581 18.8267C19.0432 16.4647 17.5308 14.1014 16.0232 11.7369L14.7451 9.74344C14.4644 9.30398 14.1482 8.78274 14.363 8.20046C14.5791 7.61819 15.1443 7.39846 15.6252 7.21413L17.9568 6.31936L14.1311 4.44801L15.3237 6.44753L13.3523 7.20559C11.9705 5.0425 10.5911 2.87696 9.21289 0.708984C13.1387 2.10059 17.0645 3.5044 21.0012 4.84962C24.9429 3.5044 28.8638 2.10181 32.7896 0.708984C31.4138 2.87452 30.0344 5.03761 28.6526 7.19826L26.6812 6.4402L27.8738 4.44069" fill="#2C00AB"/>
<path fill-rule="evenodd" clip-rule="evenodd" d="M26.8333 24.3135V25.2083H31.6416C31.7393 25.2119 31.8223 25.1362 31.8259 25.0374V24.4844C31.821 24.3867 31.7393 24.3098 31.6416 24.3135H26.8333ZM25.6211 27.2871V23.4785H31.8552C32.4338 23.4785 32.9038 23.8325 32.9038 24.3684V25.1558C32.9038 25.7063 32.5376 26.0786 32.1665 26.0786L32.9966 27.2871H31.6428L30.9263 26.1262H26.8333V27.2871H25.6211Z" fill="#2C00AB"/>
<path d="M8.0991 27.2895H1.86499C1.28638 27.2895 0.816406 26.855 0.816406 26.3191V24.4502C0.816406 23.9143 1.28638 23.4797 1.86499 23.4797H8.0991V24.5222H2.07495C1.97607 24.5173 1.89306 24.593 1.88818 24.6919C1.88818 24.6931 1.88818 24.6956 1.88818 24.6968V26.0798C1.89306 26.1775 1.97485 26.2544 2.07251 26.2507H8.0991V27.2895ZM16.3694 23.4785V26.3179C16.3694 26.8538 15.8994 27.2883 15.3208 27.2883H10.1267C9.54808 27.2883 9.07811 26.8538 9.07811 26.3179V23.4785H10.3293V26.075C10.333 26.1726 10.416 26.2495 10.5137 26.2458H14.9326C15.0302 26.2495 15.1132 26.1738 15.1169 26.075V23.4785H16.3694ZM40.0033 25.2046V24.3123H35.245C35.1474 24.3086 35.0644 24.3843 35.0607 24.4832V25.1997C35.0595 25.1912 38.3053 25.2009 40.0033 25.2046ZM41.1825 27.2895H40.0033V26.1299H35.0656V27.2908H33.8864L33.8766 24.4514C33.8766 23.9155 34.3466 23.481 34.9252 23.481H41.1593C41.1703 23.4895 41.1764 23.4846 41.1776 23.481L41.1825 27.2895ZM18.5178 25.207H23.3823C23.4799 25.2107 23.5629 25.135 23.5666 25.0361V24.4832C23.5617 24.3855 23.4799 24.3086 23.3823 24.3123H18.5178V25.207V25.207ZM23.5922 23.4797C24.3625 23.4797 24.6408 23.8337 24.6408 24.3696V25.157C24.6408 25.6929 24.4016 26.1274 23.5922 26.1274H18.519V27.2883H17.3374V23.4785H23.5922V23.4797Z" fill="#2C00AB"/>
</svg>
