<svg width="32" height="29" viewBox="0 0 32 29" fill="none" xmlns="http://www.w3.org/2000/svg">
<g clip-path="url(#clip0_7316_15127)">
<path d="M1.64527 0.502L1.00527 0.570921L0.739422 0.620152C0.316037 0.738306 0.0304988 1.16169 0.0797296 1.60477L0.197883 2.27431C0.404653 3.42631 0.631114 4.57831 0.877268 5.71061C1.11358 6.81338 1.38927 7.95554 1.67481 9.09769L2.21634 11.1358L3.03358 13.9518L3.91973 16.758C4.2545 17.7722 5.28834 20.7358 5.47542 21.2282C6.33204 23.3845 7.22804 25.0878 8.87234 26.3875C10.5462 27.7069 12.348 28.15 16.0305 28.15C19.7031 28.15 21.5148 27.7069 23.1788 26.3875C24.8231 25.0878 25.7191 23.3845 26.5757 21.2282C26.7628 20.7457 27.8065 17.782 28.1314 16.758L29.0176 13.9518L29.8348 11.1358L30.3763 9.09769C30.6619 7.96539 30.9376 6.82323 31.1739 5.71061C31.42 4.57831 31.6563 3.41646 31.8533 2.27431L31.9714 1.59492C31.9714 1.55554 31.9813 1.526 31.9813 1.48662C31.9813 1.08292 31.7154 0.718616 31.3216 0.610308L31.0557 0.561077L30.4157 0.492153C28.2496 0.305076 21.4951 0.0786133 16.0305 0.0786133C10.5659 0.0884594 3.81142 0.314923 1.64527 0.502ZM9.12834 26.0725C7.5628 24.8318 6.6865 23.1777 5.85942 21.0805C5.67234 20.6177 4.62865 17.6245 4.30373 16.6398L3.42742 13.8435L2.62004 11.0275L2.0785 8.99923C1.79296 7.86692 1.52711 6.73462 1.28096 5.63185C1.03481 4.50938 0.808345 3.35738 0.601575 2.21523L0.483422 1.55554C0.453884 1.30938 0.611422 1.07307 0.847729 1.014L1.06434 0.974614L1.67481 0.905693C3.83111 0.718616 10.5659 0.492153 16.0305 0.492153C21.4853 0.492153 28.22 0.718616 30.3763 0.905693L30.9868 0.974614L31.2034 1.014C31.4397 1.07307 31.5973 1.30938 31.5677 1.56538L31.4496 2.21523C31.2428 3.35738 31.0163 4.49954 30.7702 5.63185C30.524 6.74446 30.2582 7.87677 29.9726 8.99923L29.4311 11.0275L28.6237 13.8435L27.7474 16.6398C27.4225 17.6245 26.3788 20.6177 26.2016 21.0805C25.3745 23.1777 24.4982 24.8318 22.9326 26.0725C21.5246 27.1851 20.0674 27.7463 16.0305 27.7463C12.0133 27.7463 10.5068 27.1654 9.12834 26.0725ZM31.3216 0.620152C31.3117 0.620152 31.3216 0.620152 31.3216 0.620152V0.620152Z" fill="#2C00AB"/>
<path d="M31.2718 0.817255C31.2226 0.807409 31.1143 0.787717 31.0355 0.777871C30.8484 0.748333 30.6416 0.728642 30.4053 0.70895C28.2983 0.521873 21.6226 0.29541 16.0398 0.29541C10.457 0.29541 3.77149 0.521873 1.67426 0.70895C1.4478 0.728642 1.24103 0.758179 1.04411 0.777871C0.965337 0.787717 0.85703 0.807409 0.807799 0.817255C0.463183 0.915717 0.256414 1.25049 0.295799 1.58526C0.295799 1.60495 0.384414 2.08741 0.413953 2.24495C0.620722 3.3871 0.847183 4.52926 1.09334 5.67141C1.33949 6.80372 1.60534 7.92618 1.89088 9.04864C2.06811 9.72803 2.24534 10.4074 2.43241 11.0868C2.57026 11.5889 2.99365 13.0659 3.2398 13.9028C3.52534 14.8382 3.81088 15.7736 4.11611 16.7089C4.45088 17.7231 5.48472 20.6868 5.6718 21.1693C6.51857 23.3256 7.42441 24.9896 9.00965 26.24C10.5358 27.4511 12.1604 27.9631 16.0398 27.9631C19.9192 27.9631 21.534 27.4511 23.07 26.24C24.6453 24.9896 25.5512 23.3256 26.398 21.1693C26.585 20.6966 27.6189 17.7329 27.9536 16.7089C28.2589 15.7736 28.5543 14.8382 28.83 13.9028C29.086 13.0659 29.4995 11.5889 29.6373 11.0868C29.8244 10.4074 30.0016 9.72803 30.1789 9.04864C30.4644 7.92618 30.7303 6.80372 30.9764 5.67141C31.2226 4.52926 31.449 3.3871 31.6558 2.24495C31.6853 2.08741 31.774 1.60495 31.774 1.58526C31.8133 1.25049 31.6164 0.90587 31.2718 0.817255ZM21.6718 18.688C21.2287 19.7219 20.7758 20.6966 20.0472 21.3563C19.5155 21.8388 18.7672 22.272 17.0343 22.3409C16.6995 22.3508 16.2761 22.3508 16.0398 22.3508C15.8035 22.3508 15.3703 22.3508 15.0453 22.3409C13.3124 22.272 12.5641 21.8388 12.0324 21.3563C11.3038 20.6966 10.841 19.7219 10.4078 18.688C10.2109 18.2253 9.03918 15.3699 8.85211 14.7889C11.225 14.9071 13.8638 14.9957 16.0496 14.9957C18.2355 14.9957 20.8743 14.9071 23.2472 14.7889C23.0404 15.3699 21.8687 18.2154 21.6718 18.688Z" stroke="#2C00AB" stroke-width="2" stroke-miterlimit="10"/>
<path d="M8.65518 14.848C8.8521 15.4387 10.014 18.2843 10.2207 18.7569C10.6441 19.7612 11.1266 20.795 11.8946 21.4941C12.4164 21.9667 13.1943 22.459 15.0355 22.528L16.0398 22.5378L17.0441 22.528C18.8755 22.459 19.6632 21.9667 20.185 21.4941C20.953 20.795 21.4355 19.7612 21.8589 18.7569C22.0656 18.2843 23.2275 15.4387 23.4244 14.848L23.513 14.5723L23.2176 14.5821C20.569 14.7101 18.0189 14.7889 16.03 14.7889C14.0509 14.7889 11.4909 14.72 8.84226 14.5821L8.54688 14.5723L8.65518 14.848ZM22.942 15.0055C22.5973 15.9113 21.662 18.2055 21.4946 18.6092C21.081 19.5741 20.6281 20.5686 19.9192 21.2086C19.4269 21.6516 18.7376 22.075 17.0343 22.144L16.0398 22.1538L15.0453 22.144C13.342 22.075 12.6232 21.632 12.1604 21.2086C11.4515 20.5686 10.9887 19.5741 10.585 18.6092C10.4078 18.2055 9.47241 15.9113 9.13764 15.0055C11.6878 15.1237 14.1296 15.1926 16.0398 15.1926C17.95 15.1926 20.3918 15.1237 22.942 15.0055ZM21.8589 18.7667C21.8589 18.7569 21.8589 18.7667 21.8589 18.7667V18.7667Z" fill="#2C00AB"/>
<path d="M23.2973 14.8578L23.2677 14.8774L23.1693 14.9464C23.1397 15.035 23.1102 15.1138 23.1004 15.1433C23.0413 15.291 22.992 15.4288 22.933 15.5765C22.8148 15.8818 22.6967 16.1771 22.5785 16.4824C22.3422 17.083 22.096 17.6836 21.84 18.2842C21.5939 18.875 21.3379 19.4658 21.0327 20.0368C20.7471 20.5587 20.4025 21.0608 19.9397 21.4448C19.477 21.8387 18.9157 22.075 18.3151 22.1931C17.6948 22.3211 17.045 22.3408 16.4148 22.3507C16.2868 22.3507 16.1588 22.3507 16.0308 22.3507C15.9028 22.3507 15.7748 22.3507 15.6468 22.3507C15.0068 22.3507 14.3668 22.331 13.7465 22.1931C13.1557 22.0651 12.5945 21.8288 12.1219 21.4448C11.6591 21.0608 11.3145 20.5587 11.029 20.0368C10.7237 19.4756 10.4677 18.875 10.2216 18.2842C9.96559 17.6836 9.71944 17.0928 9.48313 16.4824C9.36498 16.1771 9.24683 15.8818 9.12867 15.5765C9.06959 15.4288 9.02036 15.291 8.96129 15.1433C8.95144 15.1138 8.9219 15.0251 8.89236 14.9464L8.7939 14.8774L8.76436 14.8578C8.1736 14.3851 5.75144 11.5199 4.26467 8.09345C3.01421 5.20853 2.00006 1.75253 1.75391 0.905762C1.91144 1.82145 2.19698 2.82576 2.48252 3.81038C2.55144 4.04668 2.61052 4.27315 2.67944 4.49961C3.03391 5.77961 3.40806 7.0793 3.80191 8.36914C4.5699 10.8898 5.3576 13.4498 6.33237 16.0098C6.85421 17.3685 7.33667 18.5599 7.80929 19.6627C8.23267 20.6375 8.76436 21.7599 9.54221 22.6756C10.3299 23.611 11.2062 24.2018 12.2991 24.5562C13.2444 24.8615 14.357 24.9894 16.021 24.9894C17.685 24.9894 18.7976 24.8615 19.7428 24.5562C20.8357 24.2018 21.7121 23.611 22.4997 22.6756C23.2776 21.7599 23.8093 20.6375 24.2327 19.6627C24.7053 18.5599 25.1877 17.3685 25.7096 16.0098C26.6844 13.4498 27.472 10.8898 28.24 8.36914C28.6339 7.0793 29.0081 5.77961 29.3625 4.49961C29.4216 4.30268 29.4708 4.10576 29.5299 3.90884C29.8056 2.92422 30.0911 1.90022 30.2684 0.935299C30.0025 1.85099 28.9588 5.36607 27.7182 8.22145C26.261 11.6479 23.8782 14.3851 23.2973 14.8578Z" fill="#2C00AB"/>
<path d="M30.2482 0.688849C25.5122 0.403311 20.7762 0.285156 16.0303 0.285156C11.2845 0.285156 6.5485 0.403311 1.8125 0.688849C1.8125 0.688849 2.49188 3.81008 3.61435 6.80331C3.79158 7.26608 3.96881 7.73869 4.16573 8.18177C5.61312 11.5393 8.18296 14.2175 8.84266 14.7787C9.01004 14.7885 9.26604 14.7984 9.43343 14.8082C9.89619 14.8279 10.3491 14.8476 10.8119 14.8673C11.7177 14.9067 12.6236 14.9362 13.5294 14.9559C14.3663 14.9756 15.1934 14.9855 16.0303 14.9855C16.8673 14.9855 17.7042 14.9756 18.5313 14.9559C19.4371 14.9362 20.343 14.9067 21.2488 14.8673C21.7116 14.8476 22.1645 14.8279 22.6273 14.8082C22.7947 14.7984 23.0507 14.7885 23.218 14.7787C23.8777 14.2175 26.4476 11.5393 27.895 8.18177C28.6728 6.38977 29.2931 4.36146 29.6968 2.86485C29.6968 2.86485 29.6968 2.86485 29.6968 2.855C30.0611 1.58485 30.2482 0.688849 30.2482 0.688849Z" stroke="#2C00AB" stroke-miterlimit="10"/>
<path d="M30.2392 0.688965C30.2294 0.738196 29.3137 4.89327 27.8958 8.18189C26.4288 11.5887 23.8097 14.3062 23.2386 14.7887C23.2386 14.7887 23.2386 14.7887 23.2386 14.7985C23.2189 14.8576 23.1598 15.0151 23.1598 15.0151L23.2977 14.9068L23.3272 14.8871C24.046 14.3062 26.5961 11.5296 28.0238 8.23112C29.4318 4.98189 30.3475 0.876042 30.3869 0.698812C30.3278 0.698812 30.2786 0.688965 30.2392 0.688965ZM4.18631 8.18189C2.75862 4.89327 1.84292 0.728349 1.83308 0.688965C1.79369 0.688965 1.74446 0.698812 1.70508 0.698812C1.74446 0.876042 2.65031 4.96219 4.05831 8.23112C5.486 11.5296 8.02631 14.2963 8.74507 14.8773L8.77461 14.897C8.77461 14.897 8.88292 14.9757 8.92231 15.0053C8.92231 15.0053 8.86323 14.8477 8.84354 14.7887C8.26261 14.2964 5.65338 11.5887 4.18631 8.18189Z" fill="#2C00AB"/>
<path d="M9.65967 5.48384C9.33475 5.12938 8.89167 4.95215 8.34028 4.95215C8.34028 4.95215 6.00675 4.95215 5.89844 4.95215V8.2703C6.00675 8.2703 8.34028 8.2703 8.34028 8.2703C8.90151 8.2703 9.34459 8.10292 9.66951 7.7583C9.95505 7.46292 10.1027 7.07892 10.1027 6.63584C10.1027 6.19276 9.95505 5.79892 9.65967 5.48384ZM8.84244 7.30538C8.67505 7.53184 8.44859 7.64015 8.1729 7.64015H6.88305V5.56261H8.1729C8.45844 5.56261 8.6849 5.67092 8.85228 5.88753C8.99013 6.07461 9.0689 6.31092 9.0689 6.57676C9.05905 6.8623 8.98028 7.10846 8.84244 7.30538Z" fill="#2C00AB"/>
<path d="M15.7047 7.75838C15.4192 7.45315 15.2715 7.07899 15.2715 6.63592C15.2715 6.183 15.4192 5.78915 15.7146 5.47407C16.0395 5.11961 16.4826 4.94238 17.0241 4.94238C17.0241 4.94238 18.9343 4.94238 19.0426 4.94238C19.0426 5.031 19.0426 5.46423 19.0426 5.55284C18.9343 5.55284 17.2013 5.55284 17.2013 5.55284C16.9158 5.55284 16.6893 5.66115 16.5318 5.87777C16.3841 6.06484 16.3152 6.30115 16.3152 6.567C16.3152 6.84269 16.3939 7.08884 16.5318 7.28576C16.6992 7.51223 16.9256 7.62054 17.2013 7.62054C17.2013 7.62054 18.9343 7.62054 19.0426 7.62054C19.0426 7.70915 19.0426 8.16207 19.0426 8.25069C18.9343 8.25069 17.0241 8.25069 17.0241 8.25069C16.4727 8.27038 16.0198 8.10299 15.7047 7.75838Z" fill="#2C00AB"/>
<path d="M20.756 4.95215C20.756 5.08999 20.756 8.18169 20.756 8.2703C20.6576 8.2703 19.8797 8.2703 19.7812 8.2703C19.7812 8.18169 19.7812 5.08999 19.7812 4.95215C19.8797 4.95215 20.6576 4.95215 20.756 4.95215Z" fill="#2C00AB"/>
<path d="M25.8471 7.37455C25.5813 6.79362 25.3745 6.33085 25.2071 5.99608C24.9117 5.38562 24.8133 5.24777 24.7837 5.20839C24.6951 5.11977 24.5671 5.05085 24.3899 5.00162C24.2126 4.95239 24.0157 4.92285 23.8089 4.92285C23.6022 4.92285 23.3954 4.95239 23.2182 5.00162C23.0409 5.05085 22.9129 5.11977 22.8243 5.20839C22.7948 5.24777 22.6865 5.41516 22.4108 5.99608L21.7708 7.37455C21.7708 7.37455 21.436 8.1327 21.377 8.27054H22.4305C22.46 8.21147 22.716 7.66008 22.716 7.66008H24.9117C24.9117 7.66008 25.1776 8.21147 25.2071 8.27054H26.2409C26.1819 8.1327 25.8471 7.37455 25.8471 7.37455ZM22.9425 7.15793L23.6514 5.66131C23.681 5.61208 23.7302 5.59239 23.7991 5.59239C23.8976 5.59239 23.9271 5.63178 23.937 5.67116L24.6656 7.15793H22.9425Z" fill="#2C00AB"/>
<path d="M14.7398 7.37455C14.4739 6.79362 14.2672 6.33085 14.0998 5.99608C13.8044 5.38562 13.7059 5.24777 13.6764 5.20839C13.5878 5.11977 13.4598 5.05085 13.2825 5.00162C13.1053 4.95239 12.9084 4.92285 12.6918 4.92285C12.485 4.92285 12.2881 4.95239 12.101 5.00162C11.9238 5.05085 11.7958 5.11977 11.7072 5.20839C11.6776 5.24777 11.5693 5.41516 11.2936 5.99608L10.6536 7.37455C10.6536 7.37455 10.3188 8.1327 10.2598 8.27054H11.3133C11.3428 8.21147 11.5988 7.66008 11.5988 7.66008H13.8044C13.8044 7.66008 14.0702 8.21147 14.0998 8.27054H15.1336C15.0844 8.1327 14.7398 7.37455 14.7398 7.37455ZM11.845 7.15793L12.5539 5.66131C12.5835 5.61208 12.6327 5.59239 12.7016 5.59239C12.7902 5.59239 12.8296 5.63178 12.8395 5.67116L13.5681 7.15793H11.845Z" fill="#2C00AB"/>
<path d="M19.7812 8.27054H20.756V5.81885C20.4311 5.88777 20.1062 5.96654 19.7812 6.03546V8.27054Z" fill="#2C00AB"/>
<path d="M14.5232 6.89209C14.2967 6.92163 14.0702 6.94132 13.8339 6.97086C13.7158 6.9807 13.6075 7.0004 13.4893 7.01024L13.5681 7.16778H11.845V7.15794C11.5988 7.17763 11.3625 7.19732 11.1164 7.20717C10.9884 7.21701 10.8604 7.22686 10.7225 7.23671L10.6536 7.3844C10.6536 7.3844 10.3188 8.14255 10.2598 8.2804H11.3133C11.3428 8.22132 11.5988 7.66994 11.5988 7.66994H13.8044C13.8044 7.66994 14.0702 8.22132 14.0998 8.2804H15.1336C15.0745 8.14255 14.7299 7.3844 14.7299 7.3844C14.6708 7.20717 14.5921 7.03978 14.5232 6.89209Z" fill="#2C00AB"/>
<path d="M25.8472 7.37438C25.5813 6.79346 25.3746 6.33069 25.2072 5.99592C24.9118 5.38546 24.8133 5.24761 24.7838 5.20823C24.6952 5.11961 24.5672 5.05069 24.3899 5.00146C24.2816 4.97192 24.1635 4.95223 24.0453 4.94238C23.6219 5.07038 23.1887 5.19838 22.7456 5.31654C22.785 5.25746 22.6866 5.415 22.401 5.99592L21.761 7.37438C21.761 7.37438 21.4263 8.13254 21.3672 8.27038H22.4207C22.4503 8.2113 22.7063 7.65992 22.7063 7.65992H24.9118C24.9118 7.65992 25.1776 8.2113 25.2072 8.27038H26.241C26.1819 8.13254 25.8472 7.37438 25.8472 7.37438ZM22.9426 7.15777L23.6515 5.66115C23.681 5.61192 23.7303 5.59223 23.7992 5.59223C23.8976 5.59223 23.9272 5.63161 23.937 5.671L24.6656 7.15777H22.9426Z" fill="#2C00AB"/>
<path d="M8.17282 7.64018H6.88297V7.35465C6.55805 7.35465 6.23313 7.35465 5.9082 7.35465V8.28019C6.01651 8.28019 8.35005 8.28019 8.35005 8.28019C8.91128 8.28019 9.35436 8.11281 9.67928 7.76819C9.81713 7.6205 9.92543 7.45311 9.99436 7.27588C9.60051 7.29557 9.21651 7.31526 8.83251 7.32511C8.65528 7.53188 8.44851 7.64018 8.17282 7.64018Z" fill="#2C00AB"/>
<path d="M15.2715 6.646C15.2715 7.08907 15.4192 7.46323 15.7047 7.76846C16.0198 8.10323 16.4727 8.28046 17.0241 8.28046C17.0241 8.28046 18.9343 8.28046 19.0426 8.28046V7.6503C18.9343 7.6503 17.2013 7.6503 17.2013 7.6503C16.9256 7.6503 16.6992 7.53215 16.5318 7.31553C16.3939 7.1383 16.325 6.91184 16.3152 6.66569C15.9706 6.71492 15.6259 6.76415 15.2715 6.81338C15.2715 6.74446 15.2715 6.69523 15.2715 6.646Z" fill="#2C00AB"/>
<path d="M15.7146 5.48415C15.4192 5.79923 15.2715 6.19307 15.2715 6.64599C15.2715 6.69522 15.2715 6.7543 15.2813 6.80353C15.6358 6.7543 15.9804 6.70507 16.325 6.65584C16.325 6.63615 16.325 6.60661 16.325 6.58692C16.325 6.31122 16.3939 6.08476 16.5416 5.89769C16.709 5.68107 16.9355 5.57276 17.2112 5.57276C17.2112 5.57276 18.9441 5.57276 19.0524 5.57276V4.9623C18.9441 4.9623 17.0339 4.9623 17.0339 4.9623C16.4826 4.95246 16.0395 5.12969 15.7146 5.48415Z" fill="#2C00AB"/>
<path d="M19.7812 6.03523C20.1062 5.9663 20.4311 5.89738 20.756 5.81861V4.95215H19.7812V6.03523Z" fill="#2C00AB"/>
<path d="M23.7996 4.94238C23.5929 4.94238 23.3959 4.97192 23.2089 5.02115C23.0316 5.07038 22.9036 5.1393 22.815 5.22792C22.8052 5.23776 22.7855 5.27715 22.7461 5.33623C23.1892 5.21807 23.6224 5.09007 24.0458 4.96207C23.967 4.94238 23.8882 4.94238 23.7996 4.94238Z" fill="#2C00AB"/>
<path d="M11.845 7.14808L12.554 5.65147C12.5835 5.60224 12.6327 5.58254 12.7017 5.58254C12.7903 5.58254 12.8297 5.62193 12.8395 5.66131L13.4893 7.00039C13.6075 6.99054 13.7158 6.97085 13.834 6.96101C14.0604 6.94131 14.2967 6.91177 14.5232 6.88224C14.3558 6.52777 14.218 6.23239 14.1097 5.99608C13.8143 5.38562 13.7158 5.24777 13.6863 5.20839C13.5977 5.11977 13.4697 5.05085 13.2924 5.00162C13.1152 4.95239 12.9183 4.92285 12.7017 4.92285C12.4949 4.92285 12.298 4.95239 12.1109 5.00162C11.9337 5.05085 11.8057 5.11977 11.717 5.20839C11.6875 5.24777 11.5792 5.41516 11.3035 5.99608L10.7324 7.217C10.8604 7.20716 10.9884 7.19731 11.1263 7.18747C11.3626 7.18747 11.6087 7.16777 11.845 7.14808Z" fill="#2C00AB"/>
<path d="M8.35005 4.95215C8.35005 4.95215 6.01651 4.95215 5.9082 4.95215V7.34476C6.23313 7.34476 6.55805 7.35461 6.88297 7.34476V5.56261H8.17282C8.45836 5.56261 8.68482 5.67092 8.8522 5.88753C8.99005 6.07461 9.06882 6.31092 9.06882 6.57676C9.06882 6.8623 8.99005 7.09861 8.8522 7.29553C8.8522 7.30538 8.84236 7.30538 8.84236 7.31523C9.22636 7.30538 9.6202 7.28569 10.0042 7.266C10.083 7.07892 10.1125 6.8623 10.1125 6.63584C10.1125 6.18292 9.96482 5.78907 9.66943 5.474C9.33466 5.12938 8.90143 4.95215 8.35005 4.95215Z" fill="#2C00AB"/>
</g>
<defs>
<clipPath id="clip0_7316_15127">
<rect width="32" height="28.16" fill="white"/>
</clipPath>
</defs>
</svg>
