<svg width="25" height="35" viewBox="0 0 25 35" fill="none" xmlns="http://www.w3.org/2000/svg">
<path d="M1 1L1 0C0.447715 0 0 0.447715 0 1H1ZM1 33.5H0C0 34.0523 0.447715 34.5 1 34.5L1 33.5ZM24 33.5V34.5C24.5523 34.5 25 34.0523 25 33.5H24ZM24 9H25C25 8.73478 24.8946 8.48043 24.7071 8.29289L24 9ZM16 1L16.7071 0.292893C16.5196 0.105357 16.2652 0 16 0V1ZM16 9H15C15 9.55229 15.4477 10 16 10V9ZM7.5 17.5C6.94772 17.5 6.5 17.9477 6.5 18.5C6.5 19.0523 6.94772 19.5 7.5 19.5V17.5ZM18.5 19.5C19.0523 19.5 19.5 19.0523 19.5 18.5C19.5 17.9477 19.0523 17.5 18.5 17.5V19.5ZM7.5 24.5C6.94772 24.5 6.5 24.9477 6.5 25.5C6.5 26.0523 6.94772 26.5 7.5 26.5V24.5ZM18.5 26.5C19.0523 26.5 19.5 26.0523 19.5 25.5C19.5 24.9477 19.0523 24.5 18.5 24.5V26.5ZM0 1V33.5H2V1H0ZM1 34.5H24V32.5H1V34.5ZM25 33.5V9H23V33.5H25ZM24.7071 8.29289L16.7071 0.292893L15.2929 1.70711L23.2929 9.70711L24.7071 8.29289ZM16 0H1L1 2H16V0ZM15 1V9H17V1H15ZM16 10H24V8H16V10ZM7.5 19.5H18.5V17.5H7.5V19.5ZM7.5 26.5H18.5V24.5H7.5V26.5Z" fill="#6D6D6D"/>
</svg>
