<svg width="40" height="31" viewBox="0 0 40 31" fill="none" xmlns="http://www.w3.org/2000/svg">
<g clip-path="url(#clip0_7316_15157)">
<path d="M0.963251 27.5557C1.77807 27.5557 2.22251 28.0001 2.22251 28.8149C2.22251 29.5557 1.77807 30.0742 0.889178 30.0742H0.148438V27.5557H0.963251ZM1.92621 28.8149C1.92621 28.1483 1.62992 27.852 0.963251 27.852H0.592881V29.7779H0.963251C1.62992 29.7779 1.92621 29.4816 1.92621 28.8149Z" fill="#2C00AB"/>
<path d="M4.66688 27.926C4.51873 27.852 4.37059 27.7779 4.14836 27.7779C3.77799 27.7779 3.62985 27.926 3.62985 28.1483C3.62985 28.3705 3.77799 28.4446 4.07429 28.5927C4.66688 28.8149 4.8891 28.9631 4.8891 29.4075C4.8891 29.7038 4.66688 30.1483 4.00022 30.1483C3.62985 30.1483 3.33355 30.0001 3.11133 29.852L3.25948 29.6297C3.40762 29.7779 3.70392 29.852 4.00022 29.852C4.37059 29.852 4.59281 29.6297 4.59281 29.4075C4.59281 29.1853 4.44466 29.1112 4.00022 28.9631C3.4817 28.7408 3.25948 28.5927 3.25948 28.2223C3.25948 27.852 3.55577 27.5557 4.14836 27.5557C4.37059 27.5557 4.66688 27.6297 4.81503 27.7779" fill="#2C00AB"/>
<path d="M9.33355 30.0742H9.03726C8.96318 29.852 8.88911 29.6297 8.81503 29.4075H7.62985C7.55577 29.6297 7.4817 29.852 7.40763 30.0742H7.11133C7.33355 29.2594 7.70392 28.3705 8.07429 27.5557H8.37059C8.59281 28.0742 9.11133 29.2594 9.33355 30.0742ZM8.66689 29.0371C8.51874 28.6668 8.37059 28.2223 8.22244 27.852C8.07429 28.0742 7.85207 28.6668 7.778 29.0371H8.66689Z" fill="#2C00AB"/>
<path d="M11.9266 27.5557H12.2229V29.1112C12.2229 29.6297 12.0748 30.0742 11.26 30.0742C10.8896 30.0742 10.6674 30.0001 10.5192 29.7779C10.3711 29.5557 10.3711 29.3334 10.3711 29.1112V27.5557H10.6674V29.0371C10.6674 29.4816 10.7415 29.852 11.26 29.852C11.7785 29.852 11.8526 29.5557 11.8526 29.0371" fill="#2C00AB"/>
<path d="M14.4452 30.0742H14.1489V27.852H13.4082V27.5557H15.186V27.852H14.4452" fill="#2C00AB"/>
<path d="M16.1484 28.7407C16.1484 28 16.667 27.4814 17.3336 27.4814C18.0744 27.4814 18.5188 28 18.5188 28.7407C18.5188 29.4814 18.0744 30.074 17.3336 30.074C16.5929 30.074 16.1484 29.5555 16.1484 28.7407ZM16.4447 28.7407C16.4447 29.2592 16.741 29.7777 17.3336 29.7777C17.9262 29.7777 18.2225 29.2592 18.2225 28.7407C18.2225 28.2222 17.8521 27.7777 17.3336 27.7777C16.8151 27.7777 16.4447 28.1481 16.4447 28.7407Z" fill="#2C00AB"/>
<path d="M22.3701 27.5557V30.0742H22.0738V27.926C21.9256 28.0742 21.7034 28.4446 21.6293 28.6668C21.5553 28.889 21.4071 29.1853 21.333 29.4075H20.9627C20.7405 28.9631 20.5182 28.4446 20.1479 28.0001V30.1483H19.8516V27.6297H20.296C20.5923 28.0001 20.6664 28.1483 20.8145 28.3705C20.9627 28.6668 21.0367 28.7408 21.1108 28.9631C21.333 28.5186 21.6293 28.0001 21.9256 27.5557" fill="#2C00AB"/>
<path d="M23.7031 28.7407C23.7031 28 24.2216 27.4814 24.8883 27.4814C25.629 27.4814 26.0735 28 26.0735 28.7407C26.0735 29.4814 25.629 30.074 24.8883 30.074C24.1476 30.074 23.7031 29.5555 23.7031 28.7407ZM23.9994 28.7407C23.9994 29.2592 24.2957 29.7777 24.8883 29.7777C25.4809 29.7777 25.7772 29.2592 25.7772 28.7407C25.7772 28.2222 25.4068 27.7777 24.8883 27.7777C24.3698 27.7777 23.9994 28.1481 23.9994 28.7407Z" fill="#2C00AB"/>
<path d="M29.1119 29.3333C29.1119 29.5555 29.0378 29.7777 28.8156 29.8518C28.5934 30 28.4452 30 28.1489 30H27.4082V27.4814H28.1489C28.6675 27.4814 28.8897 27.7777 28.8897 28.1481C28.8897 28.3703 28.7415 28.5926 28.5934 28.6666C28.8897 28.7407 29.1119 29.037 29.1119 29.3333ZM27.7045 28.6666H28.0008C28.2971 28.6666 28.5193 28.5926 28.5193 28.2222C28.5193 27.9259 28.3712 27.7777 28.0008 27.7777H27.7045V28.6666ZM28.7415 29.3333C28.7415 28.9629 28.4452 28.8889 28.0749 28.8889H27.7045V29.7777H28.1489C28.5934 29.7777 28.7415 29.6296 28.7415 29.3333Z" fill="#2C00AB"/>
<path d="M30.7416 27.5557H30.4453V30.0742H30.7416V27.5557Z" fill="#2C00AB"/>
<path d="M32.7415 29.7779H33.7785V30.0742H32.3711V27.5557H32.7415" fill="#2C00AB"/>
<path d="M35.2592 27.852V28.5186H36.1481V28.8149H35.2592V29.7779H36.4444V30.0742H34.9629V27.5557H36.3703V27.852" fill="#2C00AB"/>
<path d="M39.1122 27.926C38.9641 27.852 38.8159 27.7779 38.5937 27.7779C38.2233 27.7779 38.0752 27.926 38.0752 28.1483C38.0752 28.3705 38.2233 28.4446 38.5196 28.5927C39.1122 28.8149 39.3344 28.9631 39.3344 29.4075C39.3344 29.7038 39.1122 30.1483 38.4455 30.1483C38.0752 30.1483 37.7789 30.0001 37.5566 29.852L37.7048 29.6297C37.8529 29.7779 38.1492 29.852 38.4455 29.852C38.8159 29.852 39.0381 29.6297 39.0381 29.4075C39.0381 29.1853 38.89 29.1112 38.4455 28.9631C37.927 28.7408 37.7048 28.5927 37.7048 28.2223C37.7048 27.852 38.0011 27.5557 38.5937 27.5557C38.8159 27.5557 39.1122 27.6297 39.2603 27.7779" fill="#2C00AB"/>
<path d="M27.1195 14.0005C27.5778 14.4079 27.9313 14.7105 28.2518 14.98C28.4419 15.1481 28.5908 15.2711 28.6815 15.3391C28.7249 15.3717 28.7863 15.3637 28.82 15.3212C28.8536 15.2786 28.8472 15.217 28.8056 15.1823L28.8055 15.1823C28.6666 15.0665 28.5277 14.9507 28.382 14.8282C27.9454 14.4421 27.2814 13.8094 26.603 13.0535C25.6324 11.972 24.6444 10.6514 24.2438 9.44973C24.0994 9.01651 24.0267 8.50878 24.0267 8.07395C24.0267 7.64955 24.168 7.22184 24.317 6.77505C24.497 6.32623 24.8504 5.79001 25.2968 5.2263C25.7429 4.66288 26.2774 4.07767 26.8129 3.53294C27.8854 2.44188 28.9545 1.52103 29.3174 1.26698C29.3623 1.23556 29.3735 1.17388 29.3426 1.12865C29.3117 1.08341 29.2502 1.07146 29.2046 1.10185C28.8646 1.32854 28.0442 2.01884 27.2312 2.73017C26.4164 3.44313 25.5994 4.18582 25.2634 4.52175C24.15 5.63519 23.3082 6.84567 23.3082 8.07395C23.3082 9.44749 24.2211 10.8057 25.2589 11.9916L25.2589 11.9917L25.2598 11.9927C25.3272 12.0675 25.3938 12.1417 25.4598 12.2151C26.046 12.8671 26.5805 13.4618 27.1153 13.9965L27.1151 13.9966L27.1195 14.0005Z" fill="#2C00AB" stroke="#2C00AB" stroke-width="0.2" stroke-linejoin="round"/>
<path d="M24.0794 12.2353L24.0797 12.2351L24.0743 12.2292C24.007 12.1543 23.9403 12.0802 23.8743 12.0068C23.2882 11.3548 22.7536 10.7601 22.2189 10.2254L22.219 10.2252L22.2146 10.2213C22.0324 10.0594 21.866 9.9077 21.7096 9.76511C21.2986 9.39049 20.9564 9.07855 20.5766 8.8073L20.4534 8.9646C20.71 9.18454 21.6511 10.0333 22.629 11.1311C23.6093 12.2316 24.6157 13.5706 25.0162 14.7721C25.1606 15.2054 25.2333 15.7131 25.2333 16.1479C25.2333 16.5723 25.092 17 24.9431 17.4468C24.7631 17.8954 24.4099 18.4269 23.9636 18.9848C23.5175 19.5424 22.9831 20.1207 22.4475 20.6609C21.3761 21.7415 20.3049 22.6649 19.9375 22.9587L20.0555 23.12C20.3955 22.8933 21.2159 22.203 22.0288 21.4917C22.8436 20.7787 23.6607 20.0361 23.9966 19.7001C25.1092 18.5876 25.9505 17.3781 25.9518 16.1509C25.9896 15.4953 25.7579 14.8287 25.4027 14.1743C25.0467 13.5185 24.5607 12.8647 24.0794 12.2353Z" fill="#2C00AB" stroke="#2C00AB" stroke-width="0.2"/>
<path d="M10.0727 14.9851C9.9655 15.0655 9.94072 15.216 10.0165 15.3265C10.0922 15.437 10.2416 15.4681 10.3552 15.3971C10.9577 15.0205 11.4842 14.6442 12.2307 14.047C12.9793 13.4481 13.7269 12.7752 14.4735 12.0286C15.6664 10.8356 16.6208 9.43964 16.6208 8.074C16.6208 7.38685 16.3789 6.69627 16.0157 6.03673C15.6518 5.37598 15.1576 4.73117 14.633 4.1316L14.6331 4.13157L14.6299 4.12806C14.1014 3.5468 13.5261 3.06752 13.0078 2.63572C12.7886 2.45316 12.5797 2.27908 12.3887 2.10937L12.389 2.10912L12.3788 2.10101C11.8499 1.67783 11.389 1.36196 10.986 1.08576C10.8198 0.971824 10.6634 0.864638 10.5161 0.759457C10.4047 0.679864 10.25 0.704728 10.1691 0.815226C10.0882 0.925724 10.1113 1.08073 10.2208 1.16289C10.5124 1.38162 11.5591 2.18953 12.6508 3.24451C13.7479 4.30474 14.8591 5.58513 15.3209 6.75188C15.4518 7.14962 15.4541 7.62306 15.4541 8.074C15.4541 8.49523 15.3833 8.97155 15.1842 9.36961C15.1813 9.3754 15.1787 9.38131 15.1762 9.38731C14.7159 10.5204 13.6018 11.8042 12.5019 12.8765C11.4093 13.9415 10.3623 14.7679 10.0727 14.9851Z" fill="#2C00AB" stroke="#2C00AB" stroke-width="0.5" stroke-linejoin="round"/>
<path d="M24.7563 6.85948L24.7567 6.85969L24.7601 6.85066C25.1237 5.90542 25.9283 4.80578 26.8116 3.92251L27.9783 2.75584L29.256 1.47806C29.4151 1.31901 29.5076 1.14693 29.5076 0.962909C29.5076 0.903295 29.5225 0.841361 29.5416 0.764941L29.5429 0.759951C29.5605 0.689231 29.5816 0.604955 29.5816 0.518464V0.222168V0.0174216L29.4202 0.1433L20.0127 7.47663L20.0123 7.47603L20.0035 7.48479L20.0019 7.48638C19.9491 7.53923 19.8537 7.63455 19.7734 7.77107C19.751 7.73912 19.728 7.71086 19.7057 7.68487C19.6929 7.66994 19.6809 7.6563 19.6697 7.64354C19.6265 7.59436 19.5948 7.55818 19.5711 7.51078L19.561 7.49054L19.5431 7.47663L10.1357 0.1433L9.97422 0.0174216V0.222168V15.9999V16.2047L10.1357 16.0788L19.5431 8.74548L19.5436 8.74608L19.5523 8.73732L19.5539 8.73573C19.6072 8.68245 19.7037 8.58597 19.7845 8.44762C19.7916 8.45932 19.7987 8.47061 19.8058 8.48134C19.8265 8.51232 19.8507 8.5437 19.8787 8.56826C19.897 8.5842 19.9213 8.60112 19.951 8.61069C20.0037 8.66306 20.0691 8.72704 20.1453 8.80163C20.5794 9.22658 21.3655 9.99598 22.1651 10.9262C22.6025 11.4352 23.0418 11.9899 23.4285 12.5601C23.8927 13.2536 24.2749 13.956 24.4972 14.6221C24.6318 15.0931 24.7611 15.5485 24.7851 15.9466C24.7872 16.0004 24.7885 16.0543 24.7889 16.1081C24.7881 16.1952 24.7843 16.2822 24.777 16.369C24.749 16.6343 24.6752 16.902 24.5878 17.1759C24.5625 17.2382 24.5344 17.3004 24.5033 17.3626L24.5029 17.3624L24.4994 17.3715C24.1359 18.3167 23.3312 19.4163 22.448 20.2996L22.4466 20.301C22.0757 20.6718 20.5239 22.2236 20.0011 22.8205C19.8435 22.9789 19.752 23.1502 19.752 23.3333C19.752 23.3929 19.7371 23.4548 19.7179 23.5312L19.7167 23.5362C19.699 23.607 19.6779 23.6912 19.6779 23.7777V24.074V24.2798L19.8397 24.1527L29.1655 16.8253C29.2521 16.7798 29.3512 16.6981 29.4301 16.5995C29.5113 16.498 29.5816 16.3652 29.5816 16.2222C29.5816 15.8852 29.4097 15.7125 29.3301 15.6329C29.2741 15.5769 29.2013 15.5056 29.1143 15.4205C29.0448 15.3525 28.9664 15.2757 28.8803 15.1909L28.8838 15.1867C28.8015 15.1085 28.7175 15.0277 28.6323 14.9446C28.2027 14.5147 27.6519 13.9444 27.0945 13.2959C26.5231 12.631 25.9485 11.8882 25.4923 11.1348C25.1829 10.6187 24.9297 10.1015 24.7624 9.6C24.6278 9.12901 24.4985 8.67357 24.4745 8.27547C24.4723 8.22168 24.4711 8.16785 24.4707 8.11397C24.4714 8.02687 24.4752 7.93994 24.4825 7.85316C24.5105 7.58778 24.5844 7.32006 24.6717 7.04619C24.697 6.98393 24.7251 6.9217 24.7563 6.85948ZM20.2146 7.63065L29.3076 0.574493V0.574873V0.575359V0.575847V0.576334V0.576823V0.577313V0.577803V0.578294V0.578787V0.57928V0.579773V0.580268V0.580764V0.581261V0.581758V0.582257V0.582756V0.583256V0.583758V0.58426V0.584763V0.585267V0.585772V0.586278V0.586785V0.587293V0.587802V0.588313V0.588824V0.589336V0.589849V0.590363V0.590878V0.591394V0.591911V0.59243V0.592949V0.593469V0.593991V0.594513V0.595037V0.595562V0.596087V0.596614V0.597142V0.597672V0.598202V0.598733V0.599266V0.5998V0.600334V0.60087V0.601408V0.601946V0.602486V0.603026V0.603568V0.604111V0.604656V0.605201V0.605748V0.606296V0.606845V0.607396V0.607947V0.6085V0.609054V0.60961V0.610167V0.610725V0.611284V0.611844V0.612406V0.61297V0.613534V0.6141V0.614667V0.615236V0.615805V0.616376V0.616949V0.617523V0.618098V0.618675V0.619253V0.619832V0.620413V0.620995V0.621578V0.622163V0.62275V0.623338V0.623927V0.624518V0.62511V0.625703V0.626298V0.626895V0.627493V0.628092V0.628693V0.629296V0.629899V0.630505V0.631112V0.63172V0.63233V0.632942V0.633555V0.634169V0.634785V0.635403V0.636022V0.636643V0.637265V0.637889V0.638515V0.639142V0.639771V0.640401V0.641033V0.641667V0.642302V0.642939V0.643577V0.644218V0.644859V0.645503V0.646148V0.646795V0.647443V0.648094V0.648746V0.649399V0.650054V0.650711V0.65137V0.652031V0.652693V0.653357V0.654022V0.65469V0.655359V0.65603V0.656703V0.657377V0.658054V0.658732V0.659412V0.660093V0.660777V0.661462V0.66215V0.662839V0.663529V0.664222V0.664917V0.665613V0.666311V0.667012V0.667714V0.668418V0.669123V0.669831V0.670541V0.671252V0.671966V0.672681V0.673399V0.674118V0.674839V0.675562V0.676287V0.677015V0.677744V0.678475V0.679208V0.679943V0.68068V0.681419V0.68216V0.682903V0.683648V0.684395V0.685144V0.685896V0.686649V0.687404V0.688162V0.688921V0.689683V0.690446V0.691212V0.69198V0.69275V0.693522V0.694296V0.695072V0.695851V0.696631V0.697414V0.698199V0.698986V0.699775V0.700567V0.70136V0.702156V0.702954V0.703754V0.704556V0.705361V0.706167V0.706976V0.707788V0.708601V0.709417V0.710235V0.711055V0.711877V0.712702V0.713529V0.714359V0.71519V0.716024V0.71686V0.717699V0.71854V0.719383V0.720228V0.721076V0.721926V0.722779V0.723634V0.724491V0.72535V0.726212V0.727077V0.727944V0.728813V0.729684V0.730558V0.731435V0.732313V0.733195V0.734078V0.734965V0.735853V0.736744V0.737638V0.738534V0.739432V0.740333V0.741236V0.742142V0.743051V0.743962V0.744875V0.745791V0.74671V0.747631V0.748554V0.74948V0.750409V0.75134V0.752274V0.753211V0.754149V0.755091V0.756035V0.756982V0.757931V0.758883V0.759838V0.760795V0.761755V0.762718V0.763683V0.764651V0.765621V0.766594V0.76757V0.768549V0.76953V0.770514V0.7715V0.77249V0.773482V0.774476V0.775474V0.776474V0.777477V0.778483V0.779491V0.780502V0.781516V0.782533V0.783553V0.784575V0.7856V0.786628V0.787659V0.788692V0.789729V0.790768V0.79181V0.792855V0.793903V0.794953V0.796007V0.797063V0.798122V0.799184V0.800249V0.801317V0.802388V0.803461V0.804538V0.805618V0.8067V0.807785V0.808874V0.809965V0.811059V0.812156V0.813256V0.814359V0.815465V0.816574V0.817686V0.818802V0.81992V0.821041V0.822165V0.823292V0.824422V0.825555V0.826692V0.827831V0.828973V0.830119V0.831267V0.832419V0.833573V0.834731V0.835892V0.837056V0.838223V0.839393V0.840566V0.841743V0.842922V0.844105V0.845291V0.84648V0.847672V0.848868V0.850066V0.851268V0.852473V0.853681V0.854892V0.856107V0.857325V0.858546V0.85977V0.860997V0.862228V0.863462V0.864699V0.86594V0.867184V0.868431V0.869681V0.870934V0.872191V0.873452V0.874715V0.875982V0.877252V0.878526V0.879803V0.881083V0.882366V0.883653V0.884943V0.886237V0.887534V0.888834C29.3076 0.9484 29.2922 1.02719 29.2606 1.09822C29.2285 1.17051 29.1858 1.22124 29.1406 1.24384L29.1261 1.25109L29.1146 1.26257C28.875 1.50217 28.5732 1.81175 28.2624 2.13048C28.0923 2.30495 27.9195 2.48217 27.7528 2.65215C27.2782 3.13603 26.8576 3.55626 26.6784 3.69964L26.6727 3.70418L26.6678 3.70949C25.6284 4.82316 24.8762 5.87222 24.5728 6.70651L24.5728 6.7065L24.5719 6.70906L24.5692 6.7173C24.5403 6.8039 24.5112 6.89123 24.4831 6.97918C24.3674 7.2662 24.3071 7.55268 24.2831 7.83777C24.275 7.91637 24.2705 7.99515 24.2705 8.07402C24.2705 8.08729 24.2706 8.10057 24.2707 8.11385C24.2706 8.12527 24.2705 8.13668 24.2705 8.14809C24.2705 8.19254 24.2719 8.23766 24.2746 8.28336C24.2931 8.74153 24.3757 9.20261 24.5731 9.66472C24.7406 10.1808 25.0021 10.7107 25.3179 11.233C25.6219 11.7405 25.9775 12.2442 26.3566 12.7283C26.7806 13.2698 27.2352 13.7886 27.682 14.2632L20.5847 8.81343L20.5728 8.80171C20.5624 8.7914 20.5474 8.77671 20.5292 8.7591C20.4929 8.72395 20.4434 8.67688 20.3915 8.62966C20.3399 8.58274 20.2843 8.53429 20.2359 8.49707C20.2119 8.47861 20.1876 8.46132 20.1653 8.44818C20.1541 8.44162 20.1416 8.435 20.1286 8.42978C20.1277 8.42945 20.1269 8.42911 20.126 8.42877C20.0615 8.36374 20.0022 8.29906 19.9414 8.17745L19.9342 8.16293L19.9227 8.15146L19.9227 8.15144C19.9225 8.15127 19.9223 8.15108 19.922 8.15027C19.9215 8.14919 19.9205 8.14655 19.9198 8.14153C19.9183 8.13049 19.9189 8.11408 19.9229 8.09046C19.9259 8.07196 19.9301 8.05403 19.9348 8.03379C19.9362 8.02781 19.9376 8.02163 19.9391 8.01516C19.943 7.99806 19.9479 7.97608 19.9504 7.95351C20.0172 7.83032 20.1407 7.70457 20.2146 7.63065ZM19.3413 8.51739L10.2483 15.5735V0.574493L19.3462 7.63451L19.354 7.64054L19.3628 7.64494C19.4154 7.67125 19.4768 7.7295 19.5255 7.81065C19.5736 7.89083 19.6038 7.98436 19.6038 8.07402C19.6038 8.24666 19.4929 8.36564 19.3413 8.51739ZM24.9849 15.9388C24.9665 15.4806 24.8838 15.0195 24.6865 14.5574C24.4608 13.8619 24.0642 13.1413 23.5943 12.4483C23.3697 12.1128 23.1271 11.7807 22.8754 11.4571C22.4311 10.8859 21.9571 10.3391 21.5011 9.84393L28.6005 15.4083L28.6005 15.4084L28.6128 15.4205C28.6234 15.431 28.6387 15.446 28.6574 15.4641C28.6949 15.5004 28.7465 15.5497 28.8029 15.6014C28.8592 15.653 28.921 15.7077 28.9788 15.7546C29.0287 15.7952 29.0806 15.8341 29.1251 15.859C29.1611 15.8951 29.2057 15.9413 29.2428 15.9933C29.2851 16.0523 29.3076 16.1054 29.3076 16.1481C29.3076 16.2283 29.2662 16.3186 29.2053 16.4056C29.1482 16.487 29.0827 16.5537 29.045 16.5915L19.952 23.6476V23.6474V23.6467V23.6459V23.6451V23.6444V23.6436V23.6428V23.6421V23.6413V23.6406V23.6398V23.6391V23.6383V23.6376V23.6368V23.6361V23.6353V23.6346V23.6338V23.6331V23.6323V23.6316V23.6308V23.6301V23.6294V23.6286V23.6279V23.6272V23.6264V23.6257V23.625V23.6242V23.6235V23.6228V23.622V23.6213V23.6206V23.6198V23.6191V23.6184V23.6177V23.617V23.6162V23.6155V23.6148V23.6141V23.6134V23.6126V23.6119V23.6112V23.6105V23.6098V23.6091V23.6084V23.6077V23.6069V23.6062V23.6055V23.6048V23.6041V23.6034V23.6027V23.602V23.6013V23.6006V23.5999V23.5992V23.5985V23.5978V23.5971V23.5964V23.5957V23.595V23.5943V23.5936V23.5929V23.5922V23.5915V23.5909V23.5902V23.5895V23.5888V23.5881V23.5874V23.5867V23.586V23.5854V23.5847V23.584V23.5833V23.5826V23.5819V23.5813V23.5806V23.5799V23.5792V23.5785V23.5779V23.5772V23.5765V23.5758V23.5752V23.5745V23.5738V23.5731V23.5725V23.5718V23.5711V23.5704V23.5698V23.5691V23.5684V23.5678V23.5671V23.5664V23.5658V23.5651V23.5644V23.5638V23.5631V23.5624V23.5618V23.5611V23.5604V23.5598V23.5591V23.5584V23.5578V23.5571V23.5564V23.5558V23.5551V23.5545V23.5538V23.5531V23.5525V23.5518V23.5512V23.5505V23.5498V23.5492V23.5485V23.5479V23.5472V23.5465V23.5459V23.5452V23.5446V23.5439V23.5433V23.5426V23.542V23.5413V23.5406V23.54V23.5393V23.5387V23.538V23.5374V23.5367V23.5361V23.5354V23.5348V23.5341V23.5335V23.5328V23.5321V23.5315V23.5308V23.5302V23.5295V23.5289V23.5282V23.5276V23.5269V23.5263V23.5256V23.525V23.5243V23.5237V23.523V23.5224V23.5217V23.5211V23.5204V23.5198V23.5191V23.5185V23.5178V23.5172V23.5165V23.5159V23.5152V23.5146V23.5139V23.5133V23.5126V23.512V23.5113V23.5107V23.51V23.5093V23.5087V23.508V23.5074V23.5067V23.5061V23.5054V23.5048V23.5041V23.5035V23.5028V23.5022V23.5015V23.5009V23.5002V23.4996V23.4989V23.4983V23.4976V23.4969V23.4963V23.4956V23.495V23.4943V23.4937V23.493V23.4924V23.4917V23.491V23.4904V23.4897V23.4891V23.4884V23.4878V23.4871V23.4864V23.4858V23.4851V23.4845V23.4838V23.4831V23.4825V23.4818V23.4812V23.4805V23.4798V23.4792V23.4785V23.4778V23.4772V23.4765V23.4758V23.4752V23.4745V23.4738V23.4732V23.4725V23.4718V23.4712V23.4705V23.4698V23.4692V23.4685V23.4678V23.4672V23.4665V23.4658V23.4651V23.4645V23.4638V23.4631V23.4625V23.4618V23.4611V23.4604V23.4597V23.4591V23.4584V23.4577V23.457V23.4564V23.4557V23.455V23.4543V23.4536V23.4529V23.4523V23.4516V23.4509V23.4502V23.4495V23.4488V23.4481V23.4475V23.4468V23.4461V23.4454V23.4447V23.444V23.4433V23.4426V23.4419V23.4412V23.4405V23.4398V23.4391V23.4384V23.4377V23.437V23.4363V23.4356V23.4349V23.4342V23.4335V23.4328V23.4321V23.4314V23.4307V23.43V23.4293V23.4286V23.4279V23.4271V23.4264V23.4257V23.425V23.4243V23.4236V23.4229V23.4221V23.4214V23.4207V23.42V23.4193V23.4185V23.4178V23.4171V23.4164V23.4156V23.4149V23.4142V23.4134V23.4127V23.412V23.4112V23.4105V23.4098V23.409V23.4083V23.4076V23.4068V23.4061V23.4053V23.4046V23.4039V23.4031V23.4024V23.4016V23.4009V23.4001V23.3994V23.3986V23.3979V23.3971V23.3964V23.3956V23.3948V23.3941V23.3933V23.3926V23.3918V23.391V23.3903V23.3895V23.3887V23.388V23.3872V23.3864V23.3857V23.3849V23.3841V23.3833V23.3826V23.3818V23.381V23.3802V23.3794V23.3786V23.3779V23.3771V23.3763V23.3755V23.3747V23.3739V23.3731V23.3723V23.3715V23.3707V23.3699V23.3691V23.3683V23.3675V23.3667V23.3659V23.3651V23.3643V23.3635V23.3627V23.3619V23.361V23.3602V23.3594V23.3586V23.3578V23.3569V23.3561V23.3553V23.3545V23.3536V23.3528V23.352V23.3511V23.3503V23.3495V23.3486V23.3478V23.347V23.3461V23.3453V23.3444V23.3436V23.3427V23.3419V23.341V23.3402V23.3393V23.3385V23.3376V23.3367V23.3359V23.335V23.3341V23.3333C19.952 23.2859 19.9782 23.2121 20.0227 23.1318C20.0659 23.0542 20.1162 22.9883 20.1449 22.9595L20.1573 22.9472L20.17 22.9345L20.1732 22.9313L20.1765 22.928L20.1798 22.9247L20.1831 22.9214L20.1965 22.908L20.2245 22.88L20.2317 22.8728L20.2353 22.8692L20.2389 22.8655L20.2538 22.8507L20.2575 22.847L20.2613 22.8432L20.2689 22.8356L20.2728 22.8317L20.2766 22.8279L20.2805 22.824L20.2844 22.8201L20.2922 22.8122L20.2962 22.8083L20.3002 22.8043L20.3042 22.8003L20.3082 22.7963L20.3122 22.7923L20.3163 22.7882L20.3836 22.7208L20.388 22.7165L20.3924 22.7121L20.3968 22.7077L20.4012 22.7033L20.4056 22.6988L20.4101 22.6944L20.4145 22.6899L20.419 22.6855L20.428 22.6764L20.4326 22.6719L20.4371 22.6674L20.4417 22.6628L20.4463 22.6582L20.4509 22.6536L20.4555 22.649L20.4741 22.6304L20.4788 22.6257L20.4835 22.621L20.4882 22.6163L20.4929 22.6116L20.4977 22.6068L20.5024 22.6021L20.512 22.5925L20.5168 22.5877L20.5216 22.5828L20.5265 22.578L20.5313 22.5732L20.5706 22.5338L20.5756 22.5289L20.5806 22.5239L20.5856 22.5189L20.5906 22.5139L20.5957 22.5088L20.6007 22.5038L20.6058 22.4987L20.6108 22.4937L20.6159 22.4886L20.621 22.4835L20.6261 22.4784L20.6312 22.4733L20.6363 22.4681L20.6415 22.463L20.6518 22.4527L20.657 22.4475L20.6622 22.4423L20.6674 22.4371L20.6726 22.4319L20.6935 22.4109L20.6988 22.4057L20.7041 22.4004L20.7147 22.3898L20.72 22.3845L20.7253 22.3792L20.736 22.3685L20.7467 22.3578L20.7521 22.3524L20.7575 22.347L20.7683 22.3362L20.7737 22.3308L20.7791 22.3254L20.7845 22.32L20.79 22.3145L20.7954 22.3091L20.8009 22.3036L20.8118 22.2927L20.8228 22.2817L20.8283 22.2762L20.8338 22.2707L20.8393 22.2652L20.8449 22.2596L20.8559 22.2485L20.8615 22.243L20.867 22.2374L20.8726 22.2319L20.8782 22.2263L20.8838 22.2207L20.8894 22.2151L20.895 22.2095L20.9006 22.2039L20.9062 22.1983L20.9118 22.1927L20.957 22.1475L20.9684 22.1361L20.9741 22.1304L20.9798 22.1247L20.9912 22.1133L20.9969 22.1076L21.0026 22.1019L21.0083 22.0961L21.0141 22.0904L21.0198 22.0847L21.0256 22.0789L21.0486 22.0559L21.0543 22.0501L21.0601 22.0444L21.0717 22.0328L21.0948 22.0096L21.1181 21.9864L21.1239 21.9806L21.1297 21.9748L21.1355 21.969L21.1413 21.9631L21.2349 21.8696L21.2407 21.8637L21.2466 21.8579L21.2525 21.852L21.2583 21.8461L21.2642 21.8403L21.2701 21.8344L21.2818 21.8227L21.2936 21.8109L21.3053 21.7992L21.3288 21.7757L21.3347 21.7698L21.3406 21.7639L21.3523 21.7522L21.3758 21.7287L21.3993 21.7052L21.4051 21.6994L21.411 21.6935L21.4168 21.6876L21.4227 21.6818L21.4286 21.6759L21.4344 21.6701L21.4403 21.6642L21.4461 21.6583L21.4578 21.6466L21.4637 21.6408L21.4695 21.635L21.4812 21.6233L21.487 21.6174L21.4929 21.6116L21.4987 21.6058L21.5045 21.5999L21.5162 21.5883L21.5626 21.5419L21.5684 21.5361L21.5742 21.5303L21.5857 21.5187L21.5973 21.5072L21.603 21.5014L21.6088 21.4957L21.6547 21.4498L21.6604 21.4441L21.6661 21.4384L21.6775 21.427L21.6832 21.4213L21.6888 21.4156L21.6945 21.41L21.7002 21.4043L21.7058 21.3986L21.7115 21.393L21.7228 21.3817L21.734 21.3704L21.7397 21.3648L21.7453 21.3592L21.7676 21.3368L21.7732 21.3313L21.7788 21.3257L21.7843 21.3201L21.7899 21.3146L21.7954 21.309L21.801 21.3035L21.8065 21.298L21.812 21.2925L21.8175 21.2869L21.823 21.2814L21.8285 21.276L21.834 21.2705L21.8395 21.265L21.845 21.2595L21.8504 21.2541L21.8559 21.2486L21.8613 21.2432L21.8667 21.2378L21.8721 21.2323L21.8776 21.2269L21.9627 21.1417L21.968 21.1365L21.9732 21.1313L21.9836 21.1209L21.994 21.1105L21.9991 21.1053L22.0043 21.1002L22.0094 21.095L22.0146 21.0899L22.0197 21.0848L22.0248 21.0797L22.0349 21.0695L22.0451 21.0594L22.0551 21.0493L22.0601 21.0443L22.0651 21.0393L22.0701 21.0343L22.0751 21.0294L22.0801 21.0244L22.085 21.0195L22.1047 20.9998L22.1095 20.9949L22.1144 20.9901L22.1241 20.9804L22.2707 20.8338L22.275 20.8295L22.2793 20.8252L22.2878 20.8167L22.2963 20.8082L22.3047 20.7998L22.3088 20.7957L22.313 20.7915L22.3171 20.7874L22.3212 20.7833L22.3374 20.767L22.3454 20.759L22.3534 20.7511L22.3612 20.7433L22.3651 20.7394L22.369 20.7355L22.3729 20.7316L22.3767 20.7278L22.3805 20.724L22.3843 20.7202L22.3918 20.7127L22.3993 20.7052L22.4558 20.6487L22.469 20.6354L22.4755 20.6289L22.4819 20.6225L22.5066 20.5979L22.5096 20.5949L22.5125 20.592L22.5154 20.589L22.5183 20.5861L22.5241 20.5804L22.5297 20.5748L22.5407 20.5638L22.546 20.5585L22.5513 20.5532L22.5614 20.5431L22.5712 20.5333L22.5759 20.5286L22.5805 20.524L22.585 20.5195L22.5872 20.5173L22.5894 20.5151L22.5894 20.5151L22.5918 20.5126C23.6312 19.399 24.3833 18.3499 24.6867 17.5156L24.6868 17.5156L24.6876 17.5131L24.6904 17.5048C24.7192 17.4182 24.7483 17.3309 24.7765 17.2429C24.8921 16.9559 24.9525 16.6694 24.9764 16.3843C24.9846 16.3057 24.989 16.227 24.989 16.1481C24.989 16.1348 24.989 16.1215 24.9889 16.1083C24.989 16.0968 24.989 16.0854 24.989 16.074C24.989 16.0296 24.9876 15.9845 24.9849 15.9388Z" fill="#2C00AB" stroke="#2C00AB" stroke-width="0.2"/>
</g>
<defs>
<clipPath id="clip0_7316_15157">
<rect width="40" height="30.3704" fill="white"/>
</clipPath>
</defs>
</svg>
