<svg width="82" height="34" viewBox="0 0 82 34" fill="none" xmlns="http://www.w3.org/2000/svg">
<path d="M17.7371 14.1465H6.38041C6.17799 14.1465 5.98386 14.0661 5.84073 13.9229C5.6976 13.7798 5.61719 13.5857 5.61719 13.3833V12.7956C5.61814 12.6553 5.65776 12.518 5.73167 12.3987L9.98279 5.46107C10.0506 5.34966 10.1459 5.2575 10.2594 5.19336C10.373 5.12923 10.5011 5.09527 10.6315 5.09473H17.7371C17.9395 5.09473 18.1336 5.17514 18.2768 5.31827C18.4199 5.4614 18.5003 5.65553 18.5003 5.85794V13.4062C18.4943 13.6046 18.4113 13.7929 18.2688 13.9311C18.1263 14.0693 17.9356 14.1466 17.7371 14.1465ZM7.38022 12.6201H16.9739V6.59826H11.0589L7.38022 12.6201Z" fill="#C0C0C0"/>
<path d="M72.4141 28.3573H70.4908V26.8309H72.3149L78.642 25.1747L79.2373 20.1222L78.3672 19.504C78.2425 19.4106 78.1472 19.2835 78.0924 19.1376L77.0163 16.0848L60.0881 13.093C59.9991 13.0787 59.9136 13.0476 59.8363 13.0014L44.9917 4.27016H8.96781L2.67889 12.8793L2.75522 23.923C2.75681 24.0247 2.73805 24.1258 2.70004 24.2201C2.66203 24.3145 2.60554 24.4003 2.53388 24.4725C2.38762 24.612 2.19407 24.6911 1.992 24.6939H1.52644V26.8309H7.38032V28.3573H0.763218C0.5608 28.3573 0.366673 28.2769 0.223541 28.1338C0.0804104 27.9906 0 27.7965 0 27.5941V23.9307C0 23.7282 0.0804104 23.5341 0.223541 23.391C0.366673 23.2478 0.5608 23.1674 0.763218 23.1674H1.22115L1.15246 12.635C1.15025 12.4708 1.20111 12.3102 1.29747 12.1771L7.96799 3.01849C8.03904 2.92126 8.13209 2.84222 8.23954 2.78783C8.34698 2.73345 8.46577 2.70526 8.5862 2.70557H45.213C45.35 2.70561 45.4845 2.74252 45.6023 2.81242L60.4774 11.6428L77.7032 14.6957C77.8349 14.7202 77.9579 14.779 78.0597 14.866C78.1615 14.9531 78.2386 15.0655 78.2832 15.1918L79.4357 18.405L80.4737 19.1682C80.5845 19.2477 80.672 19.3555 80.727 19.4804C80.7821 19.6052 80.8026 19.7425 80.7866 19.878L80.0844 25.8921C80.0664 26.0445 80.0029 26.1879 79.9021 26.3036C79.8014 26.4194 79.6681 26.502 79.5196 26.5409L72.6049 28.3573C72.5418 28.3683 72.4772 28.3683 72.4141 28.3573ZM57.6306 28.3573H20.4313V26.8309H57.6306V28.3573ZM55.4554 14.1462H38.2143C38.0119 14.1462 37.8178 14.0658 37.6746 13.9227C37.5315 13.7795 37.4511 13.5854 37.4511 13.383V5.83476C37.4511 5.63234 37.5315 5.43822 37.6746 5.29509C37.8178 5.15195 38.0119 5.07154 38.2143 5.07154H43.6332C43.7675 5.07294 43.8992 5.1098 44.0148 5.17839L55.8446 12.1389C55.9586 12.2065 56.053 12.3025 56.1185 12.4176C56.1841 12.5327 56.2186 12.6629 56.2186 12.7953V13.383C56.2186 13.5854 56.1382 13.7795 55.9951 13.9227C55.8519 14.0658 55.6578 14.1462 55.4554 14.1462ZM38.9775 12.6198H53.6084L43.4195 6.59798H38.9775V12.6198Z" fill="#C0C0C0"/>
<path d="M64.0722 33.0281C62.6366 33.0281 61.2333 32.6024 60.0397 31.8049C58.8461 31.0074 57.9158 29.8738 57.3665 28.5475C56.8171 27.2213 56.6734 25.7619 56.9534 24.3539C57.2335 22.946 57.9248 21.6527 58.9399 20.6376C59.9549 19.6225 61.2482 18.9312 62.6562 18.6512C64.0641 18.3711 65.5235 18.5149 66.8498 19.0642C68.176 19.6136 69.3096 20.5439 70.1072 21.7375C70.9047 22.9311 71.3304 24.3344 71.3304 25.7699C71.3284 27.6943 70.563 29.5393 69.2023 30.9C67.8415 32.2608 65.9965 33.0261 64.0722 33.0281ZM64.0722 20.0534C62.9382 20.0534 61.8297 20.3898 60.887 21.0199C59.9442 21.6501 59.2096 22.5457 58.776 23.5935C58.3424 24.6413 58.2293 25.7941 58.4511 26.9062C58.6729 28.0183 59.2195 29.0396 60.0219 29.8409C60.8243 30.6422 61.8463 31.1874 62.9587 31.4077C64.071 31.628 65.2237 31.5134 66.2709 31.0785C67.3181 30.6435 68.2128 29.9076 68.8417 28.964C69.4706 28.0204 69.8055 26.9115 69.8039 25.7776C69.8049 25.0246 69.6574 24.2788 69.3697 23.5829C69.082 22.8871 68.6598 22.2548 68.1274 21.7223C67.5949 21.1899 66.9627 20.7677 66.2668 20.48C65.571 20.1924 64.8252 20.0448 64.0722 20.0458V20.0534ZM13.9669 33.0281C12.5314 33.0281 11.1281 32.6024 9.9345 31.8049C8.7409 31.0074 7.8106 29.8738 7.26124 28.5475C6.71188 27.2213 6.56815 25.7619 6.84821 24.3539C7.12827 22.946 7.81954 21.6527 8.83462 20.6376C9.8497 19.6225 11.143 18.9312 12.5509 18.6512C13.9589 18.3711 15.4183 18.5149 16.7445 19.0642C18.0708 19.6136 19.2044 20.5439 20.0019 21.7375C20.7995 22.9311 21.2251 24.3344 21.2251 25.7699C21.2151 27.6918 20.4472 29.5322 19.0882 30.8912C17.7292 32.2502 15.8888 33.0181 13.9669 33.0281ZM13.9669 20.0534C12.833 20.0534 11.7245 20.3898 10.7818 21.0199C9.83901 21.6501 9.10435 22.5457 8.67076 23.5935C8.23716 24.6413 8.1241 25.7941 8.34588 26.9062C8.56766 28.0183 9.11431 29.0396 9.91668 29.8409C10.719 30.6422 11.7411 31.1874 12.8534 31.4077C13.9658 31.628 15.1185 31.5134 16.1657 31.0785C17.2129 30.6435 18.1075 29.9076 18.7364 28.964C19.3653 28.0204 19.7002 26.9115 19.6987 25.7776C19.6987 24.2574 19.0948 22.7995 18.0199 21.7246C16.945 20.6497 15.4871 20.0458 13.9669 20.0458V20.0534ZM64.0722 30.8606C63.0653 30.8606 62.0811 30.562 61.244 30.0027C60.4068 29.4433 59.7543 28.6482 59.369 27.718C58.9837 26.7878 58.8829 25.7643 59.0793 24.7768C59.2758 23.7893 59.7606 22.8822 60.4725 22.1703C61.1845 21.4583 62.0915 20.9735 63.079 20.7771C64.0665 20.5807 65.0901 20.6815 66.0203 21.0668C66.9505 21.4521 67.7455 22.1045 68.3049 22.9417C68.8643 23.7789 69.1628 24.7631 69.1628 25.7699C69.1628 27.1201 68.6265 28.4149 67.6718 29.3696C66.7171 30.3242 65.4223 30.8606 64.0722 30.8606ZM64.0722 22.2057C63.3672 22.2057 62.6781 22.4147 62.092 22.8064C61.5059 23.198 61.049 23.7547 60.7793 24.406C60.5095 25.0572 60.4389 25.7739 60.5764 26.4653C60.714 27.1567 61.0534 27.7917 61.5519 28.2902C62.0504 28.7887 62.6854 29.1281 63.3768 29.2657C64.0682 29.4032 64.7849 29.3326 65.4361 29.0628C66.0874 28.7931 66.6441 28.3362 67.0357 27.7501C67.4274 27.164 67.6364 26.4749 67.6364 25.7699C67.6344 24.8253 67.2582 23.9198 66.5902 23.2519C65.9223 22.5839 65.0168 22.2077 64.0722 22.2057ZM13.9669 30.8606C12.9601 30.8606 11.9759 30.562 11.1387 30.0027C10.3016 29.4433 9.64909 28.6482 9.26379 27.718C8.87848 26.7878 8.77767 25.7643 8.9741 24.7768C9.17052 23.7893 9.65536 22.8822 10.3673 22.1703C11.0792 21.4583 11.9863 20.9735 12.9738 20.7771C13.9613 20.5807 14.9849 20.6815 15.9151 21.0668C16.8453 21.4521 17.6403 22.1045 18.1997 22.9417C18.759 23.7789 19.0576 24.7631 19.0576 25.7699C19.0576 27.1201 18.5213 28.4149 17.5666 29.3696C16.6119 30.3242 15.3171 30.8606 13.9669 30.8606ZM13.9669 22.2057C13.262 22.2057 12.5729 22.4147 11.9868 22.8064C11.4006 23.198 10.9438 23.7547 10.674 24.406C10.4043 25.0572 10.3337 25.7739 10.4712 26.4653C10.6087 27.1567 10.9482 27.7917 11.4467 28.2902C11.9451 28.7887 12.5802 29.1281 13.2716 29.2657C13.963 29.4032 14.6796 29.3326 15.3309 29.0628C15.9822 28.7931 16.5388 28.3362 16.9305 27.7501C17.3221 27.164 17.5312 26.4749 17.5312 25.7699C17.5312 24.8246 17.1557 23.9181 16.4872 23.2496C15.8188 22.5812 14.9122 22.2057 13.9669 22.2057Z" fill="#C0C0C0"/>
<path d="M81.313 25.3809H79.1608V24.0071H80.6261V23.2439H79.6874V21.8701H81.313C81.4952 21.8701 81.6699 21.9425 81.7987 22.0713C81.9276 22.2001 81.9999 22.3748 81.9999 22.557V24.694C81.9999 24.8762 81.9276 25.0509 81.7987 25.1797C81.6699 25.3085 81.4952 25.3809 81.313 25.3809Z" fill="#C0C0C0"/>
<path d="M35.5202 14.1462H20.4313C20.2289 14.1462 20.0348 14.0657 19.8917 13.9226C19.7485 13.7795 19.6681 13.5854 19.6681 13.3829V5.83472C19.6681 5.6323 19.7485 5.43818 19.8917 5.29504C20.0348 5.15191 20.2289 5.0715 20.4313 5.0715H35.5202C35.7226 5.0715 35.9167 5.15191 36.0598 5.29504C36.203 5.43818 36.2834 5.6323 36.2834 5.83472V13.3829C36.2834 13.5854 36.203 13.7795 36.0598 13.9226C35.9167 14.0657 35.7226 14.1462 35.5202 14.1462ZM21.1946 12.6197H34.7569V6.59794H21.1946V12.6197ZM42.9234 4.18617L39.9316 2.16364H11.6925L10.6316 3.93431L9.3418 3.1024L10.6469 0.995921C10.7156 0.885931 10.8113 0.795276 10.9248 0.732513C11.0383 0.66975 11.1659 0.636949 11.2956 0.637209H40.1987C40.3509 0.636869 40.4997 0.682053 40.6261 0.766956L43.8087 2.92686L42.9234 4.18617Z" fill="#C0C0C0"/>
<path d="M41.4428 16.8399H38.2144C38.012 16.8399 37.8179 16.7595 37.6747 16.6164C37.5316 16.4732 37.4512 16.2791 37.4512 16.0767C37.4512 15.8743 37.5316 15.6801 37.6747 15.537C37.8179 15.3939 38.012 15.3135 38.2144 15.3135H41.4428C41.6452 15.3135 41.8394 15.3939 41.9825 15.537C42.1256 15.6801 42.206 15.8743 42.206 16.0767C42.206 16.2791 42.1256 16.4732 41.9825 16.6164C41.8394 16.7595 41.6452 16.8399 41.4428 16.8399ZM23.6675 16.8399H20.4314C20.229 16.8399 20.0349 16.7595 19.8918 16.6164C19.7486 16.4732 19.6682 16.2791 19.6682 16.0767C19.6682 15.8743 19.7486 15.6801 19.8918 15.537C20.0349 15.3939 20.229 15.3135 20.4314 15.3135H23.6675C23.8699 15.3135 24.064 15.3939 24.2072 15.537C24.3503 15.6801 24.4307 15.8743 24.4307 16.0767C24.4307 16.2791 24.3503 16.4732 24.2072 16.6164C24.064 16.7595 23.8699 16.8399 23.6675 16.8399Z" fill="#C0C0C0"/>
</svg>
