<svg width="50" height="50" viewBox="0 0 50 50" fill="none" xmlns="http://www.w3.org/2000/svg">
<path d="M35.4762 42.0181C35.1805 43.9759 35.6241 45.6325 37.5463 45.6325C38.6015 45.6325 39.0588 45.1923 40.0294 44.2308C40.0294 44.2308 39.6718 48.2505 37.5463 49.0385C35.4209 49.8264 34.6301 49.6988 33.8497 49.6988C28.083 49.6988 25.1257 46.3855 26.3086 40.8133L29.4138 25.3012C29.8574 23.0422 28.3787 21.2349 25.865 21.2349C24.5342 21.2349 23.0556 21.988 22.0205 22.8916L17.4367 44.8795C16.9931 47.5904 14.4794 49.6988 11.8179 49.6988C9.15631 49.6988 7.5298 47.5904 8.12126 45.0301L16.5496 4.81928C17.141 2.10843 19.6547 0 22.3163 0C24.83 0 26.4565 2.10843 25.865 4.81928L22.612 20.0301C24.9778 18.2229 27.6394 16.8675 30.301 16.5663C36.2156 15.8133 40.0601 20.0301 38.7293 26.0542L35.4762 42.0181Z" fill="url(#paint0_linear)"/>
<defs>
<linearGradient id="paint0_linear" x1="5.39942" y1="24.7617" x2="33.2111" y2="24.7617" gradientUnits="userSpaceOnUse">
<stop stop-color="#00B5AD"/>
<stop offset="0.0985708" stop-color="#00ABAC"/>
<stop offset="0.293" stop-color="#0095A9"/>
<stop offset="0.5646" stop-color="#0173A2"/>
<stop offset="0.8999" stop-color="#294295"/>
<stop offset="1" stop-color="#2E3192"/>
</linearGradient>
</defs>
</svg>
