<svg width="33" height="35" viewBox="0 0 33 35" fill="none" xmlns="http://www.w3.org/2000/svg">
<path fill-rule="evenodd" clip-rule="evenodd" d="M6.17902 4.56039C9.4081 3.15722 12.5472 2.46463 15.7493 2.44664C18.9514 2.42865 22.2075 3.09426 25.6704 4.40748L25.7694 4.44346V4.55139L25.7874 11.0096V11.0275C25.7784 11.6752 25.6884 12.3857 25.5265 13.1413C25.3646 13.8968 25.1398 14.6884 24.8519 15.5069C23.3588 19.6894 20.1657 24.4026 16.0012 26.4984L15.9292 26.5343L15.8573 26.4984C15.8303 26.4894 15.8843 26.5163 15.8483 26.4894C15.0208 26.0756 14.2292 25.5719 13.5007 24.9873C12.7631 24.4026 12.0795 23.755 11.4409 23.0444C8.16684 19.4106 6.22399 14.3826 6.10706 11.0275V11.0186L6.08008 4.69531V4.59637L6.17902 4.56039ZM25.4726 11.0275V11.0096L25.4546 4.66832C22.0636 3.39108 18.8795 2.75246 15.7493 2.77045C12.6192 2.78844 9.55201 3.45405 6.39489 4.81224L6.42188 11.0275C6.53881 14.3286 8.44567 19.2667 11.6748 22.8465C12.3044 23.5391 12.979 24.1867 13.6986 24.7534C14.4001 25.3111 15.1467 25.7968 15.9292 26.1925C19.9768 24.1148 23.089 19.5095 24.5551 15.4169C24.8429 14.6164 25.0678 13.8339 25.2207 13.0963C25.3826 12.3498 25.4636 11.6572 25.4726 11.0275ZM25.4726 11.0275V11.0096V11.0275Z" fill="#2C00AB"/>
<path fill-rule="evenodd" clip-rule="evenodd" d="M0.13492 27.5146V28.4321H1.02539V33.4601H0V34.3775H3.46294V33.4511H2.47353V31.3553H3.05818L3.04919 31.7601H3.78675V29.9702H3.01321V30.4289L2.49152 30.4379V28.4141H28.8279V27.5146H0.13492ZM5.77457 29.2326H7.93329C8.39202 29.3315 8.7518 29.5384 8.99466 30.0601V32.1828H6.17933V33.4511C6.2243 33.586 6.29626 33.7029 6.55711 33.676H7.22271C7.39361 33.676 7.51054 33.568 7.55551 33.3611V32.7225H9.03064V33.4331C8.88672 33.9818 8.47297 34.2876 7.78038 34.3685H5.9005C5.14494 34.2606 4.74918 33.8738 4.7132 33.2082V30.0061C4.89309 29.5654 5.25288 29.3046 5.77457 29.2326ZM6.45816 29.8982H7.31266C7.45657 29.9702 7.52853 30.0781 7.51953 30.231V31.6252H6.18833V30.186C6.17034 30.0511 6.31425 29.9072 6.45816 29.8982ZM9.63328 29.2326H11.5671V29.9971L12.2058 29.5744C12.9073 28.9987 13.7528 29.1067 14.0407 29.9612V31.985H12.5475V30.1501C12.4576 30.0691 12.1338 30.3389 11.5761 30.9596V33.4781H12.0888V34.3416H9.69624V33.4601H10.173V30.0421H9.64227V29.2326H9.63328ZM14.6523 29.2326H16.5862V29.9971L17.2248 29.5744C17.9264 28.9987 18.7719 29.1067 19.0597 29.9612V31.985H17.5576V30.1501C17.4676 30.0691 17.1438 30.3389 16.5862 30.9596V33.4781H17.0988V34.3416H14.7063V33.4601H15.183V30.0421H14.6523V29.2326ZM24.4655 29.2326H26.3993V29.9971L27.0379 29.5744C27.7395 28.9987 28.585 29.1067 28.8729 29.9612V31.985H27.3797V30.1501C27.2898 30.0691 26.966 30.3389 26.4083 30.9596V33.4781H26.921V34.3416H24.5284V33.4601H25.0052V30.0421H24.4745V29.2326H24.4655ZM29.3406 29.1876V29.9522L29.8173 29.9612V33.3971H29.3406V34.2786H31.8501V33.4331H31.3374V29.9522H31.8231V29.1876H29.3406ZM30.5908 27.4517C29.8803 27.4517 29.3046 27.6675 29.3046 27.9284C29.3046 28.1892 29.8803 28.4051 30.5908 28.4051C31.3014 28.4051 31.8771 28.1892 31.8771 27.9284C31.8771 27.6675 31.3014 27.4517 30.5908 27.4517ZM19.4914 30.8067C19.4554 29.4575 20.283 29.2506 20.8046 29.1876H22.2078C22.9724 29.2416 23.4221 29.6104 23.557 30.294V33.4331H23.9168V34.3596H20.6248C19.9502 34.3596 19.5454 33.7929 19.5184 33.3701V32.1828C19.5274 31.7331 20.0401 31.3014 20.6877 31.3373H22.0639V30.231C22.1179 29.9971 22.0369 29.8802 21.821 29.8712H21.2184C21.0295 29.8532 20.9396 29.9522 20.9486 30.168V30.7977H19.4914V30.8067ZM22.0999 31.8411V33.667H21.3353C21.0925 33.685 20.9755 33.622 20.9665 33.4511V32.0749C20.9665 31.958 21.0475 31.886 21.2004 31.8411H22.0999Z" fill="#2C00AB"/>
<path fill-rule="evenodd" clip-rule="evenodd" d="M15.246 14.5804L15.0841 14.5444L15.0482 14.6254C15.0482 14.6254 15.0122 14.6883 15.0482 14.7873C15.0841 14.8862 15.0661 15.0301 15.0931 15.1111C15.1291 15.192 15.1561 15.255 15.1921 15.3899C15.2281 15.5249 15.309 15.9116 15.309 15.9116C15.309 15.9116 15.345 16.0465 15.4259 16.1905C15.5069 16.3344 15.5878 16.4063 15.6418 16.5143C15.6868 16.6312 15.8037 16.874 15.8037 16.874L15.9656 17.0719C15.9656 17.0719 16.0106 17.0539 16.0466 17.1889C16.0825 17.3238 16.0915 17.2878 16.0915 17.3688C16.0915 17.4497 15.9746 17.5127 15.9746 17.5127C15.9746 17.5127 15.8127 17.4767 15.6778 17.4767C15.5429 17.4767 15.5159 17.4587 15.363 17.4407C15.2191 17.4227 15.0212 17.3957 15.0212 17.3957C15.0212 17.3957 14.9582 17.3328 14.8053 17.2968C14.6614 17.2608 14.4905 17.2338 14.4905 17.2338C14.4905 17.2338 14.3466 17.1529 14.2476 17.1529C14.1487 17.1529 14.0857 17.1349 14.0857 17.1349L13.8878 17.1529L13.7439 17.0899H13.4471H13.1503L12.9344 17.0719H12.6736L12.5566 17.1349L12.6196 17.4137L12.7365 17.5486L12.9794 17.6836C12.9794 17.6836 13.1593 17.7825 13.2402 17.7825C13.3212 17.7825 13.4561 17.8005 13.555 17.8005C13.654 17.8005 13.7979 17.7645 13.7979 17.7645C13.7979 17.7645 13.9778 17.6656 14.0228 17.7465C14.0677 17.8275 14.2027 17.8815 14.2027 17.8815C14.2027 17.8815 14.2836 17.8815 14.3826 17.8815C14.4815 17.8815 14.5175 17.8815 14.6254 17.8815C14.7333 17.8815 14.6614 17.7825 14.8503 17.8635C15.0482 17.9444 15.246 17.9264 15.246 17.9264L15.7048 18.0703C15.7048 18.0703 15.8217 18.1333 15.9027 18.1693C15.9836 18.2053 16.0646 18.2143 16.1635 18.2502C16.2624 18.2862 16.4243 18.3132 16.5053 18.3132C16.5862 18.3132 16.7212 18.2322 16.7212 18.2322C16.7212 18.2322 16.8021 18.1963 16.8021 18.0973C16.8021 17.9984 16.7841 17.9354 16.7841 17.9354L16.5862 17.5936L16.4693 17.1979L16.3524 16.7751L16.3704 16.3973L16.4333 15.9926L16.3524 15.8756L16.1095 15.6508L16.0735 15.5159L16.0286 15.354L15.9476 15.192L15.8307 15.0122L15.6958 14.8952L15.5159 14.7513L15.354 14.6524L15.246 14.5804Z" fill="#2C00AB"/>
<path fill-rule="evenodd" clip-rule="evenodd" d="M15.7669 3.68799L15.686 3.75995L15.668 3.8319C15.641 3.93984 15.65 4.02978 15.65 4.02978L15.677 4.11074L15.632 4.21867L15.4611 4.23666H15.3172L15.1373 4.19169L15.0114 4.11074L14.9035 4.09275H14.7595H14.5886L14.4897 4.13772L14.5886 4.19169L14.6966 4.23666L14.6246 4.28164L14.5167 4.26365L14.3458 4.23666L14.2379 4.30862L14.1929 4.38058L14.3188 4.39857C14.3188 4.39857 14.2918 4.35359 14.3908 4.37158C14.4897 4.38957 14.5437 4.39857 14.5437 4.39857L14.6426 4.41656L14.7236 4.46153L14.8945 4.53349L14.9934 4.58745L13.7881 5.23507L13.4823 5.28904L13.2934 5.45994L13.0506 5.71179V6.16152L13.1045 6.23348L13.2305 6.21549L13.7072 6.07157L13.7791 6.09856L13.7971 6.17051L13.6532 6.21549L13.2754 6.34141C13.3564 6.39538 13.4553 6.44035 13.4553 6.44035C13.4553 6.44035 13.4823 6.45834 13.5543 6.45834C13.6262 6.45834 13.5723 6.45834 13.6982 6.43136C13.8241 6.40437 13.8781 6.38638 13.8781 6.38638L14.022 6.33242L14.1209 6.35041L14.2289 6.32342L14.3008 6.37739L14.4267 6.39538L14.6066 6.44035L14.7865 6.46734L14.9574 6.49432L15.1283 6.51231H15.2273L15.3082 6.66522L15.2632 6.80913L15.1913 6.98903L15.0834 7.24088L14.9844 7.43876L14.8135 7.71759L14.6876 7.92447L14.5077 8.16733L14.3368 8.34722L14.1119 8.50013L13.986 8.64404L13.914 8.84193L13.7881 8.98584L13.5363 9.13875L13.3114 9.29166L13.0865 9.44457L12.8887 9.58848L12.7088 9.68743L12.6278 9.63346L12.4299 9.55251L12.2231 9.44457L11.9982 9.36362L11.8723 9.25568L11.7283 9.08478L11.5574 8.97685L11.3776 8.86891L11.2696 8.82394L11.0448 8.80595L10.8739 8.85092L10.7209 8.97685L10.622 9.12076L10.568 9.27367L10.4421 9.47155L10.3342 9.84033L10.3072 10.0112C10.3072 10.0112 10.1633 10.2901 10.1543 10.362C10.1363 10.434 10.0823 10.6588 10.0823 10.6588L9.9564 10.9647L9.93841 11.1176L9.81249 11.3424C9.81249 11.3424 9.74053 11.4144 9.74053 11.4864C9.74053 11.5583 9.7855 11.7562 9.7855 11.7562C9.7855 11.7562 9.76751 11.9091 9.76751 11.9811C9.76751 12.053 9.74053 12.089 9.74053 12.161C9.74053 12.2329 9.71354 12.3588 9.72254 12.4308C9.74053 12.5028 9.76751 12.6737 9.76751 12.6737L9.94741 12.7276L10.0553 12.5837L10.1993 12.4758L10.3432 12.3229L10.2892 12.08L10.2352 11.9001L10.1813 11.6752L10.1543 11.3694L10.2352 11.0006L10.3162 10.8028L10.4601 10.7038L10.604 10.6049L10.8019 10.452L10.8829 10.2091L10.9818 9.98425L10.9998 9.83134L11.1707 9.87631L11.2516 9.95727L11.3776 10.1012L11.5215 10.2541L11.6924 10.425L11.9172 10.6049L12.0162 10.7128L11.9982 10.7848L11.8453 10.7668L11.5215 10.6678L11.3236 10.6499L11.1437 10.6319L11.0178 10.5869L10.8649 10.6049L10.658 10.6499L10.4781 10.7758L10.3522 10.9557L10.3072 11.1625V11.3604L10.3342 11.6662L10.4061 11.9901L10.559 12.9435L10.631 13.0964C10.631 13.0964 10.649 13.1774 10.649 13.2673C10.649 13.3482 10.7479 13.4742 10.7479 13.4742L10.8739 13.5731L10.9998 13.753L11.1257 14.0588L11.2246 14.2027L11.3776 14.3826L11.5035 14.4906L11.7014 14.5355L11.8543 14.4636L11.8992 14.2657L11.9172 14.0139L11.8903 13.789L11.7643 13.6091L11.6204 13.4832L11.3686 13.4112V13.1324L11.2606 13.0244L11.1887 12.8535L11.0807 12.4758L11.0358 12.1789L10.9278 11.9001L10.9098 11.7022L10.9548 11.5583L11.0358 11.5043L11.1887 11.5493L11.4675 11.6932L11.6744 11.8012L11.9262 11.9001L12.1511 11.9991L12.295 12.125L12.5199 12.3229L12.6998 12.3948L12.9246 12.4218H13.1945L13.3384 12.4398L13.2664 12.5837L13.2934 12.7276C13.2934 12.7276 13.3654 12.8266 13.3924 12.8985C13.4193 12.9705 13.5453 13.0964 13.5453 13.0964L13.7432 13.3213L13.995 13.5461L14.2199 13.771L14.4987 13.9689L14.7685 14.1668L15.0924 14.3467L15.3172 14.5445L15.686 14.7874L15.9558 15.0662L16.1357 15.2461L16.2347 15.525L16.3066 15.7318C16.3066 15.7318 16.4505 15.8847 16.5135 15.8847C16.5855 15.8847 16.6574 15.8847 16.6574 15.8847L16.8103 15.6779L16.9632 15.372L16.9812 15.0392L16.9992 14.9133L17.0802 14.7334C17.0802 14.7334 17.1521 14.6345 17.2331 14.6345C17.314 14.6345 17.341 14.6615 17.341 14.6615L17.2151 14.8324C17.2151 14.8324 17.1161 14.9313 17.1161 15.0033C17.1161 15.0752 17.1161 15.2281 17.1161 15.2281L17.0892 15.453L17.0082 15.6329L16.9003 15.7768L16.7294 16.0017L16.6574 16.1096L16.5765 16.3075C16.5765 16.3075 16.4955 16.5863 16.4955 16.6763C16.4955 16.7572 16.5495 16.8292 16.5495 16.9281C16.5495 17.0271 16.5945 17.198 16.6214 17.2789C16.6484 17.3599 16.7204 17.5757 16.7204 17.5757C16.7204 17.5757 16.7743 17.7197 16.8283 17.7826C16.8823 17.8546 17.0082 18.1064 17.0082 18.1064L17.1521 18.2773L17.2061 18.4482L17.314 18.6011L17.368 18.7091C17.368 18.7091 17.35 18.817 17.314 18.889C17.2691 18.9609 17.2151 19.0599 17.1611 19.1408C17.1072 19.2218 16.9542 19.3207 16.9542 19.3207L16.7743 19.5995L16.5045 19.7974L16.3516 19.8784L16.1717 19.9503L15.9648 20.1932L15.8659 20.3641L15.614 20.6429L15.4162 20.9667L15.3352 21.1736L15.3892 21.3985L15.5871 21.4434L16.3696 21.0927L16.3966 20.9847L16.4146 20.8048L16.4595 20.6789L16.6844 20.526L16.8103 20.3551L16.8643 20.1752L16.8913 20.0673L17.0442 19.9683L17.1701 19.8424L17.2421 19.7345L17.44 19.5636L17.5929 19.4376L17.9257 19.2398L18.1235 19.0868L18.1685 18.5382L18.0246 18.3673L17.9257 18.1874C17.9257 18.1874 17.9077 18.0615 17.9077 17.9805C17.9077 17.8995 17.9077 17.7017 17.9077 17.7017C17.9077 17.7017 17.9347 17.5937 17.9796 17.5218C18.0246 17.4498 18.1865 17.2969 18.1865 17.2969L18.4384 17.09L18.7082 16.9371L18.9511 16.6673L19.2479 16.2985L19.4008 16.0556L19.5447 15.7318L19.6436 15.48V15.2731C19.6436 15.2731 19.6706 15.1472 19.7426 15.1922C19.8145 15.2371 19.8145 15.2461 19.8415 15.3361C19.8685 15.417 19.8685 15.534 19.8685 15.6419C19.8685 15.7498 19.8235 15.8847 19.8235 15.8847L19.8415 16.1636L19.8595 16.4154L19.9585 16.4964V16.3255L19.9854 16.1456L20.0394 15.9657V15.7948L20.1114 15.6239C20.1114 15.6239 20.1923 15.7318 20.2103 15.8218C20.2283 15.9027 20.2553 16.0646 20.2553 16.0646C20.2553 16.0646 20.2553 16.2086 20.2103 16.3075C20.1653 16.4064 20.1923 16.4334 20.1384 16.5054C20.0844 16.5773 19.9854 16.7302 19.9854 16.7302C19.9854 16.7302 19.8865 16.8292 19.8775 16.9101C19.8595 16.9911 19.8505 17.0541 19.8505 17.153C19.8505 17.2519 19.9225 17.4048 19.9225 17.4048L19.9764 17.2969L20.0034 17.117L20.1024 16.8742L20.2733 16.6673L20.4712 16.3345L20.5791 15.9117L20.5971 15.6419L20.5701 15.462L20.4712 15.2911L20.4262 15.1472L20.5071 15.1022L20.6331 15.3001C20.6331 15.3001 20.651 15.3181 20.678 15.399C20.705 15.48 20.705 15.381 20.723 15.525C20.741 15.6689 20.723 15.6689 20.75 15.7678C20.777 15.8668 20.777 15.9117 20.804 15.9927C20.8309 16.0736 20.8579 16.1366 20.8759 16.1996C20.8939 16.2715 20.9749 16.3795 20.9749 16.3795V16.2715L20.8849 16.1096L20.9299 15.9387L20.9029 15.7678L20.9479 15.5879L20.9749 15.3631L20.9029 15.1832L20.8309 15.0033V14.8594L21.1008 14.7154L21.4336 14.5086L21.5865 14.3287L21.7664 14.1488L21.8653 13.852L21.9103 13.5461L21.9643 13.1684L21.9103 12.7366L21.8383 12.4128L21.8114 12.107L21.7844 11.7922L21.8383 11.5133L21.9463 11.2345L22.1262 10.9827L22.2251 10.8387L22.3151 10.4879L22.1622 10.5869L22.0812 10.6858L22.0542 10.7668L21.9013 10.9467L21.7754 11.0996L21.6674 11.2705L21.5955 11.4144H21.4696L21.4156 11.2345C21.4156 11.2345 21.4156 11.1266 21.4156 11.0366C21.4156 10.9557 21.4696 10.7668 21.4696 10.7668L21.5505 10.5689L21.6315 10.362L21.8114 10.1551L21.9193 9.91229L21.9733 9.60647L21.8473 9.77737L21.6764 9.98425L21.4786 10.2091L21.3256 10.38L21.1547 10.5599L21.0738 10.6678L20.9928 10.5959L20.9659 10.443L21.0198 10.2001L21.1008 9.95727L21.1727 9.68743L21.3796 9.35462L21.5775 9.14775L21.7484 9.02182C21.6674 9.00383 21.4965 9.10277 21.4965 9.10277L21.2987 9.30065L20.9029 9.7234L20.75 10.0292L20.669 10.3081L20.6421 10.5599C20.6421 10.5599 20.5971 10.7578 20.6151 10.8297C20.6331 10.9017 20.6421 11.0096 20.66 11.1086C20.678 11.2075 20.66 11.2885 20.714 11.4144C20.768 11.5403 20.813 11.6213 20.8399 11.7202C20.8669 11.8192 20.8939 11.8911 20.9209 12.017C20.9479 12.143 20.9389 12.17 20.9659 12.2689C20.9928 12.3678 21.0108 12.5117 21.0108 12.5747C21.0108 12.6377 21.0558 12.8445 21.0558 12.8445L21.0288 13.1504C21.0288 13.1504 21.0288 13.2943 21.0108 13.3572C20.9928 13.4292 20.9569 13.4562 20.9299 13.5551C20.9029 13.6541 20.9029 13.735 20.8489 13.807C20.795 13.8789 20.741 13.9599 20.678 14.0318C20.6241 14.1038 20.5071 14.2027 20.5071 14.2027C20.5071 14.2027 20.4262 14.2747 20.3093 14.3287C20.2013 14.3826 20.1384 14.3736 20.0664 14.4096C19.9944 14.4546 19.9854 14.4636 19.8865 14.4816C19.7876 14.4996 19.5627 14.5086 19.5627 14.5086L19.5807 14.3826L19.4817 14.2117L19.3558 14.0049L19.2119 13.708L19.032 13.4832L18.8521 13.3033L18.7262 13.1504L18.4743 12.9525L18.2495 12.7546L18.0426 12.6107L17.7368 12.3678L17.44 12.143L17.1341 11.7922L16.8283 11.3874L16.6484 11.0906L16.5225 10.8477L16.4505 10.5779L16.4775 10.2811C16.4775 10.2811 16.6035 10.335 16.6754 10.38C16.7474 10.425 16.9542 10.425 16.9542 10.425L17.1072 10.4969L17.305 10.5689L17.4759 10.7218L17.7008 10.8927L17.8807 10.8477L17.7997 10.7758L17.6918 10.7218L17.5659 10.5419L17.4579 10.398L17.332 10.3171L17.1881 10.2631L17.395 10.2361L17.5929 10.362L17.7458 10.4879C17.7997 10.407 17.7728 10.335 17.7728 10.335L17.5479 10.1911L17.395 10.0652L17.1701 9.95727L16.9722 9.9033L16.9183 9.79536L17.0262 9.81335L17.1971 9.88531L17.323 9.91229L17.4489 9.93927L17.6288 10.0382C17.6288 10.0382 17.7278 10.0562 17.8267 10.0832C17.9257 10.1102 18.0066 10.1372 18.0966 10.1372C18.1775 10.1372 18.2225 10.1551 18.2944 10.1192C18.3664 10.0922 18.5013 10.0202 18.5013 10.0202L18.6272 9.86732L18.4564 9.96626C18.4564 9.96626 18.3304 10.0382 18.2495 10.0382C18.1685 10.0382 18.0696 10.0382 18.0696 10.0382C18.0696 10.0382 17.9167 9.95726 17.8717 9.88531C17.8267 9.81335 17.7997 9.77737 17.7188 9.71441C17.6378 9.66044 17.5209 9.58848 17.4489 9.58848C17.377 9.58848 17.2421 9.54351 17.2421 9.54351L17.0892 9.43557C17.0892 9.43557 17.1701 9.45356 17.2421 9.46256C17.314 9.48055 17.4669 9.46256 17.4669 9.46256L17.5749 9.41759C17.5749 9.41759 17.6019 9.3996 17.7278 9.41759C17.8537 9.43557 17.7997 9.34563 17.9077 9.44457C18.0156 9.54351 18.1505 9.57049 18.1505 9.57049L18.1775 9.49854L18.0516 9.3996L17.9526 9.31864L17.8087 9.21071C17.8087 9.21071 17.7278 9.15674 17.6378 9.15674C17.5569 9.15674 17.4669 9.15674 17.4669 9.15674L17.413 9.07579C17.413 9.07579 17.431 9.0488 17.5209 9.0578C17.6198 9.07579 17.6918 9.08478 17.6918 9.08478L17.8717 9.15674C17.8717 9.15674 17.9527 9.2287 18.0246 9.23769C18.0966 9.25568 18.1955 9.26468 18.1955 9.26468L18.4204 9.28267C18.4474 9.21071 18.4024 9.13875 18.4024 9.13875H18.2225L18.0426 8.99484L17.9437 8.86891C17.9437 8.86891 17.8447 8.86891 17.7728 8.85092C17.7008 8.83293 17.6198 8.80595 17.5479 8.77896C17.4759 8.75198 17.422 8.725 17.422 8.725C17.422 8.725 17.368 8.65304 17.44 8.65304C17.5119 8.65304 17.6828 8.73399 17.6828 8.73399L17.8267 8.76098H17.8987L17.7907 8.68002C17.7368 8.60807 17.7368 8.5541 17.7368 8.5541L17.8897 8.58108H17.9706L18.1505 8.65304L18.3034 8.75198L18.4114 8.85992H18.5193L18.4474 8.80595C18.4474 8.80595 18.3664 8.76098 18.3484 8.69801C18.3304 8.62606 18.3304 8.61706 18.2944 8.5451C18.2495 8.47315 18.2495 8.43717 18.1865 8.39219C18.1146 8.34722 18.1146 8.32024 18.0156 8.29325C17.9167 8.26627 17.8087 8.2213 17.8087 8.2213L17.6648 8.07738C17.6648 8.07738 17.6378 7.99643 17.5659 7.95146C17.4939 7.90648 17.44 7.89749 17.44 7.89749L17.4579 7.75357L17.7098 7.82553L17.8897 7.84352C17.8897 7.84352 17.9347 7.86151 17.9706 7.92447C18.0156 7.99643 18.0696 8.06839 18.0696 8.06839C18.0696 8.06839 18.1685 8.17632 18.2405 8.17632C18.3124 8.17632 18.2855 8.17632 18.3934 8.19431C18.5013 8.2123 18.6362 8.19431 18.6362 8.19431L18.7352 8.14934L18.6093 8.10436L18.5103 8.05939L18.4024 7.98743L18.3034 7.90648L18.2315 7.78056L18.2045 7.68162L18.0786 7.55569C18.0786 7.55569 17.9796 7.50172 17.9077 7.45675C17.8357 7.41178 17.7818 7.38479 17.7098 7.34881C17.6378 7.30384 17.5839 7.26786 17.5839 7.26786L17.5029 7.15993L17.4849 7.05199L17.6109 7.15093L17.7907 7.30384L17.8987 7.3758L18.0426 7.42977L18.1955 7.5377L18.2765 7.63664L18.3844 7.74458L18.5283 7.81654L18.6362 7.77156L18.5103 7.67262L18.4024 7.56469L18.3754 7.41178L18.2944 7.26786L18.1146 7.1959V7.08797L18.0156 6.93506L17.8717 6.78215L17.7458 6.67421L17.6648 6.57527L17.6198 6.46734C17.6198 6.46734 17.5749 6.49432 17.6918 6.44935C17.7997 6.40438 17.8357 6.50332 17.8357 6.50332L18.0336 6.62924L18.1865 6.67421C18.1865 6.67421 18.2675 6.65623 18.3574 6.67421C18.4384 6.6922 18.4653 6.71919 18.5553 6.72818C18.6362 6.74617 18.7082 6.72818 18.7082 6.72818L18.7892 6.64723L18.6812 6.62924L18.5283 6.55728C18.5283 6.55728 18.4474 6.48533 18.3754 6.47633C18.3034 6.45834 18.2944 6.44935 18.2225 6.44935C18.1505 6.44935 18.0966 6.43136 18.0966 6.43136L18.0156 6.3594L17.9437 6.27845L17.9257 6.1975C17.9257 6.1975 17.8177 6.11655 17.8987 6.12554C17.9796 6.14353 17.9706 6.15252 18.0426 6.17951C18.1146 6.20649 18.0876 6.20649 18.1685 6.22448C18.2495 6.24247 18.2405 6.26946 18.3124 6.24247C18.3844 6.21549 18.4564 6.21549 18.4564 6.21549C18.4564 6.21549 18.5013 6.1975 18.6003 6.21549C18.6992 6.23348 18.6812 6.21549 18.7712 6.26046C18.8521 6.30543 18.9241 6.3594 18.9241 6.3594L19.032 6.41337L19.005 6.28744L18.9061 6.21549C18.9061 6.21549 18.8521 6.13454 18.7622 6.08956C18.6812 6.04459 18.6902 6.03559 18.6183 6.0176C18.5463 5.99962 18.4474 5.99062 18.4474 5.99062C18.4474 5.99062 18.3754 5.94565 18.2765 5.94565C18.1775 5.94565 18.1685 5.97263 18.0786 5.94565C17.9976 5.91866 17.9527 5.90067 17.8807 5.83771C17.8087 5.76575 17.8537 5.76575 17.7548 5.71179C17.6558 5.65782 17.6019 5.63983 17.6019 5.63983L17.5299 5.54089C17.7098 5.5139 17.7368 5.54089 17.8087 5.56787C17.8807 5.59486 17.8357 5.59486 17.9347 5.61285C18.0336 5.63083 18.0786 5.63083 18.0786 5.63083L18.3484 5.67581L18.4474 5.72078C18.4474 5.72078 18.4923 5.76575 18.5553 5.82872C18.6273 5.90067 18.6812 5.92766 18.6812 5.92766L18.8071 5.98163H18.8881L18.7892 5.88268L18.7082 5.77475C18.7082 5.77475 18.7262 5.70279 18.6362 5.64882C18.5553 5.59486 18.5643 5.59486 18.4833 5.54988C18.4024 5.50491 18.3124 5.45094 18.3124 5.45094C18.3124 5.45094 18.2675 5.49591 18.2045 5.43295C18.1325 5.37898 18.1056 5.352 18.0246 5.28904C17.9437 5.23507 17.9437 5.23507 17.8537 5.16311C17.7728 5.09115 17.8087 5.11814 17.7098 5.08216C17.6109 5.03719 17.5119 5.0102 17.5119 5.0102L17.4669 4.95623C17.395 4.85729 17.5839 4.82131 17.5839 4.82131C17.5839 4.82131 17.6558 4.81232 17.7278 4.76735C17.7997 4.72237 17.9167 4.72237 17.9167 4.72237L18.0156 4.6864C18.0156 4.6864 18.1146 4.63243 18.0426 4.60544C17.9706 4.57846 17.9796 4.58745 17.8987 4.58745C17.8177 4.58745 17.8357 4.55148 17.7368 4.55148C17.6378 4.55148 17.6648 4.55148 17.5839 4.55148C17.5029 4.55148 17.4759 4.55148 17.386 4.55148C17.305 4.55148 17.2331 4.55148 17.2331 4.55148C17.2331 4.55148 17.1791 4.55148 17.1072 4.49751C17.0352 4.44354 16.9632 4.37158 16.9632 4.37158C16.9632 4.37158 16.8643 4.31761 16.7923 4.29063C16.7204 4.26365 16.7384 4.23666 16.6394 4.21867C16.5405 4.20068 16.5135 4.19169 16.4415 4.1737C16.3696 4.15571 16.3336 4.22767 16.2347 4.15571C16.1357 4.08375 16.1087 4.04777 16.1087 4.04777L15.9828 3.96682L15.9109 3.89486L15.8299 3.81391L15.7669 3.68799Z" fill="#2C00AB"/>
<path fill-rule="evenodd" clip-rule="evenodd" d="M15.2197 3.71484L15.2017 3.81379V3.88574C15.1477 3.9577 15.0938 4.03865 15.0938 4.03865C15.0938 4.03865 15.1117 4.11061 15.1747 4.11061C15.2467 4.11061 15.3006 4.13759 15.3006 4.13759L15.4266 4.16458L15.4985 4.13759L15.4805 4.03865L15.3816 3.93072L15.3276 3.85876L15.2736 3.7868L15.2197 3.71484Z" fill="#2C00AB"/>
<path fill-rule="evenodd" clip-rule="evenodd" d="M6.09766 3.02243V4.62348C12.6458 1.76318 19.2299 1.81715 25.787 4.50655V2.80656L15.9378 1.25049L6.09766 3.02243Z" fill="#2C00AB"/>
<path fill-rule="evenodd" clip-rule="evenodd" d="M6.09766 2.43755V1.87089L15.9378 0L25.778 1.69999V2.1857L15.9378 0.530685L6.09766 2.43755Z" fill="#2C00AB"/>
<path fill-rule="evenodd" clip-rule="evenodd" d="M14.2925 20.0131C14.2566 19.9862 14.2296 19.9772 14.1936 19.9952C14.1846 20.0131 14.1756 20.0401 14.1576 20.0581C14.0767 20.0851 13.9957 20.0851 13.9148 20.0581C13.6179 19.9052 13.2671 19.8063 12.9703 20.0401C12.7455 20.238 12.5026 20.7057 13.2042 21.1285C13.465 21.2994 13.9058 21.3983 14.1576 21.5242C14.6793 21.866 14.2386 22.5227 13.6 22.5316C12.9973 22.5406 12.5746 22.019 12.8084 21.7851C13.0243 21.902 13.1592 21.7671 13.1502 21.5962C13.1412 21.4253 12.8804 21.2904 12.7095 21.5063C12.3137 21.8121 12.6825 22.8195 13.6449 22.7025C14.4185 22.5946 14.7603 22.1988 14.5894 21.4703C14.4005 21.0385 13.7888 20.8676 13.2672 20.6338C12.9613 20.4089 13.0063 20.0491 13.6269 20.1211C13.9597 20.22 14.2026 20.4269 14.3825 20.7327C14.4095 20.7147 14.4365 20.7057 14.4634 20.6877C14.4005 20.4719 14.3465 20.238 14.2925 20.0131Z" fill="#2C00AB"/>
<path fill-rule="evenodd" clip-rule="evenodd" d="M18.7813 20.4448C18.3855 20.6607 18.2506 20.5528 18.2776 20.3819C18.4754 19.8512 19.2939 20.2469 19.6178 20.2469C19.3749 20.5258 19.186 20.8046 19.141 21.1014C18.8262 21.1194 18.7543 21.2543 18.7093 21.3983C18.7902 21.3443 18.8802 21.3173 18.9971 21.3263C18.9971 21.5332 18.7183 22.0099 18.5204 22.2168C18.1067 22.6935 17.1622 22.2797 17.4321 21.7041C17.54 21.812 17.8368 21.749 17.8098 21.5152C17.7828 21.2903 17.531 21.2364 17.3691 21.4073C17.0903 21.6231 17.0813 22.6215 18.1246 22.6665C18.9791 22.6215 19.2939 21.785 19.4738 21.3353C19.8336 21.3353 19.9955 21.2094 20.0135 20.9845C19.8786 21.0385 19.7437 21.0745 19.5818 21.0745C19.6267 20.8046 19.7077 20.5078 19.9775 20.2379C20.6252 20.2829 21.1918 19.9501 21.4167 19.8602C21.4527 19.8152 21.4437 19.7792 21.3987 19.7612C19.8966 20.184 19.3839 19.7972 18.8712 19.8602C18.2865 19.9051 17.7828 20.4538 18.1246 20.7237C18.4215 20.9305 18.7273 20.6877 18.7813 20.4448Z" fill="#2C00AB"/>
<path fill-rule="evenodd" clip-rule="evenodd" d="M21.3264 12.3945C21.8571 13.276 21.1375 14.4183 20.7598 14.4093C21.2635 13.8786 21.4344 13.204 21.3264 12.3945Z" fill="#EBEFFF"/>
<path fill-rule="evenodd" clip-rule="evenodd" d="M11.541 9.85812L11.613 9.93907L11.6759 9.99304L11.7929 10.056L11.7839 9.98404L11.7029 9.90309L11.64 9.84912L11.541 9.85812Z" fill="#EBEFFF"/>
<path fill-rule="evenodd" clip-rule="evenodd" d="M11.1264 9.00342L11.0095 9.0304L10.9375 9.05739L10.9645 9.12934L11.0544 9.12035L11.1894 9.10236V9.04839L11.1264 9.00342Z" fill="#EBEFFF"/>
<path fill-rule="evenodd" clip-rule="evenodd" d="M10.7307 9.48047L10.6498 9.51645L10.6138 9.61539L10.5508 9.72332L10.5418 9.84925L10.5059 9.94819L10.5238 10.0381L10.6048 10.0022L10.6678 9.89422L10.7037 9.78629C10.7037 9.78629 10.7127 9.74131 10.7397 9.68735C10.7577 9.63338 10.7577 9.5884 10.7577 9.5884L10.7307 9.48047Z" fill="#EBEFFF"/>
<path fill-rule="evenodd" clip-rule="evenodd" d="M11.541 11.4053L11.604 11.4502L11.7119 11.5402L11.8468 11.6301L11.9548 11.7111L12.0537 11.7741L12.1437 11.7201C12.1437 11.7201 12.1616 11.6841 12.1077 11.6661C12.0537 11.6481 11.9997 11.6122 11.9997 11.6122L11.9008 11.5672L11.8468 11.5312L11.7659 11.4952L11.6669 11.4502L11.541 11.4053Z" fill="#EBEFFF"/>
<path fill-rule="evenodd" clip-rule="evenodd" d="M10.6227 10.8115L10.5508 10.9015V10.9734H10.6227L10.6407 10.8835L10.6227 10.8115Z" fill="#EBEFFF"/>
<path fill-rule="evenodd" clip-rule="evenodd" d="M10.6946 11.8638L10.6047 11.9267L10.5957 12.0347L10.6047 12.1966L10.6407 12.2955L10.6857 12.4214L10.7486 12.5294L10.8026 12.5743C10.8026 12.5743 10.8386 12.5294 10.8206 12.4664C10.8116 12.4034 10.8116 12.4484 10.7846 12.3765C10.7666 12.3135 10.7486 12.3135 10.7396 12.2326C10.7306 12.1516 10.7306 12.1426 10.7306 12.0886C10.7306 12.0347 10.7216 11.9447 10.7216 11.9447L10.6946 11.8638Z" fill="#EBEFFF"/>
<path fill-rule="evenodd" clip-rule="evenodd" d="M9.96685 12.2148L9.92188 12.2868L9.99383 12.3138L9.96685 12.2148Z" fill="#EBEFFF"/>
<path fill-rule="evenodd" clip-rule="evenodd" d="M11.5501 14.1128L11.4961 14.1848L11.595 14.2387L11.658 14.1937L11.64 14.1308L11.5501 14.1128Z" fill="#EBEFFF"/>
<path fill-rule="evenodd" clip-rule="evenodd" d="M14.7604 17.4497H14.6974C14.6974 17.4497 14.6614 17.4947 14.7424 17.5127C14.8233 17.5307 14.8233 17.5486 14.8863 17.5576C14.9493 17.5666 14.9493 17.5666 15.0212 17.5936C15.0842 17.6116 15.0392 17.5936 15.1202 17.6296C15.2011 17.6656 15.1561 17.6746 15.2461 17.6836C15.336 17.6926 15.3091 17.7016 15.408 17.6926C15.5069 17.6836 15.471 17.6476 15.5519 17.6836C15.6329 17.7195 15.6958 17.7285 15.6958 17.7285L15.6149 17.6476L15.5249 17.6026H15.444C15.444 17.6026 15.444 17.6206 15.39 17.6116C15.336 17.6026 15.2911 17.5756 15.2911 17.5756C15.2911 17.5756 15.2551 17.5307 15.2011 17.5217C15.1472 17.5127 15.0932 17.5037 15.0392 17.5037C14.9853 17.5037 14.9403 17.5037 14.9403 17.5037L14.8323 17.4677L14.7604 17.4497Z" fill="#EBEFFF"/>
<path fill-rule="evenodd" clip-rule="evenodd" d="M14.1665 17.3059L14.2474 17.2969V17.3598L14.1935 17.3958L14.1035 17.3598L14.1665 17.3059Z" fill="#EBEFFF"/>
<path fill-rule="evenodd" clip-rule="evenodd" d="M12.9082 17.2609L13.1151 17.2339L13.1241 17.3328L13.0341 17.3868H12.9352L12.9082 17.2609Z" fill="#EBEFFF"/>
<path fill-rule="evenodd" clip-rule="evenodd" d="M16.3157 17.5308L16.2528 17.5757L16.2168 17.6657L16.3337 17.6387L16.3607 17.5847L16.3157 17.5308Z" fill="#EBEFFF"/>
<path fill-rule="evenodd" clip-rule="evenodd" d="M15.8131 20.8584L15.7502 20.9304L15.6602 20.9843L15.6152 21.0563L15.6692 21.1013L15.7681 21.0833L15.8581 20.9933L15.8131 20.8584Z" fill="#EBEFFF"/>
<path fill-rule="evenodd" clip-rule="evenodd" d="M16.3428 20.1118L16.2528 20.1388L16.1899 20.2108L16.1719 20.2827H16.2618L16.3338 20.2377L16.3428 20.1118Z" fill="#EBEFFF"/>
<path fill-rule="evenodd" clip-rule="evenodd" d="M17.4411 19.0864L17.3512 19.1674L17.1713 19.2573L17.1083 19.3563L17.0094 19.4912L16.9104 19.5901L16.7755 19.725L16.6855 19.851L16.7485 19.842C16.7485 19.842 16.8025 19.779 16.8564 19.752C16.9104 19.734 17.0903 19.6081 17.0903 19.6081L17.2342 19.4192L17.3242 19.2933L17.4231 19.2124L17.4411 19.0864Z" fill="#EBEFFF"/>
<path fill-rule="evenodd" clip-rule="evenodd" d="M17.9716 18.7988L17.8817 18.8438L17.8457 18.9337H17.9446L17.9716 18.7988Z" fill="#EBEFFF"/>
<path fill-rule="evenodd" clip-rule="evenodd" d="M17.0981 17.4229L17.0352 17.4678V17.5578L17.0531 17.6567L17.1071 17.7377L17.1611 17.8906L17.1971 17.9805L17.233 17.9266C17.233 17.9266 17.1971 17.8276 17.1971 17.7736C17.1971 17.7197 17.1881 17.6387 17.1881 17.6387L17.1791 17.5488L17.0981 17.4229Z" fill="#EBEFFF"/>
<path fill-rule="evenodd" clip-rule="evenodd" d="M17.0097 15.9478L16.8837 16.0107L16.8028 16.1456L16.7578 16.2536V16.4065V16.5144L16.8118 16.5684L16.8478 16.4335C16.8478 16.4335 16.8837 16.3975 16.8927 16.3435C16.9017 16.2895 16.9107 16.2356 16.9107 16.2356L16.9647 16.1276L17.0097 16.0647V15.9478Z" fill="#EBEFFF"/>
<path fill-rule="evenodd" clip-rule="evenodd" d="M19.1669 15.0752L19.0859 15.1292L19.1309 15.1921L19.1759 15.2461C19.1759 15.2461 19.1669 15.3091 19.1759 15.381C19.1849 15.444 19.1849 15.5159 19.1849 15.5159L19.2658 15.417V15.327V15.1921L19.2299 15.1112L19.1669 15.0752Z" fill="#EBEFFF"/>
<path fill-rule="evenodd" clip-rule="evenodd" d="M16.9639 13.3301L16.865 13.3391L16.811 13.384C16.811 13.384 16.811 13.42 16.811 13.474C16.811 13.528 16.793 13.5819 16.793 13.5819L16.748 13.7079L16.838 13.7618C16.883 13.6809 16.856 13.7079 16.892 13.6359C16.9279 13.5729 16.9549 13.528 16.9549 13.528L16.9639 13.474V13.3301Z" fill="#EBEFFF"/>
<path fill-rule="evenodd" clip-rule="evenodd" d="M14.0512 12.8353L13.9972 12.7993C13.9972 12.7993 13.9163 12.7993 13.9342 12.8533C13.9432 12.9073 13.9342 12.8713 13.9522 12.9612C13.9702 13.0512 14.0422 13.1051 14.0422 13.1051L14.1861 13.294L14.384 13.4379L14.5639 13.6178C14.5639 13.6178 14.6178 13.6808 14.6988 13.7258C14.7797 13.7707 14.8337 13.8157 14.8877 13.8517C14.9417 13.8877 14.9776 13.9057 15.0316 13.9506C15.0856 13.9956 15.0676 13.9866 15.1395 14.0316C15.2205 14.0766 15.2745 14.1125 15.2745 14.1125C15.2745 14.1125 15.3824 14.1125 15.3194 14.0586C15.2565 14.0046 15.2745 14.0046 15.2115 13.9506C15.1485 13.8967 15.1215 13.8607 15.0586 13.8067C14.9956 13.7527 14.9506 13.7258 14.8967 13.6718C14.8427 13.6178 14.8427 13.6178 14.7887 13.5639C14.7348 13.5099 14.6808 13.4649 14.6358 13.411C14.5909 13.357 14.5729 13.348 14.5099 13.276C14.4559 13.2131 14.4469 13.2131 14.375 13.1411C14.312 13.0782 14.2311 13.0062 14.2311 13.0062L14.1681 12.9432L14.0512 12.8353Z" fill="#EBEFFF"/>
<path fill-rule="evenodd" clip-rule="evenodd" d="M15.9021 10.1909C15.9021 10.1909 15.8841 10.1999 15.8751 10.1999C15.8661 10.1999 15.8482 10.2089 15.8482 10.2089C15.8482 10.2089 15.8392 10.2089 15.8302 10.2179C15.8302 10.2269 15.8212 10.2269 15.8302 10.2449C15.8392 10.2539 15.8302 10.2719 15.8482 10.2719C15.8661 10.2719 15.8661 10.2809 15.8751 10.2809C15.8841 10.2809 15.8841 10.2809 15.9021 10.2809C15.9201 10.2809 15.9291 10.2809 15.9381 10.2719C15.9471 10.2629 15.9471 10.2629 15.9561 10.2539C15.9651 10.2449 15.9741 10.2359 15.9741 10.2359V10.2179L15.9651 10.2089L15.9471 10.1999L15.9021 10.1909Z" fill="#EBEFFF"/>
<path fill-rule="evenodd" clip-rule="evenodd" d="M15.8318 9.71436C15.8318 9.71436 15.8138 9.72335 15.8048 9.72335C15.7958 9.72335 15.7778 9.73235 15.7778 9.73235C15.7778 9.73235 15.7689 9.73235 15.7599 9.74134C15.7599 9.75033 15.7509 9.75033 15.7599 9.76832C15.7689 9.77732 15.7599 9.79531 15.7778 9.79531C15.7958 9.79531 15.7958 9.8043 15.8048 9.8043C15.8138 9.8043 15.8138 9.8043 15.8318 9.8043C15.8498 9.8043 15.8588 9.8043 15.8678 9.79531C15.8768 9.78631 15.8768 9.78631 15.8858 9.77732C15.8948 9.76832 15.9038 9.75933 15.9038 9.75933V9.74134L15.8948 9.73235L15.8768 9.72335L15.8318 9.71436Z" fill="#EBEFFF"/>
<path fill-rule="evenodd" clip-rule="evenodd" d="M17.0373 5.98145C17.0373 5.98145 17.0283 5.99044 17.0193 5.99044C17.0103 5.99044 17.0013 5.99944 17.0013 5.99944C17.0013 5.99944 16.9923 5.99944 16.9923 6.00843C16.9923 6.01742 16.9833 6.01742 16.9923 6.02642C16.9923 6.03541 16.9923 6.04441 17.0013 6.04441C17.0103 6.04441 17.0103 6.04441 17.0193 6.04441C17.0283 6.04441 17.0193 6.04441 17.0373 6.04441C17.0463 6.04441 17.0552 6.04441 17.0552 6.04441C17.0642 6.03541 17.0552 6.04441 17.0642 6.03541C17.0642 6.02642 17.0732 6.02642 17.0732 6.02642V6.01743L17.0642 6.00843H17.0552L17.0373 5.98145Z" fill="#EBEFFF"/>
<path fill-rule="evenodd" clip-rule="evenodd" d="M17.0721 6.18848C17.0721 6.18848 17.0541 6.19747 17.0451 6.19747C17.0361 6.19747 17.0181 6.20647 17.0181 6.20647C17.0181 6.20647 17.0091 6.20647 17.0001 6.21546C17.0001 6.22446 16.9911 6.22446 17.0001 6.24245C17.0091 6.25144 17.0001 6.26943 17.0181 6.26943C17.0361 6.26943 17.0361 6.27842 17.0451 6.27842C17.0541 6.27842 17.0541 6.27842 17.0721 6.27842C17.09 6.27842 17.099 6.27842 17.108 6.26943C17.117 6.26043 17.117 6.26043 17.126 6.25144C17.135 6.24244 17.144 6.23345 17.144 6.23345V6.20647L17.135 6.19747L17.108 6.18848H17.0721Z" fill="#EBEFFF"/>
<path fill-rule="evenodd" clip-rule="evenodd" d="M17.0642 6.4043C17.0642 6.4043 17.0463 6.41329 17.0373 6.41329C17.0283 6.41329 17.0103 6.42229 17.0103 6.42229C17.0103 6.42229 17.0013 6.42229 16.9923 6.43128C16.9923 6.44027 16.9833 6.44027 16.9923 6.45826C17.0013 6.46726 16.9923 6.48525 17.0103 6.48525C17.0283 6.48525 17.0283 6.49424 17.0373 6.49424C17.0463 6.49424 17.0462 6.49424 17.0642 6.49424C17.0822 6.49424 17.0912 6.49424 17.1002 6.48525C17.1092 6.47625 17.1092 6.47625 17.1182 6.46726C17.1272 6.45826 17.1362 6.44927 17.1362 6.44927V6.42229L17.1272 6.41329L17.1002 6.4043H17.0642Z" fill="#EBEFFF"/>
<path fill-rule="evenodd" clip-rule="evenodd" d="M17.0369 6.58398C17.0369 6.58398 17.0189 6.59298 17.0099 6.59298C17.0009 6.59298 16.9829 6.60197 16.9829 6.60197C16.9829 6.60197 16.9739 6.60197 16.9649 6.61097C16.9649 6.61996 16.9559 6.61996 16.9649 6.63795C16.9739 6.64695 16.9649 6.66494 16.9829 6.66494C17.0009 6.66494 17.0009 6.67393 17.0099 6.67393C17.0189 6.67393 17.0189 6.67393 17.0369 6.67393C17.0549 6.67393 17.0639 6.67393 17.0729 6.66494C17.0819 6.65594 17.0819 6.65594 17.0909 6.64695C17.0999 6.63795 17.1089 6.62896 17.1089 6.62896V6.60197L17.0999 6.59298L17.0729 6.58398H17.0369Z" fill="#EBEFFF"/>
<path fill-rule="evenodd" clip-rule="evenodd" d="M17.0355 6.81787C17.0355 6.81787 17.0085 6.83586 16.9995 6.83586C16.9905 6.83586 16.9545 6.84486 16.9545 6.84486C16.9545 6.84486 16.9365 6.84486 16.9365 6.86284C16.9276 6.88083 16.9186 6.88083 16.9276 6.89882C16.9365 6.91681 16.9365 6.9348 16.9545 6.9348C16.9815 6.9348 16.9815 6.9438 16.9995 6.9438C17.0175 6.9438 17.0085 6.9438 17.0355 6.9438C17.0625 6.9438 17.0715 6.9438 17.0805 6.9348C17.0895 6.92581 17.0895 6.92581 17.0985 6.90782C17.1075 6.88983 17.1254 6.88083 17.1254 6.88083L17.1164 6.84486L17.0985 6.82687L17.0625 6.81787H17.0355Z" fill="#EBEFFF"/>
<path fill-rule="evenodd" clip-rule="evenodd" d="M17.0355 7.06982C17.0355 7.06982 17.0085 7.08781 16.9995 7.08781C16.9905 7.08781 16.9545 7.09681 16.9545 7.09681C16.9545 7.09681 16.9365 7.09681 16.9365 7.1148C16.9276 7.13279 16.9186 7.13279 16.9276 7.15078C16.9365 7.16876 16.9365 7.18675 16.9545 7.18675C16.9815 7.18675 16.9815 7.19575 16.9995 7.19575C17.0175 7.19575 17.0085 7.19575 17.0355 7.19575C17.0625 7.19575 17.0715 7.19575 17.0805 7.18675C17.0895 7.17776 17.0895 7.17776 17.0985 7.15977C17.1075 7.14178 17.1254 7.13279 17.1254 7.13279L17.1164 7.09681L17.0985 7.07882L17.0625 7.06982H17.0355Z" fill="#EBEFFF"/>
<path fill-rule="evenodd" clip-rule="evenodd" d="M17.0082 7.32178C17.0082 7.32178 16.9812 7.33977 16.9722 7.33977C16.9632 7.33977 16.9272 7.34876 16.9272 7.34876C16.9272 7.34876 16.9092 7.34876 16.9092 7.36675C16.9002 7.38474 16.8912 7.38474 16.9002 7.40273C16.9092 7.42072 16.9092 7.43871 16.9272 7.43871C16.9542 7.43871 16.9542 7.4477 16.9722 7.4477C16.9902 7.4477 16.9812 7.4477 17.0082 7.4477C17.0351 7.4477 17.0441 7.4477 17.0531 7.43871C17.0621 7.42971 17.0621 7.42971 17.0711 7.41172C17.0801 7.39373 17.0981 7.38474 17.0981 7.38474L17.0891 7.34876L17.0711 7.33077L17.0351 7.32178H17.0082Z" fill="#EBEFFF"/>
<path fill-rule="evenodd" clip-rule="evenodd" d="M17.0082 7.52832C17.0082 7.52832 16.9812 7.54631 16.9722 7.54631C16.9632 7.54631 16.9272 7.5553 16.9272 7.5553C16.9272 7.5553 16.9092 7.5553 16.9092 7.57329C16.9002 7.59128 16.8912 7.59128 16.9002 7.60927C16.9092 7.62726 16.9092 7.64525 16.9272 7.64525C16.9542 7.64525 16.9542 7.65424 16.9722 7.65424C16.9902 7.65424 16.9812 7.65424 17.0082 7.65424C17.0351 7.65424 17.0441 7.65424 17.0531 7.64525C17.0621 7.63625 17.0621 7.63626 17.0711 7.61827C17.0801 7.60028 17.0981 7.59128 17.0981 7.59128L17.0891 7.5553L17.0711 7.53731L17.0351 7.52832H17.0082Z" fill="#EBEFFF"/>
<path fill-rule="evenodd" clip-rule="evenodd" d="M16.5506 9.25537C16.5506 9.25537 16.5326 9.26436 16.5236 9.26436C16.5146 9.26436 16.4966 9.27336 16.4966 9.27336C16.4966 9.27336 16.4876 9.27336 16.4786 9.28236C16.4786 9.29135 16.4696 9.29135 16.4786 9.30934C16.4876 9.31833 16.4786 9.33632 16.4966 9.33632C16.5146 9.33632 16.5146 9.34532 16.5236 9.34532C16.5326 9.34532 16.5326 9.34532 16.5506 9.34532C16.5686 9.34532 16.5776 9.34532 16.5866 9.33632C16.5955 9.32733 16.5955 9.32733 16.6045 9.31833C16.6135 9.30934 16.6225 9.30034 16.6225 9.30034V9.28236L16.6135 9.27336L16.5955 9.26436L16.5506 9.25537Z" fill="#EBEFFF"/>
<path fill-rule="evenodd" clip-rule="evenodd" d="M16.6306 9.05762C16.6306 9.05762 16.6127 9.06661 16.6037 9.06661C16.5947 9.06661 16.5767 9.07561 16.5767 9.07561C16.5767 9.07561 16.5677 9.07561 16.5587 9.0846C16.5587 9.09359 16.5497 9.0936 16.5587 9.11158C16.5677 9.12058 16.5587 9.13857 16.5767 9.13857C16.5947 9.13857 16.5947 9.14756 16.6037 9.14756C16.6127 9.14756 16.6127 9.14756 16.6306 9.14756C16.6486 9.14756 16.6576 9.14756 16.6666 9.13857C16.6756 9.12957 16.6756 9.12957 16.6846 9.12058C16.6936 9.11158 16.7026 9.10259 16.7026 9.10259V9.0846L16.6936 9.07561L16.6756 9.06661L16.6306 9.05762Z" fill="#EBEFFF"/>
<path fill-rule="evenodd" clip-rule="evenodd" d="M16.7029 8.80566C16.7029 8.80566 16.6849 8.81466 16.6759 8.81466C16.6669 8.81466 16.6489 8.82365 16.6489 8.82365C16.6489 8.82365 16.6399 8.82365 16.631 8.83265C16.631 8.84164 16.622 8.84164 16.631 8.85963C16.6399 8.86863 16.6309 8.88661 16.6489 8.88661C16.6669 8.88661 16.6669 8.89561 16.6759 8.89561C16.6849 8.89561 16.6849 8.89561 16.7029 8.89561C16.7209 8.89561 16.7299 8.89561 16.7389 8.88661C16.7479 8.87762 16.7479 8.87762 16.7569 8.86863C16.7659 8.85963 16.7749 8.85064 16.7749 8.85064V8.83265L16.7479 8.82365L16.7299 8.81466L16.7029 8.80566Z" fill="#EBEFFF"/>
<path fill-rule="evenodd" clip-rule="evenodd" d="M16.7674 8.58105C16.7674 8.58105 16.7494 8.59005 16.7404 8.59005C16.7314 8.59005 16.7134 8.59904 16.7134 8.59904C16.7134 8.59904 16.7044 8.59904 16.6954 8.60804C16.6954 8.61703 16.6864 8.61703 16.6954 8.63502C16.7044 8.64402 16.6954 8.66201 16.7134 8.66201C16.7314 8.66201 16.7314 8.671 16.7404 8.671C16.7494 8.671 16.7494 8.671 16.7674 8.671C16.7854 8.671 16.7944 8.671 16.8033 8.66201C16.8123 8.65301 16.8123 8.65301 16.8213 8.64402C16.8303 8.63502 16.8393 8.62603 16.8393 8.62603V8.60804L16.8303 8.59904L16.8123 8.59005L16.7674 8.58105Z" fill="#EBEFFF"/>
<path fill-rule="evenodd" clip-rule="evenodd" d="M16.848 8.29297C16.848 8.29297 16.821 8.31096 16.812 8.31096C16.803 8.31096 16.767 8.31995 16.767 8.31995C16.767 8.31995 16.749 8.31995 16.749 8.33794C16.7401 8.35593 16.7311 8.35593 16.7401 8.37392C16.749 8.39191 16.7491 8.4099 16.767 8.4099C16.794 8.4099 16.794 8.41889 16.812 8.41889C16.83 8.41889 16.821 8.41889 16.848 8.41889C16.875 8.41889 16.884 8.41889 16.893 8.4099C16.902 8.4009 16.902 8.4009 16.911 8.38291C16.92 8.36493 16.9379 8.35593 16.9379 8.35593L16.9289 8.31995L16.911 8.30196L16.875 8.29297H16.848Z" fill="#EBEFFF"/>
<path fill-rule="evenodd" clip-rule="evenodd" d="M16.9105 8.01416C16.9105 8.01416 16.8835 8.03215 16.8745 8.03215C16.8655 8.03215 16.8295 8.04114 16.8295 8.04114C16.8295 8.04114 16.8115 8.04114 16.8115 8.05913C16.8026 8.07712 16.7936 8.07712 16.8026 8.09511C16.8115 8.1131 16.8115 8.13109 16.8295 8.13109C16.8565 8.13109 16.8565 8.14008 16.8745 8.14008C16.8925 8.14008 16.8835 8.14008 16.9105 8.14008C16.9375 8.14008 16.9465 8.14009 16.9555 8.13109C16.9645 8.1221 16.9645 8.1221 16.9735 8.10411C16.9825 8.08612 17.0004 8.07712 17.0004 8.07712L16.9914 8.04114L16.9735 8.02316L16.9375 8.01416H16.9105Z" fill="#EBEFFF"/>
<path fill-rule="evenodd" clip-rule="evenodd" d="M17.0082 7.78027C17.0082 7.78027 16.9812 7.79826 16.9722 7.79826C16.9632 7.79826 16.9272 7.80726 16.9272 7.80726C16.9272 7.80726 16.9092 7.80726 16.9092 7.82525C16.9002 7.84324 16.8912 7.84324 16.9002 7.86123C16.9092 7.87922 16.9092 7.8972 16.9272 7.8972C16.9542 7.8972 16.9542 7.9062 16.9722 7.9062C16.9902 7.9062 16.9812 7.9062 17.0082 7.9062C17.0351 7.9062 17.0441 7.9062 17.0531 7.8972C17.0621 7.88821 17.0621 7.88821 17.0711 7.87022C17.0801 7.85223 17.0981 7.84324 17.0981 7.84324L17.0891 7.80726L17.0711 7.78927L17.0351 7.78027H17.0082Z" fill="#EBEFFF"/>
<path fill-rule="evenodd" clip-rule="evenodd" d="M16.2075 10.7305L16.1176 10.7664L16.0996 10.8654L16.1356 10.9643C16.1356 10.9643 16.1716 11.0992 16.1806 11.1532C16.1896 11.2072 16.1896 11.2162 16.2165 11.2791C16.2345 11.3331 16.2255 11.2881 16.2705 11.4051C16.3155 11.513 16.3245 11.531 16.3515 11.594C16.3695 11.6569 16.3964 11.6569 16.4144 11.7199C16.4324 11.7738 16.5044 11.8458 16.5044 11.8458L16.5673 11.9358C16.5673 11.9358 16.5763 11.9537 16.6663 12.0167C16.7562 12.0707 16.7292 12.0617 16.8012 12.0977C16.8642 12.1336 16.9001 12.1786 16.9001 12.1786L16.9541 12.2236L17.0351 12.2416C17.0351 12.2416 16.9541 12.1876 16.9271 12.1336C16.8911 12.0797 16.9091 12.0887 16.8642 12.0077C16.8192 11.9268 16.8282 11.9447 16.7832 11.8728C16.7382 11.8098 16.7023 11.7918 16.6573 11.7199C16.6123 11.6389 16.5943 11.6389 16.5673 11.567C16.5493 11.486 16.5314 11.486 16.5044 11.4231C16.4684 11.3601 16.4684 11.3421 16.4414 11.2791C16.4054 11.2162 16.3874 11.2162 16.3784 11.1442C16.3694 11.0813 16.3695 11.1082 16.3605 11.0543C16.3515 11.0003 16.3245 10.9284 16.3245 10.9284L16.2795 10.8384L16.2075 10.7305Z" fill="#EBEFFF"/>
<path fill-rule="evenodd" clip-rule="evenodd" d="M12.745 10.0288L12.6641 10.0918L12.6101 10.1457L12.5741 10.2267L12.5651 10.3076L12.5291 10.3886C12.5291 10.3886 12.5112 10.4066 12.4842 10.4695C12.4662 10.5235 12.4482 10.5595 12.4482 10.5595L12.3582 10.6674L12.3223 10.7304L12.3762 10.8113L12.4662 10.7934L12.5201 10.7304L12.5831 10.6404L12.5921 10.5595L12.6371 10.4785L12.691 10.3976L12.745 10.3076L12.763 10.2087L12.745 10.1098V10.0288Z" fill="#EBEFFF"/>
<path fill-rule="evenodd" clip-rule="evenodd" d="M15.4439 9.94796L15.354 9.93896L15.291 10.0289L15.327 10.0919L15.399 10.1099L15.4889 10.1458L15.5339 10.0919V10.0289L15.4439 9.94796Z" fill="#EBEFFF"/>
<path fill-rule="evenodd" clip-rule="evenodd" d="M15.0121 9.37253L14.8682 9.36354C14.8682 9.36354 14.8142 9.32756 14.7243 9.31856C14.6343 9.30957 14.5623 9.28259 14.4994 9.28259C14.4454 9.28259 14.4184 9.28259 14.3555 9.29158C14.2925 9.30057 14.2565 9.32756 14.2026 9.32756C14.1486 9.32756 14.1036 9.36354 14.1036 9.36354L14.0137 9.37253V9.31856L14.1126 9.23761L14.2655 9.19264L14.4544 9.17465C14.4544 9.17465 14.5354 9.13867 14.5983 9.13867C14.6613 9.13867 14.6973 9.15666 14.7512 9.17465C14.8052 9.18364 14.8592 9.21063 14.8592 9.21063L14.9221 9.24661L15.0121 9.37253Z" fill="#EBEFFF"/>
<path fill-rule="evenodd" clip-rule="evenodd" d="M15.7678 7.15088L15.6419 7.15987L15.5879 7.24982L15.4889 7.37575L15.426 7.49268L15.327 7.6186L15.2461 7.78051L15.1921 7.90643L15.1112 8.06834L15.0662 8.17627L14.9852 8.28421L14.9043 8.41013L14.9223 8.48209L15.0302 8.41913L15.1831 8.27521L15.3001 8.07733L15.471 7.88844L15.6149 7.65458L15.7228 7.40273L15.7588 7.26781L15.7678 7.15088Z" fill="#EBEFFF"/>
<path fill-rule="evenodd" clip-rule="evenodd" d="M16.677 4.73096L16.7759 4.73995C16.7759 4.79392 16.7219 4.8209 16.7219 4.8209L16.668 4.80291C16.668 4.80291 16.668 4.73096 16.677 4.73096Z" fill="#EBEFFF"/>
<path fill-rule="evenodd" clip-rule="evenodd" d="M16.6392 4.47949H16.5312L16.5492 4.56044H16.6392L16.6932 4.53346L16.6392 4.47949Z" fill="#EBEFFF"/>
<path fill-rule="evenodd" clip-rule="evenodd" d="M15.2828 5.14487L15.2108 5.10889H15.1299L14.986 5.15386L14.959 5.23481L15.0489 5.32476L15.1479 5.38772L15.2738 5.44169L15.3727 5.45068L15.3997 5.38772L15.3907 5.28878L15.3458 5.20783L15.2828 5.14487Z" fill="#EBEFFF"/>
<path fill-rule="evenodd" clip-rule="evenodd" d="M16.793 5.34282L16.7121 5.29785L16.6581 5.33383L16.6221 5.41478L16.5771 5.52272C16.5771 5.52272 16.4872 5.57669 16.5592 5.58568C16.6221 5.59468 16.6671 5.59468 16.6671 5.59468L16.748 5.57669C16.748 5.57669 16.757 5.54071 16.838 5.53171C16.9189 5.52272 16.9009 5.52272 16.9639 5.51372C17.0179 5.50473 17.0539 5.43277 17.0539 5.43277H16.9549L16.874 5.44177L16.82 5.43277L16.793 5.34282Z" fill="#EBEFFF"/>
<path fill-rule="evenodd" clip-rule="evenodd" d="M16.1371 6.26904L16.0472 6.30502L15.9842 6.34999L15.9033 6.43095L15.8493 6.46692L15.7414 6.48491L15.6604 6.5029C15.6604 6.5029 15.6514 6.56586 15.7414 6.56586C15.8313 6.56586 15.9662 6.55687 15.9662 6.55687L16.0472 6.46692L16.1461 6.44894L16.1911 6.31402L16.1371 6.26904Z" fill="#EBEFFF"/>
<path fill-rule="evenodd" clip-rule="evenodd" d="M15.886 6.02637L15.805 6.07134L15.76 6.1343L15.7151 6.18827L15.6611 6.23324C15.6611 6.23324 15.5802 6.27822 15.6431 6.28721C15.6971 6.2962 15.787 6.28721 15.787 6.28721L15.913 6.18827C15.9489 6.10732 15.9489 6.08933 15.9489 6.08933L15.886 6.02637Z" fill="#EBEFFF"/>
<path fill-rule="evenodd" clip-rule="evenodd" d="M15.4626 5.93652L15.0488 6.21536L15.3277 6.18837L15.4266 5.9815L15.4626 5.93652Z" fill="#EBEFFF"/>
<path fill-rule="evenodd" clip-rule="evenodd" d="M14.0403 5.99951H13.9863L14.0043 6.06247L14.0583 6.08046C14.0853 6.0175 14.0403 5.99951 14.0403 5.99951Z" fill="#EBEFFF"/>
<path fill-rule="evenodd" clip-rule="evenodd" d="M13.7524 5.64844L13.6895 5.68442V5.73838L13.7524 5.77436C13.7884 5.7204 13.7524 5.64844 13.7524 5.64844Z" fill="#EBEFFF"/>
<path fill-rule="evenodd" clip-rule="evenodd" d="M13.4471 5.64844L13.3391 5.67542L13.3031 5.75637L13.2852 5.82833L13.3121 5.90928L13.3841 5.8733L13.474 5.82833L13.546 5.77436V5.72039L13.51 5.66643L13.4471 5.64844Z" fill="#EBEFFF"/>
<path fill-rule="evenodd" clip-rule="evenodd" d="M14.678 5.06396L14.5701 5.09994C14.5701 5.09994 14.4891 5.14492 14.4262 5.15391C14.3632 5.16291 14.2733 5.19888 14.2733 5.19888C14.2733 5.19888 14.2373 5.21687 14.1743 5.25285C14.1114 5.28883 13.9854 5.27084 14.0484 5.31582C14.1114 5.36079 14.1743 5.35179 14.1743 5.35179L14.3093 5.3338C14.3093 5.3338 14.3722 5.32481 14.4352 5.29783C14.4891 5.27984 14.5791 5.25285 14.5791 5.25285L14.66 5.21687L14.678 5.06396Z" fill="#EBEFFF"/>
<path fill-rule="evenodd" clip-rule="evenodd" d="M15.5247 4.84799L15.4707 4.87497V4.94693L15.5427 4.91995L15.6236 4.86598V4.81201L15.5247 4.84799Z" fill="#EBEFFF"/>
</svg>
