<svg width="37" height="37" viewBox="0 0 37 37" fill="none" xmlns="http://www.w3.org/2000/svg">
<g clip-path="url(#clip0)">
<path d="M18.2949 36.873C28.2824 36.873 36.3789 28.7766 36.3789 18.7891C36.3789 8.80155 28.2824 0.705078 18.2949 0.705078C8.30741 0.705078 0.210938 8.80155 0.210938 18.7891C0.210938 28.7766 8.30741 36.873 18.2949 36.873Z" fill="#2C00AB"/>
<path d="M5.4098 5.41371C1.96787 8.85564 0.0722656 13.4322 0.0722656 18.2999C0.0722656 23.1675 1.96787 27.7441 5.4098 31.1858C8.85173 34.6275 13.4281 36.5233 18.296 36.5233C23.1638 36.5233 27.7402 34.6275 31.1823 31.1858C34.624 27.7441 36.5199 23.1675 36.5199 18.2999C36.5199 13.4322 34.624 8.85564 31.1823 5.41371C27.7404 1.97177 23.1636 0.0761719 18.296 0.0761719C13.4283 0.0761719 8.85194 1.97177 5.4098 5.41371Z" fill="#2C00AB"/>
<path d="M5.60743 5.61162C8.99671 2.22213 13.5028 0.355957 18.2958 0.355957C23.0888 0.355957 27.595 2.22254 30.9842 5.61162C34.3739 9.0009 36.2399 13.507 36.2399 18.3002C36.2399 23.0932 34.3735 27.5994 30.9842 30.9888C27.595 34.3783 23.0888 36.2445 18.2958 36.2445C13.5024 36.2445 8.99629 34.3777 5.60743 30.9888C2.21794 27.5994 0.351562 23.0932 0.351562 18.3002C0.351562 13.507 2.21814 9.0009 5.60743 5.61162Z" fill="#EBEFFF"/>
<path d="M9.45607 31.7379C10.6687 32.4667 12.0384 32.9342 12.0384 32.9342C13.5829 33.4329 16.1774 33.8835 18.146 33.7886C21.0523 33.8785 22.7609 33.5942 24.5898 32.9661C27.1551 32.0198 28.8391 30.5537 28.8391 30.5537C28.8391 30.5537 29.2049 30.289 29.5722 29.786C30.0024 29.1962 30.4449 28.3547 30.4449 28.3547C30.4449 28.3547 32.9982 23.816 33.5517 18.824C34.25 13.6218 32.6091 9.74688 32.6091 9.74688C32.6091 9.74688 32.4375 9.21665 32.1208 8.66445C31.797 8.10147 31.3275 7.5161 31.3275 7.5161C27.7424 3.93093 23.3221 2.65967 18.2262 2.65967C13.6577 2.65967 9.47038 4.14754 6.21438 6.62043C6.21438 6.62043 4.99618 7.6612 4.22674 9.18804C3.49711 10.6359 3.21437 12.5744 3.21437 12.5744C3.21437 12.5744 2.69078 16.5194 3.56344 21.0231C4.29763 25.034 6.07695 28.2148 6.07695 28.2148C6.07695 28.2148 6.61568 29.2814 7.26406 30.065C7.26385 30.0654 8.10811 31.0326 9.45607 31.7379Z" fill="#2C00AB"/>
<path d="M17.5698 5.10399C15.6214 5.14296 13.2664 5.40973 11.5709 5.78367C9.46633 6.24819 8.35986 6.79853 8.26616 6.84599C8.17019 6.88641 7.17192 7.32233 6.622 8.23126C6.02108 9.22436 5.90957 10.6625 5.90521 10.7232C5.90376 10.7392 5.76758 12.2544 5.76758 13.9297C5.76758 14.3515 5.77628 14.7833 5.79784 15.2038C5.92511 17.6873 6.37885 20.0211 6.38342 20.0443C6.3859 20.0605 6.75984 22.3615 7.30562 24.4453C7.89844 26.7093 8.68218 28.8279 8.68985 28.8486C8.69793 28.8714 8.92263 29.5043 9.43959 30.0059C9.92152 30.4735 10.6528 30.7988 10.7156 30.8263C10.7987 30.8674 12.0619 31.4861 13.5361 31.8229C15.2334 32.2112 17.1733 32.3072 17.1928 32.3084C17.2235 32.309 19.7067 32.3517 21.6753 32.0883C23.6047 31.83 25.0237 31.2726 25.0832 31.249L25.0907 31.2457C25.118 31.2334 25.7689 30.9455 26.2697 30.6671C26.7021 30.4269 26.9823 30.2014 27.0134 30.1755C27.0644 30.1392 27.4947 29.8229 27.7997 29.2771C28.122 28.7015 28.3564 27.9708 28.3807 27.8701C28.4207 27.7577 28.92 26.1865 29.3391 24.459C29.92 22.068 30.4284 19.2336 30.4332 19.205C30.438 19.1762 30.8154 16.7489 30.8983 14.5548C30.9101 14.2445 30.9149 13.9382 30.9149 13.6418C30.9149 12.0088 30.764 10.6751 30.7582 10.6231C30.7509 10.5215 30.6222 8.9352 29.8246 7.90749C29.0429 6.90113 27.656 6.49506 27.5219 6.45734C27.3992 6.40904 26.0579 5.88855 23.9637 5.5256C22.184 5.21758 19.794 5.05984 17.5698 5.10399Z" fill="#EBEFFF"/>
<path d="M17.2074 31.8897C17.1945 31.8891 15.2908 31.7944 13.6303 31.4148C12.1876 31.0852 10.9107 30.4555 10.8981 30.4495L10.8933 30.4468L10.8881 30.4445C10.8811 30.4412 10.1697 30.1299 9.73213 29.7058C9.28854 29.2755 9.08686 28.7127 9.08479 28.7071C9.07587 28.6826 8.29918 26.5828 7.71174 24.3398C7.17115 22.2757 6.80053 19.9939 6.79659 19.9711C6.79079 19.9411 6.34305 17.6355 6.21723 15.1829C6.11152 13.1217 6.3215 10.7815 6.32378 10.758C6.32502 10.7404 6.43322 9.35452 6.98149 8.44828C7.4742 7.63407 8.42563 7.23422 8.43516 7.23008L8.44345 7.22676L8.45154 7.22241C8.46252 7.21681 9.56713 6.65549 11.6623 6.19304C13.3335 5.82428 15.6563 5.56104 17.5797 5.5229C19.7785 5.47916 22.139 5.63462 23.8935 5.93891C25.9974 6.30373 27.3646 6.84577 27.3783 6.85116L27.3897 6.85552L27.4018 6.85883C27.4152 6.86257 28.7787 7.24169 29.4955 8.16492C30.2237 9.10267 30.3416 10.6432 30.3427 10.6587L30.3435 10.6681C30.3456 10.6836 30.4981 12.0123 30.4981 13.6407C30.4981 13.9326 30.4934 14.2342 30.4816 14.5397C30.3995 16.7085 30.0257 19.1124 30.022 19.1364C30.0177 19.1598 29.5111 21.9822 28.9338 24.3606C28.5059 26.1237 27.9488 27.6833 27.9432 27.6987L27.9394 27.7098L27.9365 27.7212C27.9345 27.7293 27.7446 28.5205 27.4357 29.0729C27.1669 29.5534 26.771 29.8362 26.7666 29.8384L26.7604 29.8428L26.754 29.8482C26.7509 29.8502 26.4816 30.071 26.0679 30.3011C25.5918 30.5654 24.9537 30.8491 24.9266 30.8605C24.8814 30.8784 23.475 31.4246 21.6206 31.6729C19.6842 31.9324 17.232 31.8903 17.2074 31.8897Z" fill="#2C00AB"/>
<path d="M17.5773 5.45257C15.6498 5.49112 13.322 5.75458 11.6465 6.12437C9.5395 6.58931 8.42991 7.15436 8.41893 7.15996L8.41084 7.1641C8.39799 7.16908 7.42459 7.57971 6.9211 8.41153C6.36704 9.3271 6.2578 10.6943 6.25344 10.7522C6.25137 10.7746 6.04119 13.1239 6.1469 15.186C6.27003 17.5898 6.70843 19.8857 6.72709 19.9821C6.73082 20.0045 7.1004 22.2827 7.64369 24.3568C8.22864 26.5903 9.01093 28.7097 9.01881 28.7309C9.02026 28.7354 9.22505 29.3115 9.68294 29.7555C10.1338 30.193 10.8528 30.5054 10.8599 30.5085C10.879 30.5179 12.1538 31.149 13.6141 31.4826C15.2085 31.8474 17.0019 31.9487 17.2011 31.9591L17.2059 31.9595C17.3074 31.9612 19.7163 31.9985 21.6289 31.7423C23.4957 31.4923 24.8927 30.949 24.9512 30.926C24.9603 30.9219 25.6159 30.6317 26.1006 30.3624C26.5166 30.1313 26.7859 29.9116 26.7966 29.9022L26.8031 29.8973C26.8097 29.8929 27.2197 29.5992 27.4954 29.1071C27.8063 28.5512 27.9949 27.7707 28.003 27.7376L28.0055 27.7262C28.0128 27.7071 28.5743 26.1303 28.9998 24.3769C29.5661 22.0462 30.0678 19.2674 30.0889 19.15C30.0933 19.1229 30.4678 16.7066 30.5497 14.5423C30.5611 14.253 30.5663 13.9497 30.5663 13.6407C30.5663 12.0371 30.4179 10.7161 30.4116 10.6606L30.4108 10.6521C30.4098 10.6382 30.2918 9.07857 29.5493 8.12217C28.8174 7.17924 27.4328 6.79535 27.4187 6.79141L27.411 6.78913L27.4033 6.78623C27.3905 6.78084 26.0247 6.23755 23.9046 5.86983C22.146 5.56471 19.7811 5.40883 17.5773 5.45257ZM17.2086 31.8194C17.0106 31.809 15.2284 31.7081 13.6456 31.3466C12.2047 31.017 10.9416 30.3927 10.9289 30.3864L10.9212 30.3825L10.9163 30.38C10.9086 30.3765 10.2094 30.0712 9.78057 29.6549C9.35066 29.2377 9.1523 28.6886 9.15043 28.6832C9.14214 28.6612 8.36234 26.5482 7.77905 24.3211C7.23742 22.2531 6.86887 19.9819 6.86514 19.9591C6.84586 19.8594 6.40911 17.5726 6.2864 15.1787C6.18131 13.1266 6.39067 10.787 6.39274 10.7636C6.39377 10.7489 6.50384 9.37105 7.0407 8.48388C7.51911 7.6933 8.45209 7.2978 8.46142 7.29407L8.4693 7.29075L8.48277 7.28412C8.49376 7.27852 9.59505 6.7201 11.6766 6.26056C13.3438 5.89284 15.6612 5.63042 17.58 5.59207C19.7749 5.54854 22.1305 5.70359 23.8806 6.00705C25.9812 6.37125 27.3381 6.90977 27.3513 6.91536L27.3662 6.92117L27.3816 6.92552C27.3951 6.92925 28.7378 7.30381 29.4387 8.20715C30.1536 9.1277 30.2703 10.6477 30.2715 10.663L30.2726 10.674C30.2792 10.731 30.4266 12.0444 30.4266 13.6402C30.4266 13.9472 30.4214 14.249 30.4104 14.5363C30.3285 16.6925 29.9554 19.1009 29.9515 19.125C29.9301 19.2419 29.4293 22.0166 28.8645 24.3435C28.4404 26.0899 27.8818 27.6596 27.876 27.675L27.8716 27.6864L27.867 27.7048C27.865 27.7129 27.6747 28.4998 27.3731 29.0389C27.1144 29.5018 26.7291 29.7787 26.7249 29.7816L26.7145 29.7888L26.7083 29.7942C26.7052 29.7967 26.437 30.015 26.0324 30.2399C25.5531 30.506 24.9035 30.794 24.8969 30.7971C24.8413 30.8186 23.4596 31.3559 21.6098 31.604C19.7082 31.8582 17.3097 31.8215 17.2086 31.8194Z" fill="#2C00AB"/>
<path d="M11.0728 30.378C10.9888 30.339 10.943 30.3164 10.943 30.3164C10.9383 30.3144 10.9144 30.3038 10.8757 30.286L10.8616 30.2014C10.5295 28.3439 10.0227 24.9503 9.85687 20.8121C9.65187 15.9455 9.65974 9.98157 9.67923 7.09246V6.88352C9.7354 6.86445 9.79323 6.84517 9.85314 6.82568L9.85397 7.03504C9.83428 9.89927 9.82495 15.9086 10.0312 20.8046C10.1997 25.015 10.7221 28.4511 11.0523 30.2764L11.0728 30.378Z" fill="#2C00AB"/>
<path d="M11.6213 30.6164C11.5541 30.5889 11.4909 30.5621 11.4322 30.5375L11.416 30.4071C11.1742 28.6578 10.7461 25.0915 10.5428 20.5298C10.3268 15.6802 10.3657 9.58447 10.3995 6.8133L10.3999 6.65763C10.4567 6.64105 10.5148 6.62447 10.5741 6.60789L10.5745 6.77972C10.5407 9.53182 10.5005 15.6556 10.7171 20.5222C10.925 25.1873 11.3682 28.8081 11.6059 30.5051L11.6213 30.6164ZM15.7217 5.90665L15.9292 31.2642L15.9325 31.6433C15.8762 31.6373 15.8179 31.6305 15.7592 31.6236L15.7549 31.2636L15.5476 5.93007L15.5433 5.77295C15.6019 5.76798 15.6606 5.763 15.7192 5.75844L15.7217 5.90665ZM17.9921 5.83679C18.0072 10.5442 18.0578 26.1261 18.0746 31.3917L18.0758 31.7501L17.9001 31.7519V31.345L17.8172 5.77855L17.8163 5.65832L17.9867 5.65625L17.9921 5.83679ZM18.8637 5.86022L18.7385 31.3923L18.7381 31.738L18.5611 31.7424L18.5636 31.4617C18.5856 26.9266 18.6633 11.0452 18.689 5.82539L18.6848 5.65708C18.7456 5.6577 18.8059 5.65832 18.8666 5.65936L18.8637 5.86022ZM21.2201 31.3005C21.3453 29.1994 21.5816 24.7453 21.6786 19.7055C21.7779 14.569 21.7338 8.72342 21.7031 5.97775L21.6931 5.80114C21.7638 5.80736 21.8339 5.81378 21.9037 5.82042L21.9135 6.04677C21.9435 8.8225 21.9864 14.6142 21.8884 19.7094C21.7918 24.7074 21.5586 29.13 21.433 31.2559L21.4148 31.5596C21.3414 31.5685 21.2779 31.577 21.2031 31.5851L21.2201 31.3005ZM27.1754 29.2181C27.0929 29.3316 27.0011 29.438 26.9009 29.5363L26.9847 29.0852C27.3491 27.1706 27.82 24.2085 28.0555 20.7301C28.3349 16.5952 28.3708 10.9413 28.3647 7.72866L28.3685 7.42085C28.4365 7.45899 28.5053 7.49941 28.5741 7.54294L28.5745 7.95315C28.5785 11.2027 28.5376 16.6984 28.2644 20.7444C28.0753 23.5155 27.7243 26.2732 27.2133 29.0034L27.1754 29.2181ZM29.1893 22.2816C29.3404 21.0713 29.4795 19.7129 29.5755 18.2781C29.7865 15.1247 29.7917 11.5522 29.7649 9.27873L29.7602 8.89919C29.8483 9.09818 29.9194 9.30215 29.9764 9.49803L29.9805 9.85062C29.9996 12.127 29.9791 15.3867 29.785 18.2922C29.7452 18.8888 29.6973 19.4849 29.6414 20.0802L29.5773 20.7193C29.4225 21.5085 29.2584 22.2958 29.0851 23.0811L29.1893 22.2816Z" fill="#2C00AB"/>
<path d="M26.4332 29.9095C26.3671 29.9553 26.2875 30.0074 26.1979 30.0623L26.2616 29.6996C26.6114 27.749 27.1549 24.2086 27.3687 20.0945C27.6031 15.5751 27.6039 10.2027 27.5842 7.4527L27.5761 7.06322C27.6356 7.08457 27.7063 7.11069 27.7845 7.14261L27.7942 7.50535C27.8135 10.274 27.8112 15.6107 27.5778 20.1055C27.3701 24.1062 26.8507 27.5668 26.5001 29.5571L26.4332 29.9095ZM23.8608 30.804C24.0262 28.9863 24.3291 25.2239 24.4746 20.6852C24.6377 15.5898 24.6385 9.55165 24.6263 6.63476L24.6199 6.21999C24.693 6.23512 24.7648 6.25046 24.8352 6.26601L24.8361 6.66752C24.8481 9.5987 24.8468 15.613 24.6839 20.6921C24.5394 25.2011 24.2397 28.9452 24.0739 30.7816L24.0523 31.0046C23.9829 31.0253 23.9137 31.0465 23.8368 31.0684L23.8608 30.804ZM23.1376 30.9758C23.319 29.4324 23.6164 26.4406 23.7385 22.5495C23.9174 16.8882 23.8952 9.74836 23.872 6.44448L23.8681 6.07697C23.9373 6.08899 24.0057 6.10101 24.0737 6.11366L24.0813 6.49775C24.1046 9.82692 24.1259 16.9226 23.9477 22.5568C23.8266 26.3878 23.5372 29.3497 23.3544 30.9209L23.3206 31.2053C23.251 31.2225 23.1766 31.2415 23.1032 31.2587L23.1376 30.9758ZM22.5506 31.1008C22.6926 29.4688 22.9369 26.2365 23.0522 22.3041C23.2126 16.8082 23.1714 9.84931 23.133 6.22082L23.1287 5.96151C23.2002 5.97125 23.2707 5.98141 23.3403 5.99177L23.344 6.33856C23.3822 10.0004 23.4209 16.871 23.262 22.3101C23.149 26.1818 22.9098 29.376 22.767 31.0363L22.7408 31.3375C22.6687 31.3526 22.6007 31.3669 22.5263 31.3812L22.5506 31.1008ZM21.8696 31.2395C21.9899 29.3333 22.2173 25.3505 22.3165 21.0782C22.4488 15.3995 22.455 9.06453 22.4492 6.09915L22.4432 5.8759C22.5145 5.88399 22.585 5.89207 22.6548 5.90036L22.6592 6.152C22.6648 9.1404 22.6579 15.4358 22.5263 21.083C22.4279 25.3041 22.2052 29.2431 22.0838 31.1789L22.0655 31.4646C21.9907 31.4772 21.9304 31.488 21.8535 31.4998L21.8696 31.2395ZM21.1491 6.00006C21.1402 9.03489 21.1102 15.9198 21.0134 21.7925C20.9601 24.9473 20.8705 28.1014 20.7445 31.2542L20.7283 31.63C20.6693 31.635 20.61 31.6403 20.5509 31.6449L20.5679 31.3108C20.6413 29.4881 20.7708 25.9007 20.8392 21.7894C20.9369 15.8879 20.9667 8.96359 20.9752 5.95343L20.9765 5.74511C21.0355 5.74925 21.0942 5.75319 21.1526 5.75754L21.1491 6.00006ZM20.287 5.86036C20.3111 8.53866 20.3474 13.7802 20.3152 18.7198C20.2802 24.0666 20.166 29.1718 20.1121 31.3696L20.1057 31.6772C20.0462 31.6812 19.9871 31.6845 19.928 31.6882L19.9361 31.4273C19.99 29.2651 20.1057 24.1149 20.1409 18.7183C20.1728 13.8082 20.1376 8.59815 20.1133 5.90699L20.1113 5.69619L20.2854 5.70448L20.287 5.86036ZM19.6022 5.84875C19.6378 8.92047 19.6876 14.4184 19.6633 19.6036C19.6409 24.4275 19.5389 29.0479 19.4778 31.4621L19.4726 31.7119L19.2968 31.7193L19.3039 31.427C19.3652 29.0052 19.466 24.4051 19.4888 19.6026C19.513 14.4433 19.4637 8.97478 19.428 5.89518L19.4239 5.6709L19.5997 5.67608L19.6022 5.84875ZM13.4353 31.2245C13.3748 31.2095 13.3144 31.1937 13.2543 31.1771L13.244 31.0622C13.0974 29.4583 12.8027 25.8511 12.6808 21.6174C12.5251 16.2162 12.5769 9.46563 12.6151 6.28694L12.6136 6.14765C12.6719 6.13749 12.7303 6.12734 12.7896 6.11739L12.79 6.25834C12.7519 9.42251 12.6992 16.1967 12.8553 21.6124C12.9788 25.9011 13.2798 29.5453 13.4239 31.112L13.4353 31.2245ZM12.2527 30.8599C12.1911 30.8377 12.1296 30.8151 12.0683 30.7921L12.054 30.6595C11.7872 28.4015 11.2712 23.5248 11.1077 18.3508C10.9692 13.9734 11.0888 9.08775 11.1695 6.63062L11.1726 6.45049C11.2304 6.43619 11.2891 6.42188 11.3486 6.40779L11.3463 6.56304C11.2659 8.99281 11.1423 13.9282 11.282 18.3454C11.4479 23.5924 11.9766 28.5336 12.2393 30.7403L12.2527 30.8599ZM7.28582 21.8614C7.07273 20.8088 6.94815 20.04 6.94587 20.0265L6.91582 19.5653C6.7929 17.9903 6.68242 16.2262 6.65671 14.7215C6.62645 12.9426 6.63909 11.1639 6.65941 9.83355L6.65215 9.664C6.70335 9.4621 6.76719 9.25047 6.84658 9.04484L6.83166 9.99047C6.8128 11.3009 6.80202 13.0091 6.83145 14.7186C6.864 16.6219 7.03252 18.943 7.19026 20.7673L7.28582 21.8614ZM8.80271 27.4781C8.66349 27.0638 8.52916 26.6479 8.39976 26.2305L8.29342 25.6082C8.02147 23.9771 7.78019 22.2444 7.71178 20.9139C7.35609 16.4902 7.33805 11.3838 7.36044 8.66593L7.36479 8.16576C7.42014 8.1044 7.47735 8.04657 7.53559 7.99205L7.53663 8.46507C7.51176 11.1224 7.5215 16.371 7.8859 20.9025C7.9655 22.454 8.2814 24.5542 8.606 26.4006L8.80271 27.4781ZM9.66045 28.409C9.30185 26.616 8.85951 23.9711 8.63067 20.947C8.27539 16.2546 8.28762 10.7327 8.32265 8.00097L8.32679 7.43674C8.2758 7.46327 8.21507 7.49665 8.1477 7.53665L8.14791 8.00698C8.11308 10.745 8.10127 16.2664 8.45655 20.9603C8.68456 23.9725 9.124 26.61 9.4824 28.4086L9.70543 29.4757C9.7442 29.5198 9.78482 29.5634 9.82814 29.6054C9.85965 29.6357 9.89261 29.6658 9.9266 29.6952L9.66045 28.409ZM12.8178 30.9526C12.6555 29.4732 12.3688 26.4778 12.25 22.8623C12.0546 16.9139 12.0407 9.48947 12.0446 6.40551L12.043 6.25523C11.9835 6.26725 11.9246 6.27927 11.8666 6.2915L11.8701 6.42251C11.8662 9.51807 11.8805 16.9282 12.0755 22.8681C12.1918 26.4033 12.4683 29.3474 12.6327 30.8643L12.6464 30.9951C12.7061 31.0148 12.7666 31.034 12.8279 31.0529L12.8178 30.9526Z" fill="#2C00AB"/>
<path d="M9.10872 7.09127C9.04426 7.11636 8.98498 7.13999 8.93088 7.16216L8.92756 7.42811C8.86911 10.2042 8.79241 15.7549 9.00985 19.4024C9.31829 24.5743 9.95734 28.2408 10.2732 29.8153L10.3027 29.9703C10.3696 30.013 10.4459 30.0586 10.5087 30.0949L10.4697 29.9046C10.1652 28.4116 9.5009 24.6971 9.18438 19.3919C8.96549 15.7203 9.0453 10.1137 9.10375 7.36385L9.10893 7.08443L9.10872 7.09127ZM13.5406 6.00034L13.3642 6.02605L13.3671 6.17467C13.3369 9.06627 13.2981 14.7848 13.3904 19.7913C13.478 24.552 13.766 28.8929 13.9283 31.0422L13.949 31.3411C14.0085 31.3533 14.068 31.3653 14.1277 31.377L14.1086 31.1133C13.9477 28.9971 13.6536 24.6075 13.5647 19.7878C13.4722 14.7755 13.5114 9.04906 13.5417 6.16285L13.5406 6.00034ZM14.2817 5.90292L14.1034 5.92489L14.103 6.06978C14.0578 8.42742 13.9909 13.3054 14.0887 18.1623C14.1944 23.6855 14.4794 28.9001 14.6171 31.1908L14.6328 31.4682C14.6929 31.4779 14.7524 31.4876 14.8119 31.4968L14.7922 31.1939C14.6548 28.9119 14.3689 23.6905 14.2632 18.1589C14.1654 13.2946 14.2328 8.40897 14.2779 6.05859L14.2817 5.90292ZM14.9956 5.82415C14.9375 5.82975 14.8793 5.83597 14.8212 5.84198L14.82 5.98874C14.8005 8.51904 14.7736 13.8385 14.8335 18.9997C14.8917 24.0045 15.0405 28.9526 15.1152 31.2186L15.1257 31.5432C15.1848 31.5515 15.2435 31.5596 15.3013 31.5672L15.2897 31.2173C15.2151 28.9542 15.066 24.0039 15.008 18.9974C14.9477 13.8124 14.9752 8.46784 14.9949 5.95308L14.9956 5.82415ZM16.5096 5.70455L16.3274 5.71533L16.3317 5.8142L16.4988 31.3923L16.5017 31.6989C16.5634 31.7043 16.6221 31.7092 16.6772 31.7136L16.6735 31.4037L16.5062 5.80197L16.5096 5.70455ZM17.2444 5.67139L17.0663 5.6776L17.0707 5.84861L17.1163 31.322L17.1136 31.7447C17.159 31.7476 17.1919 31.749 17.2108 31.7501L17.2906 31.7511L17.291 31.3106L17.2452 5.84882L17.2444 5.67139ZM24.4535 30.5632C24.7057 28.4101 25.1636 23.9604 25.3572 18.6245C25.5015 14.6521 25.3871 9.3235 25.3116 6.65888L25.2981 6.372C25.3715 6.38962 25.4426 6.40724 25.5123 6.42486L25.5228 6.71962C25.5981 9.40828 25.71 14.6872 25.5668 18.632C25.3728 23.961 24.9163 28.408 24.6632 30.5717L24.633 30.8181C24.5599 30.8435 24.4865 30.8681 24.4128 30.8917L24.4535 30.5632Z" fill="#2C00AB"/>
<path d="M25.3276 30.2555C25.5316 28.3813 25.8896 24.6767 26.1054 20.0559C26.3126 15.6191 26.3017 9.89058 26.2766 6.85348L26.2722 6.63251C26.2018 6.61183 26.1313 6.59158 26.0606 6.57178L26.0666 6.83378C26.0919 9.86281 26.1031 15.6037 25.8958 20.0462C25.6775 24.7229 25.3135 28.4592 25.1112 30.3057L25.0723 30.6404L25.2897 30.5387L25.3276 30.2555ZM25.9696 29.8443C26.2163 28.1669 26.5525 25.4242 26.743 21.9205C27.0267 16.7092 27.0777 10.061 27.0858 7.08895L27.0817 6.89161C27.0126 6.86731 26.9434 6.84361 26.874 6.82052L26.8765 7.01992C26.869 9.95526 26.8195 16.6619 26.5336 21.9091C26.3352 25.5552 25.9793 28.374 25.7312 30.0219L25.6827 30.3457C25.76 30.3065 25.8373 30.2659 25.9118 30.2259L25.9696 29.8443ZM27.8026 27.6703C27.8026 27.6703 27.9906 27.1448 28.2223 26.3932L28.3104 25.8091C28.5961 23.8706 28.8975 21.4526 29.0975 18.8328C29.3634 15.3454 29.3054 11.0974 29.2314 8.54014L29.2152 8.05758C29.1456 7.98503 29.0726 7.91642 28.9961 7.85216L29.0131 8.24497C29.0904 10.7541 29.1644 15.1976 28.8883 18.8172C28.6562 21.8595 28.2872 24.6282 27.9649 26.6882L27.8026 27.6703Z" fill="#2C00AB"/>
<path d="M9.86523 11.6719L10.2537 25.7988L11.9841 25.8341V19.371H13.4322V17.7463H11.9841V13.4375H13.9267V11.6719H9.86523Z" fill="#2C00AB"/>
<path d="M9.72461 11.5322L10.1131 25.6592L11.8437 25.6944V19.2313H13.2915V17.6066H11.8437V13.2981H13.7861V11.5322H9.72461Z" fill="#2C00AB"/>
<path d="M9.58594 11.3926L9.97439 25.5193L11.705 25.5548V19.0915H13.1531V17.4672H11.705V13.1584H13.6474V11.3926H9.58594Z" fill="#EBEFFF"/>
<path d="M14.8105 11.6719H16.6492L16.753 25.6583H14.9519L14.8105 11.6719Z" fill="#2C00AB"/>
<path d="M14.6699 11.6025H16.5087L16.6126 25.5888H14.8113L14.6699 11.6025Z" fill="#2C00AB"/>
<path d="M14.5312 11.4624H16.3699L16.4737 25.4486H14.6724L14.5312 11.4624Z" fill="#EBEFFF"/>
<path d="M17.8184 11.6982H21.8909C21.8909 11.6982 22.9005 13.8656 23.249 16.9073C23.6812 20.6846 23.4608 25.6585 23.4608 25.6585H22.1309L21.9188 19.3045H19.6746L19.6653 25.6585H17.9751L17.8184 11.6982ZM21.8359 17.7938C21.8359 17.7938 21.6558 16.1169 21.3096 14.8568C21.0555 13.9321 20.6065 13.3184 20.6065 13.3184H19.5917V17.7382L21.8359 17.7938Z" fill="#2C00AB"/>
<path d="M17.6777 11.5586H21.7502C21.7502 11.5586 22.7599 13.7262 23.1081 16.7676C23.5405 20.5449 23.3202 25.5191 23.3202 25.5191H21.9903L21.7782 19.1648H19.5337L19.5244 25.5191H17.8344L17.6777 11.5586ZM21.6951 17.6542C21.6951 17.6542 21.515 15.9774 21.1688 14.7172C20.9147 13.7925 20.4657 13.1787 20.4657 13.1787H19.451V17.5986L21.6951 17.6542Z" fill="#2C00AB"/>
<path d="M17.5391 11.4189H21.6117C21.6117 11.4189 22.6214 13.5865 22.9697 16.628C23.402 20.4055 23.1817 25.3794 23.1817 25.3794H21.8518L21.6397 19.0254H19.3953L19.3859 25.3794H17.696L17.5391 11.4189ZM21.5566 17.5145C21.5566 17.5145 21.3763 15.8378 21.0301 14.5775C20.776 13.6528 20.3274 13.0393 20.3274 13.0393H19.3124V17.459L21.5566 17.5145Z" fill="#EBEFFF"/>
<path d="M22.9115 11.8232H27.7327V13.1809H26.292L26.0427 25.8155H24.1827L24.4358 13.2087H22.8887L22.9115 11.8232Z" fill="#2C00AB"/>
<path d="M23.0519 11.6836H27.8733V13.0413H26.4325L26.1829 25.6758H24.3232L24.5763 13.0691H23.0293L23.0519 11.6836Z" fill="#2C00AB"/>
<path d="M23.1908 11.5439H28.0122V12.9016H26.5709L26.3214 25.536H24.462L24.7145 12.9294H23.168L23.1908 11.5439Z" fill="#EBEFFF"/>
</g>
<defs>
<clipPath id="clip0">
<rect width="36.6891" height="37" fill="white"/>
</clipPath>
</defs>
</svg>
