<svg width="53" height="20" viewBox="0 0 53 20" fill="none" xmlns="http://www.w3.org/2000/svg">
<path fill-rule="evenodd" clip-rule="evenodd" d="M26.6417 19.6462C41.1479 19.6462 52.9092 15.333 52.9092 9.99974C52.9092 4.66643 41.1479 0.336914 26.6417 0.336914C12.1187 0.336914 0.357422 4.66643 0.357422 9.99974C0.357422 15.3333 12.1187 19.6462 26.6417 19.6462Z" fill="#2C00AB"/>
<path fill-rule="evenodd" clip-rule="evenodd" d="M26.641 18.6583C12.7109 18.6583 1.39062 14.8063 1.39062 9.99957C1.39062 5.20951 12.7109 1.30811 26.641 1.30811C40.605 1.30811 51.9082 5.20951 51.9082 9.99957C51.9082 14.8063 40.605 18.6583 26.641 18.6583Z" fill="#EBEFFF"/>
<path fill-rule="evenodd" clip-rule="evenodd" d="M26.6415 17.9838C40.148 17.9838 51.1121 14.4117 51.1121 9.99979C51.1121 5.6048 40.148 2.03271 26.6415 2.03271C13.1182 2.03271 2.1875 5.6048 2.1875 9.99979C2.18778 14.4117 13.1182 17.9838 26.6415 17.9838Z" fill="#2C00AB"/>
<path fill-rule="evenodd" clip-rule="evenodd" d="M33.0474 11.5963C34.1997 10.5428 34.8432 9.43998 36.5044 9.45636C37.5041 9.47273 37.758 10.2465 37.9274 10.5758L40.1136 6.98738H41.4523L37.826 13.2263C37.758 13.3578 37.5884 13.6047 37.6055 13.8022C37.64 14.1149 38.0465 14.0328 37.894 14.0328C38.6226 13.9998 39.9611 12.65 40.2832 12.321C40.3507 12.2383 40.4698 12.0904 40.5372 12.0904C40.6051 12.0904 40.7408 12.1562 40.7408 12.2549C40.7408 12.321 40.5883 12.5676 40.4698 12.7158C39.7917 13.5389 38.6734 14.8063 37.4024 14.8393C36.7755 14.8393 36.5378 14.5924 36.4533 14.1152C36.1653 14.3618 35.1822 14.7899 34.1825 14.7899C33.3519 14.7736 33.0129 14.2961 32.8438 13.9176C32.6913 13.605 32.6233 13.1441 32.7418 12.6833C32.2842 12.9138 31.8607 12.9466 31.2506 12.9302C30.5385 12.9136 30.0978 12.6009 29.8778 11.7941C29.0644 13.2429 29.0301 13.292 28.2001 14.8066H26.7596L28.6068 11.7613C28.8444 11.3496 28.963 11.0206 29.0472 10.6752C29.0984 10.4773 28.9458 10.2962 28.7253 10.2801C28.4883 10.2801 28.0989 10.5106 27.7256 10.856C27.7256 10.856 26.7768 11.8437 26.0818 12.8478C25.4206 13.8028 24.2855 14.889 23.0485 14.889C22.1502 14.889 21.3367 14.4118 21.1673 13.4898C21.1673 13.4898 21.0825 13.7037 20.2859 14.1482C20.2182 14.1809 20.0488 14.2797 19.9983 14.247C19.8455 14.1155 19.7609 13.9507 19.7438 13.8352C19.7946 13.8519 19.8963 13.7695 20.2182 13.5226C20.8452 13.0617 20.9808 12.6991 20.9808 12.6991C21.1331 12.3864 21.4047 11.8926 21.5909 11.5469C22.0996 10.5592 22.9805 9.55512 24.4209 9.50574C24.6583 9.50574 24.726 9.60451 24.7768 9.68691C24.9122 9.78568 24.8616 9.98322 24.8616 9.98322C23.8448 10.1314 23.1502 10.7073 22.7263 11.2672C22.4724 11.6293 22.201 12.2219 22.1502 12.6497C22.0485 13.3905 22.4044 13.8841 22.9297 13.9995C23.9125 14.1476 24.726 13.4563 25.3701 12.3864C25.5397 12.1065 25.6583 11.3821 25.6583 10.987C25.6583 10.5919 25.4378 10.1805 25.2684 10.0157C25.2684 9.73602 25.4546 9.55485 25.6748 9.55485C25.7425 9.55485 25.8105 9.55485 25.8782 9.62061C26.2172 9.94993 26.4038 10.5756 26.4038 11.0528C26.4038 11.2176 26.4038 11.3821 26.3698 11.5469C27.0815 10.7073 27.9796 9.62088 28.6748 9.40697C28.8102 9.34121 28.9458 9.34121 29.0812 9.34121C30.3523 9.3082 30.1829 10.4277 30.1829 10.4277C30.8604 9.67054 31.3351 9.3906 31.9621 9.42334C32.6401 9.45635 32.8772 9.91746 32.8772 10.2795C32.8601 10.7073 32.5387 11.2012 31.9798 11.2176C31.4876 11.2176 31.1997 10.987 31.0472 10.5592C30.7253 10.6746 30.573 10.8885 30.5051 11.3163C30.4031 11.8596 30.827 12.2877 31.3691 12.2877C32.3014 12.2879 32.7084 11.8926 33.0474 11.5963ZM34.064 4.50176C34.064 5.02863 32.1657 6.0327 30.5556 6.0327C28.0478 6.0327 25.438 4.86383 24.2353 4.60053C22.9302 4.30422 21.744 4.0573 20.8117 4.0573C17.541 4.0573 16.0835 5.42371 16.1514 6.6747C16.1854 7.18492 16.6087 7.51425 17.236 7.39883C17.914 7.28369 18.8629 6.65806 19.1002 6.11482C19.1511 5.99968 19.2868 5.98304 19.3376 6.01605C19.4393 6.09845 19.4053 6.21359 19.4053 6.21359C19.3205 6.8556 18.3036 8.63346 16.5413 8.63346C15.5585 8.63346 14.8975 7.74453 14.9144 6.87197C14.9312 5.24227 16.643 3.59619 20.8626 3.59619C21.6589 3.59619 22.5572 3.66195 23.5403 3.82675C24.6754 4.02429 27.5054 4.48512 29.8101 4.51814C30.6579 4.51814 31.7424 4.55115 32.6236 4.41937C33.5556 4.27121 33.3522 4.2382 33.7252 4.2382C34.064 4.2382 34.064 4.36998 34.064 4.50176Z" fill="#EBEFFF"/>
<path fill-rule="evenodd" clip-rule="evenodd" d="M36.5723 10.23C35.9788 10.1642 35.233 10.6581 34.6232 11.3825C34.3182 11.7446 33.9963 12.436 33.9451 12.8474C33.8777 13.2592 33.9963 13.6706 34.1488 13.7858C34.3013 13.9009 34.9794 14.2466 36.0299 13.2098C36.6229 12.6335 37.199 11.6952 37.199 11.6952L37.0125 11.6455C37.3684 11.0038 37.3001 10.3121 36.5723 10.23Z" fill="#2C00AB"/>
<path fill-rule="evenodd" clip-rule="evenodd" d="M24.185 8.2877C24.185 8.46886 24.439 8.61702 24.6595 8.63367C24.6086 8.81456 24.6255 8.89696 24.5409 8.88059C24.0325 8.88059 23.8291 8.40311 23.8291 8.40311C23.1516 8.51825 22.4907 8.60065 21.1517 8.73244C17.7793 14.033 16.7287 14.9056 14.6611 14.9056C13.1866 14.9056 11.8819 13.9673 11.8479 12.2882C11.8308 11.2677 12.6782 10.0164 14.2543 9.63774C14.4408 9.63774 14.5085 9.70377 14.5085 9.80254C14.5085 9.86856 14.4408 9.95069 14.288 10.0164C13.8305 10.1812 13.0341 11.0535 13.0341 11.8603C13.0341 12.4693 13.424 13.1444 14.0847 13.2922C14.2712 13.3419 14.4408 13.3252 14.6102 13.3252C16.254 13.3252 18.1012 11.531 20.1008 8.79846C19.7789 8.81483 18.4062 8.96326 18.0672 9.3417C17.9149 9.45684 17.8132 9.39108 17.7793 9.2593C17.7793 9.22629 17.8301 9.11114 17.8812 9.04512C18.4233 8.45249 20.0503 8.32098 20.4399 8.2716C21.9651 5.99988 23.9308 4.58409 24.3376 4.60073C24.4053 4.60073 24.5581 4.6995 24.4901 4.86403C24.4729 4.89704 24.3036 5.07794 24.2362 5.12732C23.8971 5.42363 22.7446 6.14804 21.4907 8.20557C22.5075 8.15619 23.6937 7.95865 23.6937 7.95865C23.6937 7.95865 23.6261 7.74473 23.6261 7.56356C23.6769 6.8558 24.1005 6.42771 24.6429 6.51011C24.9482 6.55949 25.1513 6.80642 25.1513 7.06971C25.1513 7.34965 24.9311 7.7611 24.7106 7.95865C24.5578 8.07351 24.3881 8.18893 24.185 8.2877Z" fill="#EBEFFF"/>
<path fill-rule="evenodd" clip-rule="evenodd" d="M24.1003 7.92566C24.1003 7.92566 24.2699 7.9423 24.5239 7.66236C24.6256 7.56358 24.7952 7.26726 24.7612 7.06972C24.7441 6.97094 24.6935 6.8558 24.575 6.87217C24.3205 6.92183 24.168 7.03697 24.1003 7.28391C24.0157 7.54721 24.0497 7.72839 24.1003 7.92566Z" fill="#2C00AB"/>
</svg>
