<svg width="65" height="33" viewBox="0 0 65 33" fill="none" xmlns="http://www.w3.org/2000/svg">
<path d="M46.1674 24.8955H18.5536V26.3387H46.1674V24.8955Z" fill="#C0C0C0"/>
<path d="M61.5218 26.3391H58.8839V24.8958H60.9686C62.8047 14.697 62.2434 13.0453 62.0189 12.7727C61.5779 12.476 59.0042 11.6983 47.0734 10.1428C46.928 10.1186 46.7921 10.0548 46.6806 9.95838L37.3877 1.44331H13.3339L3.14303 12.4921V18.4334L4.19339 23.4606L5.90923 23.6531L5.74887 25.0883L3.51186 24.8397C3.36098 24.8227 3.21931 24.7585 3.10703 24.6563C2.99474 24.5541 2.91756 24.4191 2.88646 24.2704L1.71584 18.6579C1.71191 18.6072 1.71191 18.5562 1.71584 18.5055V12.2114C1.71622 12.03 1.78492 11.8554 1.90827 11.7223L12.516 0.224578C12.5844 0.153273 12.6666 0.096607 12.7576 0.0580157C12.8485 0.0194244 12.9464 -0.000288098 13.0452 7.4135e-05H37.6684C37.8489 -0.00252632 38.0236 0.06337 38.1575 0.184488L47.4904 8.7637C59.7498 10.3673 62.1472 11.1691 62.8608 11.6341C63.5744 12.0992 64.6488 12.8529 62.2354 25.7698C62.2017 25.9331 62.1119 26.0795 61.9815 26.1835C61.8512 26.2875 61.6885 26.3425 61.5218 26.3391Z" fill="#C0C0C0"/>
<path d="M52.2291 32.112C50.6614 32.1086 49.1331 31.6206 47.8536 30.7148C46.5741 29.8091 45.6059 28.5298 45.0818 27.0524C44.5576 25.5749 44.5031 23.9715 44.9258 22.4619C45.3484 20.9523 46.2274 19.6102 47.4425 18.6196C48.6575 17.6291 50.1491 17.0384 51.713 16.9286C53.2768 16.8188 54.8363 17.1952 56.1779 18.0063C57.5194 18.8173 58.5774 20.0234 59.2068 21.4591C59.8363 22.8949 60.0064 24.4901 59.6938 26.0263C59.3354 27.7426 58.3984 29.2836 57.0395 30.3915C55.6806 31.4993 53.9823 32.1067 52.2291 32.112ZM52.2291 18.4814C51.089 18.4798 49.9718 18.8019 49.0075 19.4103C48.0433 20.0186 47.2715 20.8883 46.7821 21.918C46.2926 22.9477 46.1056 24.0953 46.2427 25.2271C46.3798 26.359 46.8355 27.4287 47.5567 28.3117C48.2779 29.1948 49.2349 29.855 50.3166 30.2155C51.3982 30.576 52.56 30.622 53.6667 30.3482C54.7735 30.0743 55.7798 29.4919 56.5685 28.6686C57.3573 27.8454 57.8961 26.8151 58.1223 25.6976C58.2024 25.2963 58.2426 24.8881 58.2426 24.4789C58.2404 22.8854 57.6059 21.3579 56.4784 20.2319C55.3509 19.1059 53.8226 18.4734 52.2291 18.4734V18.4814ZM12.6123 32.112C11.1039 32.1136 9.62889 31.6677 8.3739 30.8308C7.11891 29.9939 6.14033 28.8036 5.56198 27.4104C4.98363 26.0173 4.83148 24.4839 5.12479 23.0042C5.4181 21.5246 6.14368 20.1652 7.20975 19.098C8.27582 18.0308 9.63446 17.3038 11.1138 17.0089C12.5931 16.7141 14.1267 16.8646 15.5205 17.4415C16.9142 18.0184 18.1056 18.9957 18.9438 20.2498C19.782 21.5039 20.2294 22.9785 20.2294 24.4869C20.2252 26.5065 19.4216 28.4423 17.9942 29.8711C16.5669 31.3 14.632 32.1056 12.6123 32.112ZM12.6123 18.4814C11.4207 18.4799 10.2554 18.8319 9.26398 19.4929C8.27252 20.1539 7.49949 21.0943 7.04274 22.1949C6.586 23.2955 6.46607 24.5069 6.69816 25.6757C6.93024 26.8445 7.5039 27.9182 8.3465 28.7608C9.18911 29.6034 10.2628 30.177 11.4316 30.4091C12.6004 30.6412 13.8118 30.5213 14.9124 30.0645C16.013 29.6078 16.9533 28.8347 17.6144 27.8433C18.2754 26.8518 18.6274 25.6865 18.6258 24.4949C18.6258 22.8993 17.9925 21.3689 16.865 20.2399C15.7375 19.1109 14.208 18.4756 12.6123 18.4734V18.4814ZM12.6123 29.8349C11.5546 29.8349 10.5206 29.5212 9.64117 28.9336C8.7617 28.3459 8.07624 27.5107 7.67146 26.5335C7.26668 25.5563 7.16078 24.481 7.36713 23.4436C7.57348 22.4061 8.08283 21.4532 8.83076 20.7053C9.57869 19.9574 10.5316 19.448 11.569 19.2417C12.6064 19.0353 13.6817 19.1412 14.6589 19.546C15.6361 19.9508 16.4714 20.6362 17.059 21.5157C17.6467 22.3952 17.9603 23.4292 17.9603 24.4869C17.9582 25.9039 17.3938 27.2621 16.3911 28.2633C15.3884 29.2645 14.0293 29.8269 12.6123 29.8269V29.8349ZM12.6123 20.7425C11.8718 20.7425 11.1478 20.9621 10.5321 21.3736C9.91632 21.785 9.43639 22.3698 9.15299 23.054C8.86958 23.7382 8.79543 24.4911 8.93991 25.2174C9.08439 25.9437 9.441 26.6109 9.96467 27.1346C10.4883 27.6582 11.1555 28.0149 11.8819 28.1593C12.6082 28.3038 13.3611 28.2297 14.0453 27.9463C14.7295 27.6629 15.3143 27.1829 15.7257 26.5672C16.1371 25.9514 16.3567 25.2275 16.3567 24.4869C16.3578 23.9945 16.2617 23.5067 16.074 23.0515C15.8863 22.5963 15.6107 22.1826 15.2629 21.834C14.9151 21.4855 14.5019 21.209 14.0471 21.0203C13.5923 20.8316 13.1047 20.7345 12.6123 20.7345V20.7425ZM52.2291 29.8188C51.1742 29.8204 50.1425 29.5091 49.2646 28.9241C48.3868 28.3392 47.7021 27.507 47.2973 26.5329C46.8925 25.5588 46.7858 24.4864 46.9906 23.4516C47.1954 22.4168 47.7026 21.466 48.448 20.7195C49.1933 19.973 50.1434 19.4644 51.1779 19.258C52.2124 19.0516 53.2849 19.1567 54.2597 19.5601C55.2344 19.9634 56.0676 20.6468 56.6539 21.5238C57.2401 22.4008 57.553 23.432 57.553 24.4869C57.553 25.8996 56.9924 27.2546 55.9942 28.2543C54.996 29.254 53.6418 29.8167 52.2291 29.8188ZM52.2291 20.7906C51.491 20.789 50.7691 21.0065 50.1547 21.4156C49.5404 21.8247 49.0613 22.4069 48.7781 23.0885C48.4949 23.7701 48.4204 24.5204 48.564 25.2444C48.7076 25.9683 49.0628 26.6334 49.5847 27.1553C50.1066 27.6772 50.7717 28.0325 51.4957 28.1761C52.2197 28.3197 52.97 28.2452 53.6516 27.962C54.3332 27.6788 54.9154 27.1997 55.3244 26.5853C55.7335 25.971 55.951 25.249 55.9494 24.5109C55.9473 23.5249 55.5547 22.5799 54.8574 21.8826C54.1602 21.1854 53.2151 20.7927 52.2291 20.7906Z" fill="#C0C0C0"/>
<path d="M2.9907 22.3942H0.721618C0.530233 22.3942 0.346687 22.3181 0.211358 22.1828C0.0760282 22.0475 0 21.8639 0 21.6725V19.3954C0 19.2041 0.0760282 19.0205 0.211358 18.8852C0.346687 18.7499 0.530233 18.6738 0.721618 18.6738H2.43746V20.1171H1.44323V20.9189H2.9907V22.3942Z" fill="#C0C0C0"/>
<path d="M64.1118 24.0779H61.8507V22.6347H63.3741V21.8329H62.404V20.3896H64.1118C64.3032 20.3896 64.4867 20.4657 64.622 20.601C64.7574 20.7363 64.8334 20.9199 64.8334 21.1113V23.3563C64.8334 23.5477 64.7574 23.7312 64.622 23.8666C64.4867 24.0019 64.3032 24.0779 64.1118 24.0779Z" fill="#C0C0C0"/>
<path d="M30.765 13.9674H27.3654C27.1527 13.9674 26.9488 13.8829 26.7984 13.7325C26.6481 13.5822 26.5636 13.3782 26.5636 13.1656C26.5636 12.9529 26.6481 12.749 26.7984 12.5986C26.9488 12.4482 27.1527 12.3638 27.3654 12.3638H30.765C30.9777 12.3638 31.1816 12.4482 31.332 12.5986C31.4823 12.749 31.5668 12.9529 31.5668 13.1656C31.5668 13.3782 31.4823 13.5822 31.332 13.7325C31.1816 13.8829 30.9777 13.9674 30.765 13.9674Z" fill="#C0C0C0"/>
<path d="M43.1688 11.1693H27.2933C27.0806 11.1693 26.8767 11.0848 26.7263 10.9344C26.5759 10.7841 26.4915 10.5801 26.4915 10.3675V2.98295C26.4915 2.7703 26.5759 2.56636 26.7263 2.41599C26.8767 2.26563 27.0806 2.18115 27.2933 2.18115H36.2654C36.4718 2.18197 36.67 2.26239 36.8186 2.40565L43.7301 9.0766C43.8068 9.1518 43.8676 9.24165 43.9089 9.34082C43.9503 9.43999 43.9712 9.54646 43.9706 9.65389V10.3675C43.9706 10.5801 43.8861 10.7841 43.7358 10.9344C43.5854 11.0848 43.3815 11.1693 43.1688 11.1693ZM28.095 9.56569H41.894L35.9366 3.8088H28.095V9.56569Z" fill="#C0C0C0"/>
<path d="M24.4948 11.1692H9.78182C9.56917 11.1692 9.36523 11.0847 9.21486 10.9343C9.06449 10.7839 8.98002 10.58 8.98002 10.3674V9.67781C8.97808 9.48396 9.04644 9.29596 9.17245 9.14863L14.9775 2.47769C15.0526 2.39216 15.1451 2.32362 15.2488 2.27661C15.3525 2.22961 15.465 2.20522 15.5788 2.20508H24.4948C24.7074 2.20508 24.9114 2.28955 25.0617 2.43992C25.2121 2.59029 25.2966 2.79422 25.2966 3.00687V10.3674C25.2966 10.58 25.2121 10.7839 25.0617 10.9343C24.9114 11.0847 24.7074 11.1692 24.4948 11.1692ZM10.9444 9.56556H23.693V3.78462H15.9476L10.9444 9.56556Z" fill="#C0C0C0"/>
</svg>
