<svg width="17" height="16" viewBox="0 0 17 16" fill="none" xmlns="http://www.w3.org/2000/svg">
<path d="M10.4035 14.3819V10.6732C10.4035 10.5093 10.3384 10.3521 10.2225 10.2362C10.1066 10.1202 9.94937 10.0551 9.78543 10.0551H7.31299C7.14906 10.0551 6.99184 10.1202 6.87592 10.2362C6.76 10.3521 6.69488 10.5093 6.69488 10.6732V14.3819C6.69488 14.5458 6.62976 14.703 6.51384 14.819C6.39792 14.9349 6.24071 15 6.07677 15H2.36811C2.20418 15 2.04696 14.9349 1.93104 14.819C1.81512 14.703 1.75 14.5458 1.75 14.3819V7.23499C1.75138 7.14945 1.76987 7.06505 1.80437 6.98676C1.83887 6.90847 1.88869 6.83788 1.95089 6.77913L8.13199 1.16206C8.24593 1.05781 8.39478 1 8.54921 1C8.70365 1 8.85249 1.05781 8.96644 1.16206L15.1475 6.77913C15.2097 6.83788 15.2596 6.90847 15.2941 6.98676C15.3286 7.06505 15.347 7.14945 15.3484 7.23499V14.3819C15.3484 14.5458 15.2833 14.703 15.1674 14.819C15.0515 14.9349 14.8942 15 14.7303 15H11.0217C10.8577 15 10.7005 14.9349 10.5846 14.819C10.4687 14.703 10.4035 14.5458 10.4035 14.3819Z" stroke="#6D6D6D" stroke-width="2" stroke-linecap="round" stroke-linejoin="round"/>
</svg>
