<svg width="46" height="23" viewBox="0 0 46 23" fill="none" xmlns="http://www.w3.org/2000/svg">
<path fill-rule="evenodd" clip-rule="evenodd" d="M23.0002 0C10.2978 0 0 5.14938 0 11.4995C0 17.8502 10.2978 23 23.0002 23C35.7017 23 46 17.8506 46 11.4995C45.9995 5.14984 35.7012 0 23.0002 0ZM20.8181 2.55945C23.4433 1.61951 31.2427 2.55945 34.2722 4.03308C35.2418 4.97487 29.949 8.0006 23.6471 9.31218C14.637 11.1524 18.9191 4.11433 20.8181 2.55945ZM5.3447 16.1854C3.36409 14.7552 -0.514188 10.6621 5.9104 6.40695C9.30411 4.40241 11.2027 3.9509 13.5457 3.46062C14.6775 3.21409 15.4853 3.50125 14.4751 4.36086C12.3341 6.61146 7.88965 14.0571 7.48623 15.6951C7.16213 16.8008 6.51621 17.0856 5.3447 16.1854ZM23.8476 20.9331C20.0505 21.3412 11.607 20.0735 11.4447 18.9701C11.607 16.3087 24.8582 11.8896 27.2413 14.3448C28.2524 16.2676 26.3133 20.8099 23.8476 20.9331ZM43.1606 13.1975C42.1901 15.4486 38.9181 17.9868 32.0504 19.7056C30.9988 19.9493 30.6355 19.2956 31.322 18.6816C32.4543 17.9864 37.9084 8.73926 38.5949 6.89677C38.9992 5.95498 39.7664 6.32477 40.2519 6.69225C42.434 8.12387 44.09 10.4566 43.1606 13.1975Z" fill="#2C00AB"/>
</svg>
