<svg width="16" height="16" viewBox="0 0 16 16" fill="none" xmlns="http://www.w3.org/2000/svg">
<circle cx="8" cy="8" r="8" fill="white"/>
<path d="M8.74456 5.844V12H7.25656V5.844H8.74456ZM8.94856 4.05C8.94856 4.178 8.92256 4.298 8.87056 4.41C8.81856 4.522 8.74856 4.62 8.66056 4.704C8.57656 4.788 8.47656 4.856 8.36056 4.908C8.24456 4.956 8.12056 4.98 7.98856 4.98C7.86056 4.98 7.73856 4.956 7.62256 4.908C7.51056 4.856 7.41256 4.788 7.32856 4.704C7.24456 4.62 7.17656 4.522 7.12456 4.41C7.07656 4.298 7.05256 4.178 7.05256 4.05C7.05256 3.918 7.07656 3.794 7.12456 3.678C7.17656 3.562 7.24456 3.462 7.32856 3.378C7.41256 3.294 7.51056 3.228 7.62256 3.18C7.73856 3.128 7.86056 3.102 7.98856 3.102C8.12056 3.102 8.24456 3.128 8.36056 3.18C8.47656 3.228 8.57656 3.294 8.66056 3.378C8.74856 3.462 8.81856 3.562 8.87056 3.678C8.92256 3.794 8.94856 3.918 8.94856 4.05Z" fill="#2C00AB"/>
</svg>
