<svg width="18" height="18" viewBox="0 0 18 18" fill="none" xmlns="http://www.w3.org/2000/svg">
<circle cx="9" cy="9" r="9" fill="#C0C0C0"/>
<path d="M9.78481 7.08159V14H8.21519V7.08159H9.78481ZM10 5.06541C10 5.20926 9.97257 5.34412 9.91772 5.46999C9.86287 5.59586 9.78903 5.706 9.6962 5.8004C9.60759 5.89481 9.50211 5.97123 9.37975 6.02967C9.25738 6.08361 9.12658 6.11059 8.98734 6.11059C8.85232 6.11059 8.72363 6.08361 8.60127 6.02967C8.48312 5.97123 8.37975 5.89481 8.29114 5.8004C8.20253 5.706 8.1308 5.59586 8.07595 5.46999C8.02532 5.34412 8 5.20926 8 5.06541C8 4.91706 8.02532 4.7777 8.07595 4.64734C8.1308 4.51697 8.20253 4.40459 8.29114 4.31018C8.37975 4.21578 8.48312 4.1416 8.60127 4.08766C8.72363 4.02922 8.85232 4 8.98734 4C9.12658 4 9.25738 4.02922 9.37975 4.08766C9.50211 4.1416 9.60759 4.21578 9.6962 4.31018C9.78903 4.40459 9.86287 4.51697 9.91772 4.64734C9.97257 4.7777 10 4.91706 10 5.06541Z" fill="white"/>
</svg>
