<svg width="50" height="26" viewBox="0 0 50 26" fill="none" xmlns="http://www.w3.org/2000/svg">
<g clip-path="url(#clip0_7316_15244)">
<path d="M31.686 22.3517C31.3858 23.5968 30.4465 24.1213 28.8743 24.1213C27.8072 24.1213 26.8685 23.907 26.3857 23.4228C25.8621 22.9093 25.7832 22.2009 25.7832 21.4438V17.731H26.9779V21.3803C26.9779 22.2047 27.0457 22.6963 27.3679 23.0585C27.7336 23.483 28.3654 23.6073 28.8983 23.6073C30.0253 23.6073 30.7761 23.2422 30.98 22.2505C31.0271 22.022 31.0637 21.7421 31.0637 21.31V17.731H31.7991V21.0599C31.7991 21.6816 31.7632 22.0326 31.686 22.3517" fill="#2C00AB"/>
<path d="M31.686 22.3517C31.3858 23.5968 30.4465 24.1213 28.8743 24.1213C27.8072 24.1213 26.8685 23.907 26.3857 23.4228C25.8621 22.9093 25.7832 22.2009 25.7832 21.4438V17.731H26.9779V21.3803C26.9779 22.2047 27.0457 22.6963 27.3679 23.0585C27.7336 23.483 28.3654 23.6073 28.8983 23.6073C30.0253 23.6073 30.7761 23.2422 30.98 22.2505C31.0271 22.022 31.0637 21.7421 31.0637 21.31V17.731H31.7991V21.0599C31.7991 21.6816 31.7632 22.0326 31.686 22.3517" stroke="#2C00AB" stroke-width="0.575339"/>
<path d="M37.7391 18.9164L36.3552 21.8019H39.0546L37.7391 18.9164ZM40.0398 23.9828L39.252 22.227H36.151L35.3071 23.9828H34.5488L37.6675 17.731H38.4106L41.4621 23.9828H40.0398Z" fill="#2C00AB"/>
<path d="M37.7391 18.9164L36.3552 21.8019H39.0546L37.7391 18.9164ZM40.0398 23.9828L39.252 22.227H36.151L35.3071 23.9828H34.5488L37.6675 17.731H38.4106L41.4621 23.9828H40.0398Z" stroke="#2C00AB" stroke-width="0.575339"/>
<path d="M9.2772 18.9164L7.89452 21.8019H10.5944L9.2772 18.9164V18.9164ZM11.579 23.9828L10.7924 22.227H7.69076L6.84578 23.9828H6.08789L9.20654 17.731H9.94907L13.0018 23.9828H11.579Z" fill="#2C00AB"/>
<path d="M9.2772 18.9164L7.89452 21.8019H10.5944L9.2772 18.9164V18.9164ZM11.579 23.9828L10.7924 22.227H7.69076L6.84578 23.9828H6.08789L9.20654 17.731H9.94907L13.0018 23.9828H11.579Z" stroke="#2C00AB" stroke-width="0.575339"/>
<path d="M19.5111 24.1204C17.4465 24.1204 15.4844 23.4101 15.4844 21.0093C15.4844 20.2291 15.8306 19.4294 16.3536 18.857C17.1733 17.9671 18.418 17.6123 19.5935 17.6123C20.3042 17.6123 21.1276 17.7735 21.7681 18.0992V18.8417C21.1876 18.4088 20.4232 18.1102 19.6778 18.1102C17.9795 18.1102 16.8082 19.1726 16.8082 20.9304C16.8082 22.5214 17.8418 23.6104 19.4316 23.6104C19.8362 23.6104 20.3962 23.5384 20.7814 23.3907V21.1083H21.9761V23.6569C21.2752 23.9725 20.2806 24.1204 19.5111 24.1204" fill="#2C00AB"/>
<path d="M19.5111 24.1204C17.4465 24.1204 15.4844 23.4101 15.4844 21.0093C15.4844 20.2291 15.8306 19.4294 16.3536 18.857C17.1733 17.9671 18.418 17.6123 19.5935 17.6123C20.3042 17.6123 21.1276 17.7735 21.7681 18.0992V18.8417C21.1876 18.4088 20.4232 18.1102 19.6778 18.1102C17.9795 18.1102 16.8082 19.1726 16.8082 20.9304C16.8082 22.5214 17.8418 23.6104 19.4316 23.6104C19.8362 23.6104 20.3962 23.5384 20.7814 23.3907V21.1083H21.9761V23.6569C21.2752 23.9725 20.2806 24.1204 19.5111 24.1204" stroke="#2C00AB" stroke-width="0.575339"/>
<path d="M46.5779 18.1649H45.6993V21.1558H46.4677C47.112 21.1558 47.4973 21.0355 47.7975 20.7936C48.1144 20.5391 48.304 20.1488 48.304 19.6213C48.3039 18.5647 47.536 18.1649 46.5779 18.1649V18.1649ZM48.6084 23.9827L46.9518 21.582H45.6993V23.9827H44.5039V17.731H46.7651C47.6826 17.731 48.6007 17.864 49.1119 18.4288C49.3792 18.7238 49.5246 19.1343 49.5246 19.6624C49.5246 20.6287 48.7961 21.214 48.1473 21.4442L49.9845 23.9828L48.6084 23.9827V23.9827Z" fill="#2C00AB"/>
<path d="M46.5779 18.1649H45.6993V21.1558H46.4677C47.112 21.1558 47.4973 21.0355 47.7975 20.7936C48.1144 20.5391 48.304 20.1488 48.304 19.6213C48.3039 18.5647 47.536 18.1649 46.5779 18.1649V18.1649ZM48.6084 23.9827L46.9518 21.582H45.6993V23.9827H44.5039V17.731H46.7651C47.6826 17.731 48.6007 17.864 49.1119 18.4288C49.3792 18.7238 49.5246 19.1343 49.5246 19.6624C49.5246 20.6287 48.7961 21.214 48.1473 21.4442L49.9845 23.9828L48.6084 23.9827V23.9827Z" stroke="#2C00AB" stroke-width="0.575339"/>
<path d="M1.03843 25.2678C0.7229 25.4161 0.377199 25.5144 0.0214844 25.5144C0.84058 24.9221 1.18684 24.3197 1.30521 23.3221C1.37468 22.7686 1.37468 22.2151 1.37468 21.6621V17.731H2.57008V22.4624C2.5702 23.6177 2.12555 24.7348 1.03843 25.2678" fill="#2C00AB"/>
<path d="M1.03843 25.2678C0.7229 25.4161 0.377199 25.5144 0.0214844 25.5144C0.84058 24.9221 1.18684 24.3197 1.30521 23.3221C1.37468 22.7686 1.37468 22.2151 1.37468 21.6621V17.731H2.57008V22.4624C2.5702 23.6177 2.12555 24.7348 1.03843 25.2678" stroke="#2C00AB" stroke-width="0.575339"/>
<path d="M8.55449 1.04121C8.98374 1.05414 9.3524 0.893981 9.35365 0.871029C9.35483 0.848078 8.87837 0.802734 8.87837 0.802734C8.44203 0.820959 8.26414 0.982864 8.26177 1.00177C8.25885 1.01993 8.37548 1.03524 8.55449 1.04121" fill="#2C00AB"/>
<path d="M5.63664 1.78035C5.63664 1.78035 5.66258 1.68904 5.67377 1.66907C5.68497 1.64842 5.74742 1.43763 6.04883 1.41468C6.04883 1.41468 6.20072 1.40112 6.37569 1.4553C6.37569 1.4553 6.27499 1.71498 5.86286 1.75796C5.8628 1.75796 5.70077 1.78215 5.63664 1.78035V1.78035ZM45.9932 13.4875C45.8908 13.7405 45.452 14.0629 44.9368 14.2352C44.3927 14.4171 43.2566 14.4218 42.6756 14.2287C42.6756 14.2287 42.5531 14.0956 42.1443 13.9755C41.1939 13.6959 40.8866 13.501 40.4043 13.0517C40.0634 12.7344 39.6881 12.3363 39.3244 11.9611C39.1624 11.7939 38.7684 11.3993 38.076 11.2792C37.3535 11.1544 35.5804 11.0189 34.9274 10.7881C34.4881 10.6321 33.9674 10.3359 33.314 9.35839C33.0007 8.8891 32.7633 8.75245 32.3111 8.46391C32.3111 8.46391 32.6562 8.73653 32.8376 9.06749C33.0996 9.54804 33.2251 9.89374 33.3681 10.1492C33.5122 10.4066 33.6791 10.6357 33.9393 10.8447C34.262 11.1038 34.4705 11.1609 34.835 11.2345C35.1835 11.3052 36.3736 11.3576 37.3948 11.3976C38.3987 11.4365 38.828 11.7474 39.1419 12.0107C39.4304 12.2544 39.8903 12.9506 40.2131 13.2355C40.6446 13.6148 40.6559 13.6201 41.157 13.9345C41.4101 14.0934 41.6334 14.1975 41.8389 14.2713C42.2988 14.5415 42.1086 15.0133 42.1086 15.0133C41.9768 15.3891 41.5022 15.5237 40.9481 15.4453C40.1106 15.3713 39.3899 14.6728 38.781 14.1717C38.4459 13.8955 38.3275 13.7576 37.6815 13.3089C36.6987 12.6271 34.3892 12.6836 34.3892 12.6836L32.6968 12.673C29.4003 12.7213 28.1942 10.0691 27.8651 9.51252C27.7515 9.31883 27.6461 9.16278 27.5459 9.03496C27.3922 8.82765 26.565 7.74776 25.6787 7.36206C25.6787 7.36206 26.5295 8.09812 26.4442 8.50092C26.2616 8.49856 26.0543 8.51031 25.807 8.5174C22.4859 8.61462 21.7957 8.43082 21.271 8.32602C20.7457 8.22059 19.8654 7.95917 19.0099 7.5652C19.0099 7.5652 19.1053 6.74673 18.7655 6.06659C18.7655 6.06659 21.5067 7.03465 23.6877 6.76029C23.6877 6.76029 20.1676 6.58831 17.9718 4.83835C17.9718 4.83835 18.5136 6.68795 18.0854 7.46463C18.0854 7.46463 17.5084 8.87492 14.5493 7.93392C14.5493 7.93392 13.1883 7.40454 12.1302 7.40454C12.1302 7.40454 11.3334 7.43751 11.2382 7.85269C11.2382 7.85269 11.1862 8.0511 11.3942 8.14533C11.3942 8.14533 11.625 8.21132 11.516 8.38262C11.3364 8.66587 11.0872 8.88494 10.84 9.00852C10.0144 8.96791 10.0756 8.29013 10.0756 8.29013C10.0903 8.04986 10.1681 7.88204 10.2417 7.7166C10.7604 6.55597 12.5835 6.38753 12.5835 6.38753C14.5233 6.19385 16.5566 6.65959 16.5566 6.65959C15.1021 6.31271 14.6075 6.05831 14.1917 5.71149C13.6316 5.24395 13.1082 3.67293 13.1082 3.67293C12.8851 4.44314 13.1613 5.22162 13.3479 5.62143C13.0723 5.18156 12.6796 4.81005 12.3292 4.5291C11.4335 3.8112 10.1333 3.57926 10.1333 3.57926C9.75751 3.51501 9.60854 3.12583 9.60854 3.12583C9.12681 2.239 8.58158 2.1972 8.58158 2.1972C8.85003 2.56523 8.82179 3.06873 8.82179 3.06873C8.82179 3.9968 7.62825 4.30481 7.62825 4.30481C6.73545 5.1922 6.58063 5.17329 6.40629 5.18629C6.23195 5.19867 6.10307 5.01785 6.10307 5.01785C6.04647 4.93301 6.1407 4.85707 6.1407 4.85707C6.29141 4.76284 6.43397 4.63981 6.43397 4.63981C7.30432 3.94082 7.42679 3.58343 7.35613 3.09579C7.21419 2.12176 6.42868 2.19366 6.42868 2.19366C6.05941 2.19366 5.87691 2.47511 5.87691 2.47511C5.73442 2.64472 5.42286 3.17522 5.42286 3.17522C5.14844 3.62871 4.90294 3.56209 4.90294 3.56209C4.60028 3.58156 4.38121 3.31299 4.38121 3.31299C4.3694 3.30247 4.36056 3.29003 4.35061 3.27946C4.12632 3.03857 4.31939 2.74772 4.31939 2.74772C4.68873 2.09526 5.32577 2.03113 5.41235 2.02578C5.49943 2.0205 5.79332 1.99866 5.79332 1.99866C6.51277 1.94629 6.98275 1.2585 6.98275 1.2585C6.67953 1.1119 6.13784 1.18965 6.13784 1.18965C5.6102 1.22497 5.47119 1.78495 5.47007 1.78495C5.01309 1.85212 5.03605 1.50114 5.13382 1.40871C5.21095 1.31802 5.48295 0.877533 7.23248 0.61493C7.23248 0.61493 8.16055 0.431194 9.80876 0.612006C9.86941 0.618475 9.92825 0.67153 9.85056 0.763336C9.64325 1.00659 8.99495 1.54592 7.95498 1.28506C7.95498 1.28506 7.9362 1.7008 9.07034 1.90866C9.07034 1.90866 10.0932 2.12648 11.7632 3.46792C11.7632 3.46792 10.9535 1.97049 9.55381 1.51407C9.55381 1.51407 9.45012 1.44814 9.54435 1.35335C9.54435 1.35335 10.2068 0.759728 11.3757 0.822176C11.3757 0.822176 15.241 1.02065 17.4139 3.28829C17.4139 3.28829 17.3386 2.91025 17.0076 2.36203C17.0076 2.36203 16.9411 2.29666 16.9793 2.24901C16.9793 2.24901 17.0076 2.15416 17.3857 2.23011C17.3857 2.23011 18.7654 2.45688 21.9681 3.62864C21.9681 3.62864 24.3689 4.47013 25.678 5.01306C27.646 5.82861 32.5764 7.82843 35.6905 9.55202C36.2464 9.8594 38.5624 11.0035 38.5624 11.0035C40.2936 12.0782 41.8865 12.8561 41.8865 12.8561C43.4553 13.581 44.5959 13.2489 44.5959 13.2489C44.9603 13.1116 45.6565 12.7337 45.9278 13.0021C46.0661 13.1395 46.0743 13.3183 45.9932 13.4875V13.4875ZM46.3835 12.8792C46.1784 12.4017 45.5184 12.5188 45.5184 12.5188C45.2165 12.5371 44.8355 12.8532 44.306 12.9621C43.1671 13.1971 42.2962 12.8097 42.2962 12.8097C40.6181 12.0583 39.4821 11.2398 38.7431 10.817C38.0041 10.3942 35.2689 8.95734 32.533 7.58237C32.533 7.58237 29.399 5.97596 24.7623 4.05918C24.7623 4.05918 15.8163 0.000157161 9.38183 0.000157161C9.38183 0.000157161 6.04889 -0.0417026 4.92011 1.2409C4.92011 1.2409 4.72107 1.40579 4.81816 1.60893C4.81816 1.60893 4.83172 1.66491 4.78992 1.7008C4.78992 1.7008 4.29351 2.02703 3.88947 2.49514C3.88947 2.49514 3.67289 2.71656 3.84705 3.0469C3.84705 3.0469 4.06257 3.42258 4.19866 3.58399C4.33587 3.74471 4.61023 4.02622 5.02945 3.98442C5.21493 3.96558 5.22022 3.91911 5.22022 3.91911C5.41279 4.11342 5.74903 4.12518 5.74903 4.12518C5.71545 4.00569 5.58707 3.7689 5.57587 3.63113C5.56349 3.47688 5.62352 3.33376 5.62352 3.33376C5.69361 3.16414 5.82498 2.95391 5.95871 2.84911C6.07763 2.75606 6.37258 2.65953 6.59282 2.81378C6.76959 2.93749 6.95731 3.33376 6.7454 3.85548C6.7454 3.85548 6.50693 4.26767 6.28668 4.31358L6.22554 4.3165C6.09946 4.31414 5.81863 4.15932 5.81863 4.15932C5.81863 4.15932 5.80688 4.19291 5.83804 4.33485C5.85626 4.41546 5.8822 4.50503 5.90403 4.57388L5.84569 4.62096C5.84569 4.62096 5.66842 4.76352 5.74679 4.96903C5.74679 4.96903 5.91933 5.61795 6.401 5.61795C6.82682 5.63213 7.18123 5.22815 7.18123 5.22815C8.09462 4.24298 9.38183 4.1105 9.38183 4.1105C10.8085 4.01328 12.8474 5.47427 13.4026 5.89591C11.2898 5.87296 10.4371 6.68379 10.4371 6.68379C9.24704 7.61011 9.71036 8.72776 9.71036 8.72776C9.79701 8.97089 10.0408 9.14816 10.1963 9.21646C10.4205 9.31417 10.6049 9.31827 10.7786 9.29887C10.9041 9.28531 11.0417 9.23878 11.1118 9.19052C11.2738 9.09504 11.5629 8.90608 11.7025 8.70524C11.7956 8.60454 11.8891 8.35786 11.8273 8.12288C11.8273 8.12288 11.7897 7.93386 11.9599 7.89554C11.9599 7.89554 12.5198 7.75367 13.6505 8.25306C13.6505 8.25306 14.8789 8.96909 16.4723 9.11103C16.4723 9.11103 18.2842 9.29476 18.7218 8.3137C18.7218 8.3137 19.7628 8.73945 21.2863 8.9138C21.2863 8.9138 22.7707 9.06743 25.1787 8.88612C25.6526 8.85017 26.2091 8.88966 26.2091 8.88966C26.9799 8.98209 27.4699 9.38315 27.663 9.697C28.4522 10.9783 29.3937 13.4922 33.249 13.3927L34.9938 13.3448C36.0544 13.3448 36.9181 13.3537 37.7662 13.8071C38.1365 14.0056 39.1148 14.9765 39.717 15.3045C41.5007 16.5065 42.5312 15.9477 42.5312 15.9477C43.1383 15.5938 43.0906 14.9642 42.9427 14.6116C42.7602 14.5537 45.1527 14.9624 46.1728 13.6229C46.4141 13.3243 46.4564 13.0506 46.3835 12.8792V12.8792Z" fill="#2C00AB"/>
</g>
<defs>
<clipPath id="clip0_7316_15244">
<rect width="50" height="25.52" fill="white"/>
</clipPath>
</defs>
</svg>
