<svg width="50" height="22" viewBox="0 0 50 22" fill="none" xmlns="http://www.w3.org/2000/svg">
<path fill-rule="evenodd" clip-rule="evenodd" d="M8.65382 0.881836H12.7451L12.7447 11.5987C12.7451 13.4474 11.9523 17.3105 6.28273 17.3105C0.615062 17.3105 0 13.7117 0 11.6914V9.71346H3.95592V11.6473C3.95592 12.8328 4.74834 13.9318 6.24049 13.9318C7.73308 13.9318 8.65382 13.0971 8.65382 11.6914V0.881836ZM19.0703 5.36454C22.276 5.36454 25.0887 6.59414 25.0887 12.2619H17.4854C17.4854 14.0619 18.2351 14.8045 19.5498 14.8045C20.8707 14.8045 21.312 13.754 21.312 13.754H25.0464C25.0464 15.3811 22.8041 17.5749 19.4205 17.5325C15.5516 17.5325 13.6664 14.6757 13.6664 11.7338C13.6664 8.78557 15.3359 5.36445 19.0703 5.36445V5.36454ZM21.3547 9.97733C21.3547 8.87826 20.7415 7.82197 19.3278 7.82197C17.9712 7.82197 17.4854 8.78557 17.4854 9.97733H21.3547ZM31.2807 5.36454C34.4927 5.36454 37.2992 6.59414 37.2992 12.2619H29.7021C29.7021 14.0619 30.4441 14.8045 31.7647 14.8045C33.0857 14.8045 33.5225 13.754 33.5225 13.754H37.2568C37.2568 15.3811 35.0146 17.5749 31.6359 17.5325C27.7665 17.5325 25.8751 14.6757 25.8751 11.7338C25.8751 8.78557 27.5464 5.36445 31.2807 5.36445V5.36454ZM33.5649 9.97733C33.5649 8.87826 32.9502 7.82197 31.5445 7.82197C30.1817 7.82197 29.7016 8.78557 29.7016 9.97733H33.5649ZM38.005 20.958V5.80181H41.7817C41.7817 5.80181 41.7813 6.02202 41.7813 6.4151C41.7817 7.33629 42.267 6.81436 42.3098 6.67889C42.3539 6.55013 43.2752 5.49339 45.1666 5.49339C47.058 5.49339 49.9996 6.81436 49.9996 11.4696C50 15.0684 48.2436 17.71 45.2089 17.71C43.5394 17.71 42.5737 17.0526 42.3539 16.7887C42.1324 16.5245 41.8254 16.4759 41.8254 16.7887V20.9585L38.005 20.958ZM41.7394 11.5982C41.697 13.8405 42.1743 15.026 44.0235 15.026C45.8663 15.026 46.1302 13.0057 46.1302 11.4695C46.1302 9.93491 45.7799 8.43527 43.8456 8.43527C42.6605 8.43527 41.7813 9.36271 41.7394 11.5982V11.5982Z" fill="#2C00AB"/>
</svg>
