<svg width="53" height="28" viewBox="0 0 53 28" fill="none" xmlns="http://www.w3.org/2000/svg">
<path fill-rule="evenodd" clip-rule="evenodd" d="M17.3575 13.7051L21.1315 8.1467C21.2761 7.92832 21.1025 7.68102 20.799 7.68102L17.8854 7.65918C17.6683 7.65918 17.2346 7.93569 17.0466 8.17563L15.731 9.89995L13.9019 12.308L13.9163 8.14641C13.9163 7.86281 13.6198 7.68073 13.4391 7.68073H10.0986C9.86719 7.68073 9.65751 7.76808 9.65046 8.19718C9.64342 8.61918 10.1637 8.70653 10.1637 8.82281V19.947C10.1637 20.158 10.4528 20.4779 10.6555 20.4779L13.5183 20.4634C13.721 20.456 13.8943 20.1651 13.8943 19.9685L13.9014 15.3341L15.7305 17.6112L17.6681 20.0122C17.827 20.2014 18.1379 20.4634 18.4634 20.4634L21.5723 20.4416C21.8688 20.4416 21.8398 20.0777 21.7676 19.9833C20.2896 17.8962 18.8195 15.8035 17.3575 13.7051ZM28.0863 7.6813H24.7824C24.392 7.6813 24.3052 7.91414 24.2401 8.16144C24.3123 8.61238 24.7824 8.73603 24.7824 8.7434V19.9691C24.7824 20.2674 24.9633 20.464 25.2164 20.464L26.4021 20.4566L28.1661 20.4421C28.4913 20.4421 28.5778 20.2459 28.5778 19.9691V8.1467C28.5778 7.86309 28.3394 7.6813 28.0863 7.6813Z" fill="#2C00AB"/>
<path fill-rule="evenodd" clip-rule="evenodd" d="M38.1439 1.94852C34.6303 1.05374 30.6759 0.551758 26.4968 0.551758C26.4678 0.551758 26.4388 0.558848 26.403 0.558848C22.6146 0.558848 18.9995 0.980854 15.7317 1.73014C6.55687 3.84017 0.136719 8.55456 0.136719 14.0038C0.136719 19.4533 6.55687 24.1674 15.7314 26.2771C18.9992 27.0267 22.614 27.4484 26.4027 27.4484H26.4966C30.6756 27.4484 34.63 26.9538 38.1436 26.059C46.8556 23.8619 52.8637 19.2786 52.8637 14.0038C52.8643 8.72926 46.8562 4.14562 38.1439 1.94852ZM38.1439 23.1271C34.681 23.9348 30.7117 24.3931 26.4968 24.3931C26.4678 24.3931 26.4388 24.386 26.403 24.386C22.5856 24.386 18.9634 24.0003 15.7317 23.3237C7.64137 21.6285 2.05995 18.0854 2.05995 14.0041C2.05995 9.92268 7.64137 6.37958 15.7317 4.68447C18.9634 4.00778 22.5856 3.62208 26.403 3.61499H26.4968C30.7117 3.61499 34.681 4.0733 38.1439 4.88073C45.7567 6.64135 50.9408 10.0753 50.9408 14.0038C50.9408 17.9323 45.7567 21.3665 38.1439 23.1271Z" fill="#2C00AB"/>
<path fill-rule="evenodd" clip-rule="evenodd" d="M40.42 8.16178C40.312 7.9142 40.1238 7.68164 39.8777 7.68164H35.4098C35.2509 7.68164 35.0339 7.81267 35.0339 8.03076C35.0268 8.67086 35.6922 8.6493 35.6559 8.74374L31.8891 19.9257C31.8243 20.1149 31.9903 20.464 32.2217 20.464L34.8462 20.4422C35.0773 20.4422 35.4028 20.2459 35.4969 19.962L36.7404 16.2082C37.1597 14.9567 37.5794 13.7054 37.9911 12.4542C38.0131 12.4034 38.0782 12.3742 38.143 12.3742C38.2442 12.3742 38.3527 12.4105 38.3741 12.4834L40.8109 20.006C40.8616 20.1733 41.2012 20.4425 41.3816 20.4425L44.1145 20.4643C44.2735 20.4643 44.4618 20.1441 44.4113 19.9986L40.42 8.16178Z" fill="#2C00AB"/>
</svg>
