<svg width="50" height="25" viewBox="0 0 50 25" fill="none" xmlns="http://www.w3.org/2000/svg">
<path fill-rule="evenodd" clip-rule="evenodd" d="M49.6328 12.4906C49.6328 19.1798 38.6002 24.6018 24.9923 24.6018C11.3839 24.6018 0.351562 19.1798 0.351562 12.4906C0.351562 5.80172 11.3839 0.379395 24.9923 0.379395C38.6002 0.379395 49.6328 5.80172 49.6328 12.4906ZM24.9923 1.33282C11.9175 1.33282 1.31768 6.32838 1.31768 12.4906C1.31768 18.6526 11.9175 23.6481 24.9923 23.6481C38.0665 23.6481 48.6658 18.6526 48.6658 12.4906C48.666 6.32838 38.0665 1.33282 24.9923 1.33282Z" fill="#2C00AB"/>
<path fill-rule="evenodd" clip-rule="evenodd" d="M48.0525 12.4904C48.0525 18.3215 37.7273 23.0483 24.9911 23.0483C12.2544 23.0483 1.92969 18.3215 1.92969 12.4904C1.92969 6.6599 12.2546 1.93311 24.9911 1.93311C37.7273 1.93282 48.0525 6.6599 48.0525 12.4904ZM39.7709 7.5475H35.8161L35.3342 8.89565H37.8945L34.9745 9.88543L34.7815 10.4321L39.2744 8.98981L39.7709 7.5475ZM14.5533 9.91376H12.9424C12.9424 9.91376 14.4354 6.01789 14.5553 5.72336C14.7685 5.20128 14.8954 5.23734 14.8954 5.23734H12.6702C12.9456 5.36614 12.7014 5.87506 12.7014 5.87506C12.7014 5.87506 10.9192 10.7335 10.7949 10.9762C10.6707 11.2193 10.5777 11.2499 10.5777 11.2499H14.4316L14.9705 9.81101C14.924 9.94783 14.5533 9.91376 14.5533 9.91376ZM21.3132 11.2439H23.1285C23.1285 11.2439 23.0042 11.0635 23.0817 10.8663C23.189 10.5924 24.1519 8.02722 24.1519 8.02722L24.5706 11.2439H26.2148L28.3702 5.52185C28.3702 5.52185 28.4582 5.25337 28.5787 5.25337L26.8315 5.24822C26.8315 5.24822 26.8818 5.44572 26.8189 5.59771C26.7578 5.74941 25.7648 8.3458 25.7648 8.3458L25.3771 5.24822H23.5004C23.5004 5.24822 23.5975 5.39992 23.5355 5.56708L21.5459 10.9116C21.5459 10.9116 21.422 11.2439 21.3132 11.2439ZM29.6117 5.24994C29.6117 5.24994 29.7664 5.49295 29.565 6.05453C29.3629 6.61668 27.7813 10.7916 27.7813 10.7916C27.7813 10.7916 27.6567 11.1843 27.4859 11.2608L29.9679 11.2582C29.9679 11.2582 32.9765 11.367 33.9075 8.27138C33.9075 8.27138 35.0862 5.2196 31.6738 5.25022H29.6117V5.24994ZM29.8752 9.87541C29.8752 9.87541 29.8831 9.87312 30.1618 9.87312C30.5837 9.87312 31.3656 9.7821 31.8917 8.52956C32.7551 6.47128 31.5501 6.54083 31.5501 6.54083H31.0846L29.8752 9.87541ZM7.80418 16.0915H11.759L12.2403 14.743H9.68057L12.6006 13.7535L12.7938 13.2074L8.3004 14.6497L7.80418 16.0915ZM14.7354 18.5779C14.6729 18.5779 14.6729 18.3822 14.6729 18.3822L15.4001 16.4925C15.4001 16.4925 16.3066 18.2333 16.3685 18.3547C16.4305 18.4766 16.3992 18.5777 16.3992 18.5777H18.5672C18.3601 18.5777 18.147 18.193 18.147 18.193L17.068 16.2967C18.5777 16.2967 19.0602 14.8326 19.0602 14.8326C19.8046 12.5044 17.2993 12.5651 17.2993 12.5651H14.7351C14.9211 12.7675 14.7761 13.1928 14.7761 13.1928C14.7761 13.1928 13.1839 17.6488 13.0599 17.9932C12.9357 18.3375 12.7082 18.5774 12.7082 18.5774L14.7354 18.5779ZM16.272 13.9482L15.8519 15.1569H16.2449C16.2449 15.1569 17.0104 15.2233 17.2926 14.6274C17.2926 14.6274 17.623 13.9447 16.6996 13.9447C16.4972 13.9447 16.272 13.9482 16.272 13.9482ZM37.1676 18.6003C37.0129 18.6037 37.1208 18.2319 37.1208 18.2319L37.7702 16.5145C37.7702 16.5145 38.6445 18.2559 38.7062 18.3779C38.7685 18.4992 38.7375 18.6003 38.7375 18.6003H40.9826C40.7753 18.6003 40.5481 18.215 40.5481 18.215L39.4688 16.3193C40.9788 16.3193 41.4335 14.907 41.4335 14.907C42.2263 12.4695 39.7007 12.5874 39.7007 12.5874H37.1571C37.3433 12.7898 37.1989 13.2151 37.1989 13.2151C37.1989 13.2151 35.5397 17.6886 35.4158 18.0324C35.3377 18.2437 35.214 18.4362 35.0532 18.5965L37.1676 18.6003ZM38.6463 15.179C38.6463 15.179 39.406 15.2348 39.6384 14.6523C39.913 13.9665 39.2285 13.9842 39.2285 13.9842H38.6671L38.253 15.179H38.6463ZM21.7416 18.7274C23.9794 18.7274 25.3113 16.5783 25.3113 15.037C25.3113 13.4198 24.632 12.4105 23.0817 12.4105C21.1032 12.4105 19.8125 13.8803 19.4795 15.7073C19.1733 17.3872 20.1427 18.7274 21.7416 18.7274ZM21.8825 17.3062C22.4407 17.4075 23.0545 17.014 23.375 15.7577C23.8609 13.8563 22.9653 13.8408 22.8018 13.8211C22.3065 13.7618 21.6454 14.3203 21.3766 15.4844C21.2535 16.0159 21.1231 17.1683 21.8825 17.3062ZM25.8426 12.588C25.8426 12.588 25.9961 12.669 25.9961 13.0531V18.2562C25.9961 18.2562 25.9751 18.5407 25.8654 18.6006H27.528C27.528 18.6006 27.528 18.4786 27.693 18.2763C27.8585 18.0739 31.3121 13.5394 31.3121 13.5394C31.3121 13.5394 32.0996 12.588 32.3063 12.588H29.9264C29.9264 12.588 30.1132 12.7094 29.9682 12.9318C29.8237 13.1547 27.7079 16.252 27.7079 16.252L27.7348 13.1281C27.7348 13.1281 27.7307 12.6272 27.9362 12.5854L25.8426 12.588ZM35.8953 14.0063L36.4333 12.5863L32.4007 12.5869C32.4007 12.5869 32.5458 12.7122 32.3595 13.218C32.1732 13.7246 30.5393 18.0352 30.5393 18.0352C30.5393 18.0352 30.2504 18.6017 30.1679 18.6017H34.3239L34.8201 17.1648C34.8201 17.1648 34.7584 17.2453 34.3654 17.2453H32.6075L32.9797 16.2735H34.3441C34.3441 16.2735 34.6336 16.2535 34.6959 16.3345L35.2538 14.7988C35.2538 14.7988 35.2131 14.9374 34.8403 14.9374H33.5172L33.9102 13.8652H35.5854C35.5857 13.8652 35.8134 13.8345 35.8953 14.0063ZM14.8735 11.249H16.863C16.863 11.249 16.8569 11.0996 16.9086 11.0026C17.0031 10.8271 17.2499 10.4038 17.2499 10.4038H19.2523L19.2561 10.9316C19.2561 10.9316 19.2663 11.1136 19.1189 11.2539H21.1044C21.1044 11.2539 20.957 11.1729 20.9298 10.9339L20.6804 5.65094C20.6804 5.65094 20.6696 5.31319 20.8339 5.24192H18.8643C18.8643 5.24192 19.0023 5.40879 18.7385 5.78862C18.4751 6.16816 15.1103 11.0518 15.1103 11.0518C15.1103 11.0518 15.0436 11.1769 14.8735 11.249ZM19.2137 7.28703L18.1081 9.04763H19.2292L19.2137 7.28703Z" fill="#2C00AB"/>
</svg>
