<svg width="50" height="24" viewBox="0 0 50 24" fill="none" xmlns="http://www.w3.org/2000/svg">
<path fill-rule="evenodd" clip-rule="evenodd" d="M25.4694 1.81152C24.4597 3.05662 21.5799 7.0764 21.2517 7.59688C20.6199 8.59415 20.564 9.07741 20.5454 9.3994C20.5271 9.71547 20.5271 10.2853 21.0411 10.7499C21.9022 11.518 23.1098 11.3939 24.1815 11.3939H33.0079C33.3858 11.3939 33.4974 11.2823 33.7018 11.0099C34.4078 9.93201 34.7239 8.76134 34.7239 7.71446C34.7239 5.4721 33.2685 2.64779 29.5828 1.37168L29.1675 1.96631C32.091 3.35352 33.2992 5.16844 33.2992 7.70797C33.3178 8.38945 33.1379 9.12647 32.6919 9.80795H24.1067C23.5927 9.80795 23.5183 9.22572 23.7041 8.89724C24.4401 7.58736 25.2615 6.32732 26.163 5.1253C27.0303 3.96704 27.8849 2.88294 28.7832 1.74949C29.0248 1.43371 28.8635 1.13005 28.3806 1.03108C27.3771 0.820463 26.3305 0.671875 25.0606 0.671875C18.0183 0.671875 15.4413 4.71647 15.4413 7.71446C15.4413 10.9665 18.0366 14.7387 25.0792 14.7387C28.9876 14.7387 31.546 13.4809 33.0263 11.8645H31.5333C30.2386 13.06 28.0149 13.9089 25.0792 13.9089C19.1142 13.9089 16.9156 10.5577 16.9156 7.67104C16.9587 5.09428 19.3186 1.53888 25.2281 1.4213C25.4511 1.4151 25.6248 1.61951 25.4694 1.81152V1.81152ZM46.6533 20.3749C47.0063 20.4245 47.2789 20.7031 47.2789 21.0319C47.2789 21.4029 46.9445 21.7004 46.5354 21.7004H38.9667V16.7513H36.7365V21.7131H32.636C31.5274 21.7131 31.2985 21.0378 31.2985 20.4183V16.7206H27.6007C27.235 16.9684 26.882 17.241 26.5042 17.47L24.3114 18.8202L21.4623 16.7392H17.0272V17.9843H18.6313V17.3025L22.4035 20.0098L19.8267 21.6259H17.0269V22.871H20.2663C20.6131 22.6359 20.9416 22.3881 21.3008 22.1712L23.5552 20.8024L26.4168 22.8465H29.6753L25.3699 19.6069L27.5815 18.1641C28.0524 17.854 28.548 17.5943 29.031 17.3095V20.5675C29.031 21.9426 29.384 22.8964 32.1528 22.8964L47.7929 22.8595C49.0005 22.8775 49.7747 22.0418 49.7747 21.0324C49.7747 20.0284 48.8826 19.2048 47.7929 19.2048H42.144C42.2184 18.5174 42.8125 17.9417 43.4134 17.9417H49.1305L49.1124 16.7462H43.0482C41.1279 16.7462 39.5921 18.3381 39.5486 20.1902C39.5427 20.3202 39.629 20.4006 39.7717 20.4006L46.6533 20.3749V20.3749ZM17.0272 20.3566V19.0867H18.1297V20.3566H17.0272ZM17.0272 16.7392H12.84C11.7065 16.7392 10.833 17.0366 10.1891 17.5441C9.03081 18.461 8.6592 19.427 8.67161 19.8609H10.1829C9.52 20.3566 9.07395 20.9507 8.8388 21.6386H3.88323C2.99142 21.6386 2.41511 21.0071 2.41511 20.3935V16.6957H0.222656V20.5362C0.222656 21.9172 1.53598 22.871 3.6416 22.871H17.0272V21.6259H11.7127C11.7375 20.9944 12.4125 20.3566 13.0258 20.3566H17.0272V19.0867H11.6507C11.5765 18.7151 12.2702 17.9843 12.8028 17.9843H17.0272V16.7392V16.7392Z" fill="#2C00AB"/>
</svg>
