<svg width="229" height="27" viewBox="0 0 229 27" fill="none" xmlns="http://www.w3.org/2000/svg">
<path d="M92.458 20.756C92.9053 20.756 93.294 20.723 93.624 20.657C93.9613 20.5837 94.251 20.492 94.493 20.382C94.7423 20.272 94.955 20.1583 95.131 20.041C95.307 19.9163 95.461 19.799 95.593 19.689C95.725 19.579 95.8423 19.491 95.945 19.425C96.0477 19.3517 96.1503 19.315 96.253 19.315C96.341 19.315 96.4143 19.3333 96.473 19.37C96.5317 19.4067 96.5793 19.4433 96.616 19.48L97.617 20.723C96.9277 21.515 96.1173 22.1237 95.186 22.549C94.2547 22.967 93.184 23.176 91.974 23.176C90.9987 23.176 90.1297 23.0037 89.367 22.659C88.6043 22.307 87.959 21.823 87.431 21.207C86.903 20.591 86.4997 19.8613 86.221 19.018C85.9497 18.1747 85.814 17.2543 85.814 16.257C85.814 15.3403 85.913 14.475 86.111 13.661C86.309 12.8397 86.5913 12.0843 86.958 11.395C87.3247 10.6983 87.7647 10.075 88.278 9.525C88.7913 8.975 89.3597 8.50567 89.983 8.117C90.6063 7.72833 91.2773 7.43133 91.996 7.226C92.722 7.02067 93.4773 6.918 94.262 6.918C94.8413 6.918 95.3693 6.973 95.846 7.083C96.3227 7.18567 96.7553 7.33233 97.144 7.523C97.5327 7.71367 97.881 7.94467 98.189 8.216C98.497 8.48 98.7757 8.777 99.025 9.107L98.035 10.295C97.9617 10.383 97.8737 10.46 97.771 10.526C97.6757 10.592 97.5547 10.625 97.408 10.625C97.2467 10.625 97.0927 10.559 96.946 10.427C96.7993 10.295 96.6123 10.152 96.385 9.998C96.165 9.83667 95.8753 9.69 95.516 9.558C95.164 9.426 94.6983 9.36 94.119 9.36C93.3563 9.36 92.6487 9.51767 91.996 9.833C91.3433 10.141 90.775 10.5847 90.291 11.164C89.807 11.7433 89.4257 12.4437 89.147 13.265C88.8757 14.079 88.74 14.9957 88.74 16.015C88.74 16.7557 88.8317 17.4193 89.015 18.006C89.2057 18.5927 89.466 19.0913 89.796 19.502C90.126 19.9053 90.5183 20.217 90.973 20.437C91.4277 20.6497 91.9227 20.756 92.458 20.756ZM111.884 23H109.673C109.424 23 109.226 22.9413 109.079 22.824C108.933 22.7067 108.841 22.549 108.804 22.351L108.144 19.029H102.215L100.741 22.351C100.661 22.5197 100.529 22.67 100.345 22.802C100.162 22.934 99.9567 23 99.7293 23H97.4853L105.174 7.094H108.089L111.884 23ZM103.106 17.016H107.737L106.659 11.571C106.601 11.307 106.542 11.0283 106.483 10.735C106.425 10.4417 106.37 10.1117 106.318 9.745C106.179 10.1117 106.04 10.4527 105.9 10.768C105.768 11.076 105.644 11.3473 105.526 11.582L103.106 17.016ZM116.848 16.73L116.078 23H113.24L115.187 7.094H119.708C120.624 7.094 121.409 7.193 122.062 7.391C122.714 7.58167 123.25 7.853 123.668 8.205C124.086 8.54967 124.394 8.964 124.592 9.448C124.79 9.932 124.889 10.4637 124.889 11.043C124.889 11.659 124.801 12.2383 124.625 12.781C124.456 13.3163 124.21 13.804 123.888 14.244C123.565 14.684 123.169 15.069 122.7 15.399C122.23 15.729 121.699 15.9857 121.105 16.169C121.273 16.2717 121.427 16.3963 121.567 16.543C121.706 16.6897 121.827 16.8657 121.93 17.071L124.768 23H122.205C121.963 23 121.757 22.9523 121.589 22.857C121.427 22.7543 121.306 22.6113 121.226 22.428L118.894 17.269C118.806 17.0783 118.696 16.9427 118.564 16.862C118.439 16.774 118.241 16.73 117.97 16.73H116.848ZM117.772 9.294L117.101 14.695H118.751C119.323 14.695 119.814 14.6143 120.225 14.453C120.643 14.2843 120.984 14.057 121.248 13.771C121.519 13.4777 121.721 13.1367 121.853 12.748C121.985 12.3593 122.051 11.9413 122.051 11.494C122.051 10.8047 121.838 10.2657 121.413 9.877C120.987 9.48833 120.331 9.294 119.444 9.294H117.772ZM140.23 9.954C140.128 10.1007 140.025 10.2107 139.922 10.284C139.82 10.35 139.695 10.383 139.548 10.383C139.402 10.383 139.251 10.3243 139.097 10.207C138.943 10.0897 138.76 9.96133 138.547 9.822C138.335 9.67533 138.082 9.54333 137.788 9.426C137.502 9.30867 137.154 9.25 136.743 9.25C136.34 9.25 135.984 9.30867 135.676 9.426C135.368 9.54333 135.108 9.70467 134.895 9.91C134.69 10.1153 134.532 10.3573 134.422 10.636C134.32 10.9147 134.268 11.2153 134.268 11.538C134.268 11.8753 134.353 12.1577 134.521 12.385C134.697 12.605 134.925 12.7993 135.203 12.968C135.482 13.1367 135.801 13.287 136.16 13.419C136.52 13.551 136.883 13.6903 137.249 13.837C137.623 13.9837 137.99 14.1523 138.349 14.343C138.709 14.5337 139.028 14.7683 139.306 15.047C139.585 15.3257 139.809 15.663 139.977 16.059C140.153 16.4477 140.241 16.9207 140.241 17.478C140.241 18.2553 140.106 18.9887 139.834 19.678C139.57 20.3673 139.185 20.9723 138.679 21.493C138.181 22.0063 137.572 22.417 136.853 22.725C136.142 23.0257 135.339 23.176 134.444 23.176C133.982 23.176 133.528 23.1247 133.08 23.022C132.633 22.9267 132.211 22.7873 131.815 22.604C131.419 22.4207 131.053 22.2007 130.715 21.944C130.378 21.6873 130.085 21.4013 129.835 21.086L130.847 19.722C130.928 19.6193 131.031 19.535 131.155 19.469C131.28 19.403 131.405 19.37 131.529 19.37C131.647 19.37 131.76 19.4067 131.87 19.48C131.988 19.5533 132.112 19.645 132.244 19.755C132.384 19.8577 132.53 19.975 132.684 20.107C132.846 20.2317 133.029 20.349 133.234 20.459C133.44 20.5617 133.671 20.6497 133.927 20.723C134.184 20.7963 134.481 20.833 134.818 20.833C135.647 20.833 136.296 20.5983 136.765 20.129C137.235 19.6597 137.469 19.0107 137.469 18.182C137.469 17.8153 137.385 17.5147 137.216 17.28C137.048 17.0453 136.824 16.8473 136.545 16.686C136.267 16.5247 135.951 16.3853 135.599 16.268C135.247 16.1433 134.884 16.015 134.51 15.883C134.144 15.7437 133.784 15.586 133.432 15.41C133.08 15.2267 132.765 14.9957 132.486 14.717C132.208 14.431 131.984 14.0827 131.815 13.672C131.647 13.2613 131.562 12.7553 131.562 12.154C131.562 11.472 131.687 10.8157 131.936 10.185C132.193 9.55433 132.556 9.00067 133.025 8.524C133.495 8.04 134.063 7.655 134.73 7.369C135.405 7.07567 136.164 6.929 137.007 6.929C137.44 6.929 137.854 6.973 138.25 7.061C138.654 7.149 139.028 7.27367 139.372 7.435C139.717 7.59633 140.032 7.79067 140.318 8.018C140.612 8.238 140.865 8.48367 141.077 8.755L140.23 9.954ZM152.817 7.094L152.531 9.371H146.129L145.579 13.892H150.606L150.331 16.081H145.304L144.732 20.723H151.156L150.87 23H141.586L143.544 7.094H152.817ZM156.28 20.635H162.066L161.791 23H153.145L155.103 7.094H157.952L156.28 20.635ZM174.839 7.094L174.553 9.371H168.151L167.601 13.892H172.628L172.353 16.081H167.326L166.754 20.723H173.178L172.892 23H163.608L165.566 7.094H174.839ZM181.854 20.756C182.302 20.756 182.69 20.723 183.02 20.657C183.358 20.5837 183.647 20.492 183.889 20.382C184.139 20.272 184.351 20.1583 184.527 20.041C184.703 19.9163 184.857 19.799 184.989 19.689C185.121 19.579 185.239 19.491 185.341 19.425C185.444 19.3517 185.547 19.315 185.649 19.315C185.737 19.315 185.811 19.3333 185.869 19.37C185.928 19.4067 185.976 19.4433 186.012 19.48L187.013 20.723C186.324 21.515 185.514 22.1237 184.582 22.549C183.651 22.967 182.58 23.176 181.37 23.176C180.395 23.176 179.526 23.0037 178.763 22.659C178.001 22.307 177.355 21.823 176.827 21.207C176.299 20.591 175.896 19.8613 175.617 19.018C175.346 18.1747 175.21 17.2543 175.21 16.257C175.21 15.3403 175.309 14.475 175.507 13.661C175.705 12.8397 175.988 12.0843 176.354 11.395C176.721 10.6983 177.161 10.075 177.674 9.525C178.188 8.975 178.756 8.50567 179.379 8.117C180.003 7.72833 180.674 7.43133 181.392 7.226C182.118 7.02067 182.874 6.918 183.658 6.918C184.238 6.918 184.766 6.973 185.242 7.083C185.719 7.18567 186.152 7.33233 186.54 7.523C186.929 7.71367 187.277 7.94467 187.585 8.216C187.893 8.48 188.172 8.777 188.421 9.107L187.431 10.295C187.358 10.383 187.27 10.46 187.167 10.526C187.072 10.592 186.951 10.625 186.804 10.625C186.643 10.625 186.489 10.559 186.342 10.427C186.196 10.295 186.009 10.152 185.781 9.998C185.561 9.83667 185.272 9.69 184.912 9.558C184.56 9.426 184.095 9.36 183.515 9.36C182.753 9.36 182.045 9.51767 181.392 9.833C180.74 10.141 180.171 10.5847 179.687 11.164C179.203 11.7433 178.822 12.4437 178.543 13.265C178.272 14.079 178.136 14.9957 178.136 16.015C178.136 16.7557 178.228 17.4193 178.411 18.006C178.602 18.5927 178.862 19.0913 179.192 19.502C179.522 19.9053 179.915 20.217 180.369 20.437C180.824 20.6497 181.319 20.756 181.854 20.756ZM200.786 7.094L200.489 9.437H196.133L194.461 23H191.623L193.284 9.437H188.917L189.203 7.094H200.786ZM214.773 13.98C214.773 14.86 214.674 15.6997 214.476 16.499C214.286 17.291 214.007 18.028 213.64 18.71C213.281 19.392 212.845 20.008 212.331 20.558C211.825 21.108 211.253 21.5773 210.615 21.966C209.985 22.3547 209.299 22.6553 208.558 22.868C207.818 23.0733 207.04 23.176 206.226 23.176C205.214 23.176 204.305 22.9963 203.498 22.637C202.692 22.2777 202.002 21.7827 201.43 21.152C200.866 20.5213 200.433 19.777 200.132 18.919C199.832 18.061 199.681 17.1297 199.681 16.125C199.681 15.245 199.777 14.409 199.967 13.617C200.165 12.8177 200.444 12.077 200.803 11.395C201.17 10.713 201.606 10.097 202.112 9.547C202.626 8.997 203.198 8.52767 203.828 8.139C204.466 7.743 205.156 7.44233 205.896 7.237C206.637 7.02433 207.418 6.918 208.239 6.918C209.251 6.918 210.161 7.09767 210.967 7.457C211.774 7.81633 212.46 8.31133 213.024 8.942C213.589 9.57267 214.022 10.3207 214.322 11.186C214.623 12.044 214.773 12.9753 214.773 13.98ZM211.847 14.046C211.847 13.3273 211.756 12.6747 211.572 12.088C211.396 11.5013 211.136 10.999 210.791 10.581C210.454 10.163 210.04 9.84033 209.548 9.613C209.057 9.38567 208.503 9.272 207.887 9.272C207.095 9.272 206.373 9.43333 205.72 9.756C205.075 10.0787 204.521 10.537 204.059 11.131C203.597 11.725 203.238 12.44 202.981 13.276C202.732 14.112 202.607 15.0397 202.607 16.059C202.607 16.7777 202.695 17.4303 202.871 18.017C203.047 18.6037 203.304 19.106 203.641 19.524C203.979 19.9347 204.389 20.2537 204.873 20.481C205.365 20.701 205.922 20.811 206.545 20.811C207.345 20.811 208.071 20.6497 208.723 20.327C209.376 20.0043 209.933 19.5497 210.395 18.963C210.857 18.3763 211.213 17.6687 211.462 16.84C211.719 16.004 211.847 15.0727 211.847 14.046ZM219.435 16.73L218.665 23H215.827L217.774 7.094H222.295C223.212 7.094 223.997 7.193 224.649 7.391C225.302 7.58167 225.837 7.853 226.255 8.205C226.673 8.54967 226.981 8.964 227.179 9.448C227.377 9.932 227.476 10.4637 227.476 11.043C227.476 11.659 227.388 12.2383 227.212 12.781C227.044 13.3163 226.798 13.804 226.475 14.244C226.153 14.684 225.757 15.069 225.287 15.399C224.818 15.729 224.286 15.9857 223.692 16.169C223.861 16.2717 224.015 16.3963 224.154 16.543C224.294 16.6897 224.415 16.8657 224.517 17.071L227.355 23H224.792C224.55 23 224.345 22.9523 224.176 22.857C224.015 22.7543 223.894 22.6113 223.813 22.428L221.481 17.269C221.393 17.0783 221.283 16.9427 221.151 16.862C221.027 16.774 220.829 16.73 220.557 16.73H219.435ZM220.359 9.294L219.688 14.695H221.338C221.91 14.695 222.402 14.6143 222.812 14.453C223.23 14.2843 223.571 14.057 223.835 13.771C224.107 13.4777 224.308 13.1367 224.44 12.748C224.572 12.3593 224.638 11.9413 224.638 11.494C224.638 10.8047 224.426 10.2657 224 9.877C223.575 9.48833 222.919 9.294 222.031 9.294H220.359Z" fill="#2E3192"/>
<path d="M68.4072 17.7108C71.2637 17.3494 74.2562 14.8916 74.8683 12.1446C75.4804 9.46988 73.9162 7.51807 71.0597 7.80723C68.2032 8.16867 65.6868 10.4819 64.8706 13.5181C64.5986 14.6024 64.2585 16.2651 64.2585 17.9277C64.0545 18.9398 63.5784 20.8916 62.0822 20.8916C61.198 20.8916 60.5859 20.0964 60.79 19.1566L64.2585 2.16867C64.3946 1.01205 63.6464 0 62.4222 0C61.198 0 60.0418 1.01205 59.8378 2.31325L57.4574 13.9518C57.3894 14.3133 56.9133 14.6024 56.5052 14.6024C56.0972 14.6024 55.7571 14.3133 55.8251 13.9518C55.9611 12.9398 56.0292 12.2892 56.0292 12.2892C56.0972 8.96385 54.6009 7.59036 51.7444 7.95181C50.9963 8.0241 50.2482 8.31325 49.5681 8.6747L50.7923 2.31325C50.9963 1.01205 50.2482 0 49.024 0C47.7998 0 46.6436 1.01205 46.4395 2.31325L44.0592 14.0241C43.9911 14.3855 43.6511 14.6024 43.311 14.6024C42.971 14.6024 42.7669 14.3855 42.8349 14.0241C43.039 12.9398 43.107 12.2169 43.107 12.2169C43.175 8.89157 41.6787 7.51807 38.8223 7.87952C38.0741 7.95181 37.326 8.24096 36.6459 8.60241L37.8701 2.24096C38.0741 1.01205 37.258 0 36.1018 0C34.8776 0 33.7214 1.01205 33.5174 2.31325L30.5929 16.8434L29.7768 20.1687C29.5727 21.1084 29.0966 21.9036 28.2125 21.9036C27.3283 21.9036 26.9883 21.1084 27.1923 20.1687L29.1647 10.3373C29.4367 9.03614 28.6886 8.0241 27.4644 8.0241C26.2402 8.0241 25.084 9.03614 24.8799 10.3373L23.3837 17.7108L23.0436 19.3012C22.7036 20.241 21.8194 20.9639 20.9353 20.9639C20.0511 20.9639 19.439 20.1687 19.6431 19.2289L21.4114 10.2651C21.6834 8.96385 20.9353 7.95181 19.7111 7.95181C18.4869 7.95181 17.3307 8.96385 17.1266 10.2651L15.2223 19.5904C15.2223 19.5904 15.2223 19.5904 15.2223 19.6627L15.0863 20.1687C14.8823 21.1084 14.4742 21.9036 13.59 21.9036C12.7059 21.9036 12.5019 21.1084 12.6379 20.1687L14.1341 12.506C14.7462 9.61446 12.9779 7.59036 10.2575 7.95181C9.03328 8.09639 7.80907 8.74699 6.72089 9.61446L8.21714 2.31325C8.48919 1.01205 7.74106 0 6.58487 0C5.36066 0 4.20447 1.01205 3.93242 2.31325L0.0557729 21.6145C-0.216273 22.8434 0.531853 23.8554 1.75606 23.8554C2.98026 23.8554 4.13646 22.8434 4.34049 21.5422L6.44885 10.988C6.92493 10.5542 7.60504 10.1928 8.21714 10.1928C9.37333 10.1928 10.0534 11.0602 9.84942 12.1446L8.42118 19.5904C7.87708 22.2651 9.23731 23.8554 11.8898 23.8554C13.25 23.8554 14.4742 23.1325 15.3583 22.0482C15.8344 23.2048 17.0586 23.8554 18.6909 23.8554C20.1871 23.8554 21.7514 22.988 22.9076 21.759C23.3157 23.1325 24.5399 23.9277 26.3762 23.9277C27.8724 23.9277 29.4367 22.988 30.6609 21.6867C31.477 23.2048 33.1773 24 35.2857 24C38.8903 24 40.8626 20.6747 41.8828 17.6386C42.0188 17.6386 42.0868 17.7108 42.2228 17.7108C42.6309 17.7108 43.039 17.5663 43.379 17.2771L43.107 18.6506C42.5629 22.1205 44.8753 24 48.2078 24C51.8125 24 53.7848 20.747 54.8049 17.6386C54.873 17.6386 55.009 17.6386 55.077 17.6386C55.6891 17.6386 56.3012 17.4217 56.7773 17.0602L56.2332 19.5904C55.6891 22.2651 57.1173 23.8554 59.8378 23.8554C61.8101 23.8554 63.5104 22.5542 64.5306 20.8193C65.0747 22.5542 66.2989 23.9277 68.8153 23.9277C70.7196 23.9277 72.4879 22.7711 73.7801 21.1084L73.9162 20.9639C74.1202 20.747 74.1202 20.3133 73.9162 20.0964C73.7121 19.8795 73.304 19.9518 73.1 20.1687L72.896 20.3855C72.1479 21.1084 71.3997 21.6145 70.6516 21.759C68.8153 22.1205 67.9992 20.3855 68.2032 17.7108C68.2712 17.7108 68.3392 17.7108 68.4072 17.7108ZM39.5704 12.9398C38.4822 20.3855 36.5099 21.8313 35.6257 21.8313C34.7416 21.8313 34.1295 21.0361 34.3335 20.0964L36.2378 10.3373C36.7139 9.90361 37.326 9.61446 37.8701 9.61446C39.0263 9.68675 39.9785 10.4819 39.5704 12.9398ZM52.4926 12.9398C51.4044 20.3855 49.432 21.8313 48.5479 21.8313C47.6638 21.8313 47.0516 21.0361 47.2557 20.0964L49.16 10.3373C49.6361 9.90361 50.2482 9.61446 50.7923 9.61446C51.9485 9.68675 52.9006 10.4819 52.4926 12.9398ZM71.8078 9.90361C73.5081 9.90361 73.032 12.2169 73.032 12.2169C72.5559 14.1687 70.5156 16.0482 68.4072 16.2651V16.1928C68.4072 16.1928 70.0395 9.90361 71.8078 9.90361Z" fill="url(#paint0_linear)"/>
<defs>
<linearGradient id="paint0_linear" x1="-5.94657" y1="11.9576" x2="57.6485" y2="11.9576" gradientUnits="userSpaceOnUse">
<stop stop-color="#00B5AD"/>
<stop offset="0.0985708" stop-color="#00ABAC"/>
<stop offset="0.293" stop-color="#0095A9"/>
<stop offset="0.5646" stop-color="#0173A2"/>
<stop offset="0.8999" stop-color="#294295"/>
<stop offset="1" stop-color="#2E3192"/>
</linearGradient>
</defs>
</svg>
