<svg width="77" height="35" viewBox="0 0 77 35" fill="none" xmlns="http://www.w3.org/2000/svg">
<path d="M70.2647 16.9802C73.1809 16.6337 76.2359 14.2772 76.8608 11.6436C77.4856 9.07921 75.8887 7.20792 72.9726 7.48515C70.0564 7.83168 67.4874 10.0495 66.6543 12.9604C66.3765 14 66.0294 15.5941 66.0294 17.1881C65.8211 18.1584 65.3351 20.0297 63.8076 20.0297C62.9049 20.0297 62.2801 19.2673 62.4883 18.3663L66.0294 2.07921C66.1682 0.970297 65.4045 0 64.1547 0C62.9049 0 61.7246 0.970297 61.5163 2.21782L59.0862 13.3762C59.0168 13.7228 58.5307 14 58.1141 14C57.6975 14 57.3504 13.7228 57.4198 13.3762C57.5587 12.4059 57.6281 11.7822 57.6281 11.7822C57.6975 8.59406 56.17 7.27723 53.2539 7.62376C52.4902 7.69307 51.7264 7.9703 51.0321 8.31683L52.2819 2.21782C52.4902 0.970297 51.7264 0 50.4766 0C49.2269 0 48.0465 0.970297 47.8382 2.21782L45.4081 13.4455C45.3387 13.7921 44.9915 14 44.6444 14C44.2972 14 44.0889 13.7921 44.1583 13.4455C44.3666 12.4059 44.4361 11.7129 44.4361 11.7129C44.5055 8.52475 42.978 7.20792 40.0618 7.55445C39.2981 7.62376 38.5343 7.90099 37.84 8.24752L39.0898 2.14851C39.2981 0.970297 38.4649 0 37.2846 0C36.0348 0 34.8545 0.970297 34.6462 2.21782L31.6606 16.1485L30.8274 19.3366C30.6191 20.2376 30.1331 21 29.2305 21C28.3278 21 27.9807 20.2376 28.189 19.3366L30.2025 9.91089C30.4802 8.66337 29.7165 7.69307 28.4667 7.69307C27.2169 7.69307 26.0366 8.66337 25.8283 9.91089L24.3008 16.9802L23.9536 18.5049C23.6065 19.4059 22.7039 20.099 21.8012 20.099C20.8986 20.099 20.2737 19.3366 20.482 18.4356L22.2873 9.84158C22.565 8.59406 21.8012 7.62376 20.5515 7.62376C19.3017 7.62376 18.1214 8.59406 17.9131 9.84158L15.969 18.7822C15.969 18.7822 15.969 18.7822 15.969 18.8515L15.8301 19.3366C15.6218 20.2376 15.2052 21 14.3026 21C13.4 21 13.1917 20.2376 13.3306 19.3366L14.8581 11.9901C15.4829 9.21782 13.6777 7.27723 10.9004 7.62376C9.65066 7.76238 8.40089 8.38614 7.28998 9.21782L8.81748 2.21782C9.09521 0.970297 8.33146 0 7.15111 0C5.90134 0 4.721 0.970297 4.44327 2.21782L0.485649 20.7228C0.207921 21.901 0.971672 22.8713 2.22145 22.8713C3.47122 22.8713 4.65156 21.901 4.85986 20.6535L7.01225 10.5347C7.49827 10.1188 8.19259 9.77228 8.81748 9.77228C9.99782 9.77228 10.6921 10.604 10.4838 11.6436L9.02577 18.7822C8.47032 21.3465 9.85896 22.8713 12.5668 22.8713C13.9554 22.8713 15.2052 22.1782 16.1078 21.1386C16.5939 22.2475 17.8436 22.8713 19.51 22.8713C21.0375 22.8713 22.6344 22.0396 23.8148 20.8614C24.2314 22.1782 25.4811 22.9406 27.3558 22.9406C28.8833 22.9406 30.4802 22.0396 31.73 20.7921C32.5632 22.2475 34.299 23.0099 36.4514 23.0099C40.1313 23.0099 42.1448 19.8218 43.1863 16.9109C43.3251 16.9109 43.3946 16.9802 43.5334 16.9802C43.95 16.9802 44.3666 16.8416 44.7138 16.5644L44.4361 17.8812C43.8806 21.2079 46.2413 23.0099 49.6434 23.0099C53.3233 23.0099 55.3369 19.8911 56.3783 16.9109C56.4478 16.9109 56.5866 16.9109 56.6561 16.9109C57.281 16.9109 57.9058 16.703 58.3919 16.3564L57.8364 18.7822C57.281 21.3465 58.739 22.8713 61.5163 22.8713C63.5298 22.8713 65.2656 21.6238 66.3071 19.9604C66.8626 21.6238 68.1123 22.9406 70.6813 22.9406C72.6254 22.9406 74.4306 21.8317 75.7498 20.2376L75.8887 20.099C76.097 19.8911 76.097 19.4752 75.8887 19.2673C75.6804 19.0594 75.2638 19.1287 75.0555 19.3366L74.8472 19.5446C74.0835 20.2376 73.3197 20.7228 72.556 20.8614C70.6813 21.2079 69.8481 19.5446 70.0564 16.9802C70.1259 16.9802 70.1953 16.9802 70.2647 16.9802ZM40.8256 12.4059C39.7147 19.5446 37.7012 20.9307 36.7985 20.9307C35.8959 20.9307 35.271 20.1683 35.4793 19.2673L37.4234 9.91089C37.9095 9.49505 38.5343 9.21782 39.0898 9.21782C40.2701 9.28713 41.2422 10.0495 40.8256 12.4059ZM54.0177 12.4059C52.9067 19.5446 50.8932 20.9307 49.9906 20.9307C49.088 20.9307 48.4631 20.1683 48.6714 19.2673L50.6155 9.91089C51.1015 9.49505 51.7264 9.21782 52.2819 9.21782C53.4622 9.28713 54.4342 10.0495 54.0177 12.4059ZM73.7363 9.49505C75.4721 9.49505 74.9861 11.7129 74.9861 11.7129C74.5001 13.5842 72.4171 15.3861 70.2647 15.5941V15.5248C70.2647 15.5248 71.9311 9.49505 73.7363 9.49505Z" fill="url(#paint0_linear_127_6)"/>
<path d="M72.556 29.3169C71.6534 29.3169 70.8896 30.0793 70.8896 30.9803C70.8896 31.8812 71.6534 32.6436 72.556 32.6436C73.4586 32.6436 74.2224 31.8812 74.2224 30.9803C74.2918 30.01 73.5281 29.3169 72.556 29.3169Z" fill="url(#paint1_linear_127_6)"/>
<path d="M69.2233 29.3861L64.3631 25.2276C63.8771 24.8118 63.1828 24.8811 62.8356 25.3663C62.419 25.8514 62.4884 26.5445 62.9745 26.891L64.6408 28.3464C58.2531 27.1682 42.4921 24.6732 29.0917 25.2969C12.6363 26.0593 1.18007 30.3563 0.694045 30.5643C0.138589 30.7722 -0.139138 31.3959 0.0691575 31.9504C0.208021 32.3662 0.624613 32.6435 1.11064 32.6435C1.2495 32.6435 1.38836 32.6435 1.52723 32.5742C1.59666 32.5742 13.1224 28.2078 29.1611 27.4455C43.1864 26.7524 59.9889 29.6633 65.3352 30.7029L61.0998 32.99C60.5443 33.2672 60.4055 33.9603 60.6832 34.4455C60.8915 34.792 61.2387 34.9999 61.6553 34.9999C61.8636 34.9999 62.0024 34.9306 62.1413 34.8613L69.015 31.1187C69.3622 30.9801 69.5705 30.6336 69.5705 30.287C69.6399 29.9405 69.5011 29.594 69.2233 29.3861Z" fill="url(#paint2_linear_127_6)"/>
<defs>
<linearGradient id="paint0_linear_127_6" x1="-5.64206" y1="11.4643" x2="59.2813" y2="11.4643" gradientUnits="userSpaceOnUse">
<stop stop-color="#00B5AD"/>
<stop offset="0.0985708" stop-color="#00ABAC"/>
<stop offset="0.293" stop-color="#0095A9"/>
<stop offset="0.5646" stop-color="#0173A2"/>
<stop offset="0.8999" stop-color="#294295"/>
<stop offset="1" stop-color="#2E3192"/>
</linearGradient>
<linearGradient id="paint1_linear_127_6" x1="-5.64208" y1="30.9612" x2="59.2813" y2="30.9612" gradientUnits="userSpaceOnUse">
<stop stop-color="#00B5AD"/>
<stop offset="0.0985708" stop-color="#00ABAC"/>
<stop offset="0.293" stop-color="#0095A9"/>
<stop offset="0.5646" stop-color="#0173A2"/>
<stop offset="0.8999" stop-color="#294295"/>
<stop offset="1" stop-color="#2E3192"/>
</linearGradient>
<linearGradient id="paint2_linear_127_6" x1="-5.64196" y1="29.982" x2="59.2814" y2="29.982" gradientUnits="userSpaceOnUse">
<stop stop-color="#00B5AD"/>
<stop offset="0.0985708" stop-color="#00ABAC"/>
<stop offset="0.293" stop-color="#0095A9"/>
<stop offset="0.5646" stop-color="#0173A2"/>
<stop offset="0.8999" stop-color="#294295"/>
<stop offset="1" stop-color="#2E3192"/>
</linearGradient>
</defs>
</svg>
