<svg width="17" height="16" viewBox="0 0 17 16" fill="none" xmlns="http://www.w3.org/2000/svg">
<path fill-rule="evenodd" clip-rule="evenodd" d="M6.99991 1C6.99991 0.447715 7.44762 0 7.99991 0H16.9999V16H7.99991C7.44762 16 6.99991 15.5523 6.99991 15C6.99991 14.4477 7.44762 14 7.99991 14H14.9999V2H7.99991C7.44762 2 6.99991 1.55228 6.99991 1ZM5.70701 4.29289C6.09754 4.68342 6.09754 5.31658 5.70701 5.70711L4.41412 7H9.99991C10.5522 7 10.9999 7.44772 10.9999 8C10.9999 8.55228 10.5522 9 9.99991 9H4.41412L5.70701 10.2929C6.09754 10.6834 6.09754 11.3166 5.70701 11.7071C5.31649 12.0976 4.68332 12.0976 4.2928 11.7071L0.585693 8L4.2928 4.29289C4.68332 3.90237 5.31649 3.90237 5.70701 4.29289Z" fill="#2C00AB"/>
</svg>
