<svg width="67" height="30" viewBox="0 0 67 30" fill="none" xmlns="http://www.w3.org/2000/svg">
<path d="M61.1432 14.5545C63.6808 14.2574 66.3392 12.2376 66.8829 9.9802C67.4267 7.78218 66.0371 6.17822 63.4995 6.41584C60.9619 6.71287 58.7265 8.61386 58.0014 11.1089C57.7598 12 57.4577 13.3663 57.4577 14.7327C57.2764 15.5644 56.8535 17.1683 55.5243 17.1683C54.7388 17.1683 54.1951 16.5149 54.3763 15.7426L57.4577 1.78218C57.5785 0.831683 56.9139 0 55.8264 0C54.7388 0 53.7117 0.831683 53.5305 1.90099L51.4158 11.4653C51.3554 11.7624 50.9325 12 50.57 12C50.2074 12 49.9053 11.7624 49.9658 11.4653C50.0866 10.6337 50.147 10.099 50.147 10.099C50.2074 7.36634 48.8782 6.23762 46.3407 6.53465C45.6761 6.59406 45.0115 6.83168 44.4073 7.12871L45.4948 1.90099C45.6761 0.831683 45.0115 0 43.9239 0C42.8364 0 41.8093 0.831683 41.628 1.90099L39.5134 11.5248C39.4529 11.8218 39.1509 12 38.8488 12C38.5467 12 38.3654 11.8218 38.4258 11.5248C38.6071 10.6337 38.6675 10.0396 38.6675 10.0396C38.7279 7.30693 37.3987 6.17822 34.8611 6.47525C34.1965 6.53465 33.5319 6.77228 32.9277 7.06931L34.0153 1.84158C34.1965 0.831683 33.4715 0 32.4444 0C31.3569 0 30.3298 0.831683 30.1485 1.90099L27.5505 13.8416L26.8255 16.5743C26.6442 17.3465 26.2213 18 25.4359 18C24.6504 18 24.3483 17.3465 24.5296 16.5743L26.2817 8.49505C26.5234 7.42574 25.8588 6.59406 24.7713 6.59406C23.6837 6.59406 22.6566 7.42574 22.4753 8.49505L21.1461 14.5545L20.844 15.8614C20.542 16.6337 19.7565 17.2277 18.9711 17.2277C18.1856 17.2277 17.6419 16.5743 17.8231 15.802L19.394 8.43564C19.6357 7.36634 18.9711 6.53465 17.8835 6.53465C16.796 6.53465 15.7689 7.36634 15.5876 8.43564L13.8959 16.099C13.8959 16.099 13.8959 16.099 13.8959 16.1584L13.7751 16.5743C13.5938 17.3465 13.2313 18 12.4459 18C11.6604 18 11.4792 17.3465 11.6 16.5743L12.9292 10.2772C13.473 7.90099 11.9021 6.23762 9.48537 6.53465C8.39784 6.65347 7.3103 7.18812 6.34361 7.90099L7.67281 1.90099C7.91449 0.831683 7.24989 0 6.22277 0C5.13524 0 4.10812 0.831683 3.86645 1.90099L0.422593 17.7624C0.180919 18.7723 0.845523 19.604 1.93306 19.604C3.02059 19.604 4.0477 18.7723 4.22896 17.703L6.10193 9.0297C6.52486 8.67327 7.12905 8.37624 7.67281 8.37624C8.69993 8.37624 9.30411 9.08911 9.12286 9.9802L7.85407 16.099C7.37072 18.297 8.57909 19.604 10.9354 19.604C12.1438 19.604 13.2313 19.0099 14.0168 18.1188C14.4397 19.0693 15.5272 19.604 16.9773 19.604C18.3065 19.604 19.6961 18.8911 20.7232 17.8812C21.0857 19.0099 22.1733 19.6634 23.8046 19.6634C25.1338 19.6634 26.5234 18.8911 27.6109 17.8218C28.3359 19.0693 29.8464 19.7228 31.7194 19.7228C34.9216 19.7228 36.6737 16.9901 37.58 14.495C37.7008 14.495 37.7612 14.5545 37.8821 14.5545C38.2446 14.5545 38.6071 14.4356 38.9092 14.198L38.6675 15.3267C38.1842 18.1782 40.2384 19.7228 43.1989 19.7228C46.4011 19.7228 48.1532 17.0495 49.0595 14.495C49.1199 14.495 49.2407 14.495 49.3012 14.495C49.8449 14.495 50.3887 14.3168 50.8116 14.0198L50.3283 16.099C49.8449 18.297 51.1137 19.604 53.5305 19.604C55.2826 19.604 56.7931 18.5347 57.6993 17.1089C58.1827 18.5347 59.2702 19.6634 61.5057 19.6634C63.1974 19.6634 64.7683 18.7129 65.9163 17.3465L66.0371 17.2277C66.2184 17.0495 66.2184 16.6931 66.0371 16.5149C65.8558 16.3366 65.4933 16.396 65.3121 16.5743L65.1308 16.7525C64.4662 17.3465 63.8016 17.7624 63.137 17.8812C61.5057 18.1782 60.7807 16.7525 60.9619 14.5545C61.0224 14.5545 61.0828 14.5545 61.1432 14.5545ZM35.5257 10.6337C34.5591 16.7525 32.8069 17.9406 32.0215 17.9406C31.236 17.9406 30.6923 17.2871 30.8735 16.5149L32.5652 8.49505C32.9882 8.13861 33.5319 7.90099 34.0153 7.90099C35.0424 7.9604 35.8883 8.61386 35.5257 10.6337ZM47.0053 10.6337C46.0386 16.7525 44.2864 17.9406 43.501 17.9406C42.7155 17.9406 42.1718 17.2871 42.353 16.5149L44.0448 8.49505C44.4677 8.13861 45.0115 7.90099 45.4948 7.90099C46.5219 7.9604 47.3678 8.61386 47.0053 10.6337ZM64.1641 8.13861C65.6746 8.13861 65.2517 10.0396 65.2517 10.0396C64.8287 11.6436 63.0162 13.1881 61.1432 13.3663V13.3069C61.1432 13.3069 62.5932 8.13861 64.1641 8.13861Z" fill="url(#paint0_linear)"/>
<path d="M63.1375 25.1289C62.3521 25.1289 61.6875 25.7824 61.6875 26.5546C61.6875 27.3269 62.3521 27.9804 63.1375 27.9804C63.923 27.9804 64.5876 27.3269 64.5876 26.5546C64.648 25.723 63.9834 25.1289 63.1375 25.1289Z" fill="url(#paint1_linear)"/>
<path d="M60.237 25.188L56.0077 21.6237C55.5848 21.2673 54.9806 21.3267 54.6785 21.7425C54.316 22.1583 54.3764 22.7524 54.7993 23.0494L56.2494 24.297C50.6909 23.2871 36.9759 21.1484 25.3151 21.6831C10.9959 22.3366 1.02688 26.0197 0.603946 26.1979C0.120598 26.3762 -0.121076 26.9108 0.0601797 27.3861C0.181017 27.7425 0.543528 27.9801 0.966457 27.9801C1.08729 27.9801 1.20813 27.9801 1.32897 27.9207C1.38939 27.9207 11.4189 24.1781 25.3755 23.5247C37.5801 22.9306 52.2013 25.4257 56.8536 26.3168L53.168 28.2772C52.6847 28.5148 52.5639 29.1088 52.8055 29.5247C52.9868 29.8217 53.2889 29.9999 53.6514 29.9999C53.8326 29.9999 53.9535 29.9405 54.0743 29.8811L60.0558 26.6732C60.3578 26.5544 60.5391 26.2574 60.5391 25.9603C60.5995 25.6633 60.4787 25.3663 60.237 25.188Z" fill="url(#paint2_linear)"/>
<defs>
<linearGradient id="paint0_linear" x1="-4.90964" y1="9.82657" x2="51.5856" y2="9.82657" gradientUnits="userSpaceOnUse">
<stop stop-color="#00B5AD"/>
<stop offset="0.0985708" stop-color="#00ABAC"/>
<stop offset="0.293" stop-color="#0095A9"/>
<stop offset="0.5646" stop-color="#0173A2"/>
<stop offset="0.8999" stop-color="#294295"/>
<stop offset="1" stop-color="#2E3192"/>
</linearGradient>
<linearGradient id="paint1_linear" x1="-4.90926" y1="26.5383" x2="51.5861" y2="26.5383" gradientUnits="userSpaceOnUse">
<stop stop-color="#00B5AD"/>
<stop offset="0.0985708" stop-color="#00ABAC"/>
<stop offset="0.293" stop-color="#0095A9"/>
<stop offset="0.5646" stop-color="#0173A2"/>
<stop offset="0.8999" stop-color="#294295"/>
<stop offset="1" stop-color="#2E3192"/>
</linearGradient>
<linearGradient id="paint2_linear" x1="-4.90954" y1="25.6989" x2="51.5857" y2="25.6989" gradientUnits="userSpaceOnUse">
<stop stop-color="#00B5AD"/>
<stop offset="0.0985708" stop-color="#00ABAC"/>
<stop offset="0.293" stop-color="#0095A9"/>
<stop offset="0.5646" stop-color="#0173A2"/>
<stop offset="0.8999" stop-color="#294295"/>
<stop offset="1" stop-color="#2E3192"/>
</linearGradient>
</defs>
</svg>
