<svg width="33" height="33" viewBox="0 0 33 33" fill="none" xmlns="http://www.w3.org/2000/svg">
<g clip-path="url(#clip0_10599_16931)">
<path d="M28.1669 28.1674C34.6105 21.7239 34.6105 11.2768 28.1669 4.83317C21.7234 -1.61041 11.2763 -1.61041 4.83268 4.83317C-1.61089 11.2768 -1.61089 21.7239 4.83268 28.1674C11.2763 34.611 21.7234 34.611 28.1669 28.1674Z" fill="#2C00AB"/>
<path d="M3.56057 16.7292C2.9724 17.489 2.6227 18.4422 2.6227 19.4775C2.6227 19.6566 2.63353 19.8328 2.65405 20.0067C2.80782 21.3185 3.52624 22.4575 4.56039 23.1741C4.56039 23.1741 7.61396 25.5555 16.5336 25.5555C25.4532 25.5555 28.4396 23.1741 28.4396 23.1741C29.4555 22.4698 30.1672 21.3581 30.3377 20.075C30.3639 19.8798 30.3777 19.6805 30.3777 19.4782C30.3777 18.4429 30.0276 17.4898 29.4398 16.7299C29.4398 16.7299 22.1798 8.22755 20.4556 6.50073L20.4508 6.49588C19.4371 5.48411 18.0428 4.8575 16.5007 4.8575C14.9587 4.8575 13.5565 5.48411 12.5429 6.49588C12.5429 6.49588 12.5414 6.49737 12.5384 6.50035C10.8034 8.21561 3.56095 16.7296 3.56095 16.7296L3.56057 16.7292Z" fill="#F6F6F6"/>
<path d="M27.9697 19.7063C27.819 19.5305 27.6387 19.4017 27.4282 19.32C27.2177 19.2383 26.9475 19.1569 26.6172 19.0755C26.2996 19.0024 26.063 18.9285 25.9082 18.8535C25.7533 18.7785 25.676 18.6635 25.676 18.5086C25.676 18.3538 25.7428 18.2295 25.8772 18.1354C26.0112 18.041 26.2187 17.9936 26.4989 17.9936C26.8994 17.9936 27.2995 18.1115 27.6999 18.3478L28.0097 17.5558C27.8119 17.4271 27.5801 17.3282 27.3163 17.2595C27.052 17.1908 26.7818 17.1569 26.5053 17.1569C26.1089 17.1569 25.7738 17.2192 25.4991 17.3435C25.2244 17.4681 25.0196 17.6365 24.883 17.8488C24.7471 18.0612 24.6788 18.2985 24.6788 18.5601C24.6788 18.8609 24.7542 19.1009 24.905 19.2812C25.0558 19.4614 25.236 19.5924 25.4465 19.6738C25.657 19.7555 25.9272 19.8372 26.2575 19.9182C26.4721 19.9697 26.6419 20.0171 26.768 20.0601C26.8938 20.103 26.9968 20.1597 27.0778 20.2306C27.158 20.3015 27.1983 20.3907 27.1983 20.4974C27.1983 20.6434 27.13 20.7602 26.9942 20.8483C26.8583 20.9363 26.6475 20.9804 26.3627 20.9804C26.1071 20.9804 25.8511 20.9378 25.595 20.8516C25.3394 20.7658 25.1185 20.652 24.9326 20.5105L24.83 20.4277L24.7143 21.3831C24.89 21.4984 25.1061 21.5951 25.3633 21.6727C25.6831 21.769 26.0145 21.8175 26.3567 21.8175C26.7531 21.8175 27.089 21.7552 27.3659 21.6309C27.6424 21.5066 27.8496 21.3379 27.988 21.1256C28.1261 20.9132 28.1952 20.6781 28.1952 20.4206C28.1952 20.1209 28.1198 19.8824 27.9694 19.7066L27.9697 19.7063Z" fill="#2C00AB"/>
<path d="M11.5707 17.1461C10.2805 17.1461 9.23442 18.1922 9.23442 19.4823C9.23442 20.7725 10.2805 21.8186 11.5707 21.8186C12.8609 21.8186 13.907 20.7725 13.907 19.4823C13.907 18.1922 12.8609 17.1461 11.5707 17.1461ZM11.5707 20.8856C10.7941 20.8856 10.1637 20.2556 10.1637 19.4786C10.1637 18.7016 10.7937 18.072 11.5707 18.072C12.3477 18.072 12.9777 18.702 12.9777 19.4786C12.9777 20.2552 12.3477 20.8856 11.5707 20.8856Z" fill="#2C00AB"/>
<path d="M22.5377 17.2241V19.8044C22.5377 20.3769 22.0738 20.8412 21.501 20.8412C20.9281 20.8412 20.4642 20.3773 20.4642 19.8044V17.255H19.4871V19.8044C19.4871 20.9166 20.3888 21.8179 21.5006 21.8179C22.6124 21.8179 23.514 20.9162 23.514 19.8044V17.2237H22.537L22.5377 17.2241Z" fill="#2C00AB"/>
<path d="M18.3399 17.2241H14.6649L14.5504 18.1679H16.0089V21.7492H16.9911V18.1679H18.4541L18.3399 17.2241Z" fill="#2C00AB"/>
<path d="M8.74963 20.7994H6.31633V17.2241H5.33405V21.7492H8.63468L8.74963 20.7994Z" fill="#2C00AB"/>
<path d="M16.5007 14.5321C14.8751 14.5321 13.5207 13.3722 13.2191 11.8346L13.623 11.4308H15.1557C15.2576 11.9869 15.6969 12.4261 16.2526 12.528V13.604H17.3972C18.1335 13.604 18.7321 13.0061 18.7321 12.2712C18.7321 11.823 18.5101 11.4259 18.1694 11.1841C18.5097 10.9419 18.7321 10.544 18.7321 10.0958C18.7321 9.35949 18.1332 8.76086 17.3972 8.76086H16.169C15.8055 8.76086 15.4621 8.90044 15.1994 9.15684L13.1557 11.2005V11.1893C13.1557 9.34232 14.6526 7.84539 16.4996 7.84539C17.8226 7.84539 18.9661 8.61345 19.508 9.72784H20.0477C19.4737 8.3313 18.0996 7.34865 16.4966 7.34865C14.3768 7.34865 12.6586 9.06689 12.6586 11.1867C12.6586 11.3498 12.669 11.5103 12.6888 11.6681L10.7735 13.5834H11.4714L12.8075 12.2477C13.268 13.8514 14.7452 15.0251 16.497 15.0251C18.0917 15.0251 19.4592 14.0526 20.0391 12.6683H19.5006C18.9553 13.7723 17.8167 14.5329 16.5007 14.5329V14.5321ZM15.6267 11.1841C15.6267 10.7881 15.8913 10.4541 16.2526 10.347V12.0208C15.8913 11.9141 15.6267 11.5793 15.6267 11.1841ZM18.2399 12.2712C18.2399 12.734 17.8626 13.1106 17.3979 13.1106H16.7463V12.5276C17.1233 12.4586 17.4465 12.2347 17.6472 11.9242H16.9602C16.8941 11.9656 16.8225 11.9988 16.7456 12.0212V11.4308H17.3972C17.8618 11.4308 18.2395 11.8081 18.2395 12.2716L18.2399 12.2712ZM16.7463 10.3466C16.8225 10.3694 16.8945 10.4022 16.9609 10.4437H17.648C17.4468 10.1331 17.124 9.90922 16.7471 9.84018V9.25424H17.3987C17.8626 9.25424 18.2406 9.63155 18.2406 10.0962C18.2406 10.5608 17.8633 10.9381 17.3987 10.9381H16.7471V10.347H16.7467L16.7463 10.3466ZM15.5468 9.5069C15.7148 9.34344 15.9353 9.25387 16.1697 9.25387H16.2533V9.84018C15.6972 9.94206 15.2583 10.3813 15.1565 10.9374H14.1171L15.5468 9.5069Z" fill="#2C00AB"/>
</g>
<defs>
<clipPath id="clip0_10599_16931">
<rect width="33" height="33" fill="white"/>
</clipPath>
</defs>
</svg>
