<svg width="64" height="12" viewBox="0 0 64 12" fill="none" xmlns="http://www.w3.org/2000/svg">
<path d="M17.4434 5.79878V10.0019H18.1727H18.902V7.46575V4.93254L19.1044 5.12008C19.2145 5.22426 19.5777 5.5785 19.9141 5.90594C20.7714 6.74241 21.6168 7.56696 22.3103 8.24566C22.6378 8.56417 23.1944 9.10594 23.5457 9.45124C23.8999 9.79655 24.2422 10.1299 24.3137 10.1954L24.4387 10.3115L24.4328 6.10836L24.4238 1.90222L23.7094 1.89924H22.995L22.989 4.40864C22.9831 5.78985 22.9741 6.93887 22.9652 6.96268C22.9533 6.99245 22.6973 6.75729 22.1972 6.26315C21.7835 5.85533 21.078 5.15878 20.6285 4.71822C20.179 4.27766 19.4408 3.55431 18.9913 3.11078C18.5418 2.67022 18.0089 2.14929 17.8095 1.94984L17.4434 1.59263V5.79878Z" fill="#2C00AB"/>
<path d="M48.1777 1.78589C46.6804 2.02105 45.448 3.00933 44.8854 4.42626C44.5371 5.30142 44.5133 6.34626 44.8169 7.2631C45.4182 9.06403 47.1031 10.2339 48.9665 10.1386C50.0143 10.085 50.9222 9.68021 51.6873 8.9271C51.8629 8.75147 52.0058 8.5937 51.9998 8.57584C51.9939 8.55798 51.7498 8.35258 51.461 8.11444L50.9312 7.68579L50.6871 7.92989C50.4043 8.2097 50.178 8.36747 49.8595 8.5044C48.6272 9.03426 47.2102 8.61156 46.4839 7.49231C46.1803 7.02496 46.0523 6.62607 46.0285 6.05752C46.0166 5.74198 46.0255 5.61696 46.0731 5.38775C46.4035 3.78329 48.0169 2.80989 49.5589 3.28022C49.803 3.35463 50.178 3.53919 50.3656 3.67612L50.5085 3.78031L50.949 3.27426C51.1931 2.99445 51.3955 2.74738 51.4015 2.72654C51.4134 2.67594 50.8865 2.31873 50.5739 2.16691C50.312 2.03891 49.9072 1.89901 49.5916 1.83054C49.3267 1.77398 48.4426 1.74719 48.1777 1.78589Z" fill="#2C00AB"/>
<path d="M57.659 1.79809C56.891 1.93502 56.2034 2.26544 55.6647 2.75064C55.5992 2.81018 55.5456 2.86674 55.5456 2.88162C55.5456 2.89353 55.6944 3.0245 55.876 3.17036C56.0576 3.3192 56.3017 3.51269 56.4148 3.60794L56.6231 3.77464L56.7779 3.65855C56.9922 3.49483 57.3673 3.31622 57.6441 3.24478C59.0432 2.8846 60.4303 3.73594 60.8351 5.2005C60.9095 5.45948 60.9185 5.54282 60.9155 5.95361C60.9155 6.42989 60.8917 6.58171 60.7518 6.95975C60.3975 7.92719 59.5313 8.61779 58.552 8.719C57.275 8.85296 56.1201 8.03138 55.742 6.72161L55.6706 6.47454L54.9681 6.46561L54.2656 6.45966V6.54598C54.2656 6.68887 54.4323 7.2991 54.5454 7.57891C54.9264 8.51063 55.6647 9.3084 56.5428 9.73705C57.0726 9.99305 57.5221 10.1121 58.0877 10.1419C59.9689 10.2431 61.6894 8.95714 62.1984 7.06989C62.4574 6.09947 62.3621 5.01594 61.9335 4.12292C61.3709 2.94711 60.4273 2.16423 59.195 1.85762C58.8229 1.76237 58.0251 1.7326 57.659 1.79809Z" fill="#2C00AB"/>
<path d="M8.33398 1.90522C8.33398 1.9201 9.19129 3.22094 10.2391 4.79266L12.1442 7.65033V8.82614V10.002H12.8735H13.6028V8.62968V7.25442L12.5848 5.76307C12.0251 4.94447 11.3732 3.98894 11.1381 3.64661C10.9029 3.30131 10.5427 2.77145 10.3344 2.46485L9.95631 1.90522L9.22701 1.90224C8.82515 1.90224 8.46198 1.89331 8.41733 1.88736C8.36971 1.87843 8.33398 1.88736 8.33398 1.90522Z" fill="#2C00AB"/>
<path d="M32.0753 2.51545C31.7627 2.85778 31.2359 3.44122 30.9025 3.81033C30.5661 4.17945 30.1851 4.59917 30.0511 4.74801C29.9172 4.89387 29.4022 5.4654 28.9051 6.01312C28.408 6.56084 27.9436 7.07284 27.8751 7.15024L27.7471 7.28717L27.7441 8.64456V10.002H28.4734H29.2027V8.81423V7.62651L29.7177 7.05796C30.1107 6.62335 30.2387 6.50131 30.2654 6.5281C30.2982 6.56382 31.9771 8.89163 32.492 9.62093L32.76 9.99898L33.6173 10.002C34.0876 10.002 34.4716 9.996 34.4716 9.99005C34.4716 9.98112 34.3525 9.81144 34.2096 9.60902C32.373 7.04903 31.7866 6.23042 31.5276 5.87024L31.224 5.44456L31.3192 5.33442C31.3728 5.27489 31.8461 4.7361 32.37 4.14075C33.8465 2.46485 34.3198 1.9201 34.3227 1.90522C34.3227 1.89629 33.9447 1.89034 33.4833 1.89034H32.6439L32.0753 2.51545Z" fill="#2C00AB"/>
<path d="M1.60742 5.95359V10.002H4.33113H7.05484L7.04889 9.35302L7.03996 8.70707L5.0396 8.69814L3.03625 8.69219V5.2987V1.90522H2.32184H1.60742V5.95359Z" fill="#2C00AB"/>
<path d="M38.4531 3.97718C37.7863 4.13793 37.3249 4.71839 37.3189 5.40305C37.3159 5.68584 37.3785 5.92398 37.5213 6.177C37.6106 6.33477 37.6851 6.43598 37.9738 6.78426L38.0423 6.86761L37.7446 7.12659C37.2713 7.53738 37.0957 7.82017 37.0302 8.27859C36.9766 8.64771 37.0719 9.03171 37.3011 9.37701C37.688 9.9545 38.5037 10.27 39.1972 10.1063C39.5276 10.0289 39.7747 9.87711 40.117 9.54669L40.3016 9.36808L40.4445 9.52883C40.5219 9.61515 40.6469 9.75804 40.7213 9.84138L40.8553 9.99618L41.4328 9.99915C41.9745 10.0021 42.0073 9.99915 41.9686 9.95152C41.9447 9.92176 41.7036 9.6479 41.4298 9.34129C41.1529 9.03468 40.9297 8.77273 40.9297 8.76082C40.9297 8.74892 41.1529 8.51375 41.4268 8.23989L41.9269 7.7398H41.3375H40.7451L40.5606 7.9184C40.4564 8.01663 40.3611 8.09701 40.3433 8.09701C40.3105 8.09701 39.3312 7.0224 39.3163 6.97179C39.3103 6.95393 39.4235 6.84082 39.5663 6.71877C40.0456 6.305 40.2153 6.04602 40.2778 5.62035C40.3433 5.18574 40.1825 4.70648 39.864 4.385C39.4919 4.00695 38.9561 3.85216 38.4531 3.97718ZM39.1288 4.78686C39.5366 4.99523 39.6259 5.42686 39.3431 5.81086C39.2746 5.90612 38.7805 6.31096 38.7358 6.31096C38.7001 6.31096 38.4263 6.00435 38.2834 5.80788C38.1435 5.61142 38.0869 5.39114 38.1316 5.21253C38.206 4.90295 38.5037 4.68862 38.8311 4.71244C38.9323 4.71839 39.0633 4.75114 39.1288 4.78686ZM39.1764 8.11189L39.7122 8.70724L39.5336 8.87096C39.2538 9.12696 39.0603 9.23115 38.837 9.24901C38.0661 9.31152 37.6166 8.45719 38.1345 7.9184C38.2893 7.75468 38.59 7.50166 38.6168 7.51059C38.6317 7.51356 38.8817 7.78445 39.1764 8.11189Z" fill="#2C00AB"/>
</svg>
