<svg width="27" height="37" viewBox="0 0 27 37" fill="none" xmlns="http://www.w3.org/2000/svg">
<path fill-rule="evenodd" clip-rule="evenodd" d="M27 18.5C26.994 28.1001 21.0428 33.5646 16.8572 35.9459C15.4191 36.7646 14.4189 37 13.501 37C12.5831 37 11.5809 36.7646 10.1428 35.9459C5.95715 33.5626 0.00401696 28.1001 0 18.5C0.00602544 8.89994 5.95715 3.43538 10.1428 1.05415C11.5809 0.235354 12.5831 0 13.501 0C14.4189 0 15.4191 0.235354 16.8572 1.05415C21.0428 3.43735 26.996 8.89994 27 18.5Z" fill="#2C00AB"/>
<path fill-rule="evenodd" clip-rule="evenodd" d="M26.2616 18.4977C26.2556 27.5717 20.6298 32.9354 16.6731 35.188C15.3134 35.9613 14.3694 36.2679 13.5017 36.2679C12.634 36.2679 11.6881 35.9633 10.3283 35.188C6.37161 32.9354 0.745856 27.5717 0.73983 18.4977C0.745856 9.42372 6.37161 4.06002 10.3283 1.80735C11.6881 1.03404 12.634 0.731445 13.5017 0.731445C14.3694 0.731445 15.3134 1.03207 16.6731 1.80735C20.6298 4.06002 26.2556 9.42372 26.2616 18.4977Z" fill="#F6F6F6"/>
<path fill-rule="evenodd" clip-rule="evenodd" d="M15.8293 9.85713L14.2286 9.21436C14.1021 9.16689 14.0478 9.24007 14.0478 9.36467L14.0458 14.2952L16.2772 17.8552H17.6289C17.8659 15.0883 18.8441 12.5746 20.1898 10.2685C20.2159 10.0826 20.1054 10.0569 19.9447 10.0826C19.5973 10.2843 19.2618 10.4663 18.8983 10.666H18.8943C19.7178 9.19261 21.0795 8.04946 22.1058 7.62028C20.475 10.3852 19.1694 14.3229 19.2759 17.7148C19.2879 17.8117 19.3301 17.8532 19.4627 17.8532H19.774C19.8624 17.8532 19.9005 17.8948 19.9005 17.964V18.4584C19.9005 18.5356 19.8503 18.5672 19.784 18.5692H7.21698C7.1507 18.5692 7.10049 18.5336 7.10049 18.4584V17.964C7.10049 17.8967 7.13664 17.8552 7.22501 17.8532H7.53834C7.6729 17.8532 7.71508 17.8117 7.72512 17.7148C7.83358 14.3229 6.52807 10.3832 4.89518 7.61831C5.92151 8.04748 7.28527 9.19063 8.10674 10.666H8.10071C7.73718 10.4663 7.40176 10.2843 7.05429 10.0826C6.89361 10.0569 6.78114 10.0826 6.80926 10.2685C8.15494 12.5746 9.13307 15.0883 9.37007 17.8532H10.7218L12.9532 14.2952V9.36665C12.9532 9.24403 12.899 9.16887 12.7724 9.21634L11.1717 9.85911C12.437 8.42721 13.3107 6.74611 13.4995 4.86328H13.5035C13.6923 6.74413 14.566 8.42721 15.8314 9.85911L15.8293 9.85713Z" fill="#2C00AB"/>
<path fill-rule="evenodd" clip-rule="evenodd" d="M14.0449 16.4131L14.9527 17.8529H14.0449V16.4131Z" fill="#F6F6F6"/>
<path fill-rule="evenodd" clip-rule="evenodd" d="M12.9534 16.4131L12.0436 17.8529H12.9534V16.4131Z" fill="#F6F6F6"/>
<path fill-rule="evenodd" clip-rule="evenodd" d="M19.0012 19.4865C19.0675 19.4865 19.1177 19.4509 19.1177 19.3757V18.8813C19.1177 18.814 19.0816 18.7725 18.9932 18.7705H8.0088C7.92043 18.7705 7.88227 18.812 7.88227 18.8813V19.3757C7.88227 19.4528 7.93248 19.4845 7.99876 19.4865H19.0012Z" fill="#2C00AB"/>
<path fill-rule="evenodd" clip-rule="evenodd" d="M19.7824 20.4464C19.8486 20.4464 19.8988 20.4108 19.8988 20.3357V19.8412C19.8988 19.774 19.8627 19.7324 19.7743 19.7305H7.22533C7.13696 19.7305 7.10081 19.772 7.0988 19.8412V20.3357C7.0988 20.4128 7.14901 20.4444 7.21529 20.4464H19.7824Z" fill="#2C00AB"/>
<path fill-rule="evenodd" clip-rule="evenodd" d="M19.0012 21.3654C19.0675 21.3654 19.1177 21.3139 19.1177 21.2546V20.7602C19.1177 20.6929 19.0816 20.6514 18.9932 20.6494H8.0088C7.92043 20.6494 7.88227 20.6909 7.88227 20.7602V21.2546C7.88227 21.3317 7.93248 21.3634 7.99876 21.3654H19.0012Z" fill="#2C00AB"/>
<path fill-rule="evenodd" clip-rule="evenodd" d="M13.4736 25.5781H13.527V25.6335H13.4736V25.5781Z" fill="#F6F6F6"/>
<path fill-rule="evenodd" clip-rule="evenodd" d="M7.6993 22.2357C7.84391 22.5363 8.22351 22.746 8.58504 22.746C8.90037 22.746 9.11126 22.653 9.27194 22.4137C9.29403 22.388 9.32617 22.3722 9.36433 22.3722C9.40249 22.3722 9.44667 22.3919 9.46877 22.4177C9.49488 22.4473 9.4989 22.4394 9.56919 22.5165C9.80218 22.7321 10.1055 22.9101 10.4911 22.8923C10.4087 22.829 10.3404 22.7578 10.2661 22.6965C10.1858 22.6253 10.0472 22.4315 10.1436 22.4196C10.4971 22.4018 10.7542 22.9101 11.4391 22.8923C11.3085 22.7914 11.2885 22.7697 11.2021 22.6985C11.1157 22.6451 10.8767 22.386 11.0997 22.4374C11.2202 22.475 11.411 22.5581 11.7625 22.5541C12.0999 22.5581 12.1923 22.4968 12.4132 22.4177C12.134 22.7558 12.5217 23.0584 12.7687 23.2542C12.8169 23.3017 12.7566 23.3353 12.6743 23.3116C12.5076 23.2839 12.361 23.1534 12.1682 23.2622C11.9071 23.4184 11.7805 23.5746 11.5998 23.6735C11.5536 23.7665 11.664 23.8832 11.7082 23.9524C11.3186 23.9979 11.4953 24.6031 11.0193 24.6051C10.9309 24.6051 10.8888 24.6466 10.8888 24.7158V25.4614C10.8888 25.5208 10.939 25.5702 11.0053 25.5722H11.9794C11.6359 26.0607 11.6118 26.4998 11.9954 27.2276H3.28064C5.1184 30.8686 8.31389 33.5208 10.5795 34.8103C11.8307 35.5223 12.7024 35.8032 13.4998 35.8032C14.2972 35.8032 15.1668 35.5223 16.4181 34.8103C18.6837 33.5208 21.8792 30.8647 23.7189 27.2256H15.0082C15.3918 26.4978 15.3657 26.0587 15.0242 25.5702H15.9983C16.0646 25.5702 16.1148 25.5208 16.1148 25.4614L16.1108 24.7158C16.1108 24.6486 16.0727 24.607 15.9843 24.6051C15.5103 24.6051 15.687 23.9979 15.2954 23.9524C15.3416 23.8832 15.452 23.7665 15.4038 23.6735C15.2231 23.5766 15.0965 23.4184 14.8354 23.2622C14.6426 23.1534 14.496 23.2839 14.3293 23.3116C14.2469 23.3353 14.1867 23.3017 14.2349 23.2542C14.4819 23.0584 14.8696 22.7558 14.5904 22.4177C14.8113 22.4948 14.9037 22.5581 15.2411 22.5541C15.5926 22.5581 15.7834 22.475 15.9039 22.4374C16.1269 22.384 15.8879 22.6451 15.8015 22.6985C15.7151 22.7697 15.6951 22.7914 15.5645 22.8923C16.2494 22.9121 16.5065 22.4018 16.86 22.4196C16.9564 22.4295 16.8178 22.6253 16.7375 22.6965C16.6631 22.7578 16.5949 22.829 16.5125 22.8923C16.8981 22.9121 17.2014 22.7341 17.4344 22.5165C17.5027 22.4394 17.5067 22.4473 17.5348 22.4177C17.5569 22.3919 17.6031 22.3722 17.6393 22.3722C17.6754 22.3722 17.7096 22.388 17.7317 22.4137C17.8943 22.655 18.1052 22.746 18.4186 22.746C18.7801 22.746 19.1597 22.5383 19.3043 22.2357H19.7843C19.8506 22.2357 19.9008 22.1862 19.9008 22.1249V21.6938C19.9008 21.6345 19.8466 21.583 19.7803 21.5811H7.21927C7.15299 21.5811 7.10278 21.6305 7.10278 21.6898V22.121C7.10278 22.1803 7.15299 22.2298 7.20521 22.2317H7.70131L7.6993 22.2357Z" fill="#2C00AB"/>
<path fill-rule="evenodd" clip-rule="evenodd" d="M11.8413 24.593H13.1909V24.3755C13.1909 24.3597 13.2231 24.0353 12.9539 24.3023C12.8354 24.4051 12.7571 24.4388 12.6246 24.4862C12.3012 24.5653 12.012 24.421 11.8453 24.2509L11.8413 24.595V24.593Z" fill="#F6F6F6"/>
<path fill-rule="evenodd" clip-rule="evenodd" d="M13.4736 25.5781H13.527V25.6335H13.4736V25.5781Z" fill="#F6F6F6"/>
<path fill-rule="evenodd" clip-rule="evenodd" d="M12.6049 25.5801H12.866V25.6097H12.6049V25.5801Z" fill="#F6F6F6"/>
<path fill-rule="evenodd" clip-rule="evenodd" d="M15.1578 24.593H13.8081V24.3755C13.8081 24.3597 13.7759 24.0353 14.0451 24.3023C14.1636 24.4051 14.2419 24.4388 14.3744 24.4862C14.6978 24.5653 14.987 24.421 15.1537 24.2509L15.1578 24.595V24.593Z" fill="#F6F6F6"/>
<path fill-rule="evenodd" clip-rule="evenodd" d="M14.1302 25.5801H14.3913V25.6097H14.1302V25.5801Z" fill="#F6F6F6"/>
<path fill-rule="evenodd" clip-rule="evenodd" d="M7.46043 30.4655L6.84182 28.8674H6.8378C6.8378 29.1008 6.84182 29.4252 6.84182 29.5003V31.0054H6.61285V28.4561H6.95228L7.4524 29.7416H7.45641L7.95452 28.4561H8.29194V31.0054H8.06297V29.5003C8.06297 29.4252 8.06699 29.1028 8.06699 28.8654H8.06297L7.46445 30.4674H7.46043V30.4655Z" fill="#F6F6F6"/>
<path fill-rule="evenodd" clip-rule="evenodd" d="M14.0446 31.0054H12.952V28.4561H14.0265V28.6934H13.189V29.6506H14.0125V29.888H13.189V30.7661H14.0446V31.0054Z" fill="#F6F6F6"/>
<path fill-rule="evenodd" clip-rule="evenodd" d="M15.5419 30.5822C15.4535 30.507 15.349 30.4615 15.1321 30.4576H15.0377V31.0034H14.7887V28.4541H15.1281C15.7206 28.4541 16.1344 28.909 16.1344 29.4469C16.1344 30.0047 15.9054 30.2499 15.5619 30.3508C15.7789 30.416 15.8431 30.507 15.8893 30.7147L15.9295 31.0054H15.6603C15.6523 30.8254 15.6383 30.683 15.5439 30.5822H15.5419ZM15.0357 30.2163H15.1402C15.7266 30.2163 15.8953 29.8682 15.8913 29.4469C15.8893 29.0534 15.6302 28.6736 15.1422 28.6756H15.0357V30.2183V30.2163Z" fill="#F6F6F6"/>
<path fill-rule="evenodd" clip-rule="evenodd" d="M20.0676 31.0054H19.8306V28.4541H20.0676V31.0054Z" fill="#F6F6F6"/>
<path fill-rule="evenodd" clip-rule="evenodd" d="M19.3415 28.4541V28.6598H18.7912V31.0034H18.5542V28.6598H18.0019V28.4541H19.3415Z" fill="#F6F6F6"/>
<path fill-rule="evenodd" clip-rule="evenodd" d="M9.17998 30.5307L9.06349 31.0054H8.81846L9.47724 28.4561H9.74638L10.3811 31.0054H10.122L10.0155 30.5307H9.17798H9.17998ZM9.93316 30.2914L9.60779 28.8358H9.60377L9.25631 30.2914H9.93517H9.93316Z" fill="#F6F6F6"/>
<path fill-rule="evenodd" clip-rule="evenodd" d="M16.8758 30.5288L16.7593 31.0034H16.5143L17.1731 28.4541H17.4422L18.0769 31.0034H17.8178L17.7113 30.5288H16.8738H16.8758ZM17.629 30.2895L17.3036 28.8319H17.2996L16.9521 30.2895H17.631H17.629Z" fill="#F6F6F6"/>
<path fill-rule="evenodd" clip-rule="evenodd" d="M11.784 29.9256C11.9769 30.0186 12.2018 30.1135 12.1998 30.3864C12.1998 30.687 11.8563 30.8255 11.6394 30.8176C11.4426 30.8116 11.2197 30.7602 10.9505 30.6692L10.9304 30.869C11.2036 30.962 11.302 31.0134 11.6495 31.0134C12.1395 31.0134 12.4368 30.7345 12.4388 30.3864C12.4388 29.9691 12.1235 29.8228 11.8543 29.7041L11.4707 29.5281C11.3141 29.4549 11.061 29.3283 11.055 29.0376C11.0489 28.7192 11.3643 28.6539 11.6354 28.6539C11.8423 28.6539 11.9969 28.6875 12.254 28.7844L12.2661 28.5728C12.0371 28.4977 11.9126 28.4502 11.6214 28.4502C11.0831 28.4502 10.8039 28.6658 10.8039 29.0376C10.8039 29.4509 11.1855 29.6586 11.4004 29.7476L11.784 29.9236V29.9256Z" fill="#F6F6F6"/>
</svg>
