<svg width="34" height="27" viewBox="0 0 34 27" fill="none" xmlns="http://www.w3.org/2000/svg">
<path fill-rule="evenodd" clip-rule="evenodd" d="M3.03309 4.52513C4.0307 5.74529 5.78015 6.68224 5.85442 6.72164C5.87305 6.73147 5.8935 6.73738 5.91451 6.73901C5.93552 6.74063 5.95663 6.73793 5.97656 6.73108C5.99648 6.72422 6.01479 6.71336 6.03035 6.69916C6.04591 6.68496 6.0584 6.66772 6.06704 6.6485C6.08575 6.60683 8.07418 2.44542 16.8917 2.44542C25.7109 2.44542 27.7523 6.62837 27.7716 6.67061C27.7804 6.6896 27.793 6.7066 27.8086 6.72059C27.8242 6.73458 27.8424 6.74526 27.8622 6.75199C27.8821 6.75872 27.903 6.76136 27.9239 6.75975C27.9448 6.75814 27.9651 6.75231 27.9837 6.74262C28.0738 6.69499 30.2139 5.56187 30.9663 4.47467C30.9692 4.4707 30.9703 4.46588 30.9723 4.46163C30.9818 4.44485 30.988 4.42635 30.9904 4.4072L30.9927 4.39302C30.9933 4.3748 30.9909 4.3566 30.9856 4.33916C30.985 4.33803 30.9856 4.33717 30.985 4.33604C30.9839 4.33292 30.9811 4.33094 30.9799 4.3281C30.976 4.31875 30.9728 4.30939 30.9672 4.3006C30.8492 4.12512 27.9423 0 16.8917 0C5.83741 0 3.13118 4.16935 3.02147 4.34681C3.02175 4.34681 2.95711 4.43243 3.03309 4.52513Z" fill="#2C00AB"/>
<path fill-rule="evenodd" clip-rule="evenodd" d="M16.8936 2.13661C8.7003 2.13661 6.30053 5.59467 5.86423 6.37342C5.50278 6.16817 4.49014 5.56235 3.70117 4.79323L4.66307 5.1476C4.69339 5.15879 4.72646 5.16016 4.7576 5.15151C4.78874 5.14286 4.81637 5.12463 4.83657 5.0994C8.24133 0.853796 16.8006 1.20788 16.8868 1.21185C16.8893 1.21185 16.8916 1.21072 16.8938 1.21072C16.8964 1.21072 16.8987 1.21185 16.9012 1.21185C16.9874 1.20788 25.5481 0.855497 28.9511 5.0994C28.9922 5.15043 29.0608 5.16999 29.1224 5.14845L30.3556 4.71895C29.6142 5.46001 28.3839 6.17044 27.9779 6.39525C27.5368 5.62075 25.0993 2.13661 16.8936 2.13661Z" fill="#F6F6F6"/>
<path fill-rule="evenodd" clip-rule="evenodd" d="M2.65776 4.70937C1.66524 6.1274 0 9.22599 0 14.044C0 18.1663 1.97255 23.1881 6.37975 25.1161C10.8802 27.085 15.9111 26.8814 17 26.8814C18.0889 26.8814 23.1198 27.0853 27.6203 25.1161C32.0277 23.1881 34 18.166 34 14.044C34 9.22599 32.335 6.12769 31.3422 4.70937C31.3255 4.68573 31.3025 4.66732 31.2757 4.65628C31.249 4.64524 31.2197 4.64202 31.1911 4.647C31.1666 4.64278 31.1414 4.6446 31.1178 4.65231C31.0941 4.66001 31.0727 4.67337 31.0553 4.69122C31.0508 4.69576 30.9431 4.80661 30.7387 4.99059C30.7178 5.00185 30.7 5.01788 30.6865 5.03737C30.0044 5.64376 28.3942 6.93054 26.0106 7.94347L25.1927 8.28621C23.5481 8.97057 21.7891 9.70368 20.2491 10.8317L20.2463 10.834C18.9229 11.8038 17.7617 13.0662 16.9748 14.8417C15.2721 10.9984 11.8166 9.55938 8.75798 8.28621L7.9401 7.94347C4.71904 6.57447 2.91432 4.7088 2.89561 4.69122C2.74989 4.55656 2.65776 4.70937 2.65776 4.70937Z" fill="#2C00AB"/>
<path fill-rule="evenodd" clip-rule="evenodd" d="M16.832 15.2936C16.832 15.2942 16.8326 15.2945 16.8329 15.295C16.8385 15.3086 16.8479 15.3208 16.8572 15.3325C16.8604 15.3364 16.8623 15.3415 16.8657 15.3449C16.8694 15.3483 16.8745 15.3503 16.8782 15.3534C16.8895 15.3635 16.9022 15.3718 16.9159 15.3781L16.9171 15.379C16.9239 15.3818 16.9307 15.3809 16.9378 15.3826C16.9499 15.3858 16.9618 15.3894 16.9746 15.3894C16.9874 15.3894 16.9993 15.3858 17.0115 15.3826C17.0183 15.3812 17.0253 15.3818 17.0322 15.379C17.0324 15.3787 17.0327 15.3781 17.0333 15.3781C17.0469 15.3718 17.0596 15.3635 17.0707 15.3534C17.0747 15.3503 17.0801 15.3483 17.0832 15.3449C17.0869 15.3415 17.0886 15.3361 17.0917 15.3325C17.1018 15.3213 17.1101 15.3087 17.1164 15.295L17.1172 15.2936C17.5901 14.1163 18.2313 13.1609 18.9781 12.3643C18.7416 13.1643 18.7377 13.7276 18.7377 13.7568C18.7381 13.7912 18.7501 13.8245 18.7716 13.8514C18.7932 13.8783 18.8231 13.8971 18.8566 13.9051C18.8902 13.913 18.9254 13.9095 18.9567 13.8951C18.9879 13.8807 19.0135 13.8563 19.0294 13.8257C19.077 13.7307 19.3018 13.5073 19.4464 13.3789C19.4758 13.3525 19.4941 13.3159 19.4974 13.2766C19.5689 12.4204 20.3085 11.2734 20.4375 11.0792C21.0819 10.6072 21.7659 10.2052 22.4645 9.84713C21.6035 10.5326 20.5254 11.5197 19.9091 12.5695C19.8905 12.6021 19.8845 12.6402 19.8919 12.6769C19.8994 12.7136 19.92 12.7463 19.9498 12.7689C19.9796 12.7916 20.0166 12.8027 20.054 12.8001C20.0913 12.7975 20.1265 12.7815 20.1529 12.7549C20.1662 12.7413 21.5284 11.3743 24.8504 10.4538C25.6195 10.2406 27.5847 9.54549 29.945 8.16856C29.9791 8.14863 30.0043 8.11636 30.0153 8.07841L30.9424 5.22164L30.9982 5.1709C30.946 6.18751 30.7462 7.17293 30.5078 8.02342C30.2087 8.21761 28.1706 9.5214 26.4274 10.1604C26.0654 10.2931 25.6524 10.4198 25.2144 10.5536C22.6462 11.3403 19.1496 12.4139 16.974 17.047C14.7991 12.4136 11.3027 11.34 8.73428 10.5533C8.29657 10.4192 7.88323 10.2928 7.5215 10.1601C5.77858 9.52111 3.74025 8.21704 3.44088 8.02313C3.0559 7.16103 2.91699 6.20537 2.85547 5.38891C3.68752 8.7021 7.28053 9.87435 8.94152 10.4102C11.4453 11.2178 12.8844 12.0329 12.8985 12.0411C12.9268 12.0576 12.9597 12.0645 12.9922 12.061C13.0248 12.0575 13.0554 12.0437 13.0796 12.0216C13.1037 11.9994 13.1202 11.9702 13.1265 11.938C13.1328 11.9059 13.1288 11.8726 13.1148 11.8429C12.7522 11.0577 12.0764 10.3574 11.4638 9.83664C13.6566 10.957 15.7119 12.5066 16.832 15.2936Z" fill="#2C00AB"/>
<path fill-rule="evenodd" clip-rule="evenodd" d="M16.8341 17.4759C16.8372 17.4832 16.8429 17.4878 16.8471 17.4943C16.8531 17.5042 16.8585 17.5138 16.8667 17.5221C16.8749 17.5303 16.8848 17.5357 16.8945 17.5416C16.9007 17.5456 16.9058 17.5516 16.9129 17.5547C16.914 17.555 16.9152 17.5547 16.9166 17.5552C16.9274 17.5598 16.9393 17.5609 16.9509 17.5626C16.9591 17.564 16.967 17.5671 16.9753 17.5671C16.9835 17.5671 16.9914 17.564 16.9996 17.5626C17.0116 17.5609 17.0232 17.5598 17.0339 17.5552C17.0351 17.5547 17.0365 17.555 17.0376 17.5547C17.0447 17.5516 17.0495 17.5456 17.0558 17.5416C17.0654 17.5357 17.0753 17.5303 17.0836 17.5221C17.0918 17.5138 17.0972 17.5042 17.1031 17.4946C17.1071 17.4881 17.113 17.4832 17.1162 17.4761C19.2222 12.7112 22.7384 11.6345 25.3057 10.8481C25.7477 10.7128 26.165 10.585 26.535 10.4495C28.004 9.91082 29.6732 8.91207 30.376 8.47266C30.0083 9.65398 29.6035 10.4948 29.5238 10.6567C28.6762 11.341 27.4402 11.688 26.0105 12.0886C24.3915 12.5422 22.5558 13.0565 20.8478 14.2041C18.6646 15.6709 17.3838 18.1769 16.975 19.0793C16.5659 18.1767 15.2854 15.6709 13.1022 14.2041C11.3938 13.0562 9.55878 12.5422 7.93974 12.0886C6.51008 11.688 5.27405 11.341 4.42669 10.6567C4.34674 10.4951 3.94219 9.65398 3.57422 8.47266C4.27728 8.91179 5.94621 9.91082 7.41556 10.4495C7.78552 10.5853 8.20283 10.7128 8.64451 10.8481C11.2118 11.6339 14.728 12.7109 16.8341 17.4759Z" fill="#F6F6F6"/>
<path fill-rule="evenodd" clip-rule="evenodd" d="M17.119 19.525C17.132 19.4918 18.4619 16.1786 21.0207 14.4598C22.6879 13.3397 24.4975 12.8325 26.0941 12.3852C27.4807 11.9968 28.6892 11.6583 29.5751 11.0068C29.7325 12.2378 30.3082 18.2198 27.1836 21.29C24.1581 24.2633 19.0198 24.4915 17.0002 24.4515C17.026 24.4515 16.9503 24.4504 17.0002 24.4515C17.0501 24.4504 16.9747 24.4515 17.0002 24.4515C14.9806 24.4915 9.84224 24.2633 6.81679 21.29C3.71961 18.2459 4.2591 12.3398 4.42155 11.0386C5.30321 11.6685 6.49417 12.003 7.85693 12.3849C9.45385 12.8323 11.2637 13.3394 12.9309 14.4595C15.4914 16.1798 16.819 19.4915 16.8323 19.5247C16.8323 19.525 16.9491 19.8666 17.119 19.525Z" fill="#F6F6F6"/>
<path fill-rule="evenodd" clip-rule="evenodd" d="M3.128 8.04541C3.52518 9.48443 4.03235 10.5535 4.14433 10.7811C4.04454 11.4275 3.24225 17.2496 5.97031 20.7973C5.35286 20.5509 4.18572 19.9323 3.22921 18.5387C3.20795 18.5018 0.604055 13.9049 3.128 8.04541ZM29.8473 10.7315C29.8456 10.7241 29.8416 10.7179 29.8397 10.7108C29.9647 10.4492 30.2794 9.758 30.5872 8.8202C32.1592 13.5069 30.7012 17.5657 30.6859 17.6071L30.6808 17.6233C30.1016 19.4033 28.8508 20.2444 28.1914 20.5764C30.8169 16.8833 29.8918 11.002 29.8473 10.7315Z" fill="#F6F6F6"/>
<path fill-rule="evenodd" clip-rule="evenodd" d="M33.6932 14.0438C33.6932 18.0658 31.7501 22.9013 27.4977 24.8336C23.6612 26.5777 17.828 26.6159 17.001 26.6159C16.1741 26.6159 10.8396 26.7007 6.50411 24.8336C2.42378 23.0768 0.50367 18.5381 0.324219 14.6406C1.24784 17.3995 2.62534 18.5811 2.88077 18.7821C3.96797 22.0109 6.75358 24.2598 10.9414 25.2863C12.6744 25.711 15.1152 25.8411 16.4922 25.8749C16.3703 25.8805 16.5792 25.8876 17.001 25.8837C17.4232 25.8876 17.6321 25.8803 17.5102 25.8749C18.8866 25.8411 21.3274 25.711 23.0604 25.2863C27.2686 24.2547 30.0613 21.9896 31.1372 18.7357C31.1553 18.6824 32.924 13.2597 30.8937 7.90731C30.888 7.89285 30.8792 7.88151 30.8704 7.86989C31.0836 7.06193 31.2568 6.14851 31.3067 5.20703C32.2862 6.71465 33.6932 9.64626 33.6932 14.0438Z" fill="#2C00AB"/>
</svg>
