<svg width="37" height="37" viewBox="0 0 37 37" fill="none" xmlns="http://www.w3.org/2000/svg">
<path fill-rule="evenodd" clip-rule="evenodd" d="M18.4998 36.7736C8.40788 36.7736 0.226562 28.5921 0.226562 18.5003C0.226562 8.40837 8.40788 0.227051 18.4998 0.227051C28.592 0.227051 36.7731 8.40837 36.7731 18.5003C36.7731 28.5921 28.592 36.7736 18.4998 36.7736Z" fill="#2C00AB"/>
<path fill-rule="evenodd" clip-rule="evenodd" d="M18.5055 21.2603L3.66963 27.4008C6.79551 32.6532 12.46 35.8581 18.5687 35.8264C24.6618 35.8106 30.3105 32.5735 33.4046 27.3058L18.5055 21.2603ZM15.9357 16.9235L18.2999 1.2627C12.2068 1.34192 6.58985 4.62647 3.5434 9.91024C0.481153 15.194 0.449336 21.6995 3.44837 27.015L15.9357 16.9235ZM20.9965 17.1312L33.6265 26.9052C36.5621 21.5899 36.4985 15.1318 33.4364 9.87987C31.9394 7.29757 29.7993 5.14683 27.2244 3.63698C24.6496 2.12712 21.7277 1.30959 18.7432 1.26394L20.9965 17.1312Z" fill="#F6F6F6"/>
</svg>
