<svg width="33" height="33" viewBox="0 0 33 33" fill="none" xmlns="http://www.w3.org/2000/svg">
<path fill-rule="evenodd" clip-rule="evenodd" d="M23.56 0.485352H9.5837L0.484375 9.58451V23.4518L9.51094 32.5148H23.4145L32.5138 23.4155V9.51192L23.56 0.485352V0.485352ZM29.7477 22.1781L22.1771 29.7487H10.8211L3.25064 22.2145V10.8221L10.8211 3.28791H22.3224L29.7476 10.7494V22.1781H29.7477V22.1781Z" fill="#2C00AB"/>
<path fill-rule="evenodd" clip-rule="evenodd" d="M9.69911 12.8602L7.77002 8.92929L4.89453 11.6228V21.2681L7.66079 24.0706V14.6801L10.0631 20.0305L12.7927 12.8967V27.8559H15.85V5.07129H12.6109L9.69911 12.8602ZM17.988 5.07129V27.8559H21.4822L28.1064 21.2681V16.4635H23.0108V19.2297H24.9034C25.4131 19.1568 25.4494 19.7394 25.0853 20.176C24.7215 20.6127 21.0453 24.2161 21.0453 24.2161V8.71101L25.34 13.1877V14.2797H28.1063V11.7318L21.5548 5.07129H17.988V5.07129Z" fill="#2C00AB"/>
</svg>
