<svg width="60" height="26" viewBox="0 0 60 26" fill="none" xmlns="http://www.w3.org/2000/svg">
<path d="M29.9999 0.00439453C27.7901 0.00476549 25.6159 0.555083 23.6782 1.60455C21.7404 2.65402 20.1016 4.16882 18.9128 6.00911H0L1.88281 7.86911H17.9303C17.6258 8.56913 17.3841 9.29424 17.2081 10.0361H4.07635L5.93619 11.8734H16.9037C16.8677 12.2479 16.8481 12.6238 16.8452 13C16.8486 13.3474 16.8662 13.6946 16.8978 14.0406H8.12994L9.98978 15.8779H17.1838C17.3506 16.6189 17.5828 17.344 17.8777 18.0449H12.1833L14.0661 19.9049H18.8742C20.0562 21.7665 21.6967 23.3017 23.6424 24.3669C25.5881 25.432 27.7754 25.9923 29.9999 25.9954C32.2244 25.9924 34.4118 25.4321 36.3575 24.3669C38.3033 23.3018 39.9438 21.7666 41.1258 19.9049H45.9339L47.8167 18.0449H42.1223C42.4172 17.344 42.6494 16.6189 42.8162 15.8779H50.0102L51.8701 14.0406H43.1022C43.1338 13.6946 43.1514 13.3474 43.1548 13C43.1519 12.6238 43.1325 12.2479 43.0965 11.8734H54.0638L55.9236 10.0361H42.7919C42.6159 9.29424 42.3742 8.56913 42.0697 7.86911H58.1172L60 6.00911H41.0872C39.8984 4.16879 38.2595 2.65397 36.3217 1.6045C34.3839 0.555027 32.2098 0.00472883 29.9999 0.00439453ZM29.9999 1.76593C31.4933 1.76593 32.972 2.05651 34.3517 2.62107C35.7314 3.18564 36.985 4.01314 38.041 5.05632C39.097 6.0995 39.9346 7.33794 40.5061 8.70092C41.0776 10.0639 41.3717 11.5247 41.3717 13C41.3717 14.4753 41.0776 15.9361 40.5061 17.2991C39.9346 18.6621 39.097 19.9005 38.041 20.9437C36.985 21.9869 35.7314 22.8144 34.3517 23.379C32.972 23.9435 31.4933 24.2341 29.9999 24.2341C26.9839 24.2341 24.0914 23.0505 21.9588 20.9437C19.8262 18.8369 18.6281 15.9795 18.6281 13C18.6281 10.0206 19.8262 7.16312 21.9588 5.05632C24.0914 2.94952 26.9839 1.76593 29.9999 1.76593ZM20.9536 10.0883V15.9115H22.1828V11.3278L23.4795 15.9115H24.7536L26.0546 11.3278V15.9115H27.2841V10.0883H25.299L24.1233 14.0605L22.9341 10.0883H20.9536ZM28.5671 10.0883V15.9115H29.8905V10.0883H28.5671ZM31.16 10.0883V15.9115H32.3895V12.1142L35.0318 15.9115H36.3597V10.0883H35.1302V13.977L32.4478 10.0883H31.16ZM37.7231 10.0883V15.9115H39.0464V10.0883H37.7231Z" fill="#2C00AB"/>
</svg>
