<svg width="89" height="40" viewBox="0 0 89 40" fill="none" xmlns="http://www.w3.org/2000/svg">
<path d="M21.6245 14.7414H8.60331C8.39066 14.7414 8.18672 14.657 8.03635 14.5066C7.88599 14.3562 7.80151 14.1523 7.80151 13.9396V12.1677C7.80207 11.9905 7.86127 11.8185 7.96989 11.6786L13.6787 4.46241C13.7542 4.36685 13.8505 4.28975 13.9602 4.23696C14.07 4.18417 14.1903 4.15707 14.3121 4.15773H21.6245C21.8371 4.15773 22.0411 4.2422 22.1914 4.39257C22.3418 4.54293 22.4263 4.74687 22.4263 4.95952V14.0198C22.4063 14.2183 22.3131 14.4022 22.1649 14.5356C22.0166 14.669 21.8239 14.7424 21.6245 14.7414ZM9.40511 13.1378H20.8227V5.68114H14.697L9.40511 12.4082V13.1378Z" fill="#2C00AB"/>
<path d="M59.8025 14.742H43.6899C43.4773 14.742 43.2733 14.6575 43.123 14.5072C42.9726 14.3568 42.8881 14.1529 42.8881 13.9402V4.87992C42.8881 4.66727 42.9726 4.46333 43.123 4.31297C43.2733 4.1626 43.4773 4.07812 43.6899 4.07812H49.3827C49.5266 4.07817 49.6678 4.11694 49.7916 4.19038L60.2114 11.5028C60.3311 11.5737 60.4303 11.6746 60.4991 11.7955C60.568 11.9164 60.6043 12.0532 60.6043 12.1923V13.9402C60.6043 14.1529 60.5198 14.3568 60.3694 14.5072C60.2191 14.6575 60.0151 14.742 59.8025 14.742ZM44.4917 13.1384H59.0007V12.6493L49.1662 5.68172H44.4917V13.1384ZM40.2983 14.742H24.4468C24.2342 14.742 24.0302 14.6575 23.8799 14.5072C23.7295 14.3568 23.645 14.1529 23.645 13.9402V4.87992C23.645 4.66727 23.7295 4.46333 23.8799 4.31297C24.0302 4.1626 24.2342 4.07812 24.4468 4.07812H40.2983C40.511 4.07812 40.7149 4.1626 40.8653 4.31297C41.0156 4.46333 41.1001 4.66727 41.1001 4.87992V13.9402C41.1001 14.1529 41.0156 14.3568 40.8653 14.5072C40.7149 14.6575 40.511 14.742 40.2983 14.742ZM25.2486 13.1384H39.4965V5.68172H25.2486V13.1384Z" fill="#2C00AB"/>
<path d="M47.0895 17.8526H43.6899C43.4773 17.8526 43.2733 17.7681 43.123 17.6178C42.9726 17.4674 42.8881 17.2635 42.8881 17.0508C42.8881 16.8382 42.9726 16.6342 43.123 16.4839C43.2733 16.3335 43.4773 16.249 43.6899 16.249H47.0895C47.3022 16.249 47.5061 16.3335 47.6565 16.4839C47.8069 16.6342 47.8913 16.8382 47.8913 17.0508C47.8913 17.2635 47.8069 17.4674 47.6565 17.6178C47.5061 17.7681 47.3022 17.8526 47.0895 17.8526ZM40.2983 17.8526H36.8987C36.6861 17.8526 36.4821 17.7681 36.3318 17.6178C36.1814 17.4674 36.0969 17.2635 36.0969 17.0508C36.0969 16.8382 36.1814 16.6342 36.3318 16.4839C36.4821 16.3335 36.6861 16.249 36.8987 16.249H40.2983C40.511 16.249 40.7149 16.3335 40.8653 16.4839C41.0157 16.6342 41.1001 16.8382 41.1001 17.0508C41.1001 17.2635 41.0157 17.4674 40.8653 17.6178C40.7149 17.7681 40.511 17.8526 40.2983 17.8526Z" fill="#2C00AB"/>
<path d="M83.1784 33.6275H81.8394V32.0239H82.9619L86.5139 29.9873L87.1634 26.732H86.8507C86.6933 26.7319 86.5394 26.6855 86.4082 26.5985C86.2771 26.5115 86.1744 26.3879 86.113 26.2429L84.3067 19.564L68.0588 13.9158C67.9864 13.8975 67.9164 13.8706 67.8503 13.8356C56.7775 7.35712 51.5235 2.6849 50.2406 1.96328C45.029 1.54635 18.3612 1.47418 13.5505 1.93922C12.8689 2.74102 10.6159 5.23461 6.3343 10.0534L4.06521 21.9854C4.01387 22.1852 3.88752 22.3575 3.71242 22.4665L2.87054 22.9877L3.97702 28.3196L11.4979 30.3321L11.0809 31.8796L3.06297 29.7388C2.91983 29.7005 2.79011 29.6232 2.68821 29.5157C2.5863 29.4081 2.5162 29.2744 2.48567 29.1294L1.18677 22.7792C1.15137 22.6213 1.1646 22.4563 1.22471 22.3061C1.28481 22.1558 1.38898 22.0272 1.52352 21.9373L2.56585 21.2798L4.73872 9.46007C4.77201 9.33454 4.8353 9.21898 4.92313 9.12332C8.32275 5.3228 12.2596 0.928962 12.5001 0.640315C12.6318 0.493616 12.8103 0.397246 13.0052 0.367705C17.1425 -0.169499 45.4218 -0.0732831 50.5133 0.367705C50.6224 0.375456 50.7288 0.405472 50.826 0.455903C51.732 0.944998 56.8497 5.51299 68.5399 12.3764L85.1085 18.1127C85.2292 18.1427 85.3413 18.2002 85.436 18.281C85.5306 18.3617 85.6051 18.4633 85.6537 18.5778L87.3718 25.1284H88.1175C88.2377 25.126 88.357 25.1507 88.4664 25.2006C88.5759 25.2505 88.6727 25.3244 88.7497 25.4168C88.8267 25.5092 88.8819 25.6177 88.9113 25.7344C88.9406 25.851 88.9434 25.9728 88.9193 26.0906L88.0052 30.6608C87.982 30.7733 87.935 30.8794 87.8672 30.9721C87.7994 31.0648 87.7125 31.1419 87.6124 31.198L83.6034 33.5152C83.4749 33.5915 83.3278 33.6304 83.1784 33.6275Z" fill="#2C00AB"/>
<path d="M69.0267 32.0239H24.1582V33.6275H69.0267V32.0239Z" fill="#2C00AB"/>
<path d="M2.94264 29.1134H0.721661C0.530276 29.1134 0.346731 29.0374 0.211401 28.902C0.076072 28.7667 4.45486e-05 28.5832 4.45486e-05 28.3918V26.1227C-0.00101592 26.0273 0.0168665 25.9326 0.0526561 25.8441C0.0884456 25.7556 0.141431 25.6751 0.208545 25.6072C0.27566 25.5394 0.355568 25.4855 0.443646 25.4488C0.531723 25.412 0.626219 25.3931 0.721661 25.3931H2.42949V26.8363H1.40319V27.6381H2.94264V29.1134Z" fill="#2C00AB"/>
<path d="M75.3848 39.4006C73.8787 39.399 72.4068 38.951 71.1552 38.113C69.9036 37.2751 68.9286 36.0849 68.3533 34.6929C67.778 33.301 67.6283 31.7697 67.9231 30.2926C68.2179 28.8156 68.944 27.4591 70.0096 26.3947C71.0752 25.3302 72.4324 24.6055 73.9098 24.3123C75.3871 24.019 76.9183 24.1703 78.3096 24.7471C79.701 25.3238 80.8901 26.3001 81.7268 27.5526C82.5634 28.805 83.0099 30.2774 83.0099 31.7836C83.0078 33.8045 82.2035 35.7419 80.7737 37.1701C79.344 38.5984 77.4057 39.4006 75.3848 39.4006ZM75.3848 25.7701C74.1958 25.7717 73.034 26.1257 72.0461 26.7874C71.0583 27.4492 70.2887 28.3889 69.8348 29.4879C69.3809 30.5868 69.263 31.7957 69.4959 32.9616C69.7288 34.1276 70.3022 35.1984 71.1435 36.0386C71.9848 36.8788 73.0563 37.4507 74.2226 37.6821C75.3889 37.9135 76.5976 37.7939 77.696 37.3385C78.7943 36.8831 79.733 36.1124 80.3934 35.1236C81.0538 34.1349 81.4063 32.9726 81.4063 31.7836C81.4042 30.188 80.7689 28.6584 79.6398 27.5309C78.5108 26.4034 76.9804 25.7701 75.3848 25.7701ZM17.6555 39.4006C16.1483 39.399 14.6755 38.9503 13.4234 38.1113C12.1713 37.2723 11.1963 36.0807 10.6217 34.6874C10.0471 33.294 9.89886 31.7615 10.1956 30.2838C10.4924 28.8061 11.2209 27.4497 12.2889 26.3862C13.3569 25.3227 14.7163 24.5999 16.1953 24.3094C17.6742 24.0188 19.2061 24.1736 20.597 24.754C21.988 25.3345 23.1754 26.3145 24.0092 27.5701C24.8429 28.8257 25.2854 30.3004 25.2806 31.8076C25.2721 33.8244 24.465 35.7556 23.036 37.1786C21.6069 38.6017 19.6723 39.4006 17.6555 39.4006ZM17.6555 25.7701C16.4675 25.7717 15.3066 26.1251 14.3193 26.7858C13.332 27.4465 12.5625 28.3848 12.1078 29.4823C11.6532 30.5799 11.5339 31.7875 11.7649 32.9528C11.9959 34.1181 12.5669 35.1889 13.4058 36.0301C14.2447 36.8712 15.3139 37.445 16.4786 37.6791C17.6433 37.9132 18.8513 37.7971 19.95 37.3454C21.0488 36.8937 21.9891 36.1267 22.6524 35.1411C23.3157 34.1555 23.6723 32.9956 23.677 31.8076C23.6791 31.0155 23.5249 30.2308 23.2233 29.4984C22.9216 28.766 22.4784 28.1003 21.919 27.5394C21.3597 26.9786 20.6952 26.5336 19.9636 26.23C19.2319 25.9264 18.4476 25.7701 17.6555 25.7701ZM75.3848 37.1315C74.3261 37.1315 73.2912 36.8173 72.4112 36.2286C71.5312 35.6398 70.8457 34.8032 70.4417 33.8246C70.0376 32.8459 69.9331 31.7694 70.1414 30.7313C70.3498 29.6933 70.8615 28.7404 71.6118 27.9935C72.3622 27.2465 73.3173 26.7391 74.3563 26.5354C75.3953 26.3318 76.4714 26.4411 77.4481 26.8496C78.4249 27.2581 79.2585 27.9473 79.8432 28.8299C80.428 29.7125 80.7376 30.7489 80.7328 31.8076C80.7264 33.2218 80.1602 34.5759 79.1579 35.5737C78.1557 36.5714 76.799 37.1316 75.3848 37.1315ZM75.3848 28.0392C74.6453 28.0392 73.9223 28.2582 73.3071 28.6686C72.6919 29.079 72.2119 29.6624 71.9278 30.3452C71.6437 31.0279 71.5682 31.7796 71.7107 32.5053C71.8533 33.2309 72.2075 33.8982 72.7288 34.4228C73.25 34.9474 73.915 35.3059 74.6397 35.453C75.3644 35.6002 76.1166 35.5295 76.8012 35.2498C77.4858 34.9701 78.0722 34.4939 78.4865 33.8813C78.9008 33.2687 79.1245 32.5471 79.1292 31.8076C79.1324 31.3139 79.0379 30.8244 78.8511 30.3673C78.6644 29.9102 78.3891 29.4946 78.0411 29.1444C77.693 28.7941 77.2792 28.5162 76.8233 28.3265C76.3675 28.1368 75.8786 28.0392 75.3848 28.0392ZM17.6555 37.1315C16.5968 37.1315 15.5618 36.8173 14.6819 36.2286C13.8019 35.6398 13.1164 34.8032 12.7124 33.8246C12.3083 32.8459 12.2038 31.7694 12.4121 30.7313C12.6204 29.6933 13.1322 28.7404 13.8825 27.9935C14.6329 27.2465 15.588 26.7391 16.627 26.5354C17.666 26.3318 18.742 26.4411 19.7188 26.8496C20.6956 27.2581 21.5292 27.9473 22.1139 28.8299C22.6987 29.7125 23.0083 30.7489 23.0035 31.8076C22.9971 33.2218 22.4309 34.5759 21.4286 35.5737C20.4264 36.5714 19.0697 37.1316 17.6555 37.1315ZM17.6555 28.0392C16.916 28.0392 16.193 28.2582 15.5778 28.6686C14.9625 29.079 14.4826 29.6624 14.1985 30.3452C13.9144 31.0279 13.8389 31.7796 13.9814 32.5053C14.124 33.2309 14.4782 33.8982 14.9995 34.4228C15.5207 34.9474 16.1856 35.3059 16.9104 35.453C17.6351 35.6002 18.3872 35.5295 19.0718 35.2498C19.7564 34.9701 20.3429 34.4939 20.7572 33.8813C21.1715 33.2687 21.3952 32.5471 21.3999 31.8076C21.4031 31.3139 21.3086 30.8244 21.1218 30.3673C20.9351 29.9102 20.6598 29.4946 20.3117 29.1444C19.9637 28.7941 19.5499 28.5162 19.094 28.3265C18.6381 28.1368 18.1493 28.0392 17.6555 28.0392Z" fill="#2C00AB"/>
</svg>
