<svg width="48" height="17" viewBox="0 0 48 17" fill="none" xmlns="http://www.w3.org/2000/svg">
<g clip-path="url(#clip0_10911_17317)">
<rect width="48" height="17" fill="#F6F6F6"/>
<path d="M17.032 13.0428L13.7128 9.72357C13.0191 9.02994 13.0782 9.05448 12.0958 9.05448H5.87098C4.88797 9.05448 4.94708 9.0305 4.254 9.72357L0.934738 13.0428C1.68729 14.561 2.85384 15.8354 4.29973 16.719L8.12304 12.8956C8.47097 12.5477 8.62486 12.4128 8.81388 12.3548C8.86769 12.3358 8.92412 12.3252 8.98116 12.3236C9.03821 12.3251 9.09467 12.3356 9.14843 12.3548C9.33745 12.4105 9.49134 12.5477 9.83927 12.8956L13.6626 16.719C15.1102 15.8362 16.2784 14.5617 17.032 13.0428Z" fill="#2C00AB"/>
<path d="M4.73412 8.7283C4.98503 8.45787 4.94991 8.22648 5.19524 7.59195C5.4907 6.8273 6.01066 6.16997 6.68675 5.7064C7.36284 5.24283 8.1634 4.99473 8.98315 4.99473C9.8029 4.99473 10.6035 5.24283 11.2796 5.7064C11.9556 6.16997 12.4756 6.8273 12.7711 7.59195C13.0164 8.22871 12.9813 8.45787 13.2316 8.7283C13.482 8.99872 13.7334 9.05392 14.5297 9.05392H17.966C17.9754 7.86832 17.7499 6.6926 17.3027 5.59455C16.8554 4.4965 16.1952 3.49785 15.3602 2.65618C14.5251 1.81451 13.5317 1.14647 12.4372 0.690589C11.3427 0.234707 10.1688 0 8.98315 0C7.79751 0 6.6236 0.234707 5.52911 0.690589C4.43462 1.14647 3.4412 1.81451 2.60613 2.65618C1.77107 3.49785 1.11088 4.4965 0.663634 5.59455C0.21639 6.6926 -0.00906207 7.86832 0.000278813 9.05392H3.43496C4.23397 9.05392 4.49046 8.99148 4.73412 8.7283ZM43.0164 4.12604C40.2686 4.12604 38.0333 6.33461 38.0333 9.04946C38.0333 11.7643 40.2686 13.9729 43.0164 13.9729C45.7641 13.9729 48 11.7643 48 9.04946C48 6.33461 45.7647 4.12604 43.0164 4.12604ZM43.0275 11.6288C42.5173 11.6289 42.0185 11.4777 41.5943 11.1944C41.17 10.911 40.8393 10.5081 40.644 10.0368C40.4488 9.56546 40.3976 9.04679 40.4971 8.54639C40.5966 8.04599 40.8423 7.58635 41.2031 7.22558C41.5638 6.86482 42.0235 6.61915 42.5239 6.51964C43.0243 6.42013 43.543 6.47126 44.0143 6.66655C44.4856 6.86185 44.8885 7.19254 45.1718 7.6168C45.4552 8.04105 45.6064 8.53982 45.6063 9.05002C45.6054 9.73369 45.3335 10.3891 44.85 10.8725C44.3666 11.356 43.7112 11.6279 43.0275 11.6288ZM34.2813 5.15756V13.6991H36.6137V4.36747H35.0714C34.9577 4.3612 34.8438 4.37248 34.7335 4.40093C34.635 4.43132 34.5453 4.48537 34.4724 4.55836C34.3995 4.63134 34.3456 4.72106 34.3153 4.81967C34.2867 4.92987 34.2752 5.04385 34.2813 5.15756ZM22.8872 4.36747V13.6991H24.4356C24.5493 13.7054 24.6633 13.6941 24.7735 13.6657C24.8722 13.6354 24.962 13.5814 25.035 13.5084C25.108 13.4354 25.162 13.3456 25.1922 13.2469C25.2205 13.1368 25.2317 13.0231 25.2257 12.9096V7.96664L29.8447 13.2335C29.9885 13.3975 30.1084 13.5246 30.2958 13.6099C30.4831 13.6952 30.6576 13.7008 30.8762 13.7008H32.5774V4.36747H31.029C30.9153 4.3612 30.8013 4.37248 30.6911 4.40093C30.5924 4.43106 30.5026 4.48502 30.4297 4.55804C30.3567 4.63107 30.3029 4.72092 30.2729 4.81967C30.2442 4.92987 30.2327 5.04385 30.2389 5.15756V10.1016L25.6205 4.83361C25.4761 4.66912 25.3562 4.542 25.1688 4.45724C24.9815 4.37249 24.807 4.3658 24.5884 4.3658L22.8872 4.36747Z" fill="#2C00AB"/>
</g>
<defs>
<clipPath id="clip0_10911_17317">
<rect width="48" height="17" fill="white"/>
</clipPath>
</defs>
</svg>
