<svg width="42" height="30" viewBox="0 0 42 30" fill="none" xmlns="http://www.w3.org/2000/svg">
<g clip-path="url(#clip0)">
<path fill-rule="evenodd" clip-rule="evenodd" d="M1.33414 9.21729C0.980327 9.21729 0.697322 9.34667 0.485123 9.56833C0.184582 9.88228 0.0429688 10.1965 0.0429688 10.5477V19.5266C0.0429688 19.8776 0.184582 20.1913 0.396781 20.4132C0.697322 20.7272 0.980327 20.8566 1.33414 20.8566H40.3669C40.6677 20.8566 40.9154 20.7269 41.2162 20.4132C41.4281 20.2836 41.57 19.9699 41.57 19.5266V10.5477C41.57 10.1413 41.4281 9.79023 41.2162 9.56833C41.0037 9.34667 40.7032 9.21729 40.3669 9.21729H1.33414ZM10.1772 11.7115H11.9634V18.3624H10.1772V11.7115ZM2.3423 11.7115H5.24272L7.18825 16.7736V11.7115H8.97462V18.3624H6.16254L4.12868 13.1342V18.3624H2.3423V11.7115ZM14.6871 11.7115H18.348V13.208H14.7757V14.2794H16.6326C18.1713 14.2794 18.9317 14.9446 18.9317 16.3303C18.9317 16.9032 18.7726 17.3832 18.4188 17.8265C17.9944 18.1961 17.5698 18.3624 17.1454 18.3624H13.0601V16.8661H17.057V15.7947H15.1115C14.3863 15.7947 13.8381 15.6099 13.4843 15.2588C13.1482 14.9075 12.9891 14.3351 12.9891 13.5775C12.9891 12.8571 13.1129 12.3767 13.3959 12.1548C13.6967 11.8409 14.1211 11.7115 14.6871 11.7115ZM24.8034 11.7115V13.208H21.2311V14.2794H23.0878C24.6265 14.2794 25.3872 14.9446 25.3872 16.3303C25.3872 16.9032 25.1925 17.4388 24.8032 17.8265C24.4671 18.1961 24.0432 18.3624 23.53 18.3624H19.6216V16.8661H23.5302V15.7947H21.5671C20.7712 15.7947 20.1699 15.5728 19.7808 15.0743C19.48 14.6861 19.3561 14.1871 19.3561 13.5775C19.3561 12.9126 19.5331 12.4136 19.8691 12.1548C20.1696 11.8409 20.5943 11.7115 21.1427 11.7115H24.8034ZM27.4388 11.7115H30.0737L32.3731 18.3624H30.4986L30.1625 17.1247H27.4388L27.1027 18.3624H25.2282L27.4388 11.7115ZM32.7091 11.7115H35.6983L37.5551 16.7736V11.7115H39.43V18.3624H36.6355L34.495 13.1342V18.3624H32.7089V11.7115H32.7091Z" fill="#2C00AB"/>
<path fill-rule="evenodd" clip-rule="evenodd" d="M27.9512 15.7022H29.649L28.8002 13.208L27.9512 15.7022Z" fill="#2C00AB"/>
<path fill-rule="evenodd" clip-rule="evenodd" d="M13.307 2.38166C10.9726 3.93355 9.27456 5.94732 8.125 8.33068H33.5575C32.3372 5.79962 30.6216 3.74875 28.3755 2.28938C26.0766 0.811227 23.5651 0.0722656 20.8944 0.0722656C18.2062 0.0724975 15.6592 0.811459 13.307 2.38166ZM8.125 21.7435C9.27456 24.1454 10.9726 26.1404 13.307 27.6923C15.5708 29.1705 18.0824 29.9277 20.8944 29.9277C23.7065 29.9277 26.2001 29.1705 28.4641 27.6923C30.7987 26.1036 32.4963 24.1083 33.5575 21.7435H8.125Z" fill="#2C00AB"/>
</g>
<defs>
<clipPath id="clip0">
<rect width="41.6129" height="30" fill="white"/>
</clipPath>
</defs>
</svg>
