<svg width="150" height="114" viewBox="0 0 150 114" fill="none" xmlns="http://www.w3.org/2000/svg">
<rect width="150" height="114" fill="white"/>
<path d="M65.3158 8C64.6859 8.00792 64.1427 8.44511 63.9288 8.78559L58.7335 17.7295H47.5617C42.6715 17.7295 38.6843 21.7355 38.6843 26.6486V59.0809C38.6843 63.994 42.6715 68 47.5617 68H102.438C107.329 68 111.316 63.994 111.316 59.0809V26.6486C111.316 21.7355 107.329 17.7295 102.438 17.7295H91.2667L86.0714 8.78559C85.7849 8.30767 85.2394 7.99887 84.6844 8H65.3158ZM66.2238 11.2429H83.7763L87.5338 17.7295H62.4661L66.2238 11.2429ZM47.5617 20.9725H102.438C105.596 20.9725 108.087 23.4757 108.087 26.6479V59.0802C108.087 62.2524 105.596 64.7557 102.438 64.7557H47.5617C44.4043 64.7557 41.9128 62.2524 41.9128 59.0802V26.6479C41.9128 23.4757 44.4043 20.9725 47.5617 20.9725ZM75.0001 24.2154C64.7683 24.2154 56.4388 32.5836 56.4388 42.8639C56.4388 53.1438 64.7679 61.5124 75.0001 61.5124C85.2323 61.5124 93.5613 53.1442 93.5613 42.8639C93.5613 32.5841 85.2323 24.2154 75.0001 24.2154ZM98.4034 25.8369C96.1939 25.8369 94.3684 27.671 94.3684 29.8909C94.3684 32.1107 96.1939 33.9449 98.4034 33.9449C100.613 33.9449 102.438 32.1107 102.438 29.8909C102.438 27.671 100.613 25.8369 98.4034 25.8369ZM75.0001 27.4583C83.4874 27.4583 90.3333 34.3363 90.3333 42.8636C90.3333 51.391 83.4875 58.2689 75.0001 58.2689C66.5126 58.2689 59.6669 51.391 59.6669 42.8636C59.6669 34.3363 66.5126 27.4583 75.0001 27.4583ZM98.4034 29.0798C98.8684 29.0798 99.2106 29.4237 99.2106 29.8908C99.2106 30.358 98.8684 30.7019 98.4034 30.7019C97.9384 30.7019 97.5962 30.358 97.5962 29.8908C97.5962 29.4237 97.9384 29.0798 98.4034 29.0798ZM75.0001 32.3227C69.2251 32.3227 64.5088 37.0611 64.5088 42.8633C64.5088 48.6655 69.2251 53.4039 75.0001 53.4039C80.7751 53.4039 85.4914 48.6655 85.4914 42.8633C85.4914 37.0611 80.7751 32.3227 75.0001 32.3227ZM75.0001 35.5656C79.0307 35.5656 82.2629 38.8138 82.2629 42.8626C82.2629 46.9121 79.03 50.1596 75.0001 50.1596C70.9695 50.1596 67.7373 46.9114 67.7373 42.8626C67.7373 38.8131 70.9702 35.5656 75.0001 35.5656Z" fill="#6D6D6D"/>
<path d="M86.0527 42.7368C86.0527 48.841 81.1043 53.7895 75.0001 53.7895C68.8959 53.7895 63.9475 48.841 63.9475 42.7368C63.9475 36.6326 68.8959 31.6842 75.0001 31.6842C81.1043 31.6842 86.0527 36.6326 86.0527 42.7368Z" fill="white"/>
<path d="M106.579 29.3158C106.579 33.2399 103.398 36.4211 99.4738 36.4211C95.5497 36.4211 92.3685 33.2399 92.3685 29.3158C92.3685 25.3917 95.5497 22.2105 99.4738 22.2105C103.398 22.2105 106.579 25.3917 106.579 29.3158Z" fill="white"/>
<path d="M104.211 30.1053C104.211 32.7213 102.09 34.8421 99.4738 34.8421C96.8577 34.8421 94.737 32.7213 94.737 30.1053C94.737 27.4892 96.8577 25.3684 99.4738 25.3684C102.09 25.3684 104.211 27.4892 104.211 30.1053Z" fill="#6D6D6D"/>
<path d="M101.842 30.1053C101.842 31.4133 100.782 32.4737 99.4738 32.4737C98.1658 32.4737 97.1054 31.4133 97.1054 30.1053C97.1054 28.7972 98.1658 27.7368 99.4738 27.7368C100.782 27.7368 101.842 28.7972 101.842 30.1053Z" fill="white"/>
<path d="M33.6594 81.9252V86.0202C33.146 86.3982 32.5977 86.6758 32.0144 86.8532C31.4357 87.0258 30.815 87.1122 30.1524 87.1122C29.3264 87.1122 28.5774 86.9838 27.9054 86.7272C27.238 86.4705 26.6664 86.1135 26.1904 85.6562C25.719 85.1988 25.355 84.6528 25.0984 84.0182C24.8417 83.3835 24.7134 82.6905 24.7134 81.9392C24.7134 81.1785 24.837 80.4808 25.0844 79.8462C25.3317 79.2115 25.6817 78.6655 26.1344 78.2082C26.5917 77.7508 27.1447 77.3962 27.7934 77.1442C28.442 76.8922 29.17 76.7662 29.9774 76.7662C30.388 76.7662 30.7707 76.7988 31.1254 76.8642C31.4847 76.9295 31.816 77.0205 32.1194 77.1372C32.4274 77.2492 32.7074 77.3868 32.9594 77.5502C33.2114 77.7135 33.4424 77.8932 33.6524 78.0892L33.1134 78.9432C33.0294 79.0785 32.9197 79.1625 32.7844 79.1952C32.649 79.2232 32.502 79.1882 32.3434 79.0902C32.1894 79.0015 32.0354 78.9128 31.8814 78.8242C31.7274 78.7355 31.5547 78.6585 31.3634 78.5932C31.1767 78.5278 30.9644 78.4742 30.7264 78.4322C30.493 78.3902 30.2224 78.3692 29.9144 78.3692C29.415 78.3692 28.9624 78.4532 28.5564 78.6212C28.155 78.7892 27.812 79.0295 27.5274 79.3422C27.2427 79.6548 27.0234 80.0305 26.8694 80.4692C26.7154 80.9078 26.6384 81.3978 26.6384 81.9392C26.6384 82.5178 26.72 83.0358 26.8834 83.4932C27.0514 83.9458 27.2847 84.3308 27.5834 84.6482C27.8867 84.9608 28.2507 85.2012 28.6754 85.3692C29.1 85.5325 29.5737 85.6142 30.0964 85.6142C30.4697 85.6142 30.8034 85.5745 31.0974 85.4952C31.3914 85.4158 31.6784 85.3085 31.9584 85.1732V83.3392H30.6844C30.563 83.3392 30.4674 83.3065 30.3974 83.2412C30.332 83.1712 30.2994 83.0872 30.2994 82.9892V81.9252H33.6594Z" fill="#6D6D6D"/>
<path d="M39.7456 82.5832C39.7456 82.3592 39.7129 82.1492 39.6476 81.9532C39.5869 81.7525 39.4936 81.5775 39.3676 81.4282C39.2416 81.2788 39.0806 81.1622 38.8846 81.0782C38.6932 80.9895 38.4692 80.9452 38.2126 80.9452C37.7132 80.9452 37.3189 81.0875 37.0296 81.3722C36.7449 81.6568 36.5629 82.0605 36.4836 82.5832H39.7456ZM36.4486 83.6262C36.4766 83.9948 36.5419 84.3145 36.6446 84.5852C36.7472 84.8512 36.8826 85.0728 37.0506 85.2502C37.2186 85.4228 37.4169 85.5535 37.6456 85.6422C37.8789 85.7262 38.1356 85.7682 38.4156 85.7682C38.6956 85.7682 38.9359 85.7355 39.1366 85.6702C39.3419 85.6048 39.5192 85.5325 39.6686 85.4532C39.8226 85.3738 39.9556 85.3015 40.0676 85.2362C40.1842 85.1708 40.2962 85.1382 40.4036 85.1382C40.5482 85.1382 40.6555 85.1918 40.7255 85.2992L41.2226 85.9292C41.0312 86.1532 40.8166 86.3422 40.5786 86.4962C40.3406 86.6455 40.0909 86.7668 39.8295 86.8602C39.5729 86.9488 39.3092 87.0118 39.0386 87.0492C38.7726 87.0865 38.5136 87.1052 38.2616 87.1052C37.7622 87.1052 37.2979 87.0235 36.8686 86.8602C36.4392 86.6922 36.0659 86.4472 35.7486 86.1252C35.4312 85.7985 35.1816 85.3972 34.9996 84.9212C34.8176 84.4405 34.7266 83.8852 34.7266 83.2552C34.7266 82.7652 34.8059 82.3055 34.9646 81.8762C35.1232 81.4422 35.3496 81.0665 35.6436 80.7492C35.9422 80.4272 36.3039 80.1728 36.7286 79.9862C37.1579 79.7995 37.6409 79.7062 38.1776 79.7062C38.6302 79.7062 39.0479 79.7785 39.4306 79.9232C39.8132 80.0678 40.1422 80.2802 40.4176 80.5602C40.6929 80.8355 40.9076 81.1762 41.0616 81.5822C41.2202 81.9835 41.2996 82.4432 41.2996 82.9612C41.2996 83.2225 41.2716 83.3998 41.2156 83.4932C41.1596 83.5818 41.0522 83.6262 40.8936 83.6262H36.4486Z" fill="#6D6D6D"/>
<path d="M47.2241 82.5832C47.2241 82.3592 47.1914 82.1492 47.1261 81.9532C47.0654 81.7525 46.9721 81.5775 46.8461 81.4282C46.7201 81.2788 46.5591 81.1622 46.3631 81.0782C46.1717 80.9895 45.9477 80.9452 45.6911 80.9452C45.1917 80.9452 44.7974 81.0875 44.5081 81.3722C44.2234 81.6568 44.0414 82.0605 43.9621 82.5832H47.2241ZM43.9271 83.6262C43.9551 83.9948 44.0204 84.3145 44.1231 84.5852C44.2257 84.8512 44.3611 85.0728 44.5291 85.2502C44.6971 85.4228 44.8954 85.5535 45.1241 85.6422C45.3574 85.7262 45.6141 85.7682 45.8941 85.7682C46.1741 85.7682 46.4144 85.7355 46.6151 85.6702C46.8204 85.6048 46.9977 85.5325 47.1471 85.4532C47.3011 85.3738 47.4341 85.3015 47.5461 85.2362C47.6627 85.1708 47.7747 85.1382 47.8821 85.1382C48.0267 85.1382 48.1341 85.1918 48.2041 85.2992L48.7011 85.9292C48.5097 86.1532 48.2951 86.3422 48.0571 86.4962C47.8191 86.6455 47.5694 86.7668 47.3081 86.8602C47.0514 86.9488 46.7877 87.0118 46.5171 87.0492C46.2511 87.0865 45.9921 87.1052 45.7401 87.1052C45.2407 87.1052 44.7764 87.0235 44.3471 86.8602C43.9177 86.6922 43.5444 86.4472 43.2271 86.1252C42.9097 85.7985 42.6601 85.3972 42.4781 84.9212C42.2961 84.4405 42.2051 83.8852 42.2051 83.2552C42.2051 82.7652 42.2844 82.3055 42.4431 81.8762C42.6017 81.4422 42.8281 81.0665 43.1221 80.7492C43.4207 80.4272 43.7824 80.1728 44.2071 79.9862C44.6364 79.7995 45.1194 79.7062 45.6561 79.7062C46.1087 79.7062 46.5264 79.7785 46.9091 79.9232C47.2917 80.0678 47.6207 80.2802 47.8961 80.5602C48.1714 80.8355 48.3861 81.1762 48.5401 81.5822C48.6987 81.9835 48.7781 82.4432 48.7781 82.9612C48.7781 83.2225 48.7501 83.3998 48.6941 83.4932C48.6381 83.5818 48.5307 83.6262 48.3721 83.6262H43.9271Z" fill="#6D6D6D"/>
<path d="M51.6926 80.7002C51.8372 80.5555 51.9889 80.4225 52.1476 80.3012C52.3109 80.1752 52.4812 80.0702 52.6586 79.9862C52.8406 79.8975 53.0343 79.8298 53.2396 79.7832C53.4449 79.7318 53.6689 79.7062 53.9116 79.7062C54.3036 79.7062 54.6513 79.7738 54.9546 79.9092C55.2579 80.0398 55.5099 80.2265 55.7106 80.4692C55.9159 80.7072 56.0699 80.9942 56.1726 81.3302C56.2799 81.6615 56.3336 82.0278 56.3336 82.4292V87.0002H54.6046V82.4292C54.6046 81.9905 54.5043 81.6522 54.3036 81.4142C54.1029 81.1715 53.7973 81.0502 53.3866 81.0502C53.0879 81.0502 52.8079 81.1178 52.5466 81.2532C52.2852 81.3885 52.0379 81.5728 51.8046 81.8062V87.0002H50.0756V79.8182H51.1326C51.3566 79.8182 51.5036 79.9232 51.5736 80.1332L51.6926 80.7002Z" fill="#6D6D6D"/>
<path d="M65.1762 83.9342C64.6769 83.9575 64.2569 84.0018 63.9162 84.0672C63.5756 84.1278 63.3026 84.2072 63.0972 84.3052C62.8919 84.4032 62.7449 84.5175 62.6562 84.6482C62.5676 84.7788 62.5232 84.9212 62.5232 85.0752C62.5232 85.3785 62.6119 85.5955 62.7892 85.7262C62.9712 85.8568 63.2069 85.9222 63.4962 85.9222C63.8509 85.9222 64.1566 85.8592 64.4132 85.7332C64.6746 85.6025 64.9289 85.4065 65.1762 85.1452V83.9342ZM61.2142 80.8192C62.0402 80.0632 63.0342 79.6852 64.1962 79.6852C64.6162 79.6852 64.9919 79.7552 65.3232 79.8952C65.6546 80.0305 65.9346 80.2218 66.1632 80.4692C66.3919 80.7118 66.5646 81.0035 66.6812 81.3442C66.8026 81.6848 66.8632 82.0582 66.8632 82.4642V87.0002H66.0792C65.9159 87.0002 65.7899 86.9768 65.7012 86.9302C65.6126 86.8788 65.5426 86.7785 65.4912 86.6292L65.3372 86.1112C65.1552 86.2745 64.9779 86.4192 64.8052 86.5452C64.6326 86.6665 64.4529 86.7692 64.2662 86.8532C64.0796 86.9372 63.8789 87.0002 63.6642 87.0422C63.4542 87.0888 63.2209 87.1122 62.9642 87.1122C62.6609 87.1122 62.3809 87.0725 62.1242 86.9932C61.8676 86.9092 61.6459 86.7855 61.4592 86.6222C61.2726 86.4588 61.1279 86.2558 61.0252 86.0132C60.9226 85.7705 60.8712 85.4882 60.8712 85.1662C60.8712 84.9842 60.9016 84.8045 60.9622 84.6272C61.0229 84.4452 61.1209 84.2725 61.2562 84.1092C61.3962 83.9458 61.5759 83.7918 61.7952 83.6472C62.0146 83.5025 62.2829 83.3765 62.6002 83.2692C62.9222 83.1618 63.2956 83.0755 63.7202 83.0102C64.1449 82.9402 64.6302 82.8982 65.1762 82.8842V82.4642C65.1762 81.9835 65.0736 81.6288 64.8682 81.4002C64.6629 81.1668 64.3666 81.0502 63.9792 81.0502C63.6992 81.0502 63.4659 81.0828 63.2792 81.1482C63.0972 81.2135 62.9362 81.2882 62.7962 81.3722C62.6562 81.4515 62.5279 81.5238 62.4112 81.5892C62.2992 81.6545 62.1732 81.6872 62.0332 81.6872C61.9119 81.6872 61.8092 81.6568 61.7252 81.5962C61.6412 81.5308 61.5736 81.4562 61.5222 81.3722L61.2142 80.8192Z" fill="#6D6D6D"/>
<path d="M75.2215 80.7002C75.5109 80.3968 75.8305 80.1565 76.1805 79.9792C76.5352 79.7972 76.9389 79.7062 77.3915 79.7062C77.8069 79.7062 78.1802 79.7878 78.5116 79.9512C78.8476 80.1145 79.1322 80.3502 79.3655 80.6582C79.6035 80.9615 79.7856 81.3302 79.9116 81.7642C80.0376 82.1982 80.1005 82.6858 80.1005 83.2272C80.1005 83.8105 80.0282 84.3402 79.8836 84.8162C79.7389 85.2922 79.5312 85.7005 79.2606 86.0412C78.9946 86.3772 78.6725 86.6385 78.2945 86.8252C77.9165 87.0118 77.4965 87.1052 77.0345 87.1052C76.8105 87.1052 76.6076 87.0818 76.4256 87.0352C76.2436 86.9932 76.0755 86.9325 75.9215 86.8532C75.7675 86.7738 75.6252 86.6782 75.4946 86.5662C75.3686 86.4495 75.2472 86.3212 75.1305 86.1812L75.0536 86.6642C75.0256 86.7855 74.9765 86.8718 74.9065 86.9232C74.8412 86.9745 74.7502 87.0002 74.6336 87.0002H73.4925V77.7602C73.3152 77.6995 73.1262 77.6505 72.9256 77.6132C72.7296 77.5712 72.5382 77.5502 72.3515 77.5502C72.0529 77.5502 71.7892 77.5968 71.5605 77.6902C71.3365 77.7835 71.1499 77.9142 71.0005 78.0822C70.8512 78.2455 70.7369 78.4415 70.6575 78.6702C70.5829 78.8942 70.5455 79.1392 70.5455 79.4052V79.8812H72.4146V81.1132H70.6015V87.0002H68.8726V81.1202L68.2495 81.0222C68.1142 80.9942 68.0045 80.9475 67.9205 80.8822C67.8412 80.8122 67.8016 80.7142 67.8016 80.5882V79.8812H68.8726V79.4052C68.8726 78.9758 68.9379 78.5792 69.0686 78.2152C69.2039 77.8512 69.4139 77.5385 69.6985 77.2772C69.9879 77.0112 70.3589 76.8035 70.8115 76.6542C71.2642 76.5048 71.8126 76.4302 72.4566 76.4302C72.6759 76.4302 72.8836 76.4395 73.0796 76.4582C73.2756 76.4722 73.4739 76.4908 73.6746 76.5142C73.8752 76.5328 74.0852 76.5515 74.3046 76.5702C74.5286 76.5842 74.7759 76.5935 75.0465 76.5982H75.2215V80.7002ZM75.2215 85.1382C75.4175 85.3762 75.6299 85.5442 75.8586 85.6422C76.0919 85.7402 76.3369 85.7892 76.5936 85.7892C76.8596 85.7892 77.0975 85.7425 77.3075 85.6492C77.5222 85.5512 77.7042 85.4018 77.8536 85.2012C78.0029 84.9958 78.1172 84.7368 78.1965 84.4242C78.2759 84.1068 78.3156 83.7288 78.3156 83.2902C78.3156 82.5015 78.1849 81.9322 77.9236 81.5822C77.6622 81.2275 77.2865 81.0502 76.7965 81.0502C76.4652 81.0502 76.1759 81.1272 75.9286 81.2812C75.6812 81.4305 75.4455 81.6428 75.2215 81.9182V85.1382Z" fill="#6D6D6D"/>
<path d="M86.0659 82.5832C86.0659 82.3592 86.0332 82.1492 85.9679 81.9532C85.9072 81.7525 85.8139 81.5775 85.6879 81.4282C85.5619 81.2788 85.4009 81.1622 85.2049 81.0782C85.0135 80.9895 84.7895 80.9452 84.5329 80.9452C84.0335 80.9452 83.6392 81.0875 83.3499 81.3722C83.0652 81.6568 82.8832 82.0605 82.8039 82.5832H86.0659ZM82.7689 83.6262C82.7969 83.9948 82.8622 84.3145 82.9649 84.5852C83.0675 84.8512 83.2029 85.0728 83.3709 85.2502C83.5389 85.4228 83.7372 85.5535 83.9659 85.6422C84.1992 85.7262 84.4559 85.7682 84.7359 85.7682C85.0159 85.7682 85.2562 85.7355 85.4569 85.6702C85.6622 85.6048 85.8395 85.5325 85.9889 85.4532C86.1429 85.3738 86.2759 85.3015 86.3879 85.2362C86.5045 85.1708 86.6165 85.1382 86.7239 85.1382C86.8685 85.1382 86.9759 85.1918 87.0459 85.2992L87.5429 85.9292C87.3515 86.1532 87.1369 86.3422 86.8989 86.4962C86.6609 86.6455 86.4112 86.7668 86.1499 86.8602C85.8932 86.9488 85.6295 87.0118 85.3589 87.0492C85.0929 87.0865 84.8339 87.1052 84.5819 87.1052C84.0825 87.1052 83.6182 87.0235 83.1889 86.8602C82.7595 86.6922 82.3862 86.4472 82.0689 86.1252C81.7515 85.7985 81.5019 85.3972 81.3199 84.9212C81.1379 84.4405 81.0469 83.8852 81.0469 83.2552C81.0469 82.7652 81.1262 82.3055 81.2849 81.8762C81.4435 81.4422 81.6699 81.0665 81.9639 80.7492C82.2625 80.4272 82.6242 80.1728 83.0489 79.9862C83.4782 79.7995 83.9612 79.7062 84.4979 79.7062C84.9505 79.7062 85.3682 79.7785 85.7509 79.9232C86.1335 80.0678 86.4625 80.2802 86.7379 80.5602C87.0132 80.8355 87.2279 81.1762 87.3819 81.5822C87.5405 81.9835 87.6199 82.4432 87.6199 82.9612C87.6199 83.2225 87.5919 83.3998 87.5359 83.4932C87.4799 83.5818 87.3725 83.6262 87.2139 83.6262H82.7689Z" fill="#6D6D6D"/>
<path d="M93.5444 82.5832C93.5444 82.3592 93.5117 82.1492 93.4464 81.9532C93.3857 81.7525 93.2924 81.5775 93.1664 81.4282C93.0404 81.2788 92.8794 81.1622 92.6834 81.0782C92.492 80.9895 92.268 80.9452 92.0114 80.9452C91.512 80.9452 91.1177 81.0875 90.8284 81.3722C90.5437 81.6568 90.3617 82.0605 90.2824 82.5832H93.5444ZM90.2474 83.6262C90.2754 83.9948 90.3407 84.3145 90.4434 84.5852C90.546 84.8512 90.6814 85.0728 90.8494 85.2502C91.0174 85.4228 91.2157 85.5535 91.4444 85.6422C91.6777 85.7262 91.9344 85.7682 92.2144 85.7682C92.4944 85.7682 92.7347 85.7355 92.9354 85.6702C93.1407 85.6048 93.318 85.5325 93.4674 85.4532C93.6214 85.3738 93.7544 85.3015 93.8664 85.2362C93.983 85.1708 94.095 85.1382 94.2024 85.1382C94.347 85.1382 94.4544 85.1918 94.5244 85.2992L95.0214 85.9292C94.83 86.1532 94.6154 86.3422 94.3774 86.4962C94.1394 86.6455 93.8897 86.7668 93.6284 86.8602C93.3717 86.9488 93.108 87.0118 92.8374 87.0492C92.5714 87.0865 92.3124 87.1052 92.0604 87.1052C91.561 87.1052 91.0967 87.0235 90.6674 86.8602C90.238 86.6922 89.8647 86.4472 89.5474 86.1252C89.23 85.7985 88.9804 85.3972 88.7984 84.9212C88.6164 84.4405 88.5254 83.8852 88.5254 83.2552C88.5254 82.7652 88.6047 82.3055 88.7634 81.8762C88.922 81.4422 89.1484 81.0665 89.4424 80.7492C89.741 80.4272 90.1027 80.1728 90.5274 79.9862C90.9567 79.7995 91.4397 79.7062 91.9764 79.7062C92.429 79.7062 92.8467 79.7785 93.2294 79.9232C93.612 80.0678 93.941 80.2802 94.2164 80.5602C94.4917 80.8355 94.7064 81.1762 94.8604 81.5822C95.019 81.9835 95.0984 82.4432 95.0984 82.9612C95.0984 83.2225 95.0704 83.3998 95.0144 83.4932C94.9584 83.5818 94.851 83.6262 94.6924 83.6262H90.2474Z" fill="#6D6D6D"/>
<path d="M98.1459 76.5982V87.0002H96.4169V76.5982H98.1459Z" fill="#6D6D6D"/>
<path d="M104.377 81.6522C104.181 81.4142 103.966 81.2462 103.733 81.1482C103.504 81.0502 103.257 81.0012 102.991 81.0012C102.729 81.0012 102.494 81.0502 102.284 81.1482C102.074 81.2462 101.894 81.3955 101.745 81.5962C101.595 81.7922 101.481 82.0442 101.402 82.3522C101.322 82.6555 101.283 83.0148 101.283 83.4302C101.283 83.8502 101.315 84.2072 101.381 84.5012C101.451 84.7905 101.549 85.0285 101.675 85.2152C101.801 85.3972 101.955 85.5302 102.137 85.6142C102.319 85.6935 102.522 85.7332 102.746 85.7332C103.105 85.7332 103.411 85.6585 103.663 85.5092C103.915 85.3598 104.153 85.1475 104.377 84.8722V81.6522ZM106.106 76.5982V87.0002H105.049C104.82 87.0002 104.675 86.8952 104.615 86.6852L104.468 85.9922C104.178 86.3235 103.845 86.5918 103.467 86.7972C103.093 87.0025 102.657 87.1052 102.158 87.1052C101.766 87.1052 101.406 87.0235 101.08 86.8602C100.753 86.6968 100.471 86.4612 100.233 86.1532C99.9992 85.8405 99.8172 85.4555 99.6865 84.9982C99.5605 84.5408 99.4976 84.0182 99.4976 83.4302C99.4976 82.8982 99.5699 82.4035 99.7145 81.9462C99.8592 81.4888 100.067 81.0922 100.338 80.7562C100.608 80.4202 100.933 80.1588 101.311 79.9722C101.689 79.7808 102.113 79.6852 102.585 79.6852C102.986 79.6852 103.329 79.7482 103.614 79.8742C103.898 80.0002 104.153 80.1705 104.377 80.3852V76.5982H106.106Z" fill="#6D6D6D"/>
<path d="M109.604 79.8182V87.0002H107.868V79.8182H109.604ZM109.842 77.7252C109.842 77.8745 109.812 78.0145 109.751 78.1452C109.69 78.2758 109.609 78.3902 109.506 78.4882C109.408 78.5862 109.291 78.6655 109.156 78.7262C109.021 78.7822 108.876 78.8102 108.722 78.8102C108.573 78.8102 108.43 78.7822 108.295 78.7262C108.164 78.6655 108.05 78.5862 107.952 78.4882C107.854 78.3902 107.775 78.2758 107.714 78.1452C107.658 78.0145 107.63 77.8745 107.63 77.7252C107.63 77.5712 107.658 77.4265 107.714 77.2912C107.775 77.1558 107.854 77.0392 107.952 76.9412C108.05 76.8432 108.164 76.7662 108.295 76.7102C108.43 76.6495 108.573 76.6192 108.722 76.6192C108.876 76.6192 109.021 76.6495 109.156 76.7102C109.291 76.7662 109.408 76.8432 109.506 76.9412C109.609 77.0392 109.69 77.1558 109.751 77.2912C109.812 77.4265 109.842 77.5712 109.842 77.7252Z" fill="#6D6D6D"/>
<path d="M112.984 80.7002C113.128 80.5555 113.28 80.4225 113.439 80.3012C113.602 80.1752 113.772 80.0702 113.95 79.9862C114.132 79.8975 114.325 79.8298 114.531 79.7832C114.736 79.7318 114.96 79.7062 115.203 79.7062C115.595 79.7062 115.942 79.7738 116.246 79.9092C116.549 80.0398 116.801 80.2265 117.002 80.4692C117.207 80.7072 117.361 80.9942 117.464 81.3302C117.571 81.6615 117.625 82.0278 117.625 82.4292V87.0002H115.896V82.4292C115.896 81.9905 115.795 81.6522 115.595 81.4142C115.394 81.1715 115.088 81.0502 114.678 81.0502C114.379 81.0502 114.099 81.1178 113.838 81.2532C113.576 81.3885 113.329 81.5728 113.096 81.8062V87.0002H111.367V79.8182H112.424C112.648 79.8182 112.795 79.9232 112.865 80.1332L112.984 80.7002Z" fill="#6D6D6D"/>
<path d="M121.894 83.2342C122.109 83.2342 122.295 83.2062 122.454 83.1502C122.613 83.0895 122.743 83.0078 122.846 82.9052C122.953 82.8025 123.033 82.6788 123.084 82.5342C123.14 82.3895 123.168 82.2308 123.168 82.0582C123.168 81.7035 123.061 81.4235 122.846 81.2182C122.636 81.0082 122.319 80.9032 121.894 80.9032C121.469 80.9032 121.15 81.0082 120.935 81.2182C120.725 81.4235 120.62 81.7035 120.62 82.0582C120.62 82.2262 120.646 82.3825 120.697 82.5272C120.753 82.6718 120.832 82.7978 120.935 82.9052C121.042 83.0078 121.175 83.0895 121.334 83.1502C121.497 83.2062 121.684 83.2342 121.894 83.2342ZM123.847 87.3222C123.847 87.1822 123.805 87.0678 123.721 86.9792C123.637 86.8905 123.523 86.8228 123.378 86.7762C123.233 86.7248 123.063 86.6875 122.867 86.6642C122.676 86.6408 122.47 86.6245 122.251 86.6152C122.036 86.6012 121.812 86.5895 121.579 86.5802C121.35 86.5708 121.126 86.5522 120.907 86.5242C120.716 86.6315 120.559 86.7575 120.438 86.9022C120.321 87.0468 120.263 87.2148 120.263 87.4062C120.263 87.5322 120.293 87.6488 120.354 87.7562C120.419 87.8682 120.52 87.9638 120.655 88.0432C120.795 88.1225 120.975 88.1832 121.194 88.2252C121.413 88.2718 121.682 88.2952 121.999 88.2952C122.321 88.2952 122.599 88.2695 122.832 88.2182C123.065 88.1715 123.257 88.1038 123.406 88.0152C123.56 87.9312 123.672 87.8285 123.742 87.7072C123.812 87.5905 123.847 87.4622 123.847 87.3222ZM125.569 80.0632V80.7072C125.569 80.9125 125.445 81.0385 125.198 81.0852L124.554 81.2042C124.652 81.4515 124.701 81.7222 124.701 82.0162C124.701 82.3708 124.629 82.6928 124.484 82.9822C124.344 83.2668 124.148 83.5095 123.896 83.7102C123.644 83.9108 123.345 84.0672 123 84.1792C122.659 84.2865 122.291 84.3402 121.894 84.3402C121.754 84.3402 121.619 84.3332 121.488 84.3192C121.357 84.3052 121.229 84.2865 121.103 84.2632C120.879 84.3985 120.767 84.5502 120.767 84.7182C120.767 84.8628 120.832 84.9702 120.963 85.0402C121.098 85.1055 121.276 85.1522 121.495 85.1802C121.714 85.2082 121.964 85.2268 122.244 85.2362C122.524 85.2408 122.811 85.2548 123.105 85.2782C123.399 85.3015 123.686 85.3435 123.966 85.4042C124.246 85.4602 124.496 85.5512 124.715 85.6772C124.934 85.8032 125.109 85.9758 125.24 86.1952C125.375 86.4098 125.443 86.6875 125.443 87.0282C125.443 87.3455 125.364 87.6535 125.205 87.9522C125.051 88.2508 124.825 88.5168 124.526 88.7502C124.232 88.9835 123.868 89.1702 123.434 89.3102C123.005 89.4548 122.515 89.5272 121.964 89.5272C121.423 89.5272 120.951 89.4735 120.55 89.3662C120.149 89.2635 119.815 89.1235 119.549 88.9462C119.283 88.7735 119.085 88.5728 118.954 88.3442C118.823 88.1155 118.758 87.8775 118.758 87.6302C118.758 87.2942 118.858 87.0142 119.059 86.7902C119.264 86.5615 119.544 86.3795 119.899 86.2442C119.708 86.1462 119.556 86.0155 119.444 85.8522C119.332 85.6888 119.276 85.4742 119.276 85.2082C119.276 85.1008 119.295 84.9912 119.332 84.8792C119.374 84.7625 119.432 84.6482 119.507 84.5362C119.586 84.4242 119.684 84.3192 119.801 84.2212C119.918 84.1185 120.055 84.0275 120.214 83.9482C119.85 83.7522 119.563 83.4908 119.353 83.1642C119.148 82.8375 119.045 82.4548 119.045 82.0162C119.045 81.6615 119.115 81.3418 119.255 81.0572C119.4 80.7678 119.598 80.5228 119.85 80.3222C120.107 80.1168 120.408 79.9605 120.753 79.8532C121.103 79.7458 121.483 79.6922 121.894 79.6922C122.202 79.6922 122.491 79.7248 122.762 79.7902C123.033 79.8508 123.28 79.9418 123.504 80.0632H125.569Z" fill="#6D6D6D"/>
<path d="M40.2587 101.138C40.4547 101.376 40.667 101.544 40.8957 101.642C41.129 101.74 41.374 101.789 41.6307 101.789C41.8967 101.789 42.1347 101.743 42.3447 101.649C42.5593 101.551 42.7414 101.402 42.8907 101.201C43.04 100.996 43.1543 100.737 43.2337 100.424C43.313 100.107 43.3527 99.7288 43.3527 99.2902C43.3527 98.5015 43.222 97.9322 42.9607 97.5822C42.6994 97.2275 42.3237 97.0502 41.8337 97.0502C41.5024 97.0502 41.213 97.1272 40.9657 97.2812C40.7184 97.4305 40.4827 97.6428 40.2587 97.9182V101.138ZM40.2587 96.7002C40.548 96.3968 40.8677 96.1565 41.2177 95.9792C41.5724 95.7972 41.976 95.7062 42.4287 95.7062C42.844 95.7062 43.2174 95.7878 43.5487 95.9512C43.8847 96.1145 44.1694 96.3502 44.4027 96.6582C44.6407 96.9615 44.8227 97.3302 44.9487 97.7642C45.0747 98.1982 45.1377 98.6858 45.1377 99.2272C45.1377 99.8105 45.0653 100.34 44.9207 100.816C44.776 101.292 44.5684 101.701 44.2977 102.041C44.0317 102.377 43.7097 102.639 43.3317 102.825C42.9537 103.012 42.5337 103.105 42.0717 103.105C41.8477 103.105 41.6447 103.082 41.4627 103.035C41.2807 102.993 41.1127 102.933 40.9587 102.853C40.8047 102.774 40.6623 102.678 40.5317 102.566C40.4057 102.45 40.2844 102.321 40.1677 102.181L40.0907 102.664C40.0627 102.786 40.0137 102.872 39.9437 102.923C39.8784 102.975 39.7873 103 39.6707 103H38.5297V92.5982H40.2587V96.7002Z" fill="#6D6D6D"/>
<path d="M51.1 98.5832C51.1 98.3592 51.0674 98.1492 51.002 97.9532C50.9414 97.7525 50.848 97.5775 50.722 97.4282C50.596 97.2788 50.435 97.1622 50.239 97.0782C50.0477 96.9895 49.8237 96.9452 49.567 96.9452C49.0677 96.9452 48.6734 97.0875 48.384 97.3722C48.0994 97.6568 47.9174 98.0605 47.838 98.5832H51.1ZM47.803 99.6262C47.831 99.9948 47.8964 100.315 47.999 100.585C48.1017 100.851 48.237 101.073 48.405 101.25C48.573 101.423 48.7714 101.554 49 101.642C49.2334 101.726 49.49 101.768 49.77 101.768C50.05 101.768 50.2904 101.736 50.491 101.67C50.6964 101.605 50.8737 101.533 51.023 101.453C51.177 101.374 51.31 101.302 51.422 101.236C51.5387 101.171 51.6507 101.138 51.758 101.138C51.9027 101.138 52.01 101.192 52.08 101.299L52.577 101.929C52.3857 102.153 52.171 102.342 51.933 102.496C51.695 102.646 51.4454 102.767 51.184 102.86C50.9274 102.949 50.6637 103.012 50.393 103.049C50.127 103.087 49.868 103.105 49.616 103.105C49.1167 103.105 48.6524 103.024 48.223 102.86C47.7937 102.692 47.4204 102.447 47.103 102.125C46.7857 101.799 46.536 101.397 46.354 100.921C46.172 100.441 46.081 99.8852 46.081 99.2552C46.081 98.7652 46.1604 98.3055 46.319 97.8762C46.4777 97.4422 46.704 97.0665 46.998 96.7492C47.2967 96.4272 47.6584 96.1728 48.083 95.9862C48.5124 95.7995 48.9954 95.7062 49.532 95.7062C49.9847 95.7062 50.4024 95.7785 50.785 95.9232C51.1677 96.0678 51.4967 96.2802 51.772 96.5602C52.0474 96.8355 52.262 97.1762 52.416 97.5822C52.5747 97.9835 52.654 98.4432 52.654 98.9612C52.654 99.2225 52.626 99.3998 52.57 99.4932C52.514 99.5818 52.4067 99.6262 52.248 99.6262H47.803Z" fill="#6D6D6D"/>
<path d="M58.3336 97.2182C58.2869 97.2928 58.2379 97.3465 58.1866 97.3792C58.1352 97.4072 58.0699 97.4212 57.9906 97.4212C57.9066 97.4212 57.8156 97.3978 57.7176 97.3512C57.6242 97.3045 57.5146 97.2532 57.3886 97.1972C57.2626 97.1365 57.1179 97.0828 56.9546 97.0362C56.7959 96.9895 56.6069 96.9662 56.3876 96.9662C56.0469 96.9662 55.7786 97.0385 55.5826 97.1832C55.3912 97.3278 55.2956 97.5168 55.2956 97.7502C55.2956 97.9042 55.3446 98.0348 55.4426 98.1422C55.5452 98.2448 55.6782 98.3358 55.8416 98.4152C56.0096 98.4945 56.1986 98.5668 56.4086 98.6322C56.6186 98.6928 56.8309 98.7605 57.0456 98.8352C57.2649 98.9098 57.4796 98.9962 57.6896 99.0942C57.8996 99.1875 58.0862 99.3088 58.2496 99.4582C58.4176 99.6028 58.5506 99.7778 58.6486 99.9832C58.7512 100.189 58.8026 100.436 58.8026 100.725C58.8026 101.071 58.7396 101.39 58.6136 101.684C58.4922 101.974 58.3102 102.226 58.0676 102.44C57.8249 102.65 57.5239 102.816 57.1646 102.937C56.8099 103.054 56.3992 103.112 55.9326 103.112C55.6852 103.112 55.4426 103.089 55.2046 103.042C54.9712 103 54.7449 102.94 54.5256 102.86C54.3109 102.781 54.1102 102.688 53.9236 102.58C53.7416 102.473 53.5806 102.356 53.4406 102.23L53.8396 101.572C53.8909 101.493 53.9516 101.432 54.0216 101.39C54.0916 101.348 54.1802 101.327 54.2876 101.327C54.3949 101.327 54.4952 101.358 54.5886 101.418C54.6866 101.479 54.7986 101.544 54.9246 101.614C55.0506 101.684 55.1976 101.75 55.3656 101.81C55.5382 101.871 55.7552 101.901 56.0166 101.901C56.2219 101.901 56.3969 101.878 56.5416 101.831C56.6909 101.78 56.8122 101.715 56.9056 101.635C57.0036 101.556 57.0736 101.465 57.1156 101.362C57.1622 101.255 57.1856 101.145 57.1856 101.033C57.1856 100.865 57.1342 100.728 57.0316 100.62C56.9336 100.513 56.8006 100.42 56.6326 100.34C56.4692 100.261 56.2802 100.191 56.0656 100.13C55.8556 100.065 55.6386 99.9948 55.4146 99.9202C55.1952 99.8455 54.9782 99.7592 54.7636 99.6612C54.5536 99.5585 54.3646 99.4302 54.1966 99.2762C54.0332 99.1222 53.9002 98.9332 53.7976 98.7092C53.6996 98.4852 53.6506 98.2145 53.6506 97.8972C53.6506 97.6032 53.7089 97.3232 53.8256 97.0572C53.9422 96.7912 54.1126 96.5602 54.3366 96.3642C54.5652 96.1635 54.8476 96.0048 55.1836 95.8882C55.5242 95.7668 55.9162 95.7062 56.3596 95.7062C56.8542 95.7062 57.3046 95.7878 57.7106 95.9512C58.1166 96.1145 58.4549 96.3292 58.7256 96.5952L58.3336 97.2182Z" fill="#6D6D6D"/>
<path d="M65.2489 97.3372C65.1976 97.4025 65.1462 97.4538 65.0949 97.4912C65.0482 97.5285 64.9782 97.5472 64.8849 97.5472C64.7962 97.5472 64.7099 97.5215 64.6259 97.4702C64.5419 97.4142 64.4416 97.3535 64.3249 97.2882C64.2082 97.2182 64.0682 97.1575 63.9049 97.1062C63.7462 97.0502 63.5479 97.0222 63.3099 97.0222C63.0066 97.0222 62.7406 97.0782 62.5119 97.1902C62.2832 97.2975 62.0919 97.4538 61.9379 97.6592C61.7886 97.8645 61.6766 98.1142 61.6019 98.4082C61.5272 98.6975 61.4899 99.0265 61.4899 99.3952C61.4899 99.7778 61.5296 100.119 61.6089 100.417C61.6929 100.716 61.8119 100.968 61.9659 101.173C62.1199 101.374 62.3066 101.528 62.5259 101.635C62.7452 101.738 62.9926 101.789 63.2679 101.789C63.5432 101.789 63.7649 101.757 63.9329 101.691C64.1056 101.621 64.2502 101.547 64.3669 101.467C64.4836 101.383 64.5839 101.309 64.6679 101.243C64.7566 101.173 64.8546 101.138 64.9619 101.138C65.1019 101.138 65.2069 101.192 65.2769 101.299L65.7739 101.929C65.5826 102.153 65.3749 102.342 65.1509 102.496C64.9269 102.646 64.6936 102.767 64.4509 102.86C64.2129 102.949 63.9656 103.012 63.7089 103.049C63.4569 103.087 63.2049 103.105 62.9529 103.105C62.5096 103.105 62.0919 103.024 61.6999 102.86C61.3079 102.692 60.9649 102.45 60.6709 102.132C60.3769 101.815 60.1436 101.428 59.9709 100.97C59.8029 100.508 59.7189 99.9832 59.7189 99.3952C59.7189 98.8678 59.7936 98.3802 59.9429 97.9322C60.0969 97.4795 60.3209 97.0898 60.6149 96.7632C60.9089 96.4318 61.2729 96.1728 61.7069 95.9862C62.1409 95.7995 62.6402 95.7062 63.2049 95.7062C63.7416 95.7062 64.2106 95.7925 64.6119 95.9652C65.0179 96.1378 65.3819 96.3852 65.7039 96.7072L65.2489 97.3372Z" fill="#6D6D6D"/>
<path d="M68.5868 96.5882C68.8668 96.3268 69.1748 96.1145 69.5108 95.9512C69.8468 95.7878 70.2411 95.7062 70.6938 95.7062C71.0858 95.7062 71.4335 95.7738 71.7368 95.9092C72.0401 96.0398 72.2921 96.2265 72.4928 96.4692C72.6981 96.7072 72.8521 96.9942 72.9548 97.3302C73.0621 97.6615 73.1158 98.0278 73.1158 98.4292V103H71.3868V98.4292C71.3868 97.9905 71.2865 97.6522 71.0858 97.4142C70.8851 97.1715 70.5795 97.0502 70.1688 97.0502C69.8701 97.0502 69.5901 97.1178 69.3288 97.2532C69.0675 97.3885 68.8201 97.5728 68.5868 97.8062V103H66.8578V92.5982H68.5868V96.5882Z" fill="#6D6D6D"/>
<path d="M76.5522 95.8182V103H74.8162V95.8182H76.5522ZM76.7902 93.7252C76.7902 93.8745 76.7598 94.0145 76.6992 94.1452C76.6385 94.2758 76.5568 94.3902 76.4541 94.4882C76.3561 94.5862 76.2395 94.6655 76.1041 94.7262C75.9688 94.7822 75.8242 94.8102 75.6702 94.8102C75.5208 94.8102 75.3785 94.7822 75.2431 94.7262C75.1125 94.6655 74.9982 94.5862 74.9002 94.4882C74.8022 94.3902 74.7228 94.2758 74.6621 94.1452C74.6061 94.0145 74.5781 93.8745 74.5781 93.7252C74.5781 93.5712 74.6061 93.4265 74.6621 93.2912C74.7228 93.1558 74.8022 93.0392 74.9002 92.9412C74.9982 92.8432 75.1125 92.7662 75.2431 92.7102C75.3785 92.6495 75.5208 92.6192 75.6702 92.6192C75.8242 92.6192 75.9688 92.6495 76.1041 92.7102C76.2395 92.7662 76.3561 92.8432 76.4541 92.9412C76.5568 93.0392 76.6385 93.1558 76.6992 93.2912C76.7598 93.4265 76.7902 93.5712 76.7902 93.7252Z" fill="#6D6D6D"/>
<path d="M80.0438 92.5982V98.5552H80.3658C80.4825 98.5552 80.5735 98.5412 80.6388 98.5132C80.7088 98.4805 80.7788 98.4175 80.8488 98.3242L82.6338 96.1192C82.7085 96.0212 82.7902 95.9465 82.8788 95.8952C82.9722 95.8438 83.0912 95.8182 83.2358 95.8182H84.8178L82.5848 98.4852C82.4262 98.6952 82.2535 98.8562 82.0668 98.9682C82.1648 99.0382 82.2512 99.1198 82.3258 99.2132C82.4052 99.3065 82.4798 99.4068 82.5498 99.5142L84.9438 103H83.3828C83.2475 103 83.1308 102.979 83.0328 102.937C82.9348 102.891 82.8532 102.809 82.7878 102.692L80.9538 99.9692C80.8885 99.8618 80.8208 99.7918 80.7508 99.7592C80.6808 99.7265 80.5758 99.7102 80.4358 99.7102H80.0438V103H78.3148V92.5982H80.0438Z" fill="#6D6D6D"/>
<path d="M87.5224 101.138C87.7184 101.376 87.9307 101.544 88.1594 101.642C88.3927 101.74 88.6377 101.789 88.8944 101.789C89.1604 101.789 89.3984 101.743 89.6084 101.649C89.823 101.551 90.005 101.402 90.1544 101.201C90.3037 100.996 90.418 100.737 90.4974 100.424C90.5767 100.107 90.6164 99.7288 90.6164 99.2902C90.6164 98.5015 90.4857 97.9322 90.2244 97.5822C89.963 97.2275 89.5874 97.0502 89.0974 97.0502C88.766 97.0502 88.4767 97.1272 88.2294 97.2812C87.982 97.4305 87.7464 97.6428 87.5224 97.9182V101.138ZM87.5224 96.7002C87.8117 96.3968 88.1314 96.1565 88.4814 95.9792C88.836 95.7972 89.2397 95.7062 89.6924 95.7062C90.1077 95.7062 90.481 95.7878 90.8124 95.9512C91.1484 96.1145 91.433 96.3502 91.6664 96.6582C91.9044 96.9615 92.0864 97.3302 92.2124 97.7642C92.3384 98.1982 92.4014 98.6858 92.4014 99.2272C92.4014 99.8105 92.329 100.34 92.1844 100.816C92.0397 101.292 91.832 101.701 91.5614 102.041C91.2954 102.377 90.9734 102.639 90.5954 102.825C90.2174 103.012 89.7974 103.105 89.3354 103.105C89.1114 103.105 88.9084 103.082 88.7264 103.035C88.5444 102.993 88.3764 102.933 88.2224 102.853C88.0684 102.774 87.926 102.678 87.7954 102.566C87.6694 102.45 87.548 102.321 87.4314 102.181L87.3544 102.664C87.3264 102.786 87.2774 102.872 87.2074 102.923C87.142 102.975 87.051 103 86.9344 103H85.7934V92.5982H87.5224V96.7002Z" fill="#6D6D6D"/>
<path d="M97.5307 99.9342C97.0314 99.9575 96.6114 100.002 96.2707 100.067C95.93 100.128 95.657 100.207 95.4517 100.305C95.2464 100.403 95.0994 100.518 95.0107 100.648C94.922 100.779 94.8777 100.921 94.8777 101.075C94.8777 101.379 94.9664 101.596 95.1437 101.726C95.3257 101.857 95.5614 101.922 95.8507 101.922C96.2054 101.922 96.511 101.859 96.7677 101.733C97.029 101.603 97.2834 101.407 97.5307 101.145V99.9342ZM93.5687 96.8192C94.3947 96.0632 95.3887 95.6852 96.5507 95.6852C96.9707 95.6852 97.3464 95.7552 97.6777 95.8952C98.009 96.0305 98.289 96.2218 98.5177 96.4692C98.7464 96.7118 98.919 97.0035 99.0357 97.3442C99.157 97.6848 99.2177 98.0582 99.2177 98.4642V103H98.4337C98.2704 103 98.1444 102.977 98.0557 102.93C97.967 102.879 97.897 102.779 97.8457 102.629L97.6917 102.111C97.5097 102.275 97.3324 102.419 97.1597 102.545C96.987 102.667 96.8074 102.769 96.6207 102.853C96.434 102.937 96.2334 103 96.0187 103.042C95.8087 103.089 95.5754 103.112 95.3187 103.112C95.0154 103.112 94.7354 103.073 94.4787 102.993C94.222 102.909 94.0004 102.786 93.8137 102.622C93.627 102.459 93.4824 102.256 93.3797 102.013C93.277 101.771 93.2257 101.488 93.2257 101.166C93.2257 100.984 93.256 100.805 93.3167 100.627C93.3774 100.445 93.4754 100.273 93.6107 100.109C93.7507 99.9458 93.9304 99.7918 94.1497 99.6472C94.369 99.5025 94.6374 99.3765 94.9547 99.2692C95.2767 99.1618 95.65 99.0755 96.0747 99.0102C96.4994 98.9402 96.9847 98.8982 97.5307 98.8842V98.4642C97.5307 97.9835 97.428 97.6288 97.2227 97.4002C97.0174 97.1668 96.7211 97.0502 96.3337 97.0502C96.0537 97.0502 95.8204 97.0828 95.6337 97.1482C95.4517 97.2135 95.2907 97.2882 95.1507 97.3722C95.0107 97.4515 94.8824 97.5238 94.7657 97.5892C94.6537 97.6545 94.5277 97.6872 94.3877 97.6872C94.2664 97.6872 94.1637 97.6568 94.0797 97.5962C93.9957 97.5308 93.928 97.4562 93.8767 97.3722L93.5687 96.8192Z" fill="#6D6D6D"/>
<path d="M104.64 99.9342C104.141 99.9575 103.721 100.002 103.38 100.067C103.039 100.128 102.766 100.207 102.561 100.305C102.356 100.403 102.209 100.518 102.12 100.648C102.031 100.779 101.987 100.921 101.987 101.075C101.987 101.379 102.076 101.596 102.253 101.726C102.435 101.857 102.671 101.922 102.96 101.922C103.315 101.922 103.62 101.859 103.877 101.733C104.138 101.603 104.393 101.407 104.64 101.145V99.9342ZM100.678 96.8192C101.504 96.0632 102.498 95.6852 103.66 95.6852C104.08 95.6852 104.456 95.7552 104.787 95.8952C105.118 96.0305 105.398 96.2218 105.627 96.4692C105.856 96.7118 106.028 97.0035 106.145 97.3442C106.266 97.6848 106.327 98.0582 106.327 98.4642V103H105.543C105.38 103 105.254 102.977 105.165 102.93C105.076 102.879 105.006 102.779 104.955 102.629L104.801 102.111C104.619 102.275 104.442 102.419 104.269 102.545C104.096 102.667 103.917 102.769 103.73 102.853C103.543 102.937 103.343 103 103.128 103.042C102.918 103.089 102.685 103.112 102.428 103.112C102.125 103.112 101.845 103.073 101.588 102.993C101.331 102.909 101.11 102.786 100.923 102.622C100.736 102.459 100.592 102.256 100.489 102.013C100.386 101.771 100.335 101.488 100.335 101.166C100.335 100.984 100.365 100.805 100.426 100.627C100.487 100.445 100.585 100.273 100.72 100.109C100.86 99.9458 101.04 99.7918 101.259 99.6472C101.478 99.5025 101.747 99.3765 102.064 99.2692C102.386 99.1618 102.759 99.0755 103.184 99.0102C103.609 98.9402 104.094 98.8982 104.64 98.8842V98.4642C104.64 97.9835 104.537 97.6288 104.332 97.4002C104.127 97.1668 103.83 97.0502 103.443 97.0502C103.163 97.0502 102.93 97.0828 102.743 97.1482C102.561 97.2135 102.4 97.2882 102.26 97.3722C102.12 97.4515 101.992 97.5238 101.875 97.5892C101.763 97.6545 101.637 97.6872 101.497 97.6872C101.376 97.6872 101.273 97.6568 101.189 97.5962C101.105 97.5308 101.037 97.4562 100.986 97.3722L100.678 96.8192Z" fill="#6D6D6D"/>
<path d="M109.586 97.0642C109.81 96.6348 110.076 96.2988 110.384 96.0562C110.692 95.8088 111.056 95.6852 111.476 95.6852C111.808 95.6852 112.074 95.7575 112.274 95.9022L112.162 97.1972C112.139 97.2812 112.104 97.3418 112.057 97.3792C112.015 97.4118 111.957 97.4282 111.882 97.4282C111.812 97.4282 111.707 97.4165 111.567 97.3932C111.432 97.3698 111.299 97.3582 111.168 97.3582C110.977 97.3582 110.807 97.3862 110.657 97.4422C110.508 97.4982 110.373 97.5798 110.251 97.6872C110.135 97.7898 110.03 97.9158 109.936 98.0652C109.848 98.2145 109.764 98.3848 109.684 98.5762V103H107.955V95.8182H108.97C109.148 95.8182 109.271 95.8508 109.341 95.9162C109.411 95.9768 109.458 96.0888 109.481 96.2522L109.586 97.0642Z" fill="#6D6D6D"/>
</svg>
