<svg width="150" height="100" viewBox="0 0 150 100" fill="none" xmlns="http://www.w3.org/2000/svg">
<rect width="150" height="100" fill="white"/>
<path d="M65.3158 8C64.6859 8.00792 64.1427 8.44511 63.9288 8.78559L58.7335 17.7295H47.5617C42.6715 17.7295 38.6843 21.7355 38.6843 26.6486V59.0809C38.6843 63.994 42.6715 68 47.5617 68H102.438C107.329 68 111.316 63.994 111.316 59.0809V26.6486C111.316 21.7355 107.329 17.7295 102.438 17.7295H91.2667L86.0714 8.78559C85.7849 8.30767 85.2394 7.99887 84.6844 8H65.3158ZM66.2238 11.2429H83.7763L87.5338 17.7295H62.4661L66.2238 11.2429ZM47.5617 20.9725H102.438C105.596 20.9725 108.087 23.4757 108.087 26.6479V59.0802C108.087 62.2524 105.596 64.7557 102.438 64.7557H47.5617C44.4043 64.7557 41.9128 62.2524 41.9128 59.0802V26.6479C41.9128 23.4757 44.4043 20.9725 47.5617 20.9725ZM75.0001 24.2154C64.7683 24.2154 56.4388 32.5836 56.4388 42.8639C56.4388 53.1438 64.7679 61.5124 75.0001 61.5124C85.2323 61.5124 93.5613 53.1442 93.5613 42.8639C93.5613 32.5841 85.2323 24.2154 75.0001 24.2154ZM98.4034 25.8369C96.1939 25.8369 94.3684 27.671 94.3684 29.8909C94.3684 32.1107 96.1939 33.9449 98.4034 33.9449C100.613 33.9449 102.438 32.1107 102.438 29.8909C102.438 27.671 100.613 25.8369 98.4034 25.8369ZM75.0001 27.4583C83.4874 27.4583 90.3333 34.3363 90.3333 42.8636C90.3333 51.391 83.4875 58.2689 75.0001 58.2689C66.5126 58.2689 59.6669 51.391 59.6669 42.8636C59.6669 34.3363 66.5126 27.4583 75.0001 27.4583ZM98.4034 29.0798C98.8684 29.0798 99.2106 29.4237 99.2106 29.8908C99.2106 30.358 98.8684 30.7019 98.4034 30.7019C97.9384 30.7019 97.5962 30.358 97.5962 29.8908C97.5962 29.4237 97.9384 29.0798 98.4034 29.0798ZM75.0001 32.3227C69.2251 32.3227 64.5088 37.0611 64.5088 42.8633C64.5088 48.6655 69.2251 53.4039 75.0001 53.4039C80.7751 53.4039 85.4914 48.6655 85.4914 42.8633C85.4914 37.0611 80.7751 32.3227 75.0001 32.3227ZM75.0001 35.5656C79.0307 35.5656 82.2629 38.8138 82.2629 42.8626C82.2629 46.9121 79.03 50.1596 75.0001 50.1596C70.9695 50.1596 67.7373 46.9114 67.7373 42.8626C67.7373 38.8131 70.9702 35.5656 75.0001 35.5656Z" fill="#6D6D6D"/>
<path d="M86.0527 42.7368C86.0527 48.841 81.1043 53.7895 75.0001 53.7895C68.8959 53.7895 63.9475 48.841 63.9475 42.7368C63.9475 36.6326 68.8959 31.6842 75.0001 31.6842C81.1043 31.6842 86.0527 36.6326 86.0527 42.7368Z" fill="white"/>
<path d="M106.579 29.3158C106.579 33.2399 103.398 36.4211 99.4738 36.4211C95.5497 36.4211 92.3685 33.2399 92.3685 29.3158C92.3685 25.3917 95.5497 22.2105 99.4738 22.2105C103.398 22.2105 106.579 25.3917 106.579 29.3158Z" fill="white"/>
<path d="M104.211 30.1053C104.211 32.7213 102.09 34.8421 99.4738 34.8421C96.8577 34.8421 94.737 32.7213 94.737 30.1053C94.737 27.4892 96.8577 25.3684 99.4738 25.3684C102.09 25.3684 104.211 27.4892 104.211 30.1053Z" fill="#6D6D6D"/>
<path d="M101.842 30.1053C101.842 31.4133 100.782 32.4737 99.4738 32.4737C98.1658 32.4737 97.1054 31.4133 97.1054 30.1053C97.1054 28.7972 98.1658 27.7368 99.4738 27.7368C100.782 27.7368 101.842 28.7972 101.842 30.1053Z" fill="white"/>
<path d="M26.2264 76.878V87H25.2604C25.1111 87 24.9851 86.9767 24.8824 86.93C24.7844 86.8787 24.6887 86.7947 24.5954 86.678L19.3104 79.93C19.3384 80.238 19.3524 80.5227 19.3524 80.784V87H17.6934V76.878H18.6804C18.7597 76.878 18.8274 76.8827 18.8834 76.892C18.9441 76.8967 18.9954 76.9107 19.0374 76.934C19.0841 76.9527 19.1284 76.983 19.1704 77.025C19.2124 77.0623 19.2591 77.1137 19.3104 77.179L24.6164 83.955C24.6024 83.7917 24.5907 83.6307 24.5814 83.472C24.5721 83.3133 24.5674 83.1663 24.5674 83.031V76.878H26.2264ZM31.1668 79.706C31.6988 79.706 32.1818 79.7923 32.6158 79.965C33.0544 80.1377 33.4278 80.3827 33.7358 80.7C34.0484 81.0173 34.2888 81.4047 34.4568 81.862C34.6248 82.3193 34.7088 82.8303 34.7088 83.395C34.7088 83.9643 34.6248 84.4777 34.4568 84.935C34.2888 85.3923 34.0484 85.782 33.7358 86.104C33.4278 86.426 33.0544 86.6733 32.6158 86.846C32.1818 87.0187 31.6988 87.105 31.1668 87.105C30.6301 87.105 30.1424 87.0187 29.7038 86.846C29.2651 86.6733 28.8894 86.426 28.5768 86.104C28.2688 85.782 28.0284 85.3923 27.8558 84.935C27.6878 84.4777 27.6038 83.9643 27.6038 83.395C27.6038 82.8303 27.6878 82.3193 27.8558 81.862C28.0284 81.4047 28.2688 81.0173 28.5768 80.7C28.8894 80.3827 29.2651 80.1377 29.7038 79.965C30.1424 79.7923 30.6301 79.706 31.1668 79.706ZM31.1668 85.775C31.7641 85.775 32.2051 85.5743 32.4898 85.173C32.7791 84.7717 32.9238 84.1837 32.9238 83.409C32.9238 82.6343 32.7791 82.044 32.4898 81.638C32.2051 81.232 31.7641 81.029 31.1668 81.029C30.5601 81.029 30.1098 81.2343 29.8158 81.645C29.5264 82.051 29.3818 82.639 29.3818 83.409C29.3818 84.179 29.5264 84.767 29.8158 85.173C30.1098 85.5743 30.5601 85.775 31.1668 85.775ZM41.2241 79.818V87H39.4881V79.818H41.2241ZM41.4621 77.725C41.4621 77.8743 41.4318 78.0143 41.3711 78.145C41.3105 78.2757 41.2288 78.39 41.1261 78.488C41.0281 78.586 40.9115 78.6653 40.7761 78.726C40.6408 78.782 40.4961 78.81 40.3421 78.81C40.1928 78.81 40.0505 78.782 39.9151 78.726C39.7845 78.6653 39.6701 78.586 39.5721 78.488C39.4741 78.39 39.3948 78.2757 39.3341 78.145C39.2781 78.0143 39.2501 77.8743 39.2501 77.725C39.2501 77.571 39.2781 77.4263 39.3341 77.291C39.3948 77.1557 39.4741 77.039 39.5721 76.941C39.6701 76.843 39.7845 76.766 39.9151 76.71C40.0505 76.6493 40.1928 76.619 40.3421 76.619C40.4961 76.619 40.6408 76.6493 40.7761 76.71C40.9115 76.766 41.0281 76.843 41.1261 76.941C41.2288 77.039 41.3105 77.1557 41.3711 77.291C41.4318 77.4263 41.4621 77.571 41.4621 77.725ZM42.9868 87V79.818H44.0438C44.2678 79.818 44.4148 79.923 44.4848 80.133L44.5968 80.665C44.7228 80.525 44.8535 80.3967 44.9888 80.28C45.1288 80.1633 45.2758 80.063 45.4298 79.979C45.5885 79.895 45.7565 79.8297 45.9338 79.783C46.1158 79.7317 46.3141 79.706 46.5288 79.706C46.9815 79.706 47.3525 79.8297 47.6418 80.077C47.9358 80.3197 48.1551 80.644 48.2998 81.05C48.4118 80.812 48.5518 80.609 48.7198 80.441C48.8878 80.2683 49.0721 80.1283 49.2728 80.021C49.4735 79.9137 49.6858 79.8343 49.9098 79.783C50.1385 79.7317 50.3671 79.706 50.5958 79.706C50.9925 79.706 51.3448 79.7667 51.6528 79.888C51.9608 80.0093 52.2198 80.1867 52.4298 80.42C52.6398 80.6533 52.7985 80.938 52.9058 81.274C53.0178 81.61 53.0738 81.995 53.0738 82.429V87H51.3448V82.429C51.3448 81.9717 51.2445 81.6287 51.0438 81.4C50.8431 81.1667 50.5491 81.05 50.1618 81.05C49.9845 81.05 49.8188 81.0803 49.6648 81.141C49.5155 81.2017 49.3825 81.2903 49.2658 81.407C49.1538 81.519 49.0651 81.6613 48.9998 81.834C48.9345 82.0067 48.9018 82.205 48.9018 82.429V87H47.1658V82.429C47.1658 81.9483 47.0678 81.5983 46.8718 81.379C46.6805 81.1597 46.3981 81.05 46.0248 81.05C45.7728 81.05 45.5371 81.113 45.3178 81.239C45.1031 81.3603 44.9025 81.5283 44.7158 81.743V87H42.9868ZM58.5113 83.934C58.0119 83.9573 57.5919 84.0017 57.2513 84.067C56.9106 84.1277 56.6376 84.207 56.4323 84.305C56.2269 84.403 56.0799 84.5173 55.9913 84.648C55.9026 84.7787 55.8583 84.921 55.8583 85.075C55.8583 85.3783 55.9469 85.5953 56.1243 85.726C56.3063 85.8567 56.5419 85.922 56.8313 85.922C57.1859 85.922 57.4916 85.859 57.7483 85.733C58.0096 85.6023 58.2639 85.4063 58.5113 85.145V83.934ZM54.5493 80.819C55.3753 80.063 56.3693 79.685 57.5313 79.685C57.9513 79.685 58.3269 79.755 58.6583 79.895C58.9896 80.0303 59.2696 80.2217 59.4983 80.469C59.7269 80.7117 59.8996 81.0033 60.0163 81.344C60.1376 81.6847 60.1983 82.058 60.1983 82.464V87H59.4143C59.2509 87 59.1249 86.9767 59.0363 86.93C58.9476 86.8787 58.8776 86.7783 58.8263 86.629L58.6723 86.111C58.4903 86.2743 58.3129 86.419 58.1403 86.545C57.9676 86.6663 57.7879 86.769 57.6013 86.853C57.4146 86.937 57.2139 87 56.9993 87.042C56.7893 87.0887 56.5559 87.112 56.2993 87.112C55.9959 87.112 55.7159 87.0723 55.4593 86.993C55.2026 86.909 54.9809 86.7853 54.7943 86.622C54.6076 86.4587 54.4629 86.2557 54.3603 86.013C54.2576 85.7703 54.2063 85.488 54.2063 85.166C54.2063 84.984 54.2366 84.8043 54.2973 84.627C54.3579 84.445 54.4559 84.2723 54.5913 84.109C54.7313 83.9457 54.9109 83.7917 55.1303 83.647C55.3496 83.5023 55.6179 83.3763 55.9353 83.269C56.2573 83.1617 56.6306 83.0753 57.0553 83.01C57.4799 82.94 57.9653 82.898 58.5113 82.884V82.464C58.5113 81.9833 58.4086 81.6287 58.2033 81.4C57.9979 81.1667 57.7016 81.05 57.3143 81.05C57.0343 81.05 56.8009 81.0827 56.6143 81.148C56.4323 81.2133 56.2713 81.288 56.1313 81.372C55.9913 81.4513 55.8629 81.5237 55.7463 81.589C55.6343 81.6543 55.5083 81.687 55.3683 81.687C55.2469 81.687 55.1443 81.6567 55.0603 81.596C54.9763 81.5307 54.9086 81.456 54.8573 81.372L54.5493 80.819ZM64.4517 83.234C64.6663 83.234 64.853 83.206 65.0117 83.15C65.1703 83.0893 65.301 83.0077 65.4037 82.905C65.511 82.8023 65.5903 82.6787 65.6417 82.534C65.6977 82.3893 65.7257 82.2307 65.7257 82.058C65.7257 81.7033 65.6183 81.4233 65.4037 81.218C65.1937 81.008 64.8763 80.903 64.4517 80.903C64.027 80.903 63.7073 81.008 63.4927 81.218C63.2827 81.4233 63.1777 81.7033 63.1777 82.058C63.1777 82.226 63.2033 82.3823 63.2547 82.527C63.3107 82.6717 63.39 82.7977 63.4927 82.905C63.6 83.0077 63.733 83.0893 63.8917 83.15C64.055 83.206 64.2417 83.234 64.4517 83.234ZM66.4047 87.322C66.4047 87.182 66.3627 87.0677 66.2787 86.979C66.1947 86.8903 66.0803 86.8227 65.9357 86.776C65.791 86.7247 65.6207 86.6873 65.4247 86.664C65.2333 86.6407 65.028 86.6243 64.8087 86.615C64.594 86.601 64.37 86.5893 64.1367 86.58C63.908 86.5707 63.684 86.552 63.4647 86.524C63.2733 86.6313 63.117 86.7573 62.9957 86.902C62.879 87.0467 62.8207 87.2147 62.8207 87.406C62.8207 87.532 62.851 87.6487 62.9117 87.756C62.977 87.868 63.0773 87.9637 63.2127 88.043C63.3527 88.1223 63.5323 88.183 63.7517 88.225C63.971 88.2717 64.2393 88.295 64.5567 88.295C64.8787 88.295 65.1563 88.2693 65.3897 88.218C65.623 88.1713 65.8143 88.1037 65.9637 88.015C66.1177 87.931 66.2297 87.8283 66.2997 87.707C66.3697 87.5903 66.4047 87.462 66.4047 87.322ZM68.1267 80.063V80.707C68.1267 80.9123 68.003 81.0383 67.7557 81.085L67.1117 81.204C67.2097 81.4513 67.2587 81.722 67.2587 82.016C67.2587 82.3707 67.1863 82.6927 67.0417 82.982C66.9017 83.2667 66.7057 83.5093 66.4537 83.71C66.2017 83.9107 65.903 84.067 65.5577 84.179C65.217 84.2863 64.8483 84.34 64.4517 84.34C64.3117 84.34 64.1763 84.333 64.0457 84.319C63.915 84.305 63.7867 84.2863 63.6607 84.263C63.4367 84.3983 63.3247 84.55 63.3247 84.718C63.3247 84.8627 63.39 84.97 63.5207 85.04C63.656 85.1053 63.8333 85.152 64.0527 85.18C64.272 85.208 64.5217 85.2267 64.8017 85.236C65.0817 85.2407 65.3687 85.2547 65.6627 85.278C65.9567 85.3013 66.2437 85.3433 66.5237 85.404C66.8037 85.46 67.0533 85.551 67.2727 85.677C67.492 85.803 67.667 85.9757 67.7977 86.195C67.933 86.4097 68.0007 86.6873 68.0007 87.028C68.0007 87.3453 67.9213 87.6533 67.7627 87.952C67.6087 88.2507 67.3823 88.5167 67.0837 88.75C66.7897 88.9833 66.4257 89.17 65.9917 89.31C65.5623 89.4547 65.0723 89.527 64.5217 89.527C63.9803 89.527 63.509 89.4733 63.1077 89.366C62.7063 89.2633 62.3727 89.1233 62.1067 88.946C61.8407 88.7733 61.6423 88.5727 61.5117 88.344C61.381 88.1153 61.3157 87.8773 61.3157 87.63C61.3157 87.294 61.416 87.014 61.6167 86.79C61.822 86.5613 62.102 86.3793 62.4567 86.244C62.2653 86.146 62.1137 86.0153 62.0017 85.852C61.8897 85.6887 61.8337 85.474 61.8337 85.208C61.8337 85.1007 61.8523 84.991 61.8897 84.879C61.9317 84.7623 61.99 84.648 62.0647 84.536C62.144 84.424 62.242 84.319 62.3587 84.221C62.4753 84.1183 62.613 84.0273 62.7717 83.948C62.4077 83.752 62.1207 83.4907 61.9107 83.164C61.7053 82.8373 61.6027 82.4547 61.6027 82.016C61.6027 81.6613 61.6727 81.3417 61.8127 81.057C61.9573 80.7677 62.1557 80.5227 62.4077 80.322C62.6643 80.1167 62.9653 79.9603 63.3107 79.853C63.6607 79.7457 64.041 79.692 64.4517 79.692C64.7597 79.692 65.049 79.7247 65.3197 79.79C65.5903 79.8507 65.8377 79.9417 66.0617 80.063H68.1267ZM73.7271 82.583C73.7271 82.359 73.6944 82.149 73.6291 81.953C73.5684 81.7523 73.4751 81.5773 73.3491 81.428C73.2231 81.2787 73.0621 81.162 72.8661 81.078C72.6748 80.9893 72.4508 80.945 72.1941 80.945C71.6948 80.945 71.3004 81.0873 71.0111 81.372C70.7264 81.6567 70.5444 82.0603 70.4651 82.583H73.7271ZM70.4301 83.626C70.4581 83.9947 70.5234 84.3143 70.6261 84.585C70.7288 84.851 70.8641 85.0727 71.0321 85.25C71.2001 85.4227 71.3984 85.5533 71.6271 85.642C71.8604 85.726 72.1171 85.768 72.3971 85.768C72.6771 85.768 72.9174 85.7353 73.1181 85.67C73.3234 85.6047 73.5008 85.5323 73.6501 85.453C73.8041 85.3737 73.9371 85.3013 74.0491 85.236C74.1658 85.1707 74.2778 85.138 74.3851 85.138C74.5298 85.138 74.6371 85.1917 74.7071 85.299L75.2041 85.929C75.0128 86.153 74.7981 86.342 74.5601 86.496C74.3221 86.6453 74.0724 86.7667 73.8111 86.86C73.5544 86.9487 73.2908 87.0117 73.0201 87.049C72.7541 87.0863 72.4951 87.105 72.2431 87.105C71.7438 87.105 71.2794 87.0233 70.8501 86.86C70.4208 86.692 70.0474 86.447 69.7301 86.125C69.4128 85.7983 69.1631 85.397 68.9811 84.921C68.7991 84.4403 68.7081 83.885 68.7081 83.255C68.7081 82.765 68.7874 82.3053 68.9461 81.876C69.1048 81.442 69.3311 81.0663 69.6251 80.749C69.9238 80.427 70.2854 80.1727 70.7101 79.986C71.1394 79.7993 71.6224 79.706 72.1591 79.706C72.6118 79.706 73.0294 79.7783 73.4121 79.923C73.7948 80.0677 74.1238 80.28 74.3991 80.56C74.6744 80.8353 74.8891 81.176 75.0431 81.582C75.2018 81.9833 75.2811 82.443 75.2811 82.961C75.2811 83.2223 75.2531 83.3997 75.1971 83.493C75.1411 83.5817 75.0338 83.626 74.8751 83.626H70.4301ZM83.7769 83.934C83.2776 83.9573 82.8576 84.0017 82.5169 84.067C82.1762 84.1277 81.9032 84.207 81.6979 84.305C81.4926 84.403 81.3456 84.5173 81.2569 84.648C81.1682 84.7787 81.1239 84.921 81.1239 85.075C81.1239 85.3783 81.2126 85.5953 81.3899 85.726C81.5719 85.8567 81.8076 85.922 82.0969 85.922C82.4516 85.922 82.7572 85.859 83.0139 85.733C83.2752 85.6023 83.5296 85.4063 83.7769 85.145V83.934ZM79.8149 80.819C80.6409 80.063 81.6349 79.685 82.7969 79.685C83.2169 79.685 83.5926 79.755 83.9239 79.895C84.2552 80.0303 84.5352 80.2217 84.7639 80.469C84.9926 80.7117 85.1652 81.0033 85.2819 81.344C85.4032 81.6847 85.4639 82.058 85.4639 82.464V87H84.6799C84.5166 87 84.3906 86.9767 84.3019 86.93C84.2132 86.8787 84.1432 86.7783 84.0919 86.629L83.9379 86.111C83.7559 86.2743 83.5786 86.419 83.4059 86.545C83.2332 86.6663 83.0536 86.769 82.8669 86.853C82.6802 86.937 82.4796 87 82.2649 87.042C82.0549 87.0887 81.8216 87.112 81.5649 87.112C81.2616 87.112 80.9816 87.0723 80.7249 86.993C80.4682 86.909 80.2466 86.7853 80.0599 86.622C79.8732 86.4587 79.7286 86.2557 79.6259 86.013C79.5232 85.7703 79.4719 85.488 79.4719 85.166C79.4719 84.984 79.5022 84.8043 79.5629 84.627C79.6236 84.445 79.7216 84.2723 79.8569 84.109C79.9969 83.9457 80.1766 83.7917 80.3959 83.647C80.6152 83.5023 80.8836 83.3763 81.2009 83.269C81.5229 83.1617 81.8962 83.0753 82.3209 83.01C82.7456 82.94 83.2309 82.898 83.7769 82.884V82.464C83.7769 81.9833 83.6742 81.6287 83.4689 81.4C83.2636 81.1667 82.9672 81.05 82.5799 81.05C82.2999 81.05 82.0666 81.0827 81.8799 81.148C81.6979 81.2133 81.5369 81.288 81.3969 81.372C81.2569 81.4513 81.1286 81.5237 81.0119 81.589C80.8999 81.6543 80.7739 81.687 80.6339 81.687C80.5126 81.687 80.4099 81.6567 80.3259 81.596C80.2419 81.5307 80.1742 81.456 80.1229 81.372L79.8149 80.819ZM93.4032 79.818L90.5542 87H88.9862L86.1372 79.818H87.5652C87.6959 79.818 87.8032 79.8483 87.8872 79.909C87.9759 79.9697 88.0342 80.0467 88.0622 80.14L89.4482 83.976C89.5229 84.2 89.5882 84.4193 89.6442 84.634C89.7002 84.8487 89.7492 85.0633 89.7912 85.278C89.8379 85.0633 89.8892 84.8487 89.9452 84.634C90.0012 84.4193 90.0689 84.2 90.1482 83.976L91.5622 80.14C91.5949 80.0467 91.6532 79.9697 91.7372 79.909C91.8212 79.8483 91.9216 79.818 92.0382 79.818H93.4032ZM97.941 83.934C97.4416 83.9573 97.0216 84.0017 96.681 84.067C96.3403 84.1277 96.0673 84.207 95.862 84.305C95.6566 84.403 95.5096 84.5173 95.421 84.648C95.3323 84.7787 95.288 84.921 95.288 85.075C95.288 85.3783 95.3766 85.5953 95.554 85.726C95.736 85.8567 95.9716 85.922 96.261 85.922C96.6156 85.922 96.9213 85.859 97.178 85.733C97.4393 85.6023 97.6936 85.4063 97.941 85.145V83.934ZM93.979 80.819C94.805 80.063 95.799 79.685 96.961 79.685C97.381 79.685 97.7566 79.755 98.088 79.895C98.4193 80.0303 98.6993 80.2217 98.928 80.469C99.1566 80.7117 99.3293 81.0033 99.446 81.344C99.5673 81.6847 99.628 82.058 99.628 82.464V87H98.844C98.6806 87 98.5546 86.9767 98.466 86.93C98.3773 86.8787 98.3073 86.7783 98.256 86.629L98.102 86.111C97.92 86.2743 97.7426 86.419 97.57 86.545C97.3973 86.6663 97.2176 86.769 97.031 86.853C96.8443 86.937 96.6436 87 96.429 87.042C96.219 87.0887 95.9856 87.112 95.729 87.112C95.4256 87.112 95.1456 87.0723 94.889 86.993C94.6323 86.909 94.4106 86.7853 94.224 86.622C94.0373 86.4587 93.8926 86.2557 93.79 86.013C93.6873 85.7703 93.636 85.488 93.636 85.166C93.636 84.984 93.6663 84.8043 93.727 84.627C93.7876 84.445 93.8856 84.2723 94.021 84.109C94.161 83.9457 94.3406 83.7917 94.56 83.647C94.7793 83.5023 95.0476 83.3763 95.365 83.269C95.687 83.1617 96.0603 83.0753 96.485 83.01C96.9096 82.94 97.395 82.898 97.941 82.884V82.464C97.941 81.9833 97.8383 81.6287 97.633 81.4C97.4276 81.1667 97.1313 81.05 96.744 81.05C96.464 81.05 96.2306 81.0827 96.044 81.148C95.862 81.2133 95.701 81.288 95.561 81.372C95.421 81.4513 95.2926 81.5237 95.176 81.589C95.064 81.6543 94.938 81.687 94.798 81.687C94.6766 81.687 94.574 81.6567 94.49 81.596C94.406 81.5307 94.3383 81.456 94.287 81.372L93.979 80.819ZM103.048 79.818V87H101.312V79.818H103.048ZM103.286 77.725C103.286 77.8743 103.256 78.0143 103.195 78.145C103.135 78.2757 103.053 78.39 102.95 78.488C102.852 78.586 102.736 78.6653 102.6 78.726C102.465 78.782 102.32 78.81 102.166 78.81C102.017 78.81 101.875 78.782 101.739 78.726C101.609 78.6653 101.494 78.586 101.396 78.488C101.298 78.39 101.219 78.2757 101.158 78.145C101.102 78.0143 101.074 77.8743 101.074 77.725C101.074 77.571 101.102 77.4263 101.158 77.291C101.219 77.1557 101.298 77.039 101.396 76.941C101.494 76.843 101.609 76.766 101.739 76.71C101.875 76.6493 102.017 76.619 102.166 76.619C102.32 76.619 102.465 76.6493 102.6 76.71C102.736 76.766 102.852 76.843 102.95 76.941C103.053 77.039 103.135 77.1557 103.195 77.291C103.256 77.4263 103.286 77.571 103.286 77.725ZM106.561 76.598V87H104.832V76.598H106.561ZM112.078 83.934C111.578 83.9573 111.158 84.0017 110.818 84.067C110.477 84.1277 110.204 84.207 109.999 84.305C109.793 84.403 109.646 84.5173 109.558 84.648C109.469 84.7787 109.425 84.921 109.425 85.075C109.425 85.3783 109.513 85.5953 109.691 85.726C109.873 85.8567 110.108 85.922 110.398 85.922C110.752 85.922 111.058 85.859 111.315 85.733C111.576 85.6023 111.83 85.4063 112.078 85.145V83.934ZM108.116 80.819C108.942 80.063 109.936 79.685 111.098 79.685C111.518 79.685 111.893 79.755 112.225 79.895C112.556 80.0303 112.836 80.2217 113.065 80.469C113.293 80.7117 113.466 81.0033 113.583 81.344C113.704 81.6847 113.765 82.058 113.765 82.464V87H112.981C112.817 87 112.691 86.9767 112.603 86.93C112.514 86.8787 112.444 86.7783 112.393 86.629L112.239 86.111C112.057 86.2743 111.879 86.419 111.707 86.545C111.534 86.6663 111.354 86.769 111.168 86.853C110.981 86.937 110.78 87 110.566 87.042C110.356 87.0887 110.122 87.112 109.866 87.112C109.562 87.112 109.282 87.0723 109.026 86.993C108.769 86.909 108.547 86.7853 108.361 86.622C108.174 86.4587 108.029 86.2557 107.927 86.013C107.824 85.7703 107.773 85.488 107.773 85.166C107.773 84.984 107.803 84.8043 107.864 84.627C107.924 84.445 108.022 84.2723 108.158 84.109C108.298 83.9457 108.477 83.7917 108.697 83.647C108.916 83.5023 109.184 83.3763 109.502 83.269C109.824 83.1617 110.197 83.0753 110.622 83.01C111.046 82.94 111.532 82.898 112.078 82.884V82.464C112.078 81.9833 111.975 81.6287 111.77 81.4C111.564 81.1667 111.268 81.05 110.881 81.05C110.601 81.05 110.367 81.0827 110.181 81.148C109.999 81.2133 109.838 81.288 109.698 81.372C109.558 81.4513 109.429 81.5237 109.313 81.589C109.201 81.6543 109.075 81.687 108.935 81.687C108.813 81.687 108.711 81.6567 108.627 81.596C108.543 81.5307 108.475 81.456 108.424 81.372L108.116 80.819ZM117.122 85.138C117.318 85.376 117.53 85.544 117.759 85.642C117.992 85.74 118.237 85.789 118.494 85.789C118.76 85.789 118.998 85.7423 119.208 85.649C119.423 85.551 119.605 85.4017 119.754 85.201C119.903 84.9957 120.018 84.7367 120.097 84.424C120.176 84.1067 120.216 83.7287 120.216 83.29C120.216 82.5013 120.085 81.932 119.824 81.582C119.563 81.2273 119.187 81.05 118.697 81.05C118.366 81.05 118.076 81.127 117.829 81.281C117.582 81.4303 117.346 81.6427 117.122 81.918V85.138ZM117.122 80.7C117.411 80.3967 117.731 80.1563 118.081 79.979C118.436 79.797 118.839 79.706 119.292 79.706C119.707 79.706 120.081 79.7877 120.412 79.951C120.748 80.1143 121.033 80.35 121.266 80.658C121.504 80.9613 121.686 81.33 121.812 81.764C121.938 82.198 122.001 82.6857 122.001 83.227C122.001 83.8103 121.929 84.34 121.784 84.816C121.639 85.292 121.432 85.7003 121.161 86.041C120.895 86.377 120.573 86.6383 120.195 86.825C119.817 87.0117 119.397 87.105 118.935 87.105C118.711 87.105 118.508 87.0817 118.326 87.035C118.144 86.993 117.976 86.9323 117.822 86.853C117.668 86.7737 117.526 86.678 117.395 86.566C117.269 86.4493 117.148 86.321 117.031 86.181L116.954 86.664C116.926 86.7853 116.877 86.8717 116.807 86.923C116.742 86.9743 116.651 87 116.534 87H115.393V76.598H117.122V80.7ZM125.086 76.598V87H123.357V76.598H125.086ZM131.436 82.583C131.436 82.359 131.403 82.149 131.338 81.953C131.277 81.7523 131.184 81.5773 131.058 81.428C130.932 81.2787 130.771 81.162 130.575 81.078C130.384 80.9893 130.16 80.945 129.903 80.945C129.404 80.945 129.009 81.0873 128.72 81.372C128.435 81.6567 128.253 82.0603 128.174 82.583H131.436ZM128.139 83.626C128.167 83.9947 128.232 84.3143 128.335 84.585C128.438 84.851 128.573 85.0727 128.741 85.25C128.909 85.4227 129.107 85.5533 129.336 85.642C129.569 85.726 129.826 85.768 130.106 85.768C130.386 85.768 130.626 85.7353 130.827 85.67C131.032 85.6047 131.21 85.5323 131.359 85.453C131.513 85.3737 131.646 85.3013 131.758 85.236C131.875 85.1707 131.987 85.138 132.094 85.138C132.239 85.138 132.346 85.1917 132.416 85.299L132.913 85.929C132.722 86.153 132.507 86.342 132.269 86.496C132.031 86.6453 131.781 86.7667 131.52 86.86C131.263 86.9487 131 87.0117 130.729 87.049C130.463 87.0863 130.204 87.105 129.952 87.105C129.453 87.105 128.988 87.0233 128.559 86.86C128.13 86.692 127.756 86.447 127.439 86.125C127.122 85.7983 126.872 85.397 126.69 84.921C126.508 84.4403 126.417 83.885 126.417 83.255C126.417 82.765 126.496 82.3053 126.655 81.876C126.814 81.442 127.04 81.0663 127.334 80.749C127.633 80.427 127.994 80.1727 128.419 79.986C128.848 79.7993 129.331 79.706 129.868 79.706C130.321 79.706 130.738 79.7783 131.121 79.923C131.504 80.0677 131.833 80.28 132.108 80.56C132.383 80.8353 132.598 81.176 132.752 81.582C132.911 81.9833 132.99 82.443 132.99 82.961C132.99 83.2223 132.962 83.3997 132.906 83.493C132.85 83.5817 132.743 83.626 132.584 83.626H128.139Z" fill="#6D6D6D"/>
</svg>
