<svg width="43" height="33" viewBox="0 0 43 33" fill="none" xmlns="http://www.w3.org/2000/svg">
<path fill-rule="evenodd" clip-rule="evenodd" d="M6.87459 15.9144V16.4846C6.87459 24.5319 13.3069 31.108 21.214 31.108C27.7939 31.108 33.3407 26.604 35.0226 20.4785L12.0083 20.7488L17.5556 16.3947L6.87459 15.9144ZM7.40595 12.5814C9.08766 6.39574 14.6347 1.89155 21.2143 1.89155C29.1219 1.89155 35.5537 8.43764 35.5537 16.4846V17.2055L24.873 16.7252L30.5675 12.3112L7.40595 12.5814ZM5.01592 15.8242L0 15.6142V12.6414L5.45844 12.5814C7.1993 5.3749 13.6019 0 21.2143 0C30.1544 0 37.4127 7.38659 37.4127 16.4846C37.4127 16.7554 37.4127 16.9952 37.3834 17.2654L42.4286 17.4755V20.4186L36.9704 20.4785C35.1998 27.6548 28.8269 33 21.2143 33C12.2447 33 4.98647 25.6132 4.98647 16.4846C4.98647 16.2746 4.98647 16.0645 5.01592 15.8242Z" fill="#2C00AB"/>
</svg>
