<svg width="37" height="37" viewBox="0 0 37 37" fill="none" xmlns="http://www.w3.org/2000/svg">
<path fill-rule="evenodd" clip-rule="evenodd" d="M36.531 36.5217V0.322754H0.332031V36.5217H36.531Z" fill="#2C00AB"/>
<path fill-rule="evenodd" clip-rule="evenodd" d="M31.1335 11.7244C31.1548 11.4556 31.231 11.2113 31.319 10.9287C31.4197 10.6057 31.6037 10.1467 31.6586 9.66313C31.8333 8.13592 30.9466 6.72817 29.4714 6.52752C29.0773 6.47412 27.514 6.22764 26.418 7.86311C26.2102 8.17309 25.9114 8.9699 25.9431 9.58049C25.4062 8.29796 24.7465 6.8404 24.0262 5.7632C23.871 5.55209 23.0619 4.60048 22.8407 4.53768C21.8328 4.26992 20.6304 3.9906 19.6726 3.84229C19.2793 3.88198 16.3378 4.93103 16.244 5.06167C16.244 5.06167 15.9059 5.41496 15.9059 5.42073C15.208 5.59215 13.7677 5.81408 13.6623 5.95085C13.3524 6.32724 13.5682 6.68053 13.6681 6.83426C13.7013 6.89128 13.9341 7.70649 14.3494 7.70649L15.4627 7.70974C16.0055 6.79782 17.5919 6.75307 18.035 7.97858C17.6178 8.15036 17.2873 8.34415 16.4678 8.24022C15.4743 8.09948 14.4812 8.43725 14.4859 8.57474C14.4934 8.79271 15.6554 8.86488 15.9557 8.8703C16.4674 8.88184 17.2339 8.93273 17.9019 8.88148C17.5695 9.35458 16.9142 9.53646 16.4652 9.53646H14.6818C14.7606 9.9017 14.9134 10.2469 15.1307 10.5509H15.8615C16.349 10.5794 16.1985 10.7595 16.0943 11.0583C15.9062 11.5985 15.5649 12.4151 15.0282 12.8908C13.2224 11.3177 10.8021 9.34809 9.09264 8.09731C8.5932 7.73175 6.53985 7.47589 5.511 7.86599C5.21581 7.97786 5.02924 8.21856 4.92603 8.41416L5.43775 8.56067C4.49876 9.1229 5.08049 10.177 5.08049 10.177C5.53518 10.0796 6.25007 9.85222 6.99707 10.9565L6.36374 11.4603C6.68455 11.6876 8.61341 11.911 9.1659 11.57C9.1659 11.57 11.4448 14.6074 11.688 14.737C11.8205 14.8073 10.7609 14.8662 9.57838 14.9517C8.56216 14.9679 7.61127 14.9842 6.86535 15.0004C6.19485 15.0148 5.7066 15.5237 5.54601 15.9625C5.38001 16.3955 5.20282 17.315 5.28041 17.7142L5.65138 17.5943C6.12232 18.3753 6.14433 18.5506 6.75384 18.7791C7.09486 17.9177 8.37595 18.0101 8.37595 18.0101L8.36152 18.7946C10.1403 18.7834 10.3109 17.4965 10.3109 17.4965L13.7804 17.4424L15.9752 20.1017C14.1744 21.9739 12.9186 24.2903 11.561 26.7659C12.2149 27.3591 11.9886 28.5695 10.9147 28.6825C10.1825 28.7597 9.37485 28.0841 8.38859 28.3064C7.18653 28.5688 7.43589 29.5319 6.48896 30.7917C7.43589 31.0252 8.42467 31.642 9.07568 32.3922C10.3759 31.5691 13.0084 32.2053 14.0387 32.5474C14.2679 32.6221 14.3624 32.2074 14.2134 31.8574C14.0921 31.5727 13.9178 31.1288 14.2267 30.4045C14.5043 29.7546 17.6005 26.6078 19.7932 24.6097C19.8058 24.5981 20.5615 25.1708 21.3225 25.7298C22.5123 26.6035 24.094 27.4869 24.094 27.4869L24.412 27.4623C25.8511 27.1534 26.0965 28.4241 25.9366 28.8513C25.7768 29.2782 25.3517 29.5356 24.832 29.4991C24.2553 29.4536 23.6198 29.179 22.8501 29.6297C22.075 30.0628 22.4066 31.5106 21.936 32.1205C23.2377 32.1205 24.2846 32.7874 24.7941 33.1006C26.9215 32.206 27.5429 32.4792 29.6976 32.8444C29.8477 32.8725 29.9661 32.4554 29.8005 32.215C29.646 31.9902 29.405 31.3904 29.4486 30.8949V25.741C28.0748 25.9232 27.4433 25.3534 27.2051 24.6126C27.0283 24.0597 26.5072 22.9313 26.169 22.2131C26.169 22.2131 28.2884 22.159 29.4317 20.7848C29.8597 20.2702 30.2267 19.2291 30.03 18.2508C29.7572 16.8943 29.5803 16.4399 29.104 15.2545C28.7078 14.2675 27.9734 12.4638 27.6703 11.4364C27.2412 9.98394 27.1777 9.33654 27.6327 8.53433C27.9092 8.04679 28.5089 7.58812 29.1917 7.92229C29.6392 8.14134 29.5414 8.26764 29.4991 8.34956C28.943 9.20735 28.7189 10.3188 28.9513 11.103C29.2761 12.1979 30.3104 13.0813 30.7629 13.3682C30.7629 13.3682 31.5193 13.8608 31.6723 13.7449C32.0343 13.4696 31.0982 12.1535 31.1335 11.7244ZM18.5464 5.58276C18.1981 5.7365 17.5626 5.95843 17.0433 6.13418C16.9271 5.84981 16.916 5.62246 16.9661 5.28685C17.4024 5.21865 18.0383 5.13348 18.4525 5.13348C18.7178 5.13384 18.79 5.46909 18.5464 5.58276ZM27.5761 14.8091C28.1398 16.2321 28.3429 16.8419 28.5248 17.8087C28.6699 18.581 28.5926 19.2821 28.291 19.6859C27.9384 20.1587 27.0034 20.9064 25.1727 20.4755L25.1741 20.4719C24.6039 19.6398 23.5895 18.1356 23.0767 17.3443C23.4427 16.0105 23.609 15.6857 23.8963 14.4147C23.8963 14.4147 24.6963 14.8535 24.7328 14.6998C24.8659 14.1361 25.7793 11.4816 25.9402 10.6263C25.9402 10.6263 26.0799 11.0045 26.2658 11.5552C26.6775 12.7699 27.1618 13.763 27.5761 14.8091Z" fill="#F6F6F6"/>
</svg>
