<svg width="30" height="37" viewBox="0 0 30 37" fill="none" xmlns="http://www.w3.org/2000/svg">
<g clip-path="url(#clip0)">
<path fill-rule="evenodd" clip-rule="evenodd" d="M23.1698 31.6975C20.9507 33.722 19.0404 34.8132 15.0161 36.9271C11.2701 35.221 8.82507 33.5392 6.70476 31.8829C3.77463 29.5985 1.66984 25.8892 1.48723 23.6143L0.0253906 1.96198C9.92856 -0.615848 20.4622 -0.557196 29.5741 2.13511L28.0908 23.5682C27.902 25.5093 26.1679 29.2833 23.1698 31.6975ZM26.3942 22.8581L27.7327 3.71869C19.8908 1.21806 10.4977 1.18097 1.84317 3.45587L3.20928 22.8458C3.35157 24.8609 4.80112 27.9428 7.57989 30.3044C9.25216 31.7263 12.5286 34.1127 14.9484 35.0275C17.7366 33.615 20.2709 31.8593 22.2802 30.1254C24.7713 27.8531 26.2426 25.028 26.3942 22.8581ZM21.9585 29.6199C20.0327 31.2831 17.4397 33.147 14.9484 34.337C12.7231 33.6477 9.43436 31.1067 7.85179 29.7406C5.09156 27.3543 3.96953 24.8571 3.79962 22.4951L2.4581 3.98635C10.6985 1.81968 19.6931 1.81968 27.1665 4.20261L25.8407 22.4643C25.6491 24.8937 24.5208 27.215 21.9585 29.6199ZM3.07404 4.34612L3.33988 7.53605C11.2062 5.56711 19.4468 5.76503 26.2868 7.83596L26.5804 4.59039C19.4927 2.41426 10.8879 2.29675 3.07404 4.34612ZM22.6357 5.53002L20.8614 5.23636L20.7933 6.07098L20.2155 5.98432L20.3513 3.77129L20.9419 3.85796L20.88 4.7079L22.679 4.99833L22.7377 4.1484L23.3403 4.26267L23.1581 6.48194L22.5708 6.37391L22.6357 5.53002ZM14.0732 4.77905C13.8568 4.77905 13.6836 4.72039 13.5694 4.52872C13.4706 4.37111 13.4706 3.85796 13.5694 3.68805C13.6776 3.49033 13.8723 3.43471 14.0331 3.43471L16.5491 3.43773L16.5549 3.98171L14.1752 3.97849C14.0577 3.97849 14.0547 4.24131 14.1845 4.24131H16.0605C16.2802 4.24131 16.4747 4.37413 16.5364 4.54726C16.6045 4.73269 16.5922 5.15312 16.5364 5.32625C16.484 5.49939 16.2861 5.59512 16.0388 5.59512H13.5571L13.5538 5.03864H15.7636C15.7963 5.03607 15.8268 5.02127 15.849 4.99722C15.8713 4.97316 15.8836 4.9416 15.8836 4.90884C15.8836 4.87608 15.8713 4.84453 15.849 4.82047C15.8268 4.79641 15.7963 4.78162 15.7636 4.77905H14.0732ZM12.6176 5.00015C12.6171 4.97246 12.6111 4.94516 12.5999 4.91984C12.5887 4.89452 12.5725 4.87169 12.5524 4.8527C12.5322 4.8337 12.5085 4.81891 12.4826 4.80921C12.4567 4.7995 12.429 4.79507 12.4014 4.79618L10.7321 4.9167L10.766 5.74508L10.225 5.8007L10.1106 3.6155L12.5959 3.42987C12.9173 3.40528 13.1058 3.64633 13.1211 3.84728C13.1397 4.08531 13.1489 4.39126 12.9633 4.51804C13.1181 4.63232 13.1582 4.80243 13.1612 5.04046L13.1675 5.59996L12.6265 5.62152L12.6176 5.00015ZM12.2631 4.29089C12.4764 4.2786 12.4578 3.94765 12.2631 3.9664L10.6743 4.08692L10.6928 4.38985L12.2631 4.29089ZM7.05828 4.00066C7.5682 3.88013 8.61284 3.71325 9.16005 3.67294C9.41037 3.6546 9.60507 3.7844 9.63913 3.97909C9.71955 4.42734 9.76913 4.89091 9.7135 5.51229C9.69798 5.69146 9.5434 5.83376 9.33943 5.87709C8.63803 6.03168 7.84957 6.11512 7.26527 6.17075C7.11693 6.18627 6.88213 6.06876 6.84182 5.88334C6.73983 5.43187 6.70275 4.80142 6.73358 4.36869C6.74608 4.20765 6.89442 4.03774 7.05828 4.00066ZM9.04355 5.3317C9.1145 5.31638 9.14554 5.23898 9.15178 5.18336C9.17657 5.01325 9.15481 4.56822 9.1145 4.41968C9.1022 4.36103 9.05282 4.32395 8.94157 4.33322C8.63864 4.35176 7.83788 4.46624 7.44244 4.5527C7.33743 4.5775 7.29712 4.63917 7.29107 4.6948C7.27253 4.84012 7.31566 5.23878 7.35295 5.46149C7.36222 5.5141 7.43034 5.55098 7.48275 5.54816C8.01726 5.50483 8.64791 5.41836 9.04355 5.3317ZM17.8088 4.09277C17.6911 4.08954 17.6108 4.16069 17.6018 4.22257C17.5738 4.40497 17.5643 4.63977 17.5643 4.94593C17.5643 4.98604 17.6324 5.09729 17.6911 5.10656C18.223 5.18074 19.2551 5.27365 19.8176 5.31074L19.7838 5.88253C19.0449 5.84867 18.2721 5.73117 17.4718 5.67534C17.2092 5.6568 17.0175 5.5147 17.008 5.26135C16.9927 4.84394 17.0175 4.21329 17.0914 3.84567C17.141 3.61993 17.3571 3.50263 17.6016 3.50868C18.3401 3.53649 18.9274 3.60139 19.895 3.73119L19.8579 4.30016C19.3881 4.25965 18.4981 4.12058 17.8088 4.09277ZM5.71334 4.25864C6.46129 4.08249 6.57557 5.41151 5.95117 5.5661L4.20796 6.00205L4.2914 6.86126L3.74439 7.00678L3.5497 4.76857L5.71334 4.25864ZM5.70427 5.12914C5.88345 5.08903 5.85886 4.76776 5.66698 4.80787L4.09368 5.18799L4.13097 5.51894L5.70427 5.12914ZM24.2015 5.86137L24.1644 6.21993L25.8921 6.65568L25.8458 7.15653L23.5275 6.60952L23.7287 4.35599L26.0622 4.92174L26.0098 5.44718L24.2727 5.02675L24.2388 5.40708L25.9635 5.82731L25.9202 6.27233L24.2015 5.86137ZM7.48134 12.2749C7.24028 12.5964 7.01777 13.091 6.91276 13.5112C6.87548 13.6535 6.87548 13.7059 6.90047 13.7986C7.12903 13.6966 7.42591 13.5977 7.59884 13.542C7.66696 13.3909 7.70385 13.2175 7.7627 13.0785C7.85521 12.8622 7.91406 12.7693 8.01 12.6179C8.28512 12.1915 8.86619 11.771 9.29569 11.7803C9.1534 11.9038 8.85671 12.213 8.73941 12.3984C8.64368 12.553 8.55399 12.7199 8.48586 12.8931C8.42721 13.0478 8.40867 13.1619 8.39315 13.2887C8.61566 13.2238 8.83515 13.1774 8.97724 13.1682C9.07318 13.1156 9.10402 13.0134 9.15662 12.9176C9.32028 12.6117 9.64175 12.2684 9.84592 12.1574C10.0096 12.0677 10.2508 11.9812 10.4238 12.0369C10.2383 12.1759 10.0436 12.3984 9.95718 12.5315C9.86749 12.6736 9.72217 12.9489 9.72842 13.0785C9.87998 13.091 10.0962 13.0785 10.1829 13.0569L10.1734 12.6302L14.615 12.627L14.612 6.55007C11.1562 6.55007 7.36988 6.87779 3.3548 7.99982L4.18317 19.4146H10.1702V17.1834C9.92916 17.0043 8.81016 16.8743 8.12106 17.1431C7.95417 17.208 7.41019 17.443 7.16289 17.6375L6.46754 18.188C6.39941 18.2436 6.39337 18.3641 6.39337 18.4566C6.39337 18.6606 6.15534 18.8152 6.02252 18.7719C5.91428 18.7348 5.76594 18.7132 5.6299 18.7443C5.48458 18.7749 5.35498 18.5923 5.34249 18.4877C5.32394 18.3577 5.42613 18.188 5.43218 18.1321C5.43842 18.0795 5.40436 17.8723 5.59583 17.7458C5.6823 17.6903 5.80283 17.6932 5.88949 17.7397C5.91469 17.7544 5.94455 17.7589 5.97293 17.7522C6.00397 17.7397 6.08741 17.6658 6.10898 17.6472C6.11825 17.5237 6.09971 17.3288 6.11221 17.2207C6.14002 17.0105 6.15231 16.89 6.21721 16.6858C6.27284 16.5097 6.39337 16.2533 6.48286 16.1078C6.64369 15.8452 6.96194 15.5916 7.20017 15.6132C7.10726 15.7369 7.07642 15.8018 7.0085 15.9286C6.88172 16.1604 6.76422 16.5437 6.70879 16.8033C6.67151 16.9702 6.65317 17.1002 6.66244 17.2762C6.84484 17.1403 7.03631 17.0289 7.16309 16.9579C7.22174 16.6518 7.34247 16.3212 7.47206 16.0771C7.62665 15.7833 8.04386 15.4648 8.31616 15.4896C8.05958 15.7678 7.87698 16.1541 7.80906 16.4014C7.78124 16.5002 7.74718 16.6149 7.7629 16.6766C7.86468 16.6209 8.0751 16.5653 8.17689 16.556C8.24501 16.3861 8.33772 16.1819 8.41512 16.0614C8.65617 15.6904 9.0363 15.4648 9.25276 15.4741C9.08265 15.7029 8.93733 15.9099 8.83233 16.216C8.80129 16.3055 8.78597 16.4014 8.78597 16.4478C8.91879 16.4262 9.12599 16.4262 9.20943 16.4262C9.36402 16.2872 9.47507 16.1201 9.6607 15.978C9.81529 15.8572 10.1027 15.6936 10.1706 15.6811V13.8049C10.1706 13.7646 9.67924 13.7277 9.43496 13.7585C8.78597 13.8359 7.16329 14.3458 6.47701 14.8189C6.46149 14.8592 6.46472 15.0847 6.41816 15.1897C6.37805 15.2855 6.27607 15.3844 6.17731 15.4277C6.00115 15.5051 5.79698 15.2701 5.70729 15.3042C5.61458 15.3383 5.41686 15.4185 5.20342 15.2671C5.10768 15.1992 5.0583 15.0073 5.09216 14.8654C5.1232 14.7632 5.20966 14.683 5.27759 14.6181C5.33946 14.5562 5.29613 14.3182 5.51844 14.1761C5.67323 14.0772 5.88627 14.1576 6.05033 14.244C6.08368 14.2334 6.11425 14.2155 6.13982 14.1916C6.16138 14.1265 6.19545 13.9288 6.22648 13.7742C6.26357 13.6071 6.27607 13.4991 6.32545 13.3447C6.4492 12.9708 6.74568 12.4329 7.05506 12.1515C7.29913 11.9351 7.67926 11.7622 7.96062 11.7807C7.93261 11.8234 7.58352 12.1358 7.48134 12.2749ZM8.19583 8.61596C8.43084 8.28844 9.04899 7.79383 9.52505 7.82185C9.26526 8.04738 9.0365 8.29771 8.87586 8.56355C8.66585 8.90679 8.49574 9.3363 8.45865 9.66724C8.61627 9.60839 8.98712 9.50338 9.20036 9.45702C9.38901 9.04586 9.63631 8.59157 9.94246 8.34729C10.1618 8.17113 10.477 8.01977 10.7708 8.05363C10.7027 8.14957 10.5915 8.22374 10.508 8.30093C10.3567 8.43375 10.2516 8.61313 10.168 8.79554C10.1061 8.93138 10.0011 9.33952 9.99789 9.35806C10.2111 9.35504 10.5882 9.37963 10.6686 9.40442C10.9192 9.0767 11.4664 8.60064 12.1214 8.70887C11.837 8.86326 11.3178 9.31433 11.3489 9.56183C11.7754 9.83715 12.4121 10.415 12.4399 10.9499C12.1494 10.647 11.6704 10.3471 11.4291 10.2636C10.8511 10.0597 10.1618 10.0318 9.58693 10.1369C8.38771 10.3626 7.32755 10.8818 6.31073 11.4909C6.28614 11.6545 6.19625 11.9018 6.12208 11.9855C6.04791 12.0689 5.93666 12.1491 5.81613 12.1677C5.66476 12.1925 5.50997 12.1306 5.38038 12.0627C5.29673 12.0163 5.07745 12.0752 4.93838 12.0008C4.84264 11.9512 4.6941 11.8121 4.73441 11.5929C4.76827 11.3982 4.96297 11.2807 4.99078 11.0952C5.03089 10.8231 5.22881 10.7056 5.3308 10.6873C5.44205 10.6657 5.55653 10.7028 5.65831 10.7492C5.70165 10.7707 5.7478 10.8078 5.78831 10.8203C5.82842 10.8078 5.88707 10.7584 5.92114 10.7431C5.93041 10.7121 6.03259 10.1465 6.08802 9.89923C6.14365 9.65192 6.23938 9.4415 6.3198 9.20992C6.56106 8.52385 7.30579 7.83132 7.90258 7.86841C7.87154 7.91174 7.67986 8.05081 7.41402 8.35999C6.98452 8.86366 6.87628 9.39857 6.71545 10.3166C7.04619 10.162 7.3336 10.0508 7.63351 9.94256C7.70501 9.658 7.80014 9.3799 7.91789 9.11117C7.99509 8.93743 8.0878 8.76752 8.19583 8.61596ZM26.2096 9.376L15.163 9.38547L15.1725 12.6371L25.9625 12.6308L26.2096 9.376ZM16.4314 26.2117C16.3046 26.2766 16.1472 26.2365 16.0823 26.2085C15.9708 26.1621 15.8969 26.0474 15.8874 25.9148C15.8783 25.8098 15.9803 25.683 16.0019 25.5683C16.0109 25.522 15.9618 25.2936 16.1563 25.1759C16.1937 25.1544 16.3046 25.114 16.3818 25.1267C16.4594 25.1421 16.5211 25.1916 16.5983 25.2039C16.7033 25.1667 16.8039 25.118 16.8982 25.0586C16.96 24.8204 17.0064 24.5457 17.037 24.3012C16.484 24.5763 15.7604 24.7617 15.1455 24.7865L15.1487 33.6795C17.7296 32.3686 20.5607 30.2237 21.766 29.0459C23.7166 27.1449 25.0301 25.2193 25.2309 22.4435L25.4131 19.9151L19.55 19.9088C19.55 21.3428 19.0709 22.8391 17.7013 23.9209C17.6241 24.2331 17.5873 24.7585 17.5931 24.7712C17.7818 24.6936 17.9581 24.6259 18.1127 24.5795C18.125 24.561 18.3445 24.0819 18.4434 23.9521C18.6752 23.5936 18.9874 23.2872 19.3674 23.0832C19.6056 22.9627 19.896 22.8514 20.1526 22.9474C19.8156 23.108 19.5526 23.3985 19.3952 23.5653C19.2498 23.7201 19.0799 23.9487 19.0028 24.1837C18.9922 24.2244 18.9839 24.2656 18.978 24.3072C19.1358 24.2577 19.6392 24.1837 19.8495 24.1557C19.8743 24.1525 19.9392 24.0136 19.9887 23.9455C20.0502 23.862 20.0875 23.8096 20.1863 23.6982C20.4398 23.423 20.8693 23.1294 21.2865 23.1943C21.0582 23.3396 20.8074 23.5714 20.6067 23.936C20.5787 23.9918 20.5418 24.069 20.5571 24.1029C20.619 24.1154 20.9251 24.1091 21.1106 24.1309C21.3236 23.9983 21.5495 23.8806 21.7936 23.8282C22.0687 23.7663 22.4275 23.8157 22.5696 23.9455C22.4027 23.936 22.2449 23.967 22.0937 24.0257C22.0071 24.0599 21.8339 24.1402 21.769 24.2512C21.9327 24.2976 22.202 24.4739 22.3717 24.6162C22.4894 24.715 22.6315 24.8575 22.7211 24.9871C22.9467 25.2934 22.9932 25.8433 22.8723 26.0073C22.8384 25.9112 22.8014 25.8156 22.7488 25.726C22.6405 25.5438 22.4704 25.3456 22.3251 25.2374C21.6237 24.7029 20.6131 24.6749 19.7876 24.8418C19.0797 24.9871 17.8031 25.2531 16.9687 25.8463C16.9903 25.9513 16.9254 26.1276 16.8298 26.1954C16.7033 26.2887 16.5243 26.1621 16.4314 26.2117ZM17.8088 27.2112C17.9013 27.0691 18.0127 26.8621 18.0682 26.7722C18.2631 26.46 18.5444 26.2282 18.7357 26.1383C18.9987 26.0115 19.4218 25.9376 19.6104 26.0301C19.4034 26.0797 19.2458 26.1754 19.1007 26.2774C18.9524 26.3798 18.6613 26.6454 18.5874 26.7569C18.5039 26.8804 18.4485 26.9915 18.4267 27.0505C18.6613 26.9977 18.9429 26.9544 19.088 26.9544C19.193 26.8214 19.4714 26.5033 19.6785 26.3548C19.8454 26.2371 20.201 26.1198 20.4233 26.2155C20.2102 26.2836 19.8331 26.5805 19.6939 26.7938C19.6632 26.8429 19.6352 26.8957 19.629 26.9234C19.7434 26.9328 19.9597 26.9544 20.0774 26.9697C20.0897 26.9697 20.4112 26.7722 20.5565 26.7319C20.7452 26.6791 21.0541 26.6114 21.249 26.8186C21.1069 26.8214 20.9739 26.8339 20.8687 26.8804C20.7171 26.9482 20.6522 26.9977 20.5845 27.0935C20.881 27.2513 21.1904 27.4151 21.3726 27.7056C21.4375 27.8076 21.5362 28.0488 21.4808 28.2062C21.3879 28.0889 21.2611 27.9744 21.1591 27.9158C21.0138 27.8323 20.9088 27.7521 20.7325 27.684C20.1794 27.477 19.4562 27.4214 18.878 27.4986C18.13 27.5943 17.212 27.9654 16.7424 28.2866C16.773 28.432 16.7023 28.6019 16.6188 28.6422C16.4425 28.7319 16.2728 28.5803 16.2417 28.5898C16.1954 28.6051 16.0531 28.6547 15.9513 28.6113C15.8489 28.5712 15.7844 28.3917 15.8245 28.2776C15.8551 28.1909 15.9793 28.0674 15.9793 28.0674C15.9604 27.8787 16.0841 27.7646 16.254 27.7427C16.3501 27.7336 16.4177 27.8076 16.4953 27.8233C16.5662 27.789 16.6158 27.7646 16.6527 27.7457C16.696 27.5913 16.7609 27.4335 16.8042 27.3037C16.8752 27.0844 16.9802 26.8895 17.1132 26.6857C17.3049 26.3921 17.6451 26.1137 18.0496 26.1079C17.9261 26.2036 17.8547 26.2562 17.7775 26.352C17.6449 26.5189 17.5425 26.6704 17.45 26.8496C17.3666 27.0074 17.289 27.242 17.2769 27.4492C17.4518 27.3647 17.6292 27.2854 17.8088 27.2112ZM17.7489 28.883C17.8539 28.8397 17.965 28.8091 18.0764 28.8216C17.8166 28.988 17.5788 29.2321 17.5139 29.523C17.5077 29.5536 17.5076 29.6155 17.5355 29.634C17.6094 29.6155 17.7981 29.5754 17.8477 29.5506C17.8783 29.4857 17.9555 29.3837 18.0083 29.3156C18.1937 29.0687 18.4598 28.8216 18.8274 28.9141C18.5861 29.0223 18.4471 29.1735 18.3421 29.3651C18.3235 29.3994 18.3114 29.4643 18.3358 29.4643C18.3977 29.4643 18.6327 29.4548 18.6666 29.4548C18.7748 29.3591 19.0902 29.1765 19.3067 29.2446C19.1985 29.2952 19.0993 29.3631 19.013 29.4458C18.9915 29.4701 18.9634 29.5012 18.9576 29.5383C19.1489 29.634 19.319 29.7422 19.4768 29.8785C19.5602 29.9494 19.6808 30.0825 19.7547 30.311C19.5693 30.1504 18.9634 29.8626 18.6329 29.8472C18.4164 29.8382 18.148 29.8783 18.0117 29.9091C17.4893 30.0268 16.9516 30.2618 16.491 30.5245C16.4943 30.6141 16.4785 30.722 16.377 30.8056C16.3088 30.8615 16.1605 30.8891 16.1045 30.8088C16.0738 30.7655 15.8727 30.8121 15.8297 30.7564C15.8297 30.7564 15.7769 30.6762 15.7707 30.5801C15.7648 30.4781 15.8326 30.4164 15.8884 30.3636C15.9037 30.3451 15.9007 30.1723 16.0305 30.1133C16.1107 30.0762 16.1911 30.0889 16.2592 30.1322C16.2873 30.1165 16.3088 30.1012 16.3274 30.0889C16.3427 29.8878 16.3798 29.7023 16.4541 29.5016C16.5561 29.217 16.8899 28.8709 17.1773 28.8832C16.9824 29.0935 16.825 29.3839 16.7722 29.6253C16.7569 29.7025 16.751 29.8541 16.751 29.9248C16.8198 29.8827 16.8921 29.8466 16.9671 29.817C16.9981 29.7426 17.0876 29.5572 17.134 29.4738C17.2509 29.2569 17.5139 28.979 17.7489 28.883ZM4.47884 22.7706C4.51593 23.8461 4.9549 25.1447 5.55754 26.0438H14.5489L14.5304 24.7891C13.3745 24.7891 11.6095 24.0255 10.9109 22.7769L4.47884 22.7706ZM10.6602 19.9654C10.6602 25.6836 19.0239 25.6836 19.0239 20.0241L19.0271 13.1436L10.6602 13.1406V19.9654ZM13.3547 17.225C13.4537 17.1167 13.5403 16.9746 13.5587 16.8541C13.5742 16.7552 13.2961 16.7614 13.1941 16.8233C13.1384 16.8571 13.0858 16.9253 13.0425 16.9871C13.0117 17.0335 12.9004 17.0706 12.8448 17.0182C12.7859 16.9626 12.8911 16.8666 12.8879 16.808C12.8879 16.709 12.6993 16.8573 12.6128 16.817C12.5542 16.7892 12.5509 16.6997 12.5912 16.6471C12.6128 16.6193 12.6747 16.6316 12.7025 16.601C12.7303 16.5699 12.7303 16.5236 12.7396 16.4835C12.7521 16.4371 12.8015 16.4153 12.8323 16.3815C12.9498 16.2672 13.1723 16.0723 13.2156 16.0755C13.3174 16.0848 13.4629 16.1374 13.5524 16.0908C13.571 16.0816 13.605 16.0507 13.574 16.0322L13.3329 15.8742C13.3319 15.8493 13.3363 15.8245 13.3459 15.8015C13.3555 15.7785 13.3701 15.7579 13.3886 15.7412C13.4998 15.6422 13.673 15.7103 13.8183 15.6886C13.9203 15.673 14.016 15.6329 14.0902 15.562C14.1087 15.6361 14.0624 15.7103 14.0624 15.7875C14.1551 15.8742 14.251 15.9481 14.3407 16.0318C14.6065 16.2974 14.7208 16.684 14.7394 17.024C14.7549 17.1816 14.7549 17.3423 14.7549 17.6051C14.7982 17.4938 14.826 17.33 14.8353 17.1877C14.8754 16.7672 14.8105 16.3934 14.5727 16.0749C14.476 15.9407 14.3662 15.8164 14.245 15.7039C14.2575 15.5803 14.3625 15.3701 14.4614 15.4475C14.5263 15.4969 14.4306 15.571 14.4985 15.6144C14.5729 15.6605 14.6809 15.6545 14.7273 15.645C14.8355 15.6174 14.9405 15.5896 15.0393 15.5803C15.0856 15.5773 15.1628 15.5555 15.1785 15.6019C15.1908 15.6327 15.157 15.6545 15.1227 15.6668C15.0826 15.6793 15.0207 15.67 14.9869 15.7039C14.9588 15.7317 14.9314 15.7627 14.9405 15.8028C14.9528 15.8492 15.0024 15.874 15.052 15.8585C15.2384 15.8069 15.4303 15.7778 15.6236 15.7718C15.7259 15.7718 15.7038 15.8462 15.6546 15.8738C15.6207 15.8923 15.5679 15.9078 15.5341 15.9111C15.3519 15.9324 15.2156 15.9449 15.2372 16.0499C15.2525 16.1211 15.3672 16.053 15.3916 16.1056C15.4196 16.1612 15.3424 16.192 15.3486 16.2293C15.3672 16.3468 15.5927 16.322 15.6977 16.2972C15.7749 16.2787 15.8985 16.217 15.9356 16.2664C15.9698 16.3095 15.9418 16.3777 15.8985 16.3901C15.787 16.421 15.5957 16.4766 15.5429 16.5383C15.4934 16.5971 15.5524 16.7177 15.6111 16.7239C15.7441 16.7392 15.8894 16.7392 15.9944 16.7701C16.0341 16.7826 16.0684 16.8104 16.0684 16.8535C16.0684 16.8999 16.022 16.9154 15.9849 16.9277C15.9136 16.9492 15.7933 16.9492 15.7284 16.9773C15.7068 16.9865 15.6635 17.0021 15.6697 17.0266C15.6883 17.073 15.7812 17.0605 15.8584 17.0698C15.9017 17.073 15.9851 17.1071 15.9851 17.1534C15.9851 17.203 15.9418 17.2183 15.8646 17.2123C15.7441 17.203 15.6328 17.2183 15.5804 17.2401C15.5647 17.2461 15.4722 17.2584 15.475 17.302C15.4813 17.3544 15.5804 17.3205 15.605 17.3731C15.6266 17.4227 15.5589 17.4503 15.5526 17.5122C15.5526 17.537 15.5649 17.5493 15.5897 17.5585C15.6699 17.5924 15.7624 17.5892 15.8432 17.5741C15.9267 17.5585 15.9573 17.67 15.9358 17.6823C15.8279 17.7409 15.5867 17.6793 15.531 17.7131C15.4539 17.7625 15.6606 17.8738 15.6546 17.8985C15.6484 17.9264 15.6236 17.9542 15.605 17.9604C15.5 18.0005 15.3642 17.9231 15.287 17.9667C15.2221 18.0068 15.2495 18.1088 15.2094 18.1614C15.1598 18.2263 15.0487 18.1985 14.9992 18.2355C14.9347 18.2817 14.9314 18.3932 15.0024 18.4613C15.0582 18.5137 15.1106 18.5506 15.1816 18.5848C15.5032 18.7455 15.837 18.9061 16.1492 18.8843C16.3098 18.8753 16.5729 18.8662 16.718 18.9033C16.9066 18.9494 17.0983 19.0945 17.1971 19.1568C17.2773 19.206 17.4073 19.2187 17.5093 19.1812C17.5832 19.1568 17.6328 19.0702 17.6175 18.9958C17.5711 18.7485 17.1628 18.6715 17.157 18.4242C17.1507 18.1398 17.1259 17.9852 17.0334 17.8058C16.9991 17.7379 16.9933 17.5803 17.0735 17.5587C17.1384 17.5432 17.1602 17.6329 17.2124 17.6113C17.4506 17.5186 17.4601 17.1415 17.7072 17.0702C17.8521 17.0301 18.3407 17.024 18.3003 16.9621C18.1984 16.8166 18.2449 16.6499 18.3003 16.5726C18.3374 16.5232 18.4392 16.4736 18.4799 16.5232C18.5354 16.5881 18.3961 16.6653 18.4056 16.7612C18.4146 16.8509 18.5448 17.024 18.4457 17.1167C18.387 17.1724 17.945 17.1911 17.815 17.3888C17.7348 17.5092 17.7257 17.6051 17.8213 17.5958C17.8985 17.5865 17.9634 17.4938 18.0347 17.4412C18.1615 17.3487 18.2635 17.3114 18.3346 17.3794C18.3717 17.4132 18.3221 17.4783 18.254 17.4969C18.1986 17.5154 18.0627 17.6607 18.0996 17.6978C18.155 17.7565 18.4642 17.4878 18.5416 17.5432C18.5817 17.5741 18.39 17.772 18.4239 17.8244C18.464 17.8893 18.594 17.7873 18.6341 17.8369C18.6928 17.911 18.5321 18.0564 18.4392 18.1213C18.3683 18.1674 18.3959 18.3407 18.2939 18.3934C18.1798 18.449 18.127 18.5475 18.1395 18.5633C18.1518 18.5877 18.1796 18.6066 18.223 18.5786C18.3497 18.4984 18.5071 18.4024 18.572 18.4272C18.6091 18.4427 18.5567 18.6187 18.5102 18.7021C18.4636 18.7856 18.6988 18.7392 18.6645 18.8104C18.6402 18.8632 18.6244 18.9434 18.6402 19.0174C18.6587 19.1135 18.3866 19.1347 18.3618 19.1996C18.3342 19.2739 18.3898 19.2925 18.4172 19.2957C18.5813 19.3205 18.5597 19.4716 18.4948 19.5365C18.4082 19.6232 18.2598 19.6571 18.1298 19.6353C18.0184 19.6168 17.7685 19.5708 17.6201 19.4594C17.5738 19.4255 17.5056 19.4499 17.4966 19.4964C17.4871 19.5492 17.5427 19.6448 17.5675 19.7252C17.6018 19.8457 17.5828 19.9973 17.5427 20.115C17.4565 20.3591 17.2247 20.563 17.1598 20.8567C17.1441 20.9339 17.166 21.0298 17.1969 21.104C17.265 21.265 17.3637 21.4162 17.4748 21.5525C17.4905 21.5958 17.5123 21.645 17.4937 21.6851C17.469 21.7469 17.2773 21.88 17.2216 21.9328C17.0453 22.0964 16.8937 22.3099 16.8599 22.5417C16.8474 22.6251 16.6682 22.7085 16.5477 22.7424C16.4584 22.7672 16.3655 22.792 16.2915 22.8506C16.282 22.9184 16.3221 22.9774 16.3312 23.0451C16.3469 23.1628 16.1986 23.2215 16.0839 23.2586C16.0315 23.2771 15.9757 23.2928 15.9138 23.2928C15.8922 23.2928 15.8862 23.2554 15.8894 23.237C15.9233 23.0764 15.9539 22.9466 16.0158 22.8138C16.0406 22.7642 16.0807 22.7241 16.1212 22.6898L16.5628 22.3189L16.9092 21.8213C16.9399 21.775 16.9526 21.7347 16.9526 21.7008C16.9526 21.6047 16.9125 21.5154 16.8443 21.4535C16.7577 21.3759 16.6309 21.3638 16.5354 21.3142C16.4118 21.2523 16.2322 21.0796 16.2075 21.0669C16.1397 21.0331 16.0996 21.1566 16.0901 21.2276C16.0748 21.3358 16.1087 21.4378 16.1055 21.546C16.1055 21.5956 16.0996 21.6232 16.0748 21.6542C15.7844 21.8211 15.4226 21.883 15.2092 22.1486C15.1721 22.195 15.1382 22.2448 15.0886 22.2786C14.9681 22.3621 14.7674 22.2663 14.6775 22.3959C14.6374 22.455 14.6837 22.5322 14.6684 22.5971C14.6591 22.6342 14.588 22.6838 14.5324 22.7112C14.458 22.7454 14.378 22.764 14.2974 22.7702C14.2077 22.7269 14.2633 22.6001 14.2941 22.5104C14.325 22.4175 14.3685 22.325 14.4395 22.2631C14.5445 22.1702 14.6773 22.0529 14.7609 22.0128C14.8319 21.9785 14.9399 21.9785 15.0266 21.9447C15.1178 21.9167 15.2044 21.875 15.2831 21.8211C15.4095 21.7409 15.5272 21.6419 15.5984 21.5059C15.6786 21.3511 15.6693 21.1445 15.5673 21.0115C15.4744 20.891 15.3666 20.7733 15.3047 20.6376C15.2704 20.5632 15.2952 20.4613 15.348 20.3931C15.3448 20.3903 15.3075 20.3651 15.2862 20.3716C14.844 20.3905 14.3959 20.3409 13.9848 20.1771C13.8765 20.1337 13.7653 19.9945 13.6879 19.9854C13.6169 19.9759 13.5736 20.0656 13.5024 20.0842C13.3882 20.1152 13.2396 20.0967 13.1068 20.0842C12.9522 20.0688 12.6307 20.0007 12.399 19.9267C12.3619 19.9326 12.3218 19.939 12.2877 19.9606C12.2381 19.9945 12.2289 20.0688 12.2258 20.1307C12.2196 20.2142 12.2444 20.2914 12.2349 20.378C12.2319 20.4214 12.2071 20.4677 12.2196 20.508C12.2321 20.5572 12.2815 20.579 12.3153 20.61C12.3709 20.6624 12.3802 20.7706 12.3802 20.8573C12.3802 20.953 12.3464 21.08 12.4266 21.1451C12.4762 21.1848 12.5441 21.1326 12.6059 21.1451C12.6739 21.1574 12.6954 21.2409 12.6987 21.3058C12.7019 21.3797 12.64 21.5371 12.5997 21.5778C12.5719 21.6055 12.5255 21.5837 12.4915 21.5684C12.402 21.5283 12.3183 21.4634 12.269 21.3767C12.2474 21.3396 12.2474 21.2933 12.2256 21.2532C12.1916 21.185 12.1297 21.1453 12.068 21.0988C11.9938 21.0429 11.9785 20.9409 11.966 20.8515C11.9568 20.7676 11.9723 20.6874 11.9785 20.6038C11.9945 20.4384 11.9841 20.2715 11.9475 20.1094C11.9197 19.9858 11.8515 19.8621 11.8826 19.7385C11.8981 19.6798 11.9382 19.624 11.994 19.5992C12.293 19.5853 12.589 19.5334 12.8748 19.4448L12.6894 19.2622C12.643 19.2622 12.606 19.3086 12.5596 19.3086C12.51 19.3086 12.4421 19.2376 12.4235 19.2129C12.3276 19.0708 12.2659 18.9065 12.2226 18.7396C12.1825 18.6747 12.1331 18.61 12.0587 18.579C12.0072 18.5566 11.9513 18.546 11.8951 18.5479C11.7405 18.6161 11.5984 18.7491 11.5859 18.9192C11.5829 18.9625 11.6075 18.9994 11.6014 19.0427C11.5924 19.1167 11.5365 19.1663 11.4839 19.2191C11.4313 19.2715 11.3819 19.3241 11.3604 19.3983C11.3416 19.4602 11.3634 19.5251 11.391 19.5837C11.4095 19.6238 11.4313 19.6639 11.4158 19.7073C11.3787 19.8092 11.1346 19.9143 11.0635 19.9143C11.0387 19.9143 11.0171 19.8804 11.0079 19.8524C10.98 19.7595 10.9863 19.6607 11.0048 19.5682C11.0701 19.4974 11.1187 19.4129 11.1469 19.3209C11.1842 19.1973 11.1655 19.0643 11.2243 18.9496C11.3787 18.687 11.7744 18.1616 11.8515 18.0844C11.8856 18.0505 11.9691 18.0318 12.0031 18.0535C12.17 18.1618 12.269 18.2946 12.4296 18.378C12.5163 18.4214 12.6243 18.4865 12.7017 18.4246C12.7789 18.3627 12.7912 17.9485 12.8408 17.8433C12.9313 17.6609 13.1816 17.4197 13.3547 17.225ZM16.4314 14.6502L16.3632 14.9098H16.1159L16.4376 13.692H16.7188L17.0282 14.9005H16.7805L16.7186 14.6502H16.4314ZM16.6847 14.4291L16.5733 13.9407L16.4683 14.4291H16.6847ZM15.7818 14.0421C15.785 13.9617 15.7602 13.8567 15.6955 13.8319C15.6274 13.8071 15.5562 13.8288 15.5254 13.8752C15.4726 13.9617 15.4726 14.0792 15.4758 14.2584C15.4758 14.3666 15.479 14.5179 15.5006 14.5893C15.553 14.753 15.6923 14.7624 15.76 14.6602C15.7943 14.6109 15.7943 14.5149 15.791 14.4285H15.6486V14.2491H16.0166V14.9043H15.8406V14.8148C15.8374 14.8211 15.76 14.8797 15.7229 14.8985C15.661 14.9261 15.5437 14.9261 15.4482 14.886C15.3676 14.8519 15.2904 14.7439 15.2565 14.6046C15.2223 14.4593 15.2376 14.2706 15.2376 14.11C15.2408 13.9399 15.3305 13.7515 15.4541 13.6803C15.5407 13.6309 15.7014 13.6309 15.8031 13.668C15.9271 13.7113 16.0228 13.8905 16.0043 14.0421H15.7818ZM11.6411 13.7103C11.7401 13.7722 11.7925 13.8867 11.7744 14.0195H11.5795C11.5795 13.896 11.5271 13.8371 11.4218 13.8341C11.3569 13.8311 11.2765 13.9052 11.2765 13.9609C11.2733 14.1245 11.4186 14.1586 11.5176 14.1894C11.5918 14.2112 11.6814 14.2575 11.7248 14.3224C11.805 14.4399 11.8145 14.5635 11.7496 14.7243C11.7187 14.8015 11.6012 14.8942 11.5023 14.916C11.391 14.9408 11.255 14.9285 11.1437 14.8449C11.054 14.7769 11.0137 14.6439 11.0322 14.5234H11.2517C11.2517 14.5822 11.261 14.6254 11.2858 14.6625C11.3043 14.6873 11.3384 14.7274 11.3971 14.7304C11.4203 14.7321 11.4437 14.7287 11.4655 14.7203C11.4874 14.712 11.5071 14.6989 11.5233 14.6821C11.5395 14.6653 11.5518 14.6451 11.5594 14.623C11.5669 14.6009 11.5695 14.5774 11.567 14.5542C11.5547 14.3656 11.2394 14.3533 11.1312 14.2328C11.0012 14.0844 11.0415 13.8464 11.1465 13.7504C11.292 13.6146 11.49 13.6146 11.6411 13.7103ZM17.8823 14.5165C17.8856 14.5629 17.8886 14.7268 17.8946 14.8318C17.8979 14.8626 17.9289 14.9029 17.9289 14.9059H17.6971C17.6661 14.9059 17.6628 14.8503 17.66 14.8041C17.6538 14.6806 17.6659 14.3869 17.5455 14.3869H17.3972V14.9031H17.1654V13.6976H17.5826C17.7928 13.6976 17.8979 13.8184 17.8979 13.982C17.8979 14.0903 17.8946 14.217 17.7711 14.2694C17.8358 14.3311 17.8729 14.4238 17.8823 14.5165ZM17.5647 13.8716H17.3916V14.1963H17.5183C17.7283 14.1963 17.7253 13.8716 17.5647 13.8716ZM12.346 14.9081H12.1142V13.8911H11.8483V13.6872H12.6148V13.8911H12.346V14.9081ZM13.8382 14.9081V13.8911H13.5724V13.6872H14.3419V13.8911H14.0698V14.9081H13.8382ZM14.4463 13.6874H15.2158V13.8944H14.9437V14.9081H14.7121V13.8944H14.4463V13.6874ZM18.4672 13.8946V14.9114H18.2354V13.8946H17.9698V13.6876H18.7363V13.8946H18.4672ZM13.2211 14.5579V13.6894H13.4466V14.5363C13.4466 15.0432 12.711 15.0432 12.711 14.5518V13.6894H12.9365V14.5611C12.9367 14.7497 13.2211 14.7497 13.2211 14.5579ZM13.7415 15.4699C13.8096 15.4112 13.9051 15.331 14.0164 15.2599C14.1154 15.195 14.0041 15.3435 13.9979 15.4052C13.9793 15.5721 13.8525 15.5906 13.7135 15.5598C13.6891 15.5535 13.6984 15.507 13.7415 15.4699ZM19.5542 19.3668L25.4578 19.3636L25.7204 16.0995L19.5542 16.1027V19.3668ZM14.5753 29.5324L8.48627 29.5201C9.74112 30.6484 12.6467 32.7594 14.5568 33.6156L14.5753 29.5324ZM10.1674 16.0135C10.0499 16.1185 9.81509 16.3783 9.76853 16.4956C9.87071 16.5326 10.0715 16.6223 10.1674 16.6872V16.0135Z" fill="#2C00AB"/>
</g>
<defs>
<clipPath id="clip0">
<rect width="29.6" height="37" fill="white"/>
</clipPath>
</defs>
</svg>
