<svg width="29" height="37" viewBox="0 0 29 37" fill="none" xmlns="http://www.w3.org/2000/svg">
<path d="M13.0516 0.0144367C12.5573 0.913008 5.89415 13.0404 3.024 18.2509C2.92452 18.4311 2.93218 18.5613 3.02935 18.7378C5.84136 23.8433 11.5404 34.2004 11.5993 34.2971C11.6582 34.2011 17.3572 23.8433 20.1692 18.7385C20.2664 18.5621 20.2748 18.4318 20.1745 18.2516C18.5654 15.34 16.967 12.4225 15.3578 9.51086C15.2545 9.32474 15.2476 9.18552 15.3547 8.99792C15.797 8.22218 16.2209 7.43677 16.6693 6.62232C16.7328 6.72729 20.9971 14.472 23.0883 18.2665C23.1763 18.4258 23.184 18.545 23.0937 18.7095C19.7843 24.7181 16.4803 30.7297 13.1801 36.7435C13.0921 36.9043 13.0026 36.9772 12.8021 36.9742C11.9849 36.9608 11.167 36.9646 10.3497 36.972C10.1982 36.9735 10.1179 36.9266 10.0467 36.7956C6.72972 30.752 3.40964 24.7099 0.085739 18.67C0.0168735 18.5442 0.0107522 18.4504 0.0819132 18.3201C3.40658 12.2788 6.7259 6.23669 10.0506 0.196831C10.0927 0.120896 10.1914 0.0233703 10.2648 0.0226259C11.1769 0.00996993 12.089 0.0144367 13.0516 0.0144367Z" fill="#2C00AB"/>
<path d="M16.8315 3.71483C15.3104 6.47308 11.1172 14.0934 8.83168 18.2438C8.7345 18.421 8.72761 18.5513 8.82709 18.7307C10.4362 21.6431 12.0347 24.5599 13.6438 27.4715C13.7471 27.6584 13.7525 27.7968 13.6454 27.9844C13.2031 28.7602 12.7792 29.5456 12.33 30.3608C12.2704 30.2625 8.00682 22.5171 5.91102 18.7151C5.82302 18.5558 5.81614 18.4367 5.90643 18.2721C9.21503 12.2643 12.519 6.25272 15.8192 0.238918C15.908 0.0773689 15.9983 0.00590041 16.1972 0.00887827C17.0144 0.0222787 17.8324 0.0185563 18.6496 0.0111116C18.8019 0.00962265 18.8807 0.0580128 18.9526 0.188294C22.2704 6.23188 25.5905 12.274 28.9144 18.3138C28.984 18.4396 28.9886 18.5342 28.9174 18.6637C25.5935 24.7036 22.2742 30.7457 18.9495 36.7855C18.9075 36.8615 18.8087 36.9583 18.7353 36.959C17.8232 36.9709 16.9111 36.9664 15.9554 36.9664C16.0182 36.8473 22.6843 24.7088 25.9769 18.73C26.0763 18.5498 26.0687 18.4195 25.9708 18.2431C23.1588 13.1375 17.4598 2.78053 17.4008 2.68449C17.3901 2.70236 17.1812 3.0798 16.8315 3.71483Z" fill="#2C00AB"/>
</svg>
