<svg width="89" height="33" viewBox="0 0 89 33" fill="none" xmlns="http://www.w3.org/2000/svg">
<path d="M36.9468 11.8503H18.8343C18.6216 11.8503 18.4177 11.7659 18.2673 11.6155C18.1169 11.4651 18.0325 11.2612 18.0325 11.0485V7.84135C18.0329 7.6963 18.0726 7.55407 18.1474 7.42982C18.2223 7.30556 18.3294 7.20394 18.4574 7.13577L27.3894 2.40517C27.506 2.34544 27.6353 2.31516 27.7663 2.31697H36.9468C37.1595 2.31697 37.3634 2.40145 37.5138 2.55181C37.6642 2.70218 37.7486 2.90612 37.7486 3.11877V11.0405C37.7497 11.1465 37.7297 11.2516 37.6899 11.3498C37.6501 11.448 37.5912 11.5374 37.5166 11.6127C37.4421 11.688 37.3533 11.7477 37.2555 11.7885C37.1577 11.8293 37.0528 11.8503 36.9468 11.8503ZM19.6361 10.2467H36.145V3.92858H27.9587L19.6361 8.33044V10.2467Z" fill="#2C00AB"/>
<path d="M65.2661 27.3893H27.1968V25.7858H65.2661V27.3893ZM27.1968 27.3893H26.2908V25.7858H27.1968V27.3893ZM26.2908 27.3893H24.7674V25.7858H26.2908V27.3893ZM12.4518 27.3893L3.30329 26.0183C3.1419 25.9941 2.99172 25.9213 2.87281 25.8096C2.75389 25.6978 2.67191 25.5525 2.6378 25.3929L1.03421 18.0805C1.00571 17.9448 1.01289 17.804 1.05505 17.6719C1.09721 17.5398 1.1729 17.4209 1.27475 17.3268L2.07654 16.6132L2.61375 9.58146C2.62736 9.39569 2.70523 9.22045 2.83399 9.08585C2.96274 8.95124 3.13434 8.86566 3.31933 8.84381L9.7818 8.0821C25.4329 0 26.0422 0 26.4431 0H48.8934C49.0153 0.00182715 49.1355 0.0291383 49.2462 0.0801791L67.6875 9.17255C69.8924 9.29282 73.5967 10.0224 79.0008 11.4015C84.7497 12.8768 88.0531 15.7553 88.8229 19.9567C88.8348 20.0418 88.8348 20.1282 88.8229 20.2133L88.1333 25.3287C88.1106 25.5023 88.0316 25.6637 87.9086 25.7882C87.7855 25.9127 87.6251 25.9935 87.4518 26.0183L78.9207 27.221L78.6962 25.6174L86.6259 24.4949L87.2112 20.109C86.5217 16.5892 83.6994 14.2479 78.6 12.941C73.2279 11.5699 69.4755 10.8323 67.447 10.7441C67.3329 10.741 67.2209 10.7137 67.1182 10.6639L48.6769 1.58756H26.4992C25.9701 1.73188 23.1237 2.98268 10.3912 9.55741C10.3058 9.60015 10.2135 9.6273 10.1186 9.63759L4.16923 10.3432L3.65608 17.0382C3.64067 17.2407 3.54897 17.4298 3.39951 17.5673L2.73402 18.1847L4.08905 24.4949L12.6923 25.7858L12.4518 27.3893ZM61.2812 11.8345H39.793C39.5804 11.8345 39.3764 11.75 39.2261 11.5997C39.0757 11.4493 38.9912 11.2454 38.9912 11.0327V3.127C38.9912 2.91435 39.0757 2.71042 39.2261 2.56005C39.3764 2.40968 39.5804 2.32521 39.793 2.32521H48.7731C48.9136 2.32424 49.0518 2.36018 49.174 2.42944L61.6821 9.64561C61.8044 9.71625 61.9059 9.81796 61.9763 9.94046C62.0467 10.063 62.0835 10.2019 62.083 10.3432V11.0808C62.0747 11.2879 61.9865 11.4837 61.8371 11.6272C61.6876 11.7706 61.4884 11.8507 61.2812 11.8505V11.8345ZM40.5948 10.247H59.5653L48.5647 3.9288H40.5948V10.247Z" fill="#2C00AB"/>
<path d="M43.4205 14.6036H40.0449C39.8323 14.6036 39.6283 14.5191 39.4779 14.3688C39.3276 14.2184 39.2431 14.0144 39.2431 13.8018C39.2431 13.5891 39.3276 13.3852 39.4779 13.2348C39.6283 13.0845 39.8323 13 40.0449 13H43.4365C43.6491 13 43.8531 13.0845 44.0035 13.2348C44.1538 13.3852 44.2383 13.5891 44.2383 13.8018C44.2383 14.0144 44.1538 14.2184 44.0035 14.3688C43.8531 14.5191 43.6491 14.6036 43.4365 14.6036H43.4205ZM24.1774 14.6036H20.8018C20.5891 14.6036 20.3852 14.5191 20.2348 14.3688C20.0845 14.2184 20 14.0144 20 13.8018C20 13.5891 20.0845 13.3852 20.2348 13.2348C20.3852 13.0845 20.5891 13 20.8018 13H24.1934C24.406 13 24.61 13.0845 24.7603 13.2348C24.9107 13.3852 24.9952 13.5891 24.9952 13.8018C24.9952 14.0144 24.9107 14.2184 24.7603 14.3688C24.61 14.5191 24.406 14.6036 24.1934 14.6036H24.1774Z" fill="#2C00AB"/>
<path d="M2.9907 23.0917H0.721617C0.530232 23.0917 0.346686 23.0157 0.211357 22.8804C0.0760274 22.745 0 22.5615 0 22.3701V20.101C0 19.9096 0.0760274 19.7261 0.211357 19.5908C0.346686 19.4554 0.530232 19.3794 0.721617 19.3794H2.42944V20.8226H1.44323V21.6244H2.9907V23.0917Z" fill="#2C00AB"/>
<path d="M72.0334 32.256C70.5253 32.256 69.051 31.8088 67.7971 30.971C66.5432 30.1331 65.5658 28.9422 64.9887 27.5489C64.4116 26.1556 64.2606 24.6225 64.5548 23.1434C64.849 21.6642 65.5752 20.3056 66.6416 19.2392C67.708 18.1728 69.0667 17.4466 70.5458 17.1524C72.0249 16.8582 73.5581 17.0092 74.9514 17.5863C76.3447 18.1634 77.5355 19.1407 78.3734 20.3947C79.2113 21.6486 79.6585 23.1228 79.6585 24.6309C79.6563 26.6526 78.8523 28.5908 77.4228 30.0203C75.9933 31.4499 74.055 32.2539 72.0334 32.256ZM72.0334 18.6255C70.8421 18.6255 69.6776 18.9788 68.6872 19.6409C67.6968 20.3029 66.925 21.2438 66.4695 22.3445C66.014 23.4453 65.8952 24.6564 66.1282 25.8247C66.3612 26.9929 66.9355 28.0658 67.7784 28.9076C68.6213 29.7494 69.695 30.3223 70.8636 30.5537C72.0321 30.7852 73.2431 30.6648 74.3433 30.2078C75.4434 29.7508 76.3833 28.9778 77.044 27.9865C77.7046 26.9952 78.0564 25.8302 78.0549 24.639C78.0559 23.8479 77.9009 23.0644 77.5987 22.3334C77.2964 21.6024 76.8529 20.9381 76.2936 20.3788C75.7342 19.8194 75.07 19.3759 74.3389 19.0737C73.6079 18.7714 72.8244 18.6164 72.0334 18.6175V18.6255ZM18.8342 32.256C17.2137 32.2599 15.6345 31.7453 14.3275 30.7874C13.0205 29.8294 12.0542 28.4785 11.5699 26.9321C11.3319 26.1884 11.2129 25.4118 11.2172 24.6309C11.2172 22.6108 12.0197 20.6733 13.4481 19.2449C14.8766 17.8164 16.814 17.0139 18.8342 17.0139C20.8544 17.0139 22.7918 17.8164 24.2203 19.2449C25.6488 20.6733 26.4513 22.6108 26.4513 24.6309C26.4687 25.3816 26.3713 26.1306 26.1626 26.8519C25.6917 28.4252 24.7225 29.8029 23.4007 30.7776C22.079 31.7522 20.4764 32.2711 18.8342 32.256ZM13.0934 26.451C13.4901 27.6628 14.2613 28.7173 15.2957 29.4626C16.3302 30.208 17.5746 30.6058 18.8496 30.5987C20.1246 30.5915 21.3644 30.1799 22.3905 29.423C23.4166 28.666 24.1759 27.603 24.559 26.3869L25.3608 26.5873L24.559 26.3548C24.7288 25.7849 24.8152 25.1935 24.8156 24.5989C24.821 23.7267 24.6366 22.8637 24.2753 22.0699C23.9139 21.2761 23.3841 20.5704 22.7227 20.0017C22.0614 19.4331 21.2842 19.0151 20.4452 18.7768C19.6061 18.5385 18.7253 18.4856 17.8638 18.6217C17.0022 18.7579 16.1806 19.0798 15.4559 19.5651C14.7312 20.0505 14.1208 20.6877 13.6669 21.4326C13.2131 22.1774 12.9267 23.0121 12.8277 23.8786C12.7286 24.7452 12.8193 25.623 13.0934 26.451L12.2916 26.6916L13.0934 26.451ZM18.8262 30.0511C17.7685 30.0511 16.7345 29.7374 15.855 29.1498C14.9755 28.5621 14.2901 27.7269 13.8853 26.7497C13.4805 25.7725 13.3746 24.6972 13.581 23.6598C13.7873 22.6224 14.2967 21.6694 15.0446 20.9215C15.7925 20.1736 16.7455 19.6642 17.7829 19.4579C18.8203 19.2515 19.8956 19.3574 20.8728 19.7622C21.85 20.167 22.6852 20.8525 23.2729 21.7319C23.8605 22.6114 24.1742 23.6454 24.1742 24.7031C24.1742 25.4054 24.0358 26.1008 23.7671 26.7497C23.4983 27.3985 23.1044 27.9881 22.6078 28.4847C22.1112 28.9813 21.5216 29.3752 20.8728 29.644C20.2239 29.9127 19.5285 30.0511 18.8262 30.0511ZM18.8262 20.9587C18.0856 20.9587 17.3617 21.1783 16.7459 21.5898C16.1302 22.0012 15.6502 22.586 15.3668 23.2702C15.0834 23.9544 15.0093 24.7073 15.1538 25.4336C15.2982 26.1599 15.6549 26.8271 16.1785 27.3508C16.7022 27.8744 17.3694 28.2311 18.0957 28.3755C18.822 28.52 19.5749 28.4459 20.2591 28.1625C20.9433 27.8791 21.5281 27.3991 21.9395 26.7834C22.351 26.1676 22.5706 25.4437 22.5706 24.7031C22.5642 23.7135 22.1672 22.7664 21.4659 22.0681C20.7646 21.3698 19.8159 20.9768 18.8262 20.9748V20.9587ZM72.0334 29.9789C70.9756 29.9789 69.9417 29.6653 69.0622 29.0776C68.1827 28.49 67.4973 27.6547 67.0925 26.6775C66.6877 25.7003 66.5818 24.625 66.7882 23.5876C66.9945 22.5502 67.5039 21.5973 68.2518 20.8493C68.9997 20.1014 69.9526 19.5921 70.99 19.3857C72.0274 19.1794 73.1027 19.2853 74.08 19.6901C75.0572 20.0948 75.8924 20.7803 76.4801 21.6598C77.0677 22.5392 77.3813 23.5732 77.3813 24.6309C77.3813 26.0493 76.8179 27.4096 75.815 28.4125C74.812 29.4155 73.4517 29.9789 72.0334 29.9789ZM72.0334 20.8866C71.2928 20.8866 70.5689 21.1062 69.9531 21.5176C69.3373 21.929 68.8574 22.5138 68.574 23.198C68.2906 23.8822 68.2165 24.6351 68.3609 25.3614C68.5054 26.0878 68.862 26.755 69.3857 27.2786C69.9094 27.8023 70.5765 28.1589 71.3029 28.3034C72.0292 28.4479 72.7821 28.3737 73.4663 28.0903C74.1505 27.8069 74.7353 27.327 75.1467 26.7112C75.5582 26.0955 75.7778 25.3715 75.7778 24.6309C75.7756 23.6385 75.3805 22.6874 74.6787 21.9856C73.977 21.2839 73.0258 20.8887 72.0334 20.8866Z" fill="#2C00AB"/>
</svg>
