<svg width="21" height="21" viewBox="0 0 21 21" fill="none" xmlns="http://www.w3.org/2000/svg">
<path fill-rule="evenodd" clip-rule="evenodd" d="M16 9C16 12.866 12.866 16 9 16C5.13401 16 2 12.866 2 9C2 5.13401 5.13401 2 9 2C12.866 2 16 5.13401 16 9ZM14.6177 16.0319C13.078 17.2635 11.125 18 9 18C4.02944 18 0 13.9706 0 9C0 4.02944 4.02944 0 9 0C13.9706 0 18 4.02944 18 9C18 11.125 17.2635 13.078 16.0319 14.6177L20.1848 18.7706C20.5753 19.1611 20.5753 19.7943 20.1848 20.1848C19.7942 20.5753 19.1611 20.5753 18.7706 20.1848L14.6177 16.0319Z" fill="white"/>
</svg>
