<svg width="37" height="33" viewBox="0 0 37 33" fill="none" xmlns="http://www.w3.org/2000/svg">
<g clip-path="url(#clip0)">
<path d="M12.246 0.0954179C19.1961 -0.144839 26.1532 0.0937139 33.0911 0.530776C33.8215 0.59297 34.5616 0.587859 35.2807 0.738658C35.6698 0.830671 36.0902 0.976359 36.3177 1.32311C36.5253 1.70054 36.5297 2.14101 36.5835 2.55677C36.7485 4.59895 36.7972 6.64965 36.9527 8.69183C36.6521 8.72761 36.3516 8.68246 36.0511 8.67309C30.7 8.40131 25.3446 8.17554 19.9848 8.16872C17.2089 8.17639 14.4296 8.14998 11.6563 8.28203C10.984 8.37916 10.2232 8.59982 9.83496 9.18768C11.9334 9.55318 14.0274 9.94764 16.125 10.32C23.0768 11.5962 30.0338 12.8444 36.9857 14.1189C36.9796 15.4122 36.9822 16.7055 36.9848 17.9988C33.0755 17.3641 29.1731 16.6791 25.2664 16.0239C16.8615 14.6028 8.45918 13.1621 0.0516724 11.7547C0.0681747 10.3191 0.130709 8.88438 0.161109 7.44795C0.21409 6.31057 0.181085 5.15785 0.443385 4.04091C0.6197 3.25283 0.946273 2.4605 1.55512 1.89734C2.60606 0.876678 4.12601 0.589563 5.54087 0.445579C7.77043 0.242809 10.0095 0.176355 12.246 0.0954179ZM0.0117188 13.6435C12.0532 15.8229 24.0904 18.0388 36.1301 20.231C36.3933 20.294 36.6747 20.2991 36.9275 20.3937L36.9579 20.4618C36.8919 22.3992 36.8536 24.3383 36.7824 26.2757C36.7364 27.471 36.6078 28.7217 35.9808 29.7748C35.3085 30.8636 34.0561 31.4659 32.8166 31.6934C30.9901 32.0299 29.1245 32.0521 27.2745 32.1518C19.3143 32.5062 11.3375 32.3102 3.39036 31.7735C2.75545 31.7301 2.10925 31.719 1.49259 31.546C1.17296 31.4472 0.842916 31.2879 0.662259 30.9982C0.468574 30.6182 0.456414 30.1846 0.408644 29.7705C0.23841 27.5102 0.148081 25.2457 0.0273532 22.9828C4.12688 23.2384 8.23336 23.3816 12.3407 23.471C16.3065 23.5341 20.2723 23.5332 24.238 23.5716C25.0935 23.6065 26.0185 23.4463 26.6674 22.8567C26.762 22.7502 26.9158 22.6514 26.9001 22.4921C25.1127 22.2288 23.3356 21.9017 21.5516 21.6137C14.374 20.4099 7.19284 19.2171 0.0160617 18.0065C0.00737629 16.5521 0.0177986 15.0978 0.0117188 13.6435Z" fill="#2C00AB"/>
</g>
<defs>
<clipPath id="clip0">
<rect width="37" height="32.375" fill="white"/>
</clipPath>
</defs>
</svg>
