<svg width="37" height="37" viewBox="0 0 37 37" fill="none" xmlns="http://www.w3.org/2000/svg">
<g clip-path="url(#clip0)">
<path d="M18.4801 36.1405C28.6775 36.1405 36.9403 28.0552 36.9403 18.0782C36.9404 8.10066 28.6775 0 18.4801 0C8.283 0 0.00390625 8.10066 0.00390625 18.0781C0.00390625 28.0552 8.283 36.1405 18.4801 36.1405Z" fill="#2C00AB"/>
<path d="M18.4792 35.6874C28.4206 35.6874 36.4761 27.8056 36.4761 18.0783C36.4761 8.35106 28.4207 0.453613 18.4792 0.453613C8.53774 0.453613 0.482422 8.3511 0.482422 18.0783C0.482422 27.8056 8.53777 35.6874 18.4792 35.6874Z" fill="#EBEFFF"/>
<path d="M18.4791 35.1553C28.1168 35.1553 35.9486 27.5083 35.9486 18.0784C35.9486 8.63264 28.1168 0.985352 18.4791 0.985352C8.84137 0.985352 1.00977 8.6326 1.00977 18.0784C1.0098 27.5083 8.84141 35.1553 18.4791 35.1553Z" fill="#2C00AB"/>
<path d="M18.4807 28.7433C24.5063 28.7433 29.3812 23.9584 29.3812 18.0781C29.3812 12.1822 24.5064 7.39681 18.4807 7.39681C12.4552 7.39681 7.56445 12.1822 7.56445 18.0781C7.56445 23.9583 12.4552 28.7433 18.4807 28.7433ZM20.4947 2.70521C20.958 3.34656 21.0222 4.23796 20.8943 5.00401C20.7506 5.70794 20.1751 6.14579 19.5197 6.34915C18.4968 6.47421 17.2502 6.72437 16.3392 5.77053C15.8278 5.06674 15.8278 4.1753 16.0194 3.2839C16.2752 2.33002 17.394 2.07982 18.305 2.01709C19.1043 2.01716 19.9192 2.14233 20.4947 2.70521Z" fill="#EBEFFF"/>
<path d="M19.3257 3.48712C19.3898 4.06589 19.5817 4.95729 19.1341 5.45772C18.7346 5.73927 18.1752 5.84858 17.7756 5.58279C17.2482 5.08235 17.328 4.31605 17.456 3.67488C17.5197 3.29947 17.7756 2.90854 18.1752 2.84606C18.6067 2.78348 19.1982 2.97113 19.3257 3.48712Z" fill="#2C00AB"/>
<path d="M28.2621 5.62964C28.5338 6.39602 28.2621 7.09981 27.8783 7.7253C27.5588 8.30396 26.6637 8.77293 26.1841 8.69496C25.1294 8.50735 24.234 7.86615 23.1953 7.24069L25.2573 3.59668C26.3122 4.15959 27.6067 4.48801 28.2621 5.62964Z" fill="#EBEFFF"/>
<path d="M27.0298 5.81767C27.0938 6.39626 26.838 7.03746 26.3105 7.41287C25.799 7.80377 24.7441 7.03746 24.7441 7.03746L25.9108 4.92627C26.3744 5.19207 26.902 5.31724 27.0298 5.81767Z" fill="#2C00AB"/>
<path d="M5.86927 9.25761C5.48556 9.69564 5.02205 10.0866 4.95819 10.6495C4.95819 10.8372 5.13384 11.0717 5.35763 11.0405C5.99716 10.5243 6.65234 9.4454 7.56338 9.69564C8.02681 9.69564 8.47441 10.1491 8.60223 10.5243C8.87403 11.6659 8.02681 12.6356 7.2437 13.3862L6.5246 12.9483C7.05196 12.4947 7.81916 11.8069 7.4993 11.103C6.4926 10.6182 6.33267 12.4323 5.29377 12.4323C4.83023 12.4323 4.2069 12.1195 4.04712 11.6035C4.04712 11.6035 3.98315 11.2907 3.98315 11.0873C3.96721 10.7276 4.12699 10.3367 4.30286 10.0083C4.49461 9.6956 4.70248 9.44537 4.70248 9.44537L5.29381 8.8042L5.86927 9.25761ZM3.98319 10.3367C3.83932 10.3524 3.58357 10.3837 3.42383 10.3992C3.45579 10.2898 3.59963 9.94587 3.59963 9.94587L4.11112 9.86769L3.87128 9.46093C3.98315 9.3046 4.06303 9.13258 4.17505 8.97625L4.46261 9.49224L3.98319 10.3367ZM33.2002 11.1501L30.0035 14.6373L29.3962 13.3706L30.1636 12.6511L29.3001 11.197L28.3254 11.4157L27.5898 10.3992L32.2731 9.63291L33.2002 11.1501Z" fill="#EBEFFF"/>
<path d="M30.6751 12.0105L30.0996 10.994L32.0654 10.6187L30.6751 12.0105Z" fill="#2C00AB"/>
<path d="M11.847 32.0587L10.8721 31.4488L11.0799 30.7766L10.2006 30.1353L9.56137 30.5577C9.30566 30.3387 9.06586 30.1198 8.82617 29.9009L11.3674 28.0552L12.6781 28.8216L11.847 32.0587ZM27.3184 29.463C27.5582 29.9946 27.3823 30.5577 26.9827 30.8703C26.4713 31.3864 25.88 31.699 25.1609 31.6368C24.5215 31.5738 23.994 30.9326 23.8024 30.4324C23.6744 29.9162 23.6744 29.3686 24.0579 29.0252C24.5851 28.5713 25.097 28.2741 25.816 28.1963C26.4713 28.1963 27.0628 28.9 27.3184 29.463Z" fill="#EBEFFF"/>
<path d="M11.3514 30.1666L10.7441 29.7442L11.6073 29.0405L11.3514 30.1666ZM26.3436 29.9322C26.5513 30.3856 26.3275 30.8079 25.8319 30.8857C25.1609 31.0109 24.9369 30.2918 24.7132 29.9162C24.5215 29.5407 24.7772 29.0251 25.225 28.9622C25.8801 28.837 26.0877 29.5567 26.3436 29.9322Z" fill="#2C00AB"/>
<path d="M15.268 32.0747C15.2521 32.4028 15.8754 32.6218 16.0991 32.2776C16.179 32.0433 16.3868 30.8858 16.5147 30.1822C16.8502 30.2605 17.2339 30.3388 17.4895 30.4017C17.4098 30.9326 17.3299 32.4182 16.6745 32.9818C16.2269 33.3099 15.5078 33.1224 15.0443 32.9818C14.0053 32.6217 14.1812 31.7774 14.1812 31.7774L14.6607 29.8071L15.6516 30.01L15.268 32.0747ZM21.2297 30.7297L21.6932 32.9973L20.6703 33.2008L20.2068 30.9172L19.4076 31.1047L19.2478 30.4165L21.9009 29.838L22.0928 30.5263L21.2297 30.7297Z" fill="#EBEFFF"/>
<path d="M20.3817 9.10129C23.1627 12.0258 24.6971 15.9822 23.4983 20.1733C23.4983 20.1733 23.1467 21.1741 23.0508 21.5808C22.9708 21.9874 22.9868 22.3 22.9868 22.3C23.1145 22.5661 23.5302 22.6441 23.8021 22.5816C24.0735 22.3158 23.5941 21.9718 23.8658 21.6434C25.2086 21.5182 26.3272 22.441 27.3342 23.301C26.4553 24.3492 25.1286 25.3495 23.77 25.0214C23.5784 24.7555 24.2014 24.4115 23.7861 24.1457L13.8925 24.1297C13.6048 24.1457 13.0775 24.9746 12.7737 25.0529C12.3422 25.1466 11.623 25.1306 11.4312 25.0214C11.0155 24.6144 10.9197 23.9582 10.6481 23.4887C10.3763 22.9102 9.14553 22.3158 9.35337 21.878C9.4493 21.7216 11.8149 21.3776 13.3332 21.9091C13.9085 22.1595 14.5 22.6755 15.1073 22.519C15.1391 22.5034 15.1872 22.4878 15.2192 22.4097C15.3789 20.5955 14.0364 18.5938 12.0704 17.6712C11.495 17.4053 11.0796 17.3427 10.5201 17.3897C9.92876 17.4208 9.30543 17.4834 8.90599 17.2021C8.57023 16.9519 8.63419 16.1073 8.8899 15.2785C9.01768 14.9032 9.19355 14.4965 9.36939 14.1683C10.1686 12.4479 12.6939 14.2776 13.0294 14.4497C13.4611 14.6686 13.9085 15.1377 14.0364 14.5279C14.0044 14.1369 13.2213 13.7616 12.7099 13.4957C11.2074 12.7139 10.2485 12.9015 10.7279 12.0101C10.8718 11.7443 11.3511 11.1344 12.0066 10.587C12.6779 10.0084 13.5248 9.46099 14.1483 9.38288C15.267 9.27345 16.4657 10.8216 16.4657 10.8216L17.8883 12.3698C18.1601 12.5261 18.3198 12.3541 18.3517 12.2448C18.4316 12.0101 18.208 11.7598 18.208 11.7598C18.208 11.7598 17.5527 10.9779 17.201 10.634C16.8655 10.2899 15.8745 9.36731 15.8745 9.36731C15.4908 8.71051 16.2101 8.50715 16.6095 8.44445C17.9042 8.31928 19.3265 7.97537 20.3817 9.10129Z" fill="#2C00AB"/>
<path d="M20.4134 21.7844C21.2444 21.7844 21.916 21.1276 21.916 20.3144C21.916 19.5011 21.2444 18.8288 20.4134 18.8288C19.5824 18.8288 18.9112 19.5011 18.9112 20.3144C18.9111 21.1276 19.5824 21.7844 20.4134 21.7844ZM11.7987 5.7236C12.5659 6.19287 13.5247 6.50554 14.292 7.03739L12.9814 7.64717L10.68 6.47437L10.7119 4.08175L11.8947 3.47168C12.0223 4.11307 11.8147 5.01992 11.7987 5.7236ZM10.8717 9.00788L8.49023 5.52035L9.48118 4.83227L11.8786 8.27281L10.8717 9.00788Z" fill="#EBEFFF"/>
</g>
<defs>
<clipPath id="clip0">
<rect width="37" height="36.1591" fill="white"/>
</clipPath>
</defs>
</svg>
