<svg width="50" height="12" viewBox="0 0 50 12" fill="none" xmlns="http://www.w3.org/2000/svg">
<path fill-rule="evenodd" clip-rule="evenodd" d="M7.59375 1.95996C8.66098 2.65014 10.1942 4.80312 10.6061 5.99356C10.1945 7.18585 8.66098 9.33605 7.59375 10.0293V1.95996Z" fill="#2C00AB"/>
<path fill-rule="evenodd" clip-rule="evenodd" d="M5.31573 3.48929C5.87219 3.48929 6.58183 3.71039 7.14045 4.10937V1.68156C6.58337 1.33508 5.90801 1.1322 5.11624 1.1322C2.43056 1.1322 0.257812 3.30895 0.257812 5.99368C0.257812 8.68181 2.43056 10.8502 5.11624 10.8502C5.90801 10.8502 6.58337 10.6541 7.14045 10.307V7.87275C6.58183 8.27141 5.87219 8.49838 5.31573 8.49838C3.80382 8.49838 2.69336 7.39379 2.69336 5.99368C2.69336 4.5877 3.80382 3.48929 5.31573 3.48929ZM41.4388 5.34396V10.3067H43.136V5.44031C43.137 5.11476 43.2669 4.80286 43.4972 4.57275C43.7275 4.34263 44.0395 4.21301 44.365 4.2122H45.1497V2.59036L44.2801 2.58913C43.5431 2.5947 42.8365 2.8841 42.3074 3.39715C41.7782 3.91021 41.4671 4.60746 41.4388 5.34396V5.34396ZM48.9576 8.67965C48.2838 8.67965 47.7344 8.12349 47.7338 7.45092V4.20417H49.6119V2.5811H47.7338V1.05469H46.027V7.54511C46.0891 9.07986 47.3437 10.2842 48.8708 10.3021L49.741 10.3006V8.67965H48.9576V8.67965ZM28.5474 2.43843C28.1315 2.43923 27.721 2.53213 27.3452 2.71046C26.9695 2.8888 26.6379 3.14813 26.3744 3.46983C25.8497 2.82474 25.0403 2.43843 24.1945 2.43843C22.7122 2.43843 21.4847 3.59552 21.4054 5.07654L21.4038 10.307H23.1146V5.28899C23.1146 4.5877 23.6417 4.04421 24.314 4.04421C24.8683 4.04421 25.5208 4.42187 25.5208 5.48817V10.3067H27.2254V5.48416C27.2254 4.49444 27.848 4.04421 28.4264 4.04421C29.1422 4.04421 29.6326 4.55343 29.6326 5.28899V10.3067H31.3353V5.08086C31.2482 3.59521 30.0288 2.43843 28.5474 2.43843ZM36.3407 2.45604C34.1356 2.45604 32.4072 4.20077 32.4072 6.43959C32.4072 8.7763 34.0753 10.4679 36.3716 10.4679C37.2637 10.4679 38.0639 10.1378 38.5681 9.58073V10.3064L40.2703 10.3058V6.47047C40.27 4.14117 38.612 2.45604 36.3407 2.45604ZM38.6645 6.46399C38.6645 7.85329 37.7192 8.83158 36.3636 8.83158C35.0867 8.83158 34.0531 7.76281 34.0531 6.46399C34.0531 5.16331 35.087 4.09856 36.3636 4.09856C37.6312 4.09856 38.6645 5.16331 38.6645 6.46399ZM17.4354 5.69105C15.7854 5.4996 15.4559 5.20346 15.4559 4.75291C15.4559 4.04081 16.5343 3.94879 17.0111 3.94879C17.827 3.94879 18.6329 4.26963 19.2079 4.76218L20.2937 3.67797C19.8592 3.31945 18.8207 2.45387 16.7579 2.45387C14.7213 2.45387 13.6257 3.68909 13.6257 4.85574C13.6257 6.23671 14.6954 7.02354 16.9018 7.26286C17.8297 7.36415 18.5301 7.49292 18.5301 8.13832C18.5301 9.32844 15.547 9.21017 14.3507 7.88541L13.1674 9.07646C13.2786 9.20338 14.6673 10.4837 16.7505 10.4837C19.236 10.4837 20.3638 9.26421 20.3638 8.12535C20.3641 6.69528 19.4355 5.92142 17.4354 5.69105V5.69105Z" fill="#2C00AB"/>
</svg>
