<svg width="88" height="29" viewBox="0 0 88 29" fill="none" xmlns="http://www.w3.org/2000/svg">
<path d="M32.1862 13.462H28.7946C28.5819 13.462 28.378 13.3775 28.2276 13.2271C28.0773 13.0768 27.9928 12.8728 27.9928 12.6602C27.9928 12.4475 28.0773 12.2436 28.2276 12.0932C28.378 11.9429 28.5819 11.8584 28.7946 11.8584H32.1862C32.3988 11.8584 32.6028 11.9429 32.7532 12.0932C32.9035 12.2436 32.988 12.4475 32.988 12.6602C32.988 12.8728 32.9035 13.0768 32.7532 13.2271C32.6028 13.3775 32.3988 13.462 32.1862 13.462Z" fill="#C0C0C0"/>
<path d="M86.5798 25.9141H74.2642V24.3105H85.778L83.4288 23.4044C83.2781 23.3463 83.1485 23.244 83.0569 23.1109C82.9653 22.9779 82.9161 22.8203 82.9156 22.6588V19.9968C82.9164 19.8713 82.9466 19.7477 83.0038 19.636L84.2947 17.0863C84.5833 13.9513 80.4862 11.8024 72.0994 10.6719C67.2485 10.0946 62.3736 9.71778 57.6189 9.56543C57.4949 9.56492 57.3732 9.53174 57.2662 9.46922L42.5452 1.63567H27.4073L10.7379 8.85184H10.6417L3.28924 11.0327V16.3326C3.30054 16.4097 3.30054 16.488 3.28924 16.5651L2.59969 18.8903L2.736 22.8993L7.25813 24.2704H9.21451V25.874H7.10579C7.02876 25.8861 6.9503 25.8861 6.87327 25.874L1.69367 24.2704C1.53376 24.222 1.39294 24.125 1.29088 23.9927C1.18882 23.8605 1.13061 23.6997 1.12439 23.5327L0.964031 18.7861C0.94835 18.7013 0.94835 18.6143 0.964031 18.5295L1.65358 16.1883V10.4314C1.64645 10.2525 1.69943 10.0763 1.80405 9.93099C1.90868 9.78568 2.05893 9.67957 2.23087 9.62958L10.1125 7.34446L26.8941 0.0641536C26.9959 0.0222096 27.1048 0.00042517 27.2148 1.00376e-05H42.7376C42.8719 -0.000661999 43.0043 0.0324216 43.1225 0.0962247L57.8595 8.00193C62.5981 8.16229 67.481 8.53112 72.2918 9.10841C75.8598 9.58147 86.7241 11.0006 85.8662 17.423C85.8517 17.5119 85.8247 17.5983 85.786 17.6796L84.5112 20.1892V22.0815L86.8364 22.9875C86.9871 23.0456 87.1167 23.1479 87.2083 23.281C87.2998 23.414 87.3491 23.5717 87.3495 23.7332V25.1123C87.3497 25.3195 87.2696 25.5187 87.1261 25.6682C86.9827 25.8176 86.7868 25.9058 86.5798 25.9141Z" fill="#C0C0C0"/>
<path d="M63.881 24.3105H63.0311V25.9141H63.881V24.3105Z" fill="#C0C0C0"/>
<path d="M63.0392 24.3105H20.4158V25.9141H63.0392V24.3105Z" fill="#C0C0C0"/>
<path d="M68.9725 28.7682C67.7946 28.7723 66.6323 28.4994 65.5794 27.9716C64.5264 27.4437 63.6123 26.6756 62.9109 25.7294L64.1938 24.7673C64.7491 25.5193 65.4744 26.1292 66.3105 26.5473C67.1466 26.9653 68.0698 27.1796 69.0046 27.1726C69.9874 27.1728 70.9552 26.9307 71.8222 26.4678C72.6893 26.0049 73.4289 25.3355 73.9757 24.5187L75.3067 25.4167C74.6084 26.4536 73.6648 27.3021 72.5598 27.8867C71.4548 28.4714 70.2226 28.7742 68.9725 28.7682ZM14.6748 28.7682C13.1664 28.7698 11.6914 28.324 10.4364 27.4871C9.18141 26.6502 8.20283 25.4599 7.62448 24.0667C7.04613 22.6735 6.89398 21.1401 7.18729 19.6605C7.4806 18.1808 8.20618 16.8214 9.27225 15.7542C10.3383 14.6871 11.697 13.96 13.1763 13.6652C14.6556 13.3703 16.1892 13.5208 17.583 14.0977C18.9767 14.6746 20.1681 15.6519 21.0063 16.906C21.8445 18.1602 22.2919 19.6347 22.2919 21.1431C22.2919 23.1641 21.4897 25.1023 20.0614 26.5321C18.6332 27.9618 16.6958 28.7661 14.6748 28.7682ZM14.6748 15.1377C13.4832 15.1361 12.3179 15.4881 11.3265 16.1492C10.335 16.8102 9.56199 17.7505 9.10524 18.8511C8.6485 19.9518 8.52857 21.1631 8.76066 22.3319C8.99274 23.5007 9.5664 24.5744 10.409 25.417C11.2516 26.2596 12.3253 26.8333 13.4941 27.0654C14.6629 27.2974 15.8743 27.1775 16.9749 26.7208C18.0755 26.264 19.0158 25.491 19.6769 24.4995C20.3379 23.5081 20.6899 22.3428 20.6883 21.1512C20.6862 19.5569 20.052 18.0286 18.9247 16.9013C17.7974 15.7741 16.2691 15.1398 14.6748 15.1377ZM68.9725 26.5072C67.9147 26.5072 66.8808 26.1935 66.0013 25.6059C65.1218 25.0182 64.4364 24.183 64.0316 23.2058C63.6268 22.2285 63.5209 21.1532 63.7273 20.1158C63.9336 19.0784 64.443 18.1255 65.1909 17.3776C65.9388 16.6297 66.8917 16.1203 67.9291 15.914C68.9665 15.7076 70.0418 15.8135 71.0191 16.2183C71.9963 16.6231 72.8315 17.3085 73.4192 18.188C74.0068 19.0675 74.3205 20.1014 74.3205 21.1592C74.3205 21.8615 74.1821 22.5569 73.9134 23.2058C73.6446 23.8546 73.2507 24.4442 72.7541 24.9408C72.2575 25.4374 71.6679 25.8313 71.0191 26.1001C70.3702 26.3688 69.6748 26.5072 68.9725 26.5072ZM68.9725 17.4228C68.2316 17.4228 67.5073 17.6426 66.8914 18.0544C66.2754 18.4662 65.7955 19.0515 65.5124 19.7361C65.2292 20.4208 65.1555 21.1741 65.3006 21.9006C65.4458 22.6272 65.8032 23.2944 66.3276 23.8177C66.8521 24.3411 67.52 24.697 68.2469 24.8406C68.9738 24.9842 69.7269 24.9089 70.411 24.6243C71.095 24.3396 71.6792 23.8584 72.0897 23.2416C72.5002 22.6248 72.7185 21.9001 72.7169 21.1592C72.7169 20.6678 72.62 20.1813 72.4317 19.7275C72.2434 19.2736 71.9675 18.8614 71.6197 18.5143C71.2719 18.1673 70.859 17.8922 70.4048 17.7049C69.9505 17.5176 69.4638 17.4218 68.9725 17.4228ZM14.6748 26.4911C13.6171 26.4911 12.5831 26.1775 11.7037 25.5898C10.8242 25.0022 10.1387 24.1669 9.73396 23.1897C9.32918 22.2125 9.22328 21.1372 9.42963 20.0998C9.63598 19.0624 10.1453 18.1095 10.8933 17.3616C11.6412 16.6136 12.5941 16.1043 13.6315 15.8979C14.6689 15.6916 15.7442 15.7975 16.7214 16.2023C17.6986 16.607 18.5339 17.2925 19.1215 18.172C19.7092 19.0514 20.0228 20.0854 20.0228 21.1431C20.0228 22.5615 19.4594 23.9218 18.4564 24.9247C17.4535 25.9277 16.0932 26.4911 14.6748 26.4911ZM14.6748 17.4068C13.9339 17.4068 13.2097 17.6266 12.5937 18.0384C11.9778 18.4502 11.4979 19.0354 11.2147 19.7201C10.9316 20.4048 10.8579 21.1581 11.003 21.8846C11.1481 22.6112 11.5056 23.2783 12.03 23.8017C12.5545 24.325 13.2224 24.681 13.9493 24.8246C14.6762 24.9681 15.4293 24.8929 16.1133 24.6082C16.7974 24.3236 17.3816 23.8424 17.7921 23.2256C18.2026 22.6088 18.4208 21.8841 18.4192 21.1431C18.4171 20.1515 18.0217 19.2011 17.3197 18.5006C16.6177 17.8002 15.6665 17.4068 14.6748 17.4068ZM62.8868 25.7374C62.0437 24.6191 61.5249 23.2902 61.3873 21.8964C61.2497 20.5027 61.4986 19.0979 62.1068 17.8363C62.7149 16.5747 63.6588 15.505 64.8348 14.7444C66.0108 13.9839 67.3736 13.5619 68.7736 13.5248C70.1737 13.4878 71.5569 13.837 72.7715 14.5342C73.9862 15.2314 74.9853 16.2497 75.6594 17.4774C76.3334 18.705 76.6564 20.0946 76.5927 21.4937C76.5291 22.8928 76.0814 24.2473 75.2986 25.4087L74.0078 24.5107C74.6207 23.5933 74.9699 22.5251 75.0171 21.4228C75.0642 20.3205 74.8076 19.2264 74.2753 18.26C73.7429 17.2936 72.9553 16.492 71.9983 15.9428C71.0414 15.3936 69.952 15.1179 68.849 15.1458C67.746 15.1736 66.6719 15.504 65.7439 16.1008C64.8159 16.6976 64.0698 17.538 63.5869 18.53C63.104 19.5221 62.903 20.6277 63.0058 21.7263C63.1086 22.8248 63.5112 23.874 64.1697 24.7592L62.8868 25.7374Z" fill="#C0C0C0"/>
<path d="M54.003 10.5114H27.1348C27.0682 10.5193 27.0009 10.5193 26.9343 10.5114L17.8339 8.10606C17.672 8.06286 17.5277 7.97002 17.4213 7.84059C17.3149 7.71116 17.2517 7.55164 17.2406 7.38444C17.2275 7.21634 17.2677 7.04838 17.3555 6.90443C17.4433 6.76049 17.5742 6.64789 17.7297 6.58264L26.8301 2.77411C26.9265 2.73303 27.03 2.71124 27.1348 2.70997H42.2085C42.3401 2.71063 42.4696 2.74367 42.5854 2.80618L54.3718 9.02011C54.528 9.10436 54.6518 9.23806 54.7239 9.40025C54.7959 9.56244 54.8121 9.74395 54.7699 9.91634C54.7277 10.0887 54.6296 10.2422 54.4908 10.3528C54.352 10.4634 54.1804 10.5249 54.003 10.5275V10.5114ZM27.239 8.90785H50.7557L42.0161 4.29752H27.3031L20.528 7.11985L27.239 8.90785ZM5.83105 9.70965H4.25151V7.87354L1.48532 5.46815C1.40078 5.3949 1.3325 5.30477 1.28487 5.20356L0.0741575 2.68591C0.0178261 2.5642 -0.00707602 2.43031 0.00173076 2.29649C0.0105375 2.16266 0.052772 2.03319 0.124568 1.91991C0.196363 1.80663 0.295426 1.71317 0.412688 1.64809C0.52995 1.583 0.661664 1.54837 0.795773 1.54736H7.76338C7.93246 1.54749 8.09717 1.60106 8.23398 1.70042C8.37078 1.79979 8.47267 1.93985 8.52509 2.1006L9.94427 6.46237L11.0026 7.57687L9.86409 8.72344L8.66139 7.43255C8.57786 7.3461 8.51483 7.24197 8.47698 7.12787L7.18609 3.11888H2.06261L2.64792 4.36167L5.56646 6.90336C5.65199 6.9785 5.72053 7.07099 5.76754 7.17467C5.81454 7.27836 5.83893 7.39087 5.83907 7.50471L5.83105 9.70965Z" fill="#C0C0C0"/>
<path d="M28.6904 3.49561H27.0868V9.70952H28.6904V3.49561Z" fill="#C0C0C0"/>
</svg>
