<svg width="52" height="48" viewBox="0 0 52 48" fill="none" xmlns="http://www.w3.org/2000/svg">
<g id="ssangyong" filter="url(#filter0_d_7998_13945)">
<g id="Group">
<path id="Vector" fill-rule="evenodd" clip-rule="evenodd" d="M9.44019 35.642C9.3468 34.7764 7.00627 33.7228 7.00627 33.7228C6.39767 33.3488 6.6549 32.8814 6.6549 32.8814C7.02968 32.0612 8.99544 32.8343 8.99544 32.8343L9.36922 31.9454C8.32757 31.1602 6.9978 31.3243 6.9978 31.3243C5.36324 31.5111 5.1192 32.6155 5.1192 32.6155C4.74642 34.3073 6.05178 34.7087 6.05178 34.7087C7.24184 35.268 7.60043 35.4978 7.60043 35.4978C8.57584 36.1283 7.71498 36.5447 7.71498 36.5447C6.65416 37.0457 5.32016 36.3577 5.32016 36.3577L4.9043 37.3328C6.00895 38.0781 7.71498 37.7633 7.71498 37.7633C9.8807 37.4473 9.44019 35.642 9.44019 35.642Z" fill="#2C00AB"/>
<path id="Vector_2" fill-rule="evenodd" clip-rule="evenodd" d="M12.9303 35.9877C12.8551 35.2867 10.9603 34.4348 10.9603 34.4348C10.4673 34.1312 10.6762 33.7525 10.6762 33.7525C10.9795 33.0896 12.571 33.7144 12.571 33.7144L12.8735 32.9947C12.0304 32.3597 10.9541 32.4919 10.9541 32.4919C9.6313 32.6431 9.43383 33.5375 9.43383 33.5375C9.13177 34.9069 10.1879 35.2324 10.1879 35.2324C11.1513 35.6849 11.4417 35.8706 11.4417 35.8706C12.2306 36.3814 11.5343 36.7173 11.5343 36.7173C10.6759 37.1242 9.59569 36.5669 9.59569 36.5669L9.25977 37.3566C10.1537 37.9602 11.5343 37.7047 11.5343 37.7047C13.2872 37.4489 12.9303 35.9877 12.9303 35.9877Z" fill="#2C00AB"/>
<path id="Vector_3" fill-rule="evenodd" clip-rule="evenodd" d="M14.5147 32.6133L12.6445 37.6332L13.7218 37.6526L14.2091 36.5557H16.4655L16.9533 37.5518H17.9892L16.0387 32.6133H14.5147ZM14.5749 35.6615L15.2864 33.9134L16.0586 35.6615H14.5749ZM21.4646 35.926L19.3718 32.6541H17.9892V37.5518L19.0057 37.5717V34.3611L21.2409 37.7144H22.5214V32.6736H21.4646V35.926ZM27.073 34.8689H25.3659V35.6413H26.5249V36.8197C25.732 37.1245 24.8993 36.7998 24.8993 36.7998C23.2528 35.7031 24.147 34.3407 24.147 34.3407C25.1635 32.7552 27.5817 33.7314 27.5817 33.7314V32.8167C24.6343 31.8613 23.3743 33.4667 23.3743 33.4667C21.7086 35.7631 23.7807 37.2677 23.7807 37.2677C25.8134 38.5274 27.7647 37.4295 27.7647 37.4295V35.6207C27.7239 34.7885 27.073 34.8689 27.073 34.8689ZM46.4036 34.8689H44.6968V35.6413H45.8543V36.8197C45.0614 37.1245 44.2284 36.7998 44.2284 36.7998C42.5822 35.7031 43.4764 34.3407 43.4764 34.3407C44.4929 32.7552 46.9111 33.7314 46.9111 33.7314V32.8167C43.9642 31.8613 42.7044 33.4667 42.7044 33.4667C41.0377 35.7631 43.1101 37.2677 43.1101 37.2677C45.1431 38.5274 47.0939 37.4295 47.0939 37.4295V35.6207C47.054 34.7885 46.4036 34.8689 46.4036 34.8689Z" fill="#2C00AB"/>
<path id="Vector_4" fill-rule="evenodd" clip-rule="evenodd" d="M31.6461 31.5356L30.081 34.1371L28.5167 31.5976H27.1555L29.4919 35.3976L28.1915 37.8361H29.4306L33.0284 31.5356H31.6461ZM34.288 32.5436C32.8133 32.5436 31.6177 33.7399 31.6177 35.2149C31.6177 36.6898 32.8133 37.8856 34.288 37.8856C35.7632 37.8856 36.96 36.6898 36.96 35.2149C36.96 33.7399 35.7632 32.5436 34.288 32.5436ZM34.288 36.8402C33.3903 36.8402 32.6631 36.1123 32.6631 35.2146C32.6631 34.7835 32.8344 34.3701 33.1392 34.0653C33.444 33.7605 33.8574 33.5893 34.2885 33.5893C34.7196 33.5893 35.133 33.7605 35.4378 34.0653C35.7426 34.3701 35.9138 34.7835 35.9138 35.2146C35.9138 35.6458 35.7425 36.0593 35.4376 36.3641C35.1327 36.669 34.7192 36.8402 34.288 36.8402ZM40.832 35.8648L38.7387 32.6335H37.3161V37.6525L38.3938 37.6331V34.3814L40.6084 37.6931H41.9085V32.6131H40.832V35.8648ZM39.6006 16.0164C38.8224 13.1429 35.104 11.6946 35.104 11.6946C34.1119 11.3315 34.5081 11.9018 34.5081 11.9018C34.5081 11.9018 38.7868 13.8713 38.7868 16.6128C38.7868 20.0082 34.1244 21.0237 34.1244 21.0237C38.365 19.6745 38.3772 16.7953 38.3772 16.7953C38.3027 13.9166 34.5081 11.9018 34.5081 11.9018C33.0451 11.0718 32.2515 10.8641 32.2515 10.8641C30.342 10.2244 30.9616 10.968 30.9616 10.968C30.9616 10.968 36.7222 12.7831 36.7222 16.7873C36.7222 20.8773 28.6928 22.1911 28.6928 22.1911C36.2431 20.7901 36.2445 16.8212 36.2445 16.8212C36.2445 13.2463 30.9616 10.968 30.9616 10.968C30.1682 10.5359 28.8225 10.1878 28.8225 10.1878C27.5759 9.92209 28.2831 10.4667 28.2831 10.4667C33.3427 13.4236 33.3427 16.6917 33.3427 16.6917C33.3427 20.3234 30.0131 21.2309 30.0131 21.2309C29.0456 21.6071 27.1737 21.9082 27.1737 21.9082C26.8707 21.9978 26.6588 22.2063 26.6588 22.4506C26.6588 22.5492 26.6827 22.6468 26.7546 22.7242C26.9374 22.9195 27.5527 23.3772 27.5527 23.3772C27.7731 23.5846 27.9019 23.8413 27.9019 24.1193C27.9019 24.8011 27.1179 25.3544 26.144 25.3671H26.0723C25.0986 25.3544 24.314 24.8013 24.314 24.1193C24.314 23.8413 24.4435 23.5846 24.6634 23.3772C24.6634 23.3772 25.2784 22.9195 25.4612 22.7242C25.5332 22.6468 25.5578 22.5494 25.5578 22.4506C25.5578 22.2063 25.3454 21.9978 25.0426 21.9082C25.0426 21.9082 23.1705 21.6074 22.203 21.2309C22.203 21.2309 18.8734 20.3237 18.8734 16.6917C18.8734 16.6917 18.8734 13.4233 23.933 10.4667C23.933 10.4667 24.6399 9.92209 23.3936 10.1878C23.3936 10.1878 22.0479 10.5359 21.2545 10.968C21.2545 10.968 15.9718 13.246 15.9718 16.8212C15.9718 16.8212 15.9728 20.7901 23.5238 22.1911C23.5238 22.1911 15.4942 20.8775 15.4942 16.7873C15.4942 12.7831 21.2545 10.968 21.2545 10.968C21.2545 10.968 21.8741 10.2244 19.9646 10.8641C19.9646 10.8641 19.171 11.0716 17.7077 11.9018C17.7077 11.9018 13.9129 13.9166 13.8387 16.7953C13.8387 16.7953 13.8509 19.6745 18.092 21.0237C18.092 21.0237 13.4293 20.0079 13.4293 16.6128C13.4293 13.8713 17.7077 11.9018 17.7077 11.9018C17.7077 11.9018 18.1044 11.3313 17.1126 11.6946C17.1126 11.6946 13.3934 13.1432 12.6157 16.0164C12.6157 16.0164 12.3799 17.0989 12.7251 17.8895C13.1434 18.8577 14.2344 20.4614 17.0129 21.3601C17.0129 21.3601 18.278 21.8796 23.3378 22.8911L23.6359 22.9591C23.6359 22.9591 23.8535 23.0544 23.6977 23.2263L23.0006 23.8254C23.0006 23.8254 21.9784 24.6118 23.4374 25.2737C23.4374 25.2737 24.3277 25.577 24.9552 26.2489C24.9552 26.2489 25.3589 26.6329 26.0424 26.652V26.6548H26.088C26.09 26.6548 26.0917 26.6555 26.0932 26.6555V26.6548H26.1226V26.6555L26.1278 26.6548H26.1592V26.6538C26.8517 26.6388 27.2604 26.2489 27.2604 26.2489C27.8882 25.577 28.7779 25.2737 28.7779 25.2737C30.2374 24.6118 29.2147 23.8254 29.2147 23.8254L28.5182 23.2263C28.3625 23.0544 28.5799 22.9591 28.5799 22.9591L28.8775 22.8911C33.9371 21.8796 35.2026 21.3601 35.2026 21.3601C37.9812 20.4614 39.0722 18.8579 39.491 17.8895C39.8364 17.0989 39.6006 16.0164 39.6006 16.0164Z" fill="#2C00AB"/>
</g>
</g>
<defs>
<filter id="filter0_d_7998_13945" x="-2" y="0" width="56" height="56" filterUnits="userSpaceOnUse" color-interpolation-filters="sRGB">
<feFlood flood-opacity="0" result="BackgroundImageFix"/>
<feColorMatrix in="SourceAlpha" type="matrix" values="0 0 0 0 0 0 0 0 0 0 0 0 0 0 0 0 0 0 127 0" result="hardAlpha"/>
<feOffset dy="4"/>
<feGaussianBlur stdDeviation="2"/>
<feComposite in2="hardAlpha" operator="out"/>
<feColorMatrix type="matrix" values="0 0 0 0 0 0 0 0 0 0 0 0 0 0 0 0 0 0 0.25 0"/>
<feBlend mode="normal" in2="BackgroundImageFix" result="effect1_dropShadow_7998_13945"/>
<feBlend mode="normal" in="SourceGraphic" in2="effect1_dropShadow_7998_13945" result="shape"/>
</filter>
</defs>
</svg>
