<svg width="15" height="14" viewBox="0 0 15 14" fill="none" xmlns="http://www.w3.org/2000/svg">
<path d="M7.05163 1.03827C7.23504 0.666646 7.76496 0.666645 7.94837 1.03827L9.31705 3.81152C9.53554 4.25423 9.95789 4.56109 10.4465 4.63208L13.5069 5.07679C13.917 5.13638 14.0808 5.64037 13.784 5.92964L11.5695 8.08831C11.2159 8.43292 11.0546 8.92942 11.1381 9.41601L11.6608 12.4641C11.7309 12.8726 11.3022 13.184 10.9354 12.9912L8.19801 11.5521C7.76103 11.3223 7.23897 11.3223 6.80199 11.5521L4.06463 12.9912C3.69781 13.184 3.2691 12.8726 3.33915 12.4641L3.86194 9.41601C3.9454 8.92942 3.78408 8.43292 3.43055 8.08831L1.21597 5.92964C0.919216 5.64037 1.08297 5.13638 1.49308 5.07679L4.55354 4.63208C5.04211 4.56109 5.46446 4.25423 5.68295 3.81152L7.05163 1.03827Z" fill="white" stroke="#2C00AB"/>
</svg>
