<svg width="15" height="14" viewBox="0 0 15 14" fill="none" xmlns="http://www.w3.org/2000/svg">
<path d="M6.60326 0.816985C6.97008 0.0737393 8.02992 0.07374 8.39674 0.816986L9.76542 3.59024C9.91108 3.88538 10.1926 4.08995 10.5184 4.13728L13.5788 4.58199C14.399 4.70117 14.7265 5.70915 14.133 6.28768L11.9185 8.44636C11.6828 8.67609 11.5752 9.00709 11.6309 9.33149L12.1537 12.3796C12.2938 13.1965 11.4363 13.8195 10.7027 13.4338L7.96534 11.9946C7.67402 11.8415 7.32598 11.8415 7.03466 11.9946L4.2973 13.4338C3.56367 13.8195 2.70624 13.1965 2.84635 12.3796L3.36914 9.33149C3.42478 9.00709 3.31723 8.67609 3.08154 8.44636L0.866968 6.28768C0.273451 5.70915 0.600962 4.70117 1.42118 4.58199L4.48165 4.13728C4.80736 4.08995 5.08892 3.88538 5.23458 3.59024L6.60326 0.816985Z" fill="#2C00AB"/>
</svg>
