<svg width="50" height="20" viewBox="0 0 50 20" fill="none" xmlns="http://www.w3.org/2000/svg">
<path fill-rule="evenodd" clip-rule="evenodd" d="M6.46553 12.6191C8.05602 12.6191 7.85753 14.3092 7.88572 14.3802H6.23828C6.23828 14.3659 6.23828 13.8688 5.78406 13.8688H2.46126C1.80798 13.8688 1.80798 15.0053 2.40431 15.0335C3.48362 15.0902 5.2444 15.0758 6.69279 15.1469C7.37426 15.1897 7.97087 15.6299 7.97087 16.3683C7.97087 16.3965 7.99935 17.6464 7.99935 17.6464C8.01345 18.4982 7.2753 18.896 6.55097 18.896H1.80798C1.01288 18.896 0.359594 18.3141 0.245968 17.5325C0.21749 17.3443 0.21749 17.1529 0.245968 16.9646H1.89313C1.89313 16.9646 1.86465 17.6746 2.57461 17.6746C3.82421 17.6746 4.53417 17.7034 5.67015 17.6746C6.52221 17.6602 6.66403 16.425 5.67015 16.3683C4.4775 16.3116 3.56848 16.2691 2.06343 16.2262C1.04107 16.198 0.302358 15.8004 0.302358 14.9766V13.6985C0.302358 13.1021 0.87049 12.6191 1.66559 12.6191H6.46553V12.6191ZM10.3852 12.8179C10.3567 12.8608 10.3852 15.3175 10.3852 17.1922C10.3852 17.462 10.5555 17.6746 10.8961 17.6746H14.0771C14.418 17.6746 14.5031 17.391 14.5031 17.1637C14.5316 15.488 14.5316 12.8893 14.5031 12.8467H16.3206C16.3206 12.8467 16.335 15.9708 16.3491 17.6464C16.3634 18.3992 15.7243 18.8817 14.8155 18.896C13.1114 18.9248 12.2594 18.896 10.6689 18.896C9.56108 18.896 8.60978 18.5695 8.5954 17.6464C8.5813 15.7432 8.53872 12.8608 8.56692 12.8179H10.3852V12.8179ZM22.6541 12.8467C24.3297 12.8467 24.5 14.0681 24.5 14.4372C24.5 15.4311 23.6623 15.843 23.6195 15.8574C23.6338 15.8574 24.6136 16.2265 24.6136 17.1922C24.6136 17.7318 24.5285 18.8817 22.6538 18.896C20.4954 18.9248 17.0162 18.896 17.0021 18.896V12.8467H22.6541V12.8467ZM22.1998 15.3457C22.5404 15.3457 22.8246 15.1469 22.8246 14.6926C22.8246 14.2951 22.4981 14.0681 22.1432 14.0681C20.9505 14.0681 18.8629 14.0394 18.8204 14.0681V15.3457C18.8627 15.3741 20.8933 15.3457 22.1998 15.3457ZM22.228 17.6746C22.583 17.6746 22.938 17.4764 22.938 17.0216C22.938 16.5953 22.583 16.326 22.1996 16.3398C21.0918 16.3542 18.8624 16.3398 18.8198 16.3686V17.6749C18.8627 17.7031 20.7796 17.6746 22.228 17.6746V17.6746ZM27.8234 12.8467H30.0381L33.3048 18.896H31.5149L30.8619 17.6746H27.0562L26.3744 18.896H24.5569L27.8234 12.8467V12.8467ZM28.9021 14.1815L27.7094 16.3683H30.1523L28.9021 14.1815ZM38.9565 14.0681C39.4107 14.0681 39.6949 14.6072 39.6949 15.0335C39.6949 15.4598 39.3963 15.9141 38.9565 15.9141C37.6496 15.9141 35.6616 15.9285 35.6337 15.9141V14.0681C35.676 14.0394 37.7633 14.0681 38.9565 14.0681V14.0681ZM35.6337 17.0213C35.6475 17.0213 37.8205 17.0357 38.8998 17.0213C39.3679 17.0069 39.7513 17.5043 39.7513 17.9306V18.896H41.3703V17.9588C41.3703 17.0783 40.4474 16.5671 40.4331 16.5671C40.4759 16.5527 41.3424 15.9707 41.3424 15.0053C41.3424 13.8688 40.8881 12.8467 39.2122 12.8467H33.8159V18.896H35.6337V17.0213V17.0213ZM43.8131 12.8179C43.7702 12.8746 43.8413 15.3175 43.8413 17.1922C43.8413 17.462 43.9834 17.6746 44.3528 17.6746H47.505C47.8459 17.6746 47.9313 17.391 47.9313 17.1637C47.9595 15.488 47.988 12.8893 47.9595 12.8467H49.7493C49.7493 12.8467 49.7631 15.9708 49.7775 17.6464C49.7919 18.3992 49.1812 18.8817 48.2724 18.896C46.5399 18.9248 45.6875 18.896 44.1258 18.896C43.0183 18.896 42.0382 18.5839 42.0244 17.6464C41.9956 15.7432 41.9956 12.8608 42.0244 12.8179H43.8131V12.8179Z" fill="#2C00AB"/>
<path d="M25.424 0.767808C23.1481 0.767808 21.0479 1.37175 19.5 2.2881C17.9146 3.22672 16.9142 4.48874 16.9142 5.75387C16.9142 7.01617 17.9101 8.26438 19.4893 9.19144C21.0377 10.1005 23.1425 10.6968 25.4238 10.6968C27.7233 10.6968 29.8368 10.1016 31.391 9.19398C32.9786 8.26635 33.9764 7.01702 33.9764 5.75387C33.9764 4.48734 32.9741 3.22418 31.3805 2.28528C29.8284 1.37062 27.7194 0.767808 25.424 0.767808V0.767808ZM19.37 2.06761C20.9543 1.12956 23.101 0.51123 25.424 0.51123C27.7656 0.51123 29.9203 1.12814 31.5102 2.06451C33.1816 3.04937 34.2333 4.39175 34.2333 5.75331C34.2333 7.1126 33.1858 8.44173 31.5201 9.41475C29.9302 10.3435 27.7704 10.9528 25.424 10.9528C23.0968 10.9528 20.9458 10.3421 19.3604 9.41137C17.7031 8.43835 16.6582 7.11119 16.6582 5.75331C16.6579 4.39345 17.7071 3.05219 19.37 2.06761Z" fill="#2C00AB"/>
<path fill-rule="evenodd" clip-rule="evenodd" d="M23.0592 3.86301L27.0133 4.72268L23.102 5.53894L22.2426 7.68771L21.3833 5.49608L17.7734 4.72268L21.3833 3.949L22.1998 1.88623L23.0592 3.86301ZM27.3998 5.88264L29.0755 6.22663L27.3998 6.61347L27.0556 7.51572L26.669 6.57033L25.1219 6.22663L26.669 5.88264L27.0133 5.02325L27.3998 5.88264V5.88264ZM31.4825 5.88264L33.1581 6.22663L31.4825 6.61347L31.1382 7.51572L30.7517 6.57033L29.2472 6.22663L30.7517 5.88264L31.1382 5.02325L31.4825 5.88264V5.88264ZM30.4082 3.34731L32.0839 3.69102L30.4082 4.03472L30.064 4.98039L29.6774 4.03472L28.1304 3.69102L29.6774 3.34731L30.0211 2.48764L30.4082 3.34731ZM28.8178 7.90256L30.5371 8.2894L28.8606 8.6331L28.4741 9.53564L28.0869 8.6331L26.583 8.2894L28.0869 7.9457L28.4741 7.08602L28.8178 7.90256ZM24.3914 8.2034L26.0676 8.59024L24.3914 8.93395L24.0474 9.83648L23.6609 8.89109L22.1138 8.59024L23.6609 8.24626L24.0046 7.34401L24.3914 8.2034Z" fill="#2C00AB"/>
</svg>
