<svg width="89" height="41" viewBox="0 0 89 41" fill="none" xmlns="http://www.w3.org/2000/svg">
<path d="M38.1014 13.6305H25.6254C25.507 13.6298 25.3902 13.6027 25.2835 13.5515C25.1767 13.5002 25.0827 13.4259 25.008 13.3339C24.9325 13.2423 24.8782 13.1351 24.849 13.0201C24.8199 12.905 24.8167 12.7849 24.8397 12.6684L26.78 3.32746C26.8191 3.14511 26.9206 2.9821 27.0669 2.86649C27.2133 2.75088 27.3954 2.6899 27.5818 2.69405H38.1014C38.314 2.69405 38.518 2.77852 38.6683 2.92889C38.8187 3.07925 38.9032 3.28319 38.9032 3.49584V12.8287C38.9032 13.0414 38.8187 13.2453 38.6683 13.3957C38.518 13.5461 38.314 13.6305 38.1014 13.6305ZM26.6357 12.0269H37.2996V4.29764H28.2152L26.6357 12.0269ZM22.6267 13.6305H7.51286C7.30021 13.6305 7.09627 13.5461 6.9459 13.3957C6.79553 13.2453 6.71106 13.0414 6.71106 12.8287V12.1151C6.71233 12.0104 6.73412 11.9069 6.7752 11.8105L10.2951 3.19116C10.3558 3.04347 10.4591 2.91726 10.592 2.8287C10.7248 2.74013 10.8811 2.69325 11.0408 2.69405H24.4708C24.596 2.69498 24.7192 2.72519 24.8306 2.78228C24.942 2.83936 25.0384 2.92173 25.1123 3.02278C25.189 3.11525 25.244 3.22379 25.2731 3.34037C25.3023 3.45695 25.3048 3.57859 25.2807 3.69629L23.3804 12.9891C23.3434 13.1702 23.245 13.333 23.1018 13.4499C22.9587 13.5668 22.7795 13.6306 22.5946 13.6305H22.6267ZM8.43492 12.0269H21.9372L23.5408 4.29764H11.578L8.43492 12.0269Z" fill="#C0C0C0"/>
<path d="M44.3073 16.7496H40.9076C40.695 16.7496 40.491 16.6651 40.3407 16.5147C40.1903 16.3644 40.1058 16.1604 40.1058 15.9478C40.1058 15.7351 40.1903 15.5312 40.3407 15.3808C40.491 15.2305 40.695 15.146 40.9076 15.146H44.3073C44.5199 15.146 44.7238 15.2305 44.8742 15.3808C45.0246 15.5312 45.109 15.7351 45.109 15.9478C45.109 16.1604 45.0246 16.3644 44.8742 16.5147C44.7238 16.6651 44.5199 16.7496 44.3073 16.7496ZM29.025 16.7496H25.6254C25.4128 16.7496 25.2088 16.6651 25.0585 16.5147C24.9081 16.3644 24.8236 16.1604 24.8236 15.9478C24.8236 15.7351 24.9081 15.5312 25.0585 15.3808C25.2088 15.2305 25.4128 15.146 25.6254 15.146H29.025C29.2377 15.146 29.4416 15.2305 29.592 15.3808C29.7423 15.5312 29.8268 15.7351 29.8268 15.9478C29.8268 16.1604 29.7423 16.3644 29.592 16.5147C29.4416 16.6651 29.2377 16.7496 29.025 16.7496Z" fill="#C0C0C0"/>
<path d="M58.1463 13.6304H41.1883C40.9756 13.6304 40.7717 13.5459 40.6213 13.3955C40.471 13.2452 40.3865 13.0412 40.3865 12.8286V3.49567C40.3865 3.28302 40.471 3.07908 40.6213 2.92871C40.7717 2.77835 40.9756 2.69387 41.1883 2.69387H51.6116C51.7354 2.69293 51.8578 2.72068 51.969 2.77493C52.0803 2.82918 52.1775 2.90847 52.2531 3.00657L58.7797 11.6259C58.8854 11.7669 58.9418 11.9388 58.94 12.115V12.8286C58.94 13.0398 58.8567 13.2426 58.708 13.3927C58.5594 13.5428 58.3575 13.6283 58.1463 13.6304ZM41.966 12.0268H57.1039L51.2428 4.29746H41.9901L41.966 12.0268Z" fill="#C0C0C0"/>
<path d="M2.9907 28.552H0.721617C0.530232 28.552 0.346686 28.4759 0.211356 28.3406C0.0760271 28.2053 0 28.0217 0 27.8303V25.5693C0 25.3779 0.0760271 25.1943 0.211356 25.059C0.346686 24.9237 0.530232 24.8477 0.721617 24.8477H2.43746V26.2749H1.44323V27.0766H2.9907V28.552Z" fill="#C0C0C0"/>
<path d="M10.9445 32.9378H10.8403L2.74217 31.3983C2.55539 31.3642 2.38679 31.2648 2.26639 31.118C2.14599 30.9712 2.0816 30.7864 2.0847 30.5965V14.8653C2.0859 14.7553 2.10766 14.6466 2.14885 14.5446L8.1543 0.481082C8.21634 0.338907 8.3183 0.217784 8.44781 0.132394C8.57731 0.0470049 8.72881 0.00101673 8.88393 4.63557e-06H53.3355C53.4553 -0.000402654 53.5736 0.0260339 53.6819 0.0773718C53.7901 0.12871 53.8854 0.203644 53.9609 0.296669L63.6867 12.5802L81.3262 14.4724C81.4823 14.489 81.63 14.551 81.7512 14.6508C81.8723 14.7506 81.9615 14.8837 82.0077 15.0337L82.6492 17.1023C82.713 17.3054 82.6935 17.5255 82.595 17.7142C82.5462 17.8076 82.4795 17.8906 82.3987 17.9582C82.3179 18.0259 82.2245 18.077 82.124 18.1086C81.9209 18.1724 81.7008 18.1529 81.5121 18.0544C81.3234 17.9559 81.1815 17.7865 81.1177 17.5834L80.6367 15.9798L63.1816 14.1437C63.0755 14.133 62.9727 14.1012 62.8791 14.0503C62.7855 13.9993 62.7029 13.9302 62.6363 13.847L52.9186 1.6036H9.41312L3.62415 15.0497V29.9631L11.0728 31.3743C11.1781 31.3843 11.2804 31.4149 11.3739 31.4645C11.4673 31.514 11.5501 31.5815 11.6175 31.663C11.6849 31.7445 11.7355 31.8385 11.7666 31.9396C11.7976 32.0407 11.8085 32.147 11.7985 32.2522C11.7885 32.3575 11.7578 32.4598 11.7083 32.5533C11.6587 32.6467 11.5913 32.7295 11.5098 32.7969C11.4282 32.8643 11.3342 32.9149 11.2331 32.946C11.132 32.977 11.0258 32.9879 10.9205 32.9779L10.9445 32.9378Z" fill="#C0C0C0"/>
<path d="M60.5518 32.6013C60.4501 32.6028 60.3492 32.5837 60.2551 32.5451C59.7419 32.3447 59.3731 32.1843 59.1005 32.0641C58.8279 31.9438 58.6114 31.8877 58.5473 31.8877H30.1958L28.8247 32.5291C28.6382 32.5909 28.4355 32.582 28.2551 32.5042C28.0747 32.4264 27.9292 32.285 27.8461 32.107C27.763 31.929 27.7482 31.7267 27.8044 31.5384C27.8607 31.3502 27.9841 31.1891 28.1512 31.0859L29.6826 30.3723C29.7863 30.3177 29.9022 30.2901 30.0194 30.2921H58.5793C58.9703 30.3252 59.35 30.4399 59.6938 30.6288C59.9664 30.7491 60.3112 30.9015 60.8003 31.0939C60.9518 31.1712 61.0747 31.2947 61.1513 31.4466C61.228 31.5984 61.2544 31.7706 61.2267 31.9384C61.199 32.1062 61.1187 32.2608 60.9974 32.38C60.8761 32.4991 60.72 32.5766 60.5518 32.6013Z" fill="#C0C0C0"/>
<path d="M77.8864 33.074C77.7206 33.0733 77.5592 33.0213 77.4242 32.9251C77.2892 32.8289 77.1874 32.6932 77.1327 32.5368C77.0633 32.3368 77.0758 32.1176 77.1675 31.9269C77.2591 31.7361 77.4224 31.5893 77.6218 31.5185L84.2687 29.1131C84.7177 20.5098 84.0362 18.8822 83.8117 18.5775C81.9996 18.3851 77.3973 18.2327 70.141 18.1285C69.9284 18.1285 69.7244 18.044 69.5741 17.8937C69.4237 17.7433 69.3392 17.5393 69.3392 17.3267C69.3392 17.114 69.4237 16.9101 69.5741 16.7597C69.7244 16.6094 69.9284 16.5249 70.141 16.5249C77.6619 16.6291 82.2321 16.7895 84.1163 16.998C85.3511 17.2305 86.4496 18.3851 85.8242 29.7305C85.8161 29.8883 85.7616 30.0403 85.6674 30.1673C85.5733 30.2942 85.4437 30.3905 85.295 30.4441L78.1911 33.0259C78.0936 33.0615 77.9901 33.0778 77.8864 33.074Z" fill="#C0C0C0"/>
<path d="M69.2029 40.5468C67.359 40.5452 65.5569 39.9969 64.0245 38.9713C62.4921 37.9457 61.2981 36.4888 60.5936 34.7848C59.889 33.0808 59.7055 31.2061 60.0662 29.3978C60.4269 27.5894 61.3156 25.9287 62.6201 24.6253C63.9245 23.322 65.5861 22.4347 67.3947 22.0756C69.2033 21.7164 71.0778 21.9016 72.7813 22.6076C74.4847 23.3136 75.9406 24.5088 76.9648 26.0421C77.9891 27.5754 78.5358 29.3779 78.5358 31.2219C78.5337 33.6957 77.5495 36.0675 75.7994 37.816C74.0494 39.5646 71.6768 40.5468 69.2029 40.5468ZM69.2029 23.5006C67.6761 23.5022 66.1841 23.9563 64.9154 24.8057C63.6467 25.6551 62.6583 26.8616 62.0751 28.2726C61.4919 29.6836 61.3401 31.2359 61.639 32.7331C61.9378 34.2304 62.6738 35.6054 63.754 36.6845C64.8341 37.7635 66.21 38.4981 67.7075 38.7954C69.2051 39.0927 70.7572 38.9393 72.1676 38.3546C73.578 37.77 74.7834 36.7803 75.6315 35.5108C76.4796 34.2412 76.9322 32.7487 76.9322 31.2219C76.928 29.174 76.112 27.2113 74.6632 25.7639C73.2144 24.3166 71.2508 23.5027 69.2029 23.5006ZM19.4034 40.5468C17.0927 40.556 14.8617 39.7033 13.1462 38.1554C11.4307 36.6074 10.354 34.4754 10.1266 32.176C9.93371 30.3009 10.3136 28.4114 11.2163 26.7566C12.1189 25.1018 13.5018 23.7594 15.1828 22.9064C16.8637 22.0534 18.7637 21.7298 20.6322 21.9784C22.5007 22.227 24.25 23.036 25.6495 24.2988C27.0489 25.5616 28.0328 27.2188 28.4715 29.0521C28.9101 30.8853 28.7828 32.8084 28.1064 34.5679C27.4301 36.3273 26.2363 37.8404 24.6827 38.9078C23.129 39.9752 21.2883 40.5466 19.4034 40.5468ZM11.7222 32.0156C11.9272 34.0204 12.907 35.8657 14.4529 37.1585C15.9987 38.4513 17.9884 39.0892 19.9977 38.9363C22.0071 38.7834 23.8773 37.8519 25.2098 36.3401C26.5423 34.8283 27.2317 32.856 27.131 30.8433C27.0304 28.8306 26.1477 26.9369 24.6711 25.5656C23.1944 24.1943 21.2406 23.4539 19.226 23.5022C17.2114 23.5505 15.2954 24.3837 13.8862 25.8242C12.477 27.2648 11.6861 29.1987 11.6821 31.2138C11.6787 31.4817 11.6921 31.7495 11.7222 32.0156ZM69.2029 37.7084C67.92 37.7084 66.6659 37.328 65.5992 36.6152C64.5325 35.9025 63.7011 34.8894 63.2101 33.7042C62.7192 32.5189 62.5907 31.2147 62.841 29.9564C63.0913 28.6981 63.7091 27.5424 64.6162 26.6352C65.5234 25.728 66.6792 25.1103 67.9375 24.86C69.1957 24.6097 70.4999 24.7381 71.6852 25.2291C72.8705 25.72 73.8835 26.5514 74.5963 27.6181C75.309 28.6848 75.6894 29.939 75.6894 31.2219C75.6873 32.9415 75.0032 34.5902 73.7872 35.8062C72.5712 37.0222 70.9226 37.7063 69.2029 37.7084ZM69.2029 26.3469C68.2368 26.3469 67.2924 26.6335 66.4893 27.1704C65.6861 27.7073 65.0602 28.4704 64.6909 29.3631C64.3216 30.2558 64.2253 31.238 64.4144 32.1855C64.6035 33.1329 65.0693 34.0029 65.753 34.6855C66.4367 35.3681 67.3075 35.8325 68.2552 36.02C69.2029 36.2075 70.185 36.1096 71.0771 35.7388C71.9692 35.368 72.7312 34.7409 73.2668 33.9369C73.8024 33.1328 74.0874 32.188 74.0858 31.2219C74.0837 29.9282 73.5683 28.6883 72.6528 27.7743C71.7373 26.8603 70.4966 26.3469 69.2029 26.3469ZM19.4034 37.7084C18.1201 37.71 16.8652 37.3309 15.7975 36.6191C14.7297 35.9073 13.8971 34.8948 13.4049 33.7097C12.9127 32.5246 12.7831 31.2201 13.0325 29.9613C13.2819 28.7025 13.899 27.546 14.8058 26.638C15.7127 25.7301 16.8685 25.1115 18.1269 24.8606C19.3854 24.6096 20.6901 24.7376 21.8758 25.2283C23.0615 25.719 24.075 26.5504 24.7881 27.6173C25.5012 28.6842 25.8819 29.9386 25.8819 31.2219C25.8798 32.9402 25.1968 34.5876 23.9825 35.8034C22.7682 37.0191 21.1217 37.7042 19.4034 37.7084ZM19.4034 26.3469C18.4369 26.3454 17.4918 26.6306 16.6875 27.1665C15.8833 27.7025 15.2562 28.465 14.8856 29.3576C14.5151 30.2501 14.4177 31.2326 14.6059 32.1805C14.794 33.1285 15.2592 33.9993 15.9426 34.6826C16.626 35.366 17.4968 35.8312 18.4447 36.0194C19.3926 36.2075 20.3751 36.1102 21.2677 35.7396C22.1602 35.369 22.9228 34.7419 23.4587 33.9377C23.9946 33.1335 24.2799 32.1883 24.2783 31.2219C24.2762 29.9296 23.7619 28.6909 22.8481 27.7771C21.9343 26.8634 20.6956 26.3491 19.4034 26.3469Z" fill="#C0C0C0"/>
<path d="M87.3158 28.5519H85.0547V27.0766H86.5941V26.2748H85.6079V24.8315H87.3158C87.4105 24.8315 87.5044 24.8502 87.5919 24.8865C87.6795 24.9227 87.759 24.9759 87.826 25.0429C87.893 25.1099 87.9462 25.1895 87.9824 25.277C88.0187 25.3646 88.0374 25.4584 88.0374 25.5532V27.8142C88.0395 27.9103 88.0224 28.0059 87.9871 28.0953C87.9518 28.1847 87.899 28.2662 87.8318 28.3349C87.7646 28.4036 87.6843 28.4582 87.5957 28.4955C87.507 28.5327 87.4119 28.5519 87.3158 28.5519Z" fill="#C0C0C0"/>
</svg>
