<svg width="50" height="7" viewBox="0 0 50 7" fill="none" xmlns="http://www.w3.org/2000/svg">
<g clip-path="url(#clip0_7316_15280)">
<path d="M42.7168 2.58733V6.51629H43.9726V3.89699H48.5653V6.51629H49.8212V2.58733H42.7168ZM43.8291 1.31356H48.673C49.3547 1.18798 49.8391 0.578001 49.9826 0.00390625H42.5194C42.6629 0.578001 43.1653 1.17004 43.8291 1.31356ZM38.8954 6.51629C39.5234 6.24719 39.8642 5.78074 40.0078 5.24252H34.3565V0.0218467H33.0828V6.51629H38.8954V6.51629ZM23.664 1.29562H28.1491C28.8309 1.09827 29.387 0.578001 29.5306 0.0218467H22.4262V3.86111H28.2388V5.20664H23.682C22.9644 5.40399 22.3544 5.88838 22.0494 6.51629H29.4947V2.58733H23.682L23.664 1.29562ZM12.6127 1.31356H17.4567C18.1384 1.18798 18.6407 0.578001 18.7663 0.00390625H11.2852C11.4287 0.578001 11.931 1.17004 12.6127 1.31356ZM12.6127 3.87905H17.4567C18.1384 3.75346 18.6407 3.14349 18.7663 2.56939H11.2852C11.4287 3.14349 11.931 3.73552 12.6127 3.87905ZM12.6127 6.51629H17.4567C18.1384 6.39071 18.6407 5.78074 18.7663 5.20664H11.2852C11.4287 5.78074 11.931 6.39071 12.6127 6.51629Z" fill="#2C00AB"/>
<path d="M0 0.0218467C0.143523 0.595942 0.645856 1.17004 1.30965 1.31356H3.35486L3.4625 1.34944V6.49836H4.73627V1.34944L4.84392 1.31356H6.88913C7.57086 1.13416 8.05526 0.595942 8.19878 0.0218467V0.00390625L0 0.0218467Z" fill="#2C00AB"/>
</g>
<defs>
<clipPath id="clip0_7316_15280">
<rect width="50" height="6.52" fill="white"/>
</clipPath>
</defs>
</svg>
