<svg width="49" height="32" viewBox="0 0 49 32" fill="none" xmlns="http://www.w3.org/2000/svg">
<path d="M22.7221 30.3024C20.1808 28.7109 18.3094 23.218 18.3094 16.6924C18.3094 16.4529 18.3104 16.2164 18.3165 15.981L18.3195 15.984C11.2523 14.8735 6.14535 11.83 6.015 8.23169L5.99378 8.27312C4.26385 10.4224 3.27662 12.9071 3.27662 15.5546C3.27662 23.3453 11.8282 29.7285 22.6756 30.2933L22.7221 30.3024ZM0.00976562 16.1235C0.00976562 7.40614 10.8582 0.337891 24.2409 0.337891C37.6235 0.337891 48.472 7.40614 48.472 16.1235C48.472 24.8408 37.6235 31.9091 24.2409 31.9091C10.8582 31.9091 0.00976562 24.8408 0.00976562 16.1235ZM24.2409 2.61549C26.8246 2.61549 29.0214 6.5341 29.8358 12.0028L29.8389 11.9947C34.865 11.2126 38.3844 9.40687 38.3844 7.30711C38.3844 4.4879 32.0518 2.20625 24.2409 2.20625C16.4299 2.20625 10.0973 4.48891 10.0973 7.30711C10.0973 9.40687 13.6158 11.2116 18.6429 11.9947L18.6459 12.0028C19.4603 6.53511 21.6581 2.61549 24.2409 2.61549ZM25.8051 30.2933C36.6525 29.7285 45.2051 23.3453 45.2051 15.5546C45.2051 12.9071 44.2169 10.4224 42.488 8.27312L42.4667 8.23169C42.3364 11.83 37.2305 14.8735 30.1622 15.984L30.1653 15.981C30.1703 16.2164 30.1723 16.4529 30.1723 16.6924C30.1723 23.218 28.2989 28.7109 25.7596 30.3024L25.8051 30.2933ZM24.2409 12.409C25.3989 12.409 26.5235 12.3595 27.5997 12.2645L27.5987 12.2655C27.0631 8.76017 25.7616 6.28653 24.2409 6.28653C22.7201 6.28653 21.4196 8.76017 20.8831 12.2655L20.8821 12.2645C21.9582 12.3595 23.0829 12.409 24.2409 12.409ZM24.2409 25.3895C26.186 25.3895 27.7725 21.3415 27.8573 16.2649L27.8674 16.268C26.6953 16.3761 25.4827 16.4337 24.2409 16.4337C22.999 16.4337 21.7864 16.3771 20.6143 16.268L20.6254 16.2649C20.7093 21.3426 22.2957 25.3895 24.2409 25.3895Z" fill="#2C00AB"/>
</svg>
