<svg width="37" height="37" viewBox="0 0 37 37" fill="none" xmlns="http://www.w3.org/2000/svg">
<path fill-rule="evenodd" clip-rule="evenodd" d="M18.494 0.550293C8.57658 0.550293 0.537109 8.59015 0.537109 18.5072C0.537109 28.4245 8.57677 36.4642 18.494 36.4642C28.4109 36.4642 36.451 28.4245 36.451 18.5072C36.451 8.59034 28.4109 0.550293 18.494 0.550293ZM18.494 34.8541C9.46576 34.8541 2.14712 27.5355 2.14712 18.5072C2.14712 9.47933 9.46576 2.16049 18.494 2.16049C27.5219 2.16049 34.841 9.47933 34.841 18.5072C34.841 27.5355 27.5219 34.8541 18.494 34.8541Z" fill="#2C00AB"/>
<path fill-rule="evenodd" clip-rule="evenodd" d="M14.9141 6.29375C16.0767 5.95432 17.2819 5.78257 18.493 5.7837C19.7341 5.7837 20.9339 5.96146 22.068 6.29279L18.493 14.2171L14.9141 6.29375Z" fill="#2C00AB"/>
<path fill-rule="evenodd" clip-rule="evenodd" d="M25.3228 7.77002C26.6626 8.62475 27.8316 9.72144 28.7699 11.004L22.9024 23.9885L20.6381 18.9539H16.3481L14.0841 23.9883L8.22495 10.992C9.16155 9.71443 10.3273 8.62199 11.6628 7.77021L16.3481 18.1643H20.6527L25.3228 7.77002ZM6.19973 15.2138C5.91331 16.288 5.76868 17.3951 5.76954 18.5068C5.76954 23.4931 8.63729 27.809 12.8135 29.8958L6.19973 15.2138Z" fill="#2C00AB"/>
<path fill-rule="evenodd" clip-rule="evenodd" d="M14.9727 30.7373C16.1171 31.0655 17.3019 31.2316 18.4925 31.2304C19.7123 31.2304 20.8917 31.0586 22.0082 30.7386L18.4925 22.9308L14.9727 30.7373ZM24.1716 29.8959C28.348 27.809 31.2158 23.4931 31.2158 18.5068C31.2158 17.3781 31.0687 16.2837 30.7932 15.2417L24.1716 29.8959Z" fill="#2C00AB"/>
</svg>
