<svg width="37" height="32" viewBox="0 0 37 32" fill="none" xmlns="http://www.w3.org/2000/svg">
<g clip-path="url(#clip0)">
<path fill-rule="evenodd" clip-rule="evenodd" d="M35.5564 0.0493164L35.6681 8.3236L35.1533 8.51888L33.5181 6.62285L30.952 9.05533C32.527 11.432 33.3669 14.2224 33.3633 17.0772C33.3631 25.1804 26.724 31.7441 18.5402 31.7441C10.3564 31.7441 3.7168 25.1802 3.7168 17.0769C3.7168 8.97355 10.3564 2.40968 18.5402 2.40968C21.5791 2.40968 24.4051 3.31476 26.7575 4.86759L29.052 2.64688L26.8749 1.06504L27.0304 0.535557L35.5564 0.0493164ZM27.8837 1.07376L29.9606 2.58286L26.8229 5.61966L26.6256 5.4848C24.329 3.91515 21.5439 2.99559 18.5402 2.99559C10.674 2.99559 4.30271 9.30309 4.30271 17.0769C4.30271 24.8507 10.674 31.1582 18.5402 31.1582C26.4065 31.1582 32.7774 24.8507 32.7774 17.0769V17.0765C32.7809 14.2568 31.927 11.5027 30.329 9.17953L30.187 8.97319L33.5607 5.77514L35.0714 7.52673L34.9788 0.66912L27.8837 1.07376ZM18.6184 7.44846C13.3878 7.44846 9.14641 11.7058 9.14641 16.9596C9.14641 22.2133 13.3876 26.4704 18.6182 26.4704C23.8483 26.4704 28.0901 22.2132 28.0901 16.9596C28.0901 11.7056 23.8485 7.44846 18.6184 7.44846ZM8.5605 16.9596C8.5605 11.3845 13.062 6.86255 18.6184 6.86255C24.1743 6.86255 28.6761 11.3843 28.6761 16.9596C28.6761 22.5346 24.1741 27.0563 18.6182 27.0563C13.0618 27.0563 8.5605 22.5346 8.5605 16.9596Z" fill="#2C00AB"/>
<path fill-rule="evenodd" clip-rule="evenodd" d="M34.2423 13.0923H2.99467C2.99467 13.0923 -2.86443 16.9204 2.99467 21.2166H34.2423C34.2423 21.2166 39.8667 17.311 34.2423 13.0923Z" fill="#2C00AB"/>
<path fill-rule="evenodd" clip-rule="evenodd" d="M2.86654 12.8966C2.90466 12.8717 2.94921 12.8584 2.99475 12.8584H34.2424C34.2931 12.8584 34.3424 12.8749 34.383 12.9053C35.8172 13.981 36.5599 15.0562 36.8412 16.0799C37.123 17.1054 36.9329 18.047 36.5639 18.8362C36.1963 19.6225 35.6482 20.265 35.1977 20.7081C34.9715 20.9304 34.7678 21.1046 34.6201 21.2236C34.5462 21.2831 34.4861 21.329 34.4441 21.3603C34.4231 21.3759 34.4066 21.3879 34.3951 21.3962C34.3893 21.4003 34.3848 21.4035 34.3816 21.4058C34.38 21.4069 34.3788 21.4078 34.3778 21.4084L34.3763 21.4095C34.3762 21.4096 34.3761 21.4097 34.2424 21.2171L34.3761 21.4097C34.3368 21.4369 34.2902 21.4515 34.2424 21.4515H2.99475C2.9449 21.4515 2.89634 21.4356 2.85614 21.4061C1.36435 20.3123 0.590816 19.2279 0.297519 18.1995C0.0033244 17.1679 0.201934 16.2264 0.587106 15.4407C0.970578 14.6584 1.54191 14.0232 2.01111 13.5865C2.24666 13.3673 2.45878 13.196 2.61259 13.0791C2.68955 13.0206 2.75207 12.9756 2.7958 12.9449C2.81767 12.9296 2.83486 12.9178 2.84683 12.9097C2.85281 12.9057 2.85749 12.9026 2.8608 12.9004C2.86245 12.8993 2.86376 12.8984 2.86472 12.8978L2.86589 12.897L2.86628 12.8967C2.86642 12.8966 2.86654 12.8966 2.99475 13.0928L2.86654 12.8966ZM3.06718 13.3272C3.06645 13.3277 3.0657 13.3283 3.06495 13.3288C3.02572 13.3563 2.96808 13.3977 2.89627 13.4523C2.75255 13.5615 2.55271 13.7229 2.33051 13.9297C1.88423 14.345 1.35698 14.9353 1.00807 15.6471C0.660852 16.3554 0.493267 17.1764 0.748363 18.0709C1.00068 18.9557 1.67584 19.945 3.0719 20.9827H34.1662C34.2037 20.9547 34.2583 20.913 34.326 20.8585C34.4639 20.7474 34.6557 20.5835 34.869 20.3738C35.2972 19.9527 35.8038 19.3551 36.1392 18.6377C36.4732 17.9232 36.6346 17.0973 36.3892 16.2041C36.1469 15.3225 35.4997 14.344 34.1638 13.3272H3.06718Z" fill="#2C00AB"/>
<path fill-rule="evenodd" clip-rule="evenodd" d="M2.11133 15.2388V15.8345H3.10831L5.05998 19.4225H7.46091L9.41258 15.8288L10.4096 15.8224L10.4116 15.2388H7.42886V15.8247H8.22303L6.84522 18.3752L5.35441 15.8335L6.44211 15.8288L6.43961 15.2388H2.11133Z" fill="#FFFFFB"/>
<path fill-rule="evenodd" clip-rule="evenodd" d="M13.0941 15.1187C11.3991 15.1187 10.0254 16.1084 10.0254 17.3281C10.0254 18.5479 11.3991 19.5372 13.0941 19.5372C14.7886 19.5372 16.1628 18.5479 16.1628 17.3281C16.1628 16.1084 14.7886 15.1187 13.0941 15.1187ZM13.0502 18.8758C12.6084 18.8758 12.2501 18.1621 12.2501 17.2827C12.2501 16.4026 12.6084 15.6889 13.0502 15.6889C13.4922 15.6889 13.8503 16.4026 13.8503 17.2827C13.8501 18.1621 13.4922 18.8758 13.0502 18.8758ZM32.3507 15.1187C30.6557 15.1187 29.2818 16.1084 29.2818 17.3281C29.2818 18.5479 30.6557 19.5372 32.3507 19.5372C34.0452 19.5372 35.4192 18.5479 35.4192 17.3281C35.4192 16.1084 34.0452 15.1187 32.3507 15.1187ZM32.3066 18.8758C31.8648 18.8758 31.5063 18.1621 31.5063 17.2827C31.5063 16.4026 31.8646 15.6889 32.3066 15.6889C32.7486 15.6889 33.1064 16.4026 33.1064 17.2827C33.1064 18.1621 32.7486 18.8758 32.3066 18.8758Z" fill="white"/>
<path fill-rule="evenodd" clip-rule="evenodd" d="M16.4507 15.2388V15.8342H17.4477L17.4495 18.7638H16.3984V19.417L17.45 19.4222H22.4281V17.4749H21.7796C21.7446 18.506 20.8315 18.7651 20.448 18.7651C20.0958 18.7651 19.4132 18.7638 19.4132 18.7638V15.8335L20.3954 15.8288L20.3936 15.2388H16.4507Z" fill="#FEFBF9"/>
<path fill-rule="evenodd" clip-rule="evenodd" d="M21.3574 15.2388V15.8345H22.3549L24.3065 19.4225H26.7075L28.6591 15.8288L29.6561 15.8224L29.6584 15.2388H26.6756V15.8247H27.4691L26.092 18.3752L24.6014 15.8335L25.6884 15.8288L25.6862 15.2388H21.3574Z" fill="#FFFFFB"/>
</g>
<defs>
<clipPath id="clip0">
<rect width="37" height="31.9709" fill="white"/>
</clipPath>
</defs>
</svg>
