<svg width="45" height="45" viewBox="0 0 45 45" fill="none" xmlns="http://www.w3.org/2000/svg">
<circle cx="22.5" cy="22.5" r="22.5" fill="#EBEFFF"/>
<path d="M24.3974 33.4194C24.7991 33.0251 25 32.5556 25 32.0108C25 31.466 24.7991 30.9964 24.3974 30.6022C24.0026 30.2007 23.5385 30 23.0052 30C22.4649 30 21.9939 30.2007 21.5922 30.6022C21.1974 30.9964 21 31.466 21 32.0108C21 32.5556 21.1974 33.0251 21.5922 33.4194C21.9939 33.8065 22.4649 34 23.0052 34C23.5385 34 24.0026 33.8065 24.3974 33.4194Z" fill="#2C00AB"/>
<path d="M26 14.0214C26 14.4654 25.9229 15.0556 25.7686 15.792C25.6247 16.5175 25.4396 17.373 25.2134 18.3585C24.9974 19.2898 24.7506 20.4539 24.473 21.8509C24.1954 23.237 23.9023 24.9534 23.5938 27.0001H22.4062C22.0977 24.9318 21.8046 23.2099 21.527 21.8346C21.2494 20.4593 21.0026 19.306 20.7866 18.3747C20.5913 17.5192 20.4113 16.6854 20.2468 15.8732C20.0823 15.0502 20 14.4329 20 14.0214C20 13.1876 20.2931 12.4783 20.8792 11.8935C21.4653 11.2979 22.1697 11.0001 22.9923 11.0001C23.8046 11.0001 24.509 11.2979 25.1054 11.8935C25.7018 12.4783 26 13.1876 26 14.0214Z" fill="#2C00AB"/>
</svg>
