<?xml version="1.0" standalone="no"?>
<!DOCTYPE svg PUBLIC "-//W3C//DTD SVG 20010904//EN"
 "http://www.w3.org/TR/2001/REC-SVG-20010904/DTD/svg10.dtd">
<svg version="1.0" xmlns="http://www.w3.org/2000/svg"
 width="700.000000pt" height="700.000000pt" viewBox="0 0 700.000000 700.000000"
 preserveAspectRatio="xMidYMid meet">
<metadata>
Created by potrace 1.14, written by Peter Selinger 2001-2017
</metadata>
<g transform="translate(0.000000,700.000000) scale(0.100000,-0.100000)"
fill="#000000" stroke="none">
<path d="M3003 6989 c-136 -23 -311 -112 -423 -216 -109 -101 -207 -255 -244
-384 -9 -30 -284 -1334 -612 -2899 -656 -3133 -622 -2948 -576 -3095 68 -220
254 -346 510 -346 214 1 411 88 568 253 122 127 178 243 224 467 523 2521 632
3027 653 3044 97 79 233 153 347 188 88 27 233 32 320 10 218 -54 360 -231
360 -449 0 -25 -106 -577 -236 -1226 -216 -1081 -237 -1192 -241 -1312 -7
-156 7 -264 48 -387 114 -343 412 -543 874 -587 141 -13 273 -13 371 1 89 12
286 69 347 101 129 65 237 262 291 530 26 128 26 129 -55 54 -102 -94 -162
-121 -269 -121 -205 0 -302 117 -301 365 0 97 19 194 241 1285 146 715 246
1225 252 1294 26 257 -35 524 -163 712 -244 362 -704 501 -1236 374 -250 -60
-536 -198 -805 -390 -43 -31 -78 -51 -78 -44 0 6 104 495 231 1087 211 983
232 1086 232 1177 2 162 -43 277 -147 380 -118 118 -291 166 -483 134z"/>
</g>
</svg>
